<svg width="50" height="50"
id="Capa_1" data-name="Capa 1" xmlns="http://www.w3.org/2000/svg" viewBox="0 0 35 35"><defs><style>.cls-1{fill:#1e272f;}</style></defs><title>bci2000</title><path class="cls-1" d="M14.76,12H13.11v1.51h1.65a1.57,1.57,0,0,0,.84-.18.63.63,0,0,0,.28-.57Q15.88,12,14.76,12Z"/><path class="cls-1" d="M15.31,10.79a.61.61,0,0,0,.27-.54.6.6,0,0,0-.27-.54,1.45,1.45,0,0,0-.79-.18h-1.4V11h1.4A1.42,1.42,0,0,0,15.31,10.79Z"/><path class="cls-1" d="M20.83,16.35a.66.66,0,0,0-.58.32,1.83,1.83,0,0,0-.21,1,1.83,1.83,0,0,0,.21,1,.69.69,0,0,0,1.17,0,1.82,1.82,0,0,0,.21-1,1.82,1.82,0,0,0-.21-1A.67.67,0,0,0,20.83,16.35Z"/><path class="cls-1" d="M16.86,16.35a.66.66,0,0,0-.58.32,1.83,1.83,0,0,0-.21,1,1.83,1.83,0,0,0,.21,1,.69.69,0,0,0,1.17,0,1.83,1.83,0,0,0,.21-1,1.83,1.83,0,0,0-.21-1A.67.67,0,0,0,16.86,16.35Z"/><path class="cls-1" d="M31.3,14.44C29.24,5.94,22.46,4,22.46,4,21,3,13.7,3.19,10.09,4.9S5.8,8.6,4.43,10.31a5.6,5.6,0,0,0,.94,7.56c2.67,2.23,4.29.77,4.38,2s1.12,3,2.4,3.18,3.18.77,3.95.86,5.07,7.73,5.07,7.73l3-1.12L23,27.77a12,12,0,0,0,4.44-1.66c2.15-1.37,1.9-4.28,1.9-4.28C31,20.55,32.24,18.32,31.3,14.44Zm-6.53-6h1.41v6.11H24.77Zm-10,11.25h-3.1V19.1l1.58-1.49a1.67,1.67,0,0,0,.34-.41.75.75,0,0,0,.09-.34.45.45,0,0,0-.17-.38.78.78,0,0,0-.49-.13,1.12,1.12,0,0,0-.49.1.93.93,0,0,0-.36.31l-.69-.44a1.62,1.62,0,0,1,.66-.56,2.21,2.21,0,0,1,1-.2,2,2,0,0,1,.8.15,1.24,1.24,0,0,1,.53.42,1.09,1.09,0,0,1,.19.64,1.43,1.43,0,0,1-.14.63,2.41,2.41,0,0,1-.54.67l-.94.89h1.76Zm-3-5.14V8.47h3a2.92,2.92,0,0,1,1.71.43,1.35,1.35,0,0,1,.6,1.16,1.47,1.47,0,0,1-.81,1.34A1.61,1.61,0,0,1,17,12a1.53,1.53,0,0,1,.3,1,1.41,1.41,0,0,1-.62,1.23,3.19,3.19,0,0,1-1.82.43Zm6.69,4.23a1.69,1.69,0,0,1-.62.73,1.76,1.76,0,0,1-1.82,0,1.69,1.69,0,0,1-.62-.73,3,3,0,0,1,0-2.28,1.69,1.69,0,0,1,.62-.73,1.76,1.76,0,0,1,1.82,0,1.69,1.69,0,0,1,.62.73,3,3,0,0,1,0,2.28Zm4,0a1.68,1.68,0,0,1-.62.73,1.76,1.76,0,0,1-1.81,0,1.69,1.69,0,0,1-.62-.73,3,3,0,0,1,0-2.28,1.69,1.69,0,0,1,.62-.73,1.76,1.76,0,0,1,1.81,0,1.68,1.68,0,0,1,.62.73,3,3,0,0,1,0,2.28Zm.37-4.41a3.6,3.6,0,0,1-1.44.28,3.51,3.51,0,0,1-1.69-.41,3,3,0,0,1-1.19-1.13,3.28,3.28,0,0,1,0-3.25,3,3,0,0,1,1.19-1.13,3.52,3.52,0,0,1,1.7-.41,3.56,3.56,0,0,1,1.43.28,2.88,2.88,0,0,1,1.08.8l-.91.84a2,2,0,0,0-1.54-.72,2,2,0,0,0-1,.25,1.77,1.77,0,0,0-.69.69,2.19,2.19,0,0,0,0,2,1.77,1.77,0,0,0,.69.69,2,2,0,0,0,1,.25,1.94,1.94,0,0,0,1.54-.72l.91.84A2.83,2.83,0,0,1,22.74,14.4Zm3.6,4.41a1.68,1.68,0,0,1-.62.73,1.76,1.76,0,0,1-1.81,0,1.68,1.68,0,0,1-.62-.73,3,3,0,0,1,0-2.28,1.68,1.68,0,0,1,.62-.73,1.76,1.76,0,0,1,1.81,0,1.68,1.68,0,0,1,.62.73,3,3,0,0,1,0,2.28Z"/><path class="cls-1" d="M24.81,16.35a.66.66,0,0,0-.58.32,1.83,1.83,0,0,0-.21,1,1.83,1.83,0,0,0,.21,1,.69.69,0,0,0,1.17,0,1.82,1.82,0,0,0,.21-1,1.82,1.82,0,0,0-.21-1A.67.67,0,0,0,24.81,16.35Z"/></svg>