<svg id="pagina_web" data-name="pagina web" xmlns="http://www.w3.org/2000/svg" viewBox="0 0 1726.92 1726.92"><defs><style>.cls-1{fill:#262b32;}.cls-2{fill:#23b59c;stroke:#262b32;stroke-miterlimit:10;stroke-width:2px;}.cls-3{fill:#fff;}.cls-4{fill:#2e333a;}</style></defs><title>cognitask-descarga</title><rect class="cls-1" width="1726.92" height="1726.92" rx="75.23" ry="75.23"/><rect class="cls-2" x="186.84" y="204.05" width="393.94" height="393.94" rx="10.9" ry="10.9" transform="translate(-25.81 26.4) rotate(-3.81)"/><path class="cls-3" d="M394.85,472.67q-31.28,2.08-53.06-17.35T318,405.41q-2-30.69,17-52.73t50.29-24.13a70.82,70.82,0,0,1,35.33,6.5A64.68,64.68,0,0,1,447,357.24l-22.65,15.23a36.69,36.69,0,0,0-15.62-13.58A43.61,43.61,0,0,0,387,355.07q-20.19,1.35-31.72,14.84T345.11,403.6q1.33,20,14.55,31.84t33.41,10.5a44.15,44.15,0,0,0,21.13-6.68,35.54,35.54,0,0,0,13.6-15.32L452.27,436a64.82,64.82,0,0,1-23.16,25.51A70.62,70.62,0,0,1,394.85,472.67Z"/><rect class="cls-4" x="666.49" y="216.01" width="393.94" height="393.94" rx="10.9" ry="10.9"/><path class="cls-3" d="M914.55,464.27q-21,20.94-51.19,20.93t-51.09-20.93Q791.33,443.34,791.33,413t20.93-51.29q20.93-20.93,51.09-20.93t51.19,20.93q21,20.94,21,51.29T914.55,464.27Zm-83.14-18.65q12.9,12.8,31.95,12.8t31.95-12.8q12.9-12.8,12.9-32.64t-12.9-32.74q-12.9-12.9-31.95-12.9t-31.95,12.9q-12.9,12.9-12.9,32.74T831.42,445.62Z"/><rect class="cls-4" x="1134.18" y="216.01" width="393.94" height="393.94" rx="10.9" ry="10.9"/><path class="cls-3" d="M1402.48,407.82v10.71q0,29.76-19,48.22t-49.21,18.45q-32.14,0-53.28-20.93t-21.13-51.09q0-30.36,20.93-51.39t51.89-21a72.56,72.56,0,0,1,35.52,8.83,65.45,65.45,0,0,1,25,23.51l-23.41,13.49a36.88,36.88,0,0,0-15-13.89,46.59,46.59,0,0,0-22.32-5.36q-19.84,0-32.64,13T1287,413.18q0,19.64,13,32.44t34.43,12.8q15.87,0,26.29-7A35,35,0,0,0,1374.9,432h-42.06V407.82Z"/><rect class="cls-4" x="198.8" y="666.49" width="393.94" height="393.94" rx="10.9" ry="10.9"/><path class="cls-3" d="M422.26,794h27.38V932.91H428.81L369.28,848v84.92H341.9V794h20.81l59.55,84.61Z"/><rect class="cls-4" x="666.49" y="666.49" width="393.94" height="393.94" rx="10.9" ry="10.9"/><path class="cls-3" d="M849.77,794h27.38V932.91H849.77Z"/><rect class="cls-4" x="1134.18" y="666.49" width="393.94" height="393.94" rx="10.9" ry="10.9"/><path class="cls-3" d="M1382.24,794V820.2h-37.5v112.7h-27.38V820.2h-37.3V794Z"/><rect class="cls-4" x="198.8" y="1116.97" width="393.94" height="393.94" rx="10.9" ry="10.9"/><path class="cls-3" d="M433.78,1383.39l-8.83-25H367.9l-8.33,25H330l48.61-138.89h33.93l49,138.89Zm-57-50.6h39.09l-20-56.75Z"/><rect class="cls-4" x="666.49" y="1116.97" width="393.94" height="393.94" rx="10.9" ry="10.9"/><path class="cls-3" d="M865.54,1386.16q-20.64,0-34.72-9.23a49.32,49.32,0,0,1-19.84-25.1l23.41-13.69q8.13,21.23,31.95,21.23,11.5,0,16.87-4.17a12.79,12.79,0,0,0,5.36-10.52q0-7.34-6.55-11.41t-23.41-8.83a144.52,144.52,0,0,1-15.77-5.56,67.81,67.81,0,0,1-12.9-7.44,30.32,30.32,0,0,1-9.82-11.81,38.62,38.62,0,0,1-3.37-16.67q0-18.85,13.39-30.06t32.24-11.21q16.86,0,29.66,8.23A55.35,55.35,0,0,1,912,1272.87l-23,13.29q-8.33-17.86-26.59-17.86-8.53,0-13.39,3.87a12.22,12.22,0,0,0-4.86,10,12.64,12.64,0,0,0,5.46,10.62q5.46,4.07,20.93,8.83,6.35,2,9.62,3.08t8.93,3.37a54.17,54.17,0,0,1,8.73,4.27,69.48,69.48,0,0,1,7,5.36,27.5,27.5,0,0,1,6.05,6.94,39.74,39.74,0,0,1,5.06,19.64q0,19.25-14,30.56T865.54,1386.16Z"/><rect class="cls-4" x="1134.18" y="1116.97" width="393.94" height="393.94" rx="10.9" ry="10.9"/><path class="cls-3" d="M1385.42,1383.39h-31.55l-49.6-65.06v65.06h-27.38V1244.49h27.38v61.2l47.62-61.2h31.55L1332,1312Z"/></svg>