<svg id="Capa_1" data-name="Capa 1" xmlns="http://www.w3.org/2000/svg" viewBox="0 0 962.17 595.83"><defs><style>.cls-1{fill:#1e272f;}.cls-2{fill:#f3f3f7;}.cls-3{fill:#fff;}.cls-4{fill:#727c8e;}.cls-5{fill:#00b59b;}.cls-6{fill:#f1f1f1;}.cls-7{opacity:0.1;}.cls-8{fill:none;}</style></defs><title>interfaz_profesional</title><rect class="cls-1" width="962.17" height="595.83" rx="12.95" ry="12.95"/><rect class="cls-2" x="157.28" y="8.52" width="794.43" height="576.42" rx="4.7" ry="4.7"/><path class="cls-3" d="M647.78,584.94H162a4.7,4.7,0,0,1-4.7-4.7v-567a4.7,4.7,0,0,1,4.7-4.7h485.8Z"/><path class="cls-1" d="M361.51,527.31h-113a3.59,3.59,0,0,1-3.59-3.59V470.31a3.59,3.59,0,0,1,3.59-3.59h113a3.59,3.59,0,0,1,3.59,3.59v53.41A3.59,3.59,0,0,1,361.51,527.31Zm-113-59.73a2.73,2.73,0,0,0-2.73,2.73v53.41a2.73,2.73,0,0,0,2.73,2.73h113a2.73,2.73,0,0,0,2.73-2.73V470.31a2.73,2.73,0,0,0-2.73-2.73Z"/><path class="cls-1" d="M283,498.43l-1.21,3.68h-1.56l4-11.69h1.82l4,11.69h-1.61l-1.25-3.68Zm3.83-1.18-1.14-3.36c-.26-.76-.43-1.46-.61-2.13h0c-.17.69-.36,1.4-.59,2.12l-1.14,3.38Z"/><path class="cls-1" d="M291.66,496.45c0-1.08,0-1.94-.07-2.74H293l.07,1.44h0a3.3,3.3,0,0,1,3-1.63c2,0,3.56,1.72,3.56,4.27,0,3-1.84,4.51-3.82,4.51A2.94,2.94,0,0,1,293.2,501h0v4.56h-1.51Zm1.51,2.24a3.44,3.44,0,0,0,.07.62,2.36,2.36,0,0,0,2.29,1.79c1.61,0,2.55-1.32,2.55-3.24,0-1.68-.88-3.12-2.5-3.12a2.44,2.44,0,0,0-2.31,1.89,2.47,2.47,0,0,0-.1.62Z"/><path class="cls-1" d="M301.53,489.79h1.53v12.31h-1.53Z"/><path class="cls-1" d="M307.32,491.35a.95.95,0,0,1-1.89,0,.93.93,0,0,1,1-1A.91.91,0,0,1,307.32,491.35Zm-1.7,10.75v-8.39h1.53v8.39Z"/><path class="cls-1" d="M315.66,501.79a5.62,5.62,0,0,1-2.41.49,4,4,0,0,1-4.18-4.28,4.27,4.27,0,0,1,4.51-4.46,5.1,5.1,0,0,1,2.12.43l-.35,1.18a3.54,3.54,0,0,0-1.77-.4,3.16,3.16,0,0,0-.05,6.31,4.33,4.33,0,0,0,1.87-.42Z"/><path class="cls-1" d="M322.1,502.11,322,501h-.05a3.13,3.13,0,0,1-2.57,1.25,2.39,2.39,0,0,1-2.57-2.41c0-2,1.8-3.14,5-3.12v-.17a1.73,1.73,0,0,0-1.91-1.94,4.18,4.18,0,0,0-2.19.62l-.35-1a5.21,5.21,0,0,1,2.76-.75c2.57,0,3.19,1.75,3.19,3.43v3.14a11.82,11.82,0,0,0,.14,2Zm-.23-4.28c-1.66,0-3.56.26-3.56,1.89a1.35,1.35,0,0,0,1.44,1.46,2.09,2.09,0,0,0,2-1.4,1.6,1.6,0,0,0,.09-.49Z"/><path class="cls-1" d="M325.81,496.33c0-1,0-1.84-.07-2.62h1.34l.05,1.65h.07a2.52,2.52,0,0,1,2.32-1.84,1.66,1.66,0,0,1,.43.05V495a2.3,2.3,0,0,0-.52-.05,2.14,2.14,0,0,0-2,2,4.32,4.32,0,0,0-.07.71v4.48h-1.51Z"/><path class="cls-1" d="M483.72,229.18H246a.81.81,0,0,1-.81-.81V204.2a.81.81,0,0,1,.81-.81H483.72a.81.81,0,0,1,.81.81v24.17A.81.81,0,0,1,483.72,229.18ZM246,203.83a.38.38,0,0,0-.38.38v24.17a.38.38,0,0,0,.38.38H483.72a.38.38,0,0,0,.38-.38V204.2a.38.38,0,0,0-.38-.38Z"/><path class="cls-1" d="M258,175.53v12.31h-.93V176.9l-4.56,7.56h-.16l-4.56-7.57v10.94h-.93V175.53h1.17l4.39,7.3,4.39-7.3Z"/><path class="cls-1" d="M265,188a4.49,4.49,0,0,1-3.28-1.33,4.63,4.63,0,0,1,0-6.53,4.69,4.69,0,0,1,6.54,0,4.63,4.63,0,0,1,0,6.53A4.47,4.47,0,0,1,265,188Zm-2.65-1.94a3.75,3.75,0,0,0,5.29,0,3.82,3.82,0,0,0,0-5.31,3.75,3.75,0,0,0-5.29,0,3.8,3.8,0,0,0,0,5.31Z"/><path class="cls-1" d="M279.44,175.53h.88v12.31h-.88v-2a4.09,4.09,0,0,1-1.54,1.64,4.26,4.26,0,0,1-2.24.6,4.59,4.59,0,0,1,0-9.18,4.27,4.27,0,0,1,2.24.6,4.1,4.1,0,0,1,1.54,1.64Zm-6.38,10.57a3.76,3.76,0,0,0,5.29,0,3.8,3.8,0,0,0,0-5.31,3.76,3.76,0,0,0-5.29,0,3.8,3.8,0,0,0,0,5.31Z"/><path class="cls-1" d="M287.06,188a4.49,4.49,0,0,1-3.28-1.33,4.63,4.63,0,0,1,0-6.53,4.69,4.69,0,0,1,6.54,0,4.63,4.63,0,0,1,0,6.53A4.47,4.47,0,0,1,287.06,188Zm-2.65-1.94a3.75,3.75,0,0,0,5.29,0,3.82,3.82,0,0,0,0-5.31,3.75,3.75,0,0,0-5.29,0,3.8,3.8,0,0,0,0,5.31Z"/><path class="cls-1" d="M306.23,175.53h.88v12.31h-.88v-2a4.09,4.09,0,0,1-1.54,1.64,4.26,4.26,0,0,1-2.24.6,4.59,4.59,0,0,1,0-9.18,4.27,4.27,0,0,1,2.24.6,4.1,4.1,0,0,1,1.54,1.64Zm-6.38,10.57a3.76,3.76,0,0,0,5.29,0,3.8,3.8,0,0,0,0-5.31,3.76,3.76,0,0,0-5.29,0,3.8,3.8,0,0,0,0,5.31Z"/><path class="cls-1" d="M313.78,178.85a4,4,0,0,1,3.14,1.37,4.77,4.77,0,0,1,1.21,3.25s0,.12,0,.21,0,.16,0,.21h-8a3.56,3.56,0,0,0,1.19,2.38,4.05,4.05,0,0,0,4.39.47,3,3,0,0,0,1.2-1.16l.77.46a3.9,3.9,0,0,1-1.55,1.45,4.77,4.77,0,0,1-2.29.54,4.52,4.52,0,0,1-3.32-1.29,4.45,4.45,0,0,1-1.3-3.3,4.52,4.52,0,0,1,1.28-3.28A4.38,4.38,0,0,1,313.78,178.85Zm0,.84a3.53,3.53,0,0,0-2.5.93,3.64,3.64,0,0,0-1.14,2.41h7.07a3.61,3.61,0,0,0-1.12-2.45A3.32,3.32,0,0,0,313.78,179.7Z"/><path class="cls-1" d="M329.38,179.91h-2.62v5.72a1.69,1.69,0,0,0,.28,1.09,1.19,1.19,0,0,0,.86.38,8.8,8.8,0,0,0,1.48,0v.79a4.15,4.15,0,0,1-2.65-.25,2.09,2.09,0,0,1-.87-2v-5.72h-1.94V179h1.94v-2.2l.9-.26V179h2.62Z"/><path class="cls-1" d="M334.92,178.85a4,4,0,0,1,3.14,1.37,4.77,4.77,0,0,1,1.21,3.25s0,.12,0,.21,0,.16,0,.21h-8a3.56,3.56,0,0,0,1.19,2.38,4.05,4.05,0,0,0,4.39.47,3,3,0,0,0,1.2-1.16l.77.46a3.9,3.9,0,0,1-1.55,1.45A4.77,4.77,0,0,1,335,188a4.52,4.52,0,0,1-3.32-1.29,4.45,4.45,0,0,1-1.3-3.3,4.52,4.52,0,0,1,1.28-3.28A4.38,4.38,0,0,1,334.92,178.85Zm0,.84a3.53,3.53,0,0,0-2.5.93,3.64,3.64,0,0,0-1.14,2.41h7.07a3.61,3.61,0,0,0-1.12-2.45A3.32,3.32,0,0,0,334.92,179.7Z"/><path class="cls-1" d="M342.21,180.77a2.92,2.92,0,0,1,2.94-1.85v.84a2.93,2.93,0,0,0-2.09.8,3.13,3.13,0,0,0-.84,2.38v4.89h-.88V179h.88Z"/><path class="cls-1" d="M354.13,179h.9v8.8h-.9v-2a4.15,4.15,0,0,1-1.55,1.6,4.32,4.32,0,0,1-2.23.58,4.59,4.59,0,0,1,0-9.18,4.32,4.32,0,0,1,2.23.58,4.15,4.15,0,0,1,1.55,1.6Zm-6.36,7.05a3.75,3.75,0,0,0,5.29,0,3.82,3.82,0,0,0,0-5.31,3.75,3.75,0,0,0-5.29,0,3.8,3.8,0,0,0,0,5.31Z"/><path class="cls-1" d="M362.4,178.85a4.59,4.59,0,0,1,0,9.18,4.26,4.26,0,0,1-2.24-.6,4.09,4.09,0,0,1-1.54-1.64v5.56h-.88V179h.88v2a4.1,4.1,0,0,1,1.54-1.64A4.27,4.27,0,0,1,362.4,178.85Zm-2.7,7.25a3.76,3.76,0,0,0,5.29,0,3.8,3.8,0,0,0,0-5.31,3.76,3.76,0,0,0-5.29,0,3.8,3.8,0,0,0,0,5.31Z"/><path class="cls-1" d="M370,176.72a.7.7,0,0,1-1,0,.67.67,0,0,1-.21-.5.65.65,0,0,1,.21-.48.7.7,0,0,1,1,0,.65.65,0,0,1,.21.48A.67.67,0,0,1,370,176.72Zm-.93,11.13V179H370v8.8Z"/><path class="cls-1" d="M380.41,179h.9v8.8h-.9v-2a4.15,4.15,0,0,1-1.55,1.6,4.32,4.32,0,0,1-2.23.58,4.59,4.59,0,0,1,0-9.18,4.32,4.32,0,0,1,2.23.58,4.15,4.15,0,0,1,1.55,1.6Zm-6.36,7.05a3.75,3.75,0,0,0,5.29,0,3.82,3.82,0,0,0,0-5.31,3.75,3.75,0,0,0-5.29,0,3.8,3.8,0,0,0,0,5.31Z"/><path class="cls-3" d="M24.94,237V225.19h1.67l3.8,6A33.57,33.57,0,0,1,32.54,235l0,0c-.14-1.58-.18-3-.18-4.87v-5h1.44V237H32.29l-3.77-6a37.63,37.63,0,0,1-2.22-4l-.05,0c.09,1.5.12,2.92.12,4.89V237Z"/><path class="cls-3" d="M43.58,234.73c0,.88,0,1.65.07,2.32H42.28l-.09-1.39h0a3.2,3.2,0,0,1-2.82,1.58c-1.34,0-2.94-.74-2.94-3.73v-5H38v4.72c0,1.62.49,2.71,1.9,2.71a2.24,2.24,0,0,0,2-1.41,2.26,2.26,0,0,0,.14-.79v-5.23h1.55Z"/><path class="cls-3" d="M47,233.07a2.73,2.73,0,0,0,2.92,3,5.6,5.6,0,0,0,2.36-.44l.26,1.11a6.9,6.9,0,0,1-2.83.53,4,4,0,0,1-4.19-4.29c0-2.57,1.51-4.59,4-4.59,2.78,0,3.52,2.45,3.52,4a5.91,5.91,0,0,1-.05.72ZM51.55,232a2.2,2.2,0,0,0-2.15-2.52A2.57,2.57,0,0,0,47,232Z"/><path class="cls-3" d="M55.56,228.53l1.67,4.79a22,22,0,0,1,.69,2.18H58c.19-.7.44-1.41.72-2.18l1.65-4.79H62L58.62,237H57.15l-3.24-8.52Z"/><path class="cls-3" d="M68.07,237,67.95,236h-.05a3.17,3.17,0,0,1-2.6,1.27,2.43,2.43,0,0,1-2.6-2.45c0-2.06,1.83-3.18,5.12-3.17v-.18a1.76,1.76,0,0,0-1.94-2,4.24,4.24,0,0,0-2.22.63l-.35-1a5.28,5.28,0,0,1,2.8-.76c2.6,0,3.24,1.78,3.24,3.48V235a12,12,0,0,0,.14,2Zm-.23-4.35c-1.69,0-3.61.26-3.61,1.92a1.37,1.37,0,0,0,1.46,1.48,2.12,2.12,0,0,0,2.06-1.43,1.61,1.61,0,0,0,.09-.49Z"/><path class="cls-3" d="M75.35,235.47a4.06,4.06,0,0,0,2,.62c1.13,0,1.65-.56,1.65-1.27s-.44-1.14-1.58-1.57c-1.53-.55-2.25-1.39-2.25-2.41,0-1.37,1.11-2.5,2.94-2.5a4.25,4.25,0,0,1,2.09.53L79.86,230a3.32,3.32,0,0,0-1.74-.49c-.91,0-1.43.53-1.43,1.16s.51,1,1.62,1.44c1.48.56,2.23,1.3,2.23,2.57,0,1.5-1.16,2.55-3.18,2.55a4.86,4.86,0,0,1-2.39-.58Z"/><path class="cls-3" d="M83.39,233.07a2.73,2.73,0,0,0,2.92,3,5.6,5.6,0,0,0,2.36-.44l.26,1.11a6.9,6.9,0,0,1-2.83.53,4,4,0,0,1-4.19-4.29c0-2.57,1.51-4.59,4-4.59,2.78,0,3.52,2.45,3.52,4a5.91,5.91,0,0,1-.05.72ZM87.93,232a2.2,2.2,0,0,0-2.15-2.52A2.57,2.57,0,0,0,83.41,232Z"/><path class="cls-3" d="M91.13,235.47a4.06,4.06,0,0,0,2,.62c1.13,0,1.65-.56,1.65-1.27s-.44-1.14-1.58-1.57c-1.53-.55-2.25-1.39-2.25-2.41,0-1.37,1.11-2.5,2.94-2.5a4.25,4.25,0,0,1,2.09.53L95.64,230a3.32,3.32,0,0,0-1.74-.49c-.91,0-1.43.53-1.43,1.16s.51,1,1.62,1.44c1.48.56,2.23,1.3,2.23,2.57,0,1.5-1.16,2.55-3.18,2.55a4.86,4.86,0,0,1-2.39-.58Z"/><path class="cls-3" d="M100,226.14a1,1,0,0,1-1.92,0,.94.94,0,0,1,1-1A.92.92,0,0,1,100,226.14ZM98.31,237v-8.52h1.55V237Z"/><path class="cls-3" d="M110.13,232.72a4.16,4.16,0,0,1-4.24,4.52,4,4,0,0,1-4.08-4.38,4.16,4.16,0,0,1,4.22-4.52A4,4,0,0,1,110.13,232.72Zm-6.76.09c0,1.86,1.07,3.27,2.59,3.27s2.59-1.39,2.59-3.31c0-1.44-.72-3.27-2.55-3.27S103.37,231.19,103.37,232.81Zm4.91-8-2.15,2.52H105l1.55-2.52Z"/><path class="cls-3" d="M112.08,230.84c0-.88,0-1.6-.07-2.3h1.37l.09,1.41h0a3.13,3.13,0,0,1,2.81-1.6c1.18,0,3,.7,3,3.62V237h-1.55v-4.91c0-1.37-.51-2.52-2-2.52a2.2,2.2,0,0,0-2.08,1.58,2.22,2.22,0,0,0-.11.72V237h-1.55Z"/><path class="cls-3" d="M33.22,294.7a7.6,7.6,0,0,1-3.13.56c-3.34,0-5.86-2.11-5.86-6A5.9,5.9,0,0,1,30.42,283a6.36,6.36,0,0,1,2.82.53l-.37,1.25a5.57,5.57,0,0,0-2.39-.49c-2.78,0-4.63,1.78-4.63,4.89,0,2.9,1.67,4.77,4.56,4.77a6.13,6.13,0,0,0,2.5-.49Z"/><path class="cls-3" d="M39.68,295.09,39.55,294H39.5a3.17,3.17,0,0,1-2.6,1.27,2.43,2.43,0,0,1-2.6-2.45c0-2.06,1.83-3.18,5.12-3.17v-.18a1.76,1.76,0,0,0-1.94-2,4.24,4.24,0,0,0-2.22.63l-.35-1a5.28,5.28,0,0,1,2.8-.76c2.6,0,3.24,1.78,3.24,3.48V293a12,12,0,0,0,.14,2Zm-.23-4.35c-1.69,0-3.61.26-3.61,1.92a1.37,1.37,0,0,0,1.46,1.48,2.12,2.12,0,0,0,2.06-1.43,1.61,1.61,0,0,0,.09-.49Z"/><path class="cls-3" d="M43.44,282.6H45v12.49H43.44Z"/><path class="cls-3" d="M49.32,284.18a1,1,0,0,1-1.92,0,.94.94,0,0,1,1-1A.92.92,0,0,1,49.32,284.18Zm-1.72,10.91v-8.52h1.55v8.52Z"/><path class="cls-3" d="M51.64,295.09c0-.58.07-1.44.07-2.2V282.6h1.53v5.35h0a3.17,3.17,0,0,1,2.9-1.57c2.11,0,3.61,1.76,3.59,4.35,0,3-1.92,4.56-3.82,4.56a3,3,0,0,1-2.85-1.6H53L53,295.09Zm1.6-3.41a2.88,2.88,0,0,0,.07.56,2.39,2.39,0,0,0,2.32,1.81c1.62,0,2.59-1.32,2.59-3.27,0-1.71-.88-3.17-2.53-3.17a2.47,2.47,0,0,0-2.36,1.9,3.06,3.06,0,0,0-.09.63Z"/><path class="cls-3" d="M61.72,289.23c0-1,0-1.86-.07-2.66H63l.05,1.67h.07a2.56,2.56,0,0,1,2.36-1.86,1.68,1.68,0,0,1,.44.05v1.46a2.33,2.33,0,0,0-.53-.05,2.17,2.17,0,0,0-2.08,2,4.34,4.34,0,0,0-.07.72v4.54H61.72Z"/><path class="cls-3" d="M72.1,295.09,72,294h-.05a3.17,3.17,0,0,1-2.6,1.27,2.43,2.43,0,0,1-2.6-2.45c0-2.06,1.83-3.18,5.12-3.17v-.18a1.76,1.76,0,0,0-1.94-2,4.24,4.24,0,0,0-2.22.63l-.35-1a5.28,5.28,0,0,1,2.8-.76c2.6,0,3.24,1.78,3.24,3.48V293a12,12,0,0,0,.14,2Zm-.23-4.35c-1.69,0-3.61.26-3.61,1.92a1.37,1.37,0,0,0,1.46,1.48,2.12,2.12,0,0,0,2.06-1.43,1.61,1.61,0,0,0,.09-.49Z"/><path class="cls-3" d="M81.93,294.77a5.7,5.7,0,0,1-2.45.49,4,4,0,0,1-4.24-4.35,4.33,4.33,0,0,1,4.57-4.52,5.18,5.18,0,0,1,2.15.44l-.35,1.2a3.59,3.59,0,0,0-1.79-.4,3.21,3.21,0,0,0-.05,6.4,4.4,4.4,0,0,0,1.9-.42Z"/><path class="cls-3" d="M85.47,284.18a1,1,0,0,1-1.92,0,.94.94,0,0,1,1-1A.92.92,0,0,1,85.47,284.18Zm-1.72,10.91v-8.52h1.55v8.52Z"/><path class="cls-3" d="M95.57,290.76a4.16,4.16,0,0,1-4.24,4.52,4,4,0,0,1-4.08-4.38,4.16,4.16,0,0,1,4.22-4.52A4,4,0,0,1,95.57,290.76Zm-6.76.09c0,1.86,1.07,3.27,2.59,3.27S94,292.73,94,290.81c0-1.44-.72-3.27-2.55-3.27S88.81,289.23,88.81,290.85Zm4.91-8-2.15,2.52H90.46L92,282.9Z"/><path class="cls-3" d="M97.52,288.88c0-.88,0-1.6-.07-2.3h1.37l.09,1.41h0a3.13,3.13,0,0,1,2.81-1.6c1.18,0,3,.7,3,3.62v5.08h-1.55v-4.91c0-1.37-.51-2.52-2-2.52a2.2,2.2,0,0,0-2.08,1.58,2.22,2.22,0,0,0-.11.72v5.12H97.52Z"/><path class="cls-3" d="M27.19,342.57H23.58v-1.3h8.78v1.3H28.74v10.56H27.19Z"/><path class="cls-3" d="M33.24,349.15a2.73,2.73,0,0,0,2.92,3,5.6,5.6,0,0,0,2.36-.44l.26,1.11a6.9,6.9,0,0,1-2.83.53A4,4,0,0,1,31.76,349c0-2.57,1.51-4.59,4-4.59,2.78,0,3.52,2.45,3.52,4a5.91,5.91,0,0,1-.05.72ZM37.78,348a2.2,2.2,0,0,0-2.15-2.52A2.57,2.57,0,0,0,33.26,348Z"/><path class="cls-3" d="M41.19,347.27c0-1,0-1.86-.07-2.66h1.35l.05,1.67h.07A2.56,2.56,0,0,1,45,344.42a1.68,1.68,0,0,1,.44.05v1.46a2.33,2.33,0,0,0-.53-.05,2.17,2.17,0,0,0-2.08,2,4.34,4.34,0,0,0-.07.72v4.54H41.19Z"/><path class="cls-3" d="M51.57,353.13l-.12-1.07h-.05a3.17,3.17,0,0,1-2.6,1.27,2.43,2.43,0,0,1-2.6-2.45c0-2.06,1.83-3.18,5.12-3.17v-.18a1.76,1.76,0,0,0-1.94-2,4.24,4.24,0,0,0-2.22.63l-.35-1a5.28,5.28,0,0,1,2.8-.76c2.6,0,3.24,1.78,3.24,3.48v3.18a12,12,0,0,0,.14,2Zm-.23-4.35c-1.69,0-3.61.26-3.61,1.92a1.37,1.37,0,0,0,1.46,1.48,2.12,2.12,0,0,0,2.06-1.43,1.61,1.61,0,0,0,.09-.49Z"/><path class="cls-3" d="M55.33,347.39c0-1.09,0-2-.07-2.78h1.39l.07,1.46h0a3.35,3.35,0,0,1,3-1.65c2.06,0,3.61,1.74,3.61,4.33,0,3.06-1.87,4.57-3.87,4.57A3,3,0,0,1,56.9,352h0v4.63H55.33Zm1.53,2.27a3.47,3.47,0,0,0,.07.63,2.39,2.39,0,0,0,2.32,1.81c1.64,0,2.59-1.34,2.59-3.29,0-1.71-.9-3.17-2.53-3.17A2.47,2.47,0,0,0,57,347.57a2.52,2.52,0,0,0-.11.63Z"/><path class="cls-3" d="M67.07,342.22a1,1,0,0,1-1.92,0,.94.94,0,0,1,1-1A.92.92,0,0,1,67.07,342.22Zm-1.72,10.91v-8.52h1.55v8.52Z"/><path class="cls-3" d="M74.17,353.13l-.12-1.07H74a3.17,3.17,0,0,1-2.6,1.27,2.43,2.43,0,0,1-2.6-2.45c0-2.06,1.83-3.18,5.12-3.17v-.18a1.76,1.76,0,0,0-1.94-2,4.24,4.24,0,0,0-2.22.63l-.35-1a5.28,5.28,0,0,1,2.8-.76c2.6,0,3.24,1.78,3.24,3.48v3.18a12,12,0,0,0,.14,2Zm-.23-4.35c-1.69,0-3.61.26-3.61,1.92a1.37,1.37,0,0,0,1.46,1.48,2.12,2.12,0,0,0,2.06-1.43,1.61,1.61,0,0,0,.09-.49Z"/><path class="cls-1" d="M267.9,88.1v2.49h-11V123h-2.69V90.59h-11V88.1Z"/><path class="cls-1" d="M279.6,97.51a11.27,11.27,0,0,1,8.89,3.88,13.51,13.51,0,0,1,3.41,9.21c0,.13,0,.33,0,.6s0,.47,0,.6H269.3a10.07,10.07,0,0,0,3.36,6.75,11.47,11.47,0,0,0,12.43,1.32,8.5,8.5,0,0,0,3.39-3.29l2.19,1.29a11,11,0,0,1-4.38,4.11,13.51,13.51,0,0,1-6.47,1.52,12.79,12.79,0,0,1-9.41-3.66,12.6,12.6,0,0,1-3.69-9.34,12.78,12.78,0,0,1,3.61-9.29A12.39,12.39,0,0,1,279.6,97.51Zm0,2.39a10,10,0,0,0-7.07,2.64,10.3,10.3,0,0,0-3.24,6.82h20a10.23,10.23,0,0,0-3.16-6.95A9.41,9.41,0,0,0,279.6,99.9Z"/><path class="cls-1" d="M300.22,102.94q2.24-5.23,8.32-5.23v2.39a8.28,8.28,0,0,0-5.93,2.27q-2.39,2.27-2.39,6.75V123h-2.49V98.06h2.49Z"/><path class="cls-1" d="M334,98.06h2.54V123H334v-5.63a11.74,11.74,0,0,1-4.38,4.53,12.22,12.22,0,0,1-6.32,1.64,13,13,0,0,1,0-26,12.23,12.23,0,0,1,6.32,1.64,11.75,11.75,0,0,1,4.38,4.53Zm-18,20a10.61,10.61,0,0,0,15,0,10.83,10.83,0,0,0,0-15,10.61,10.61,0,0,0-15,0,10.76,10.76,0,0,0,0,15Z"/><path class="cls-1" d="M357.39,97.51a13.07,13.07,0,0,1,9.14,22.24,12.44,12.44,0,0,1-9.14,3.76,12.07,12.07,0,0,1-6.35-1.69,11.58,11.58,0,0,1-4.36-4.63v15.74h-2.49V98.06h2.49v5.78A11.59,11.59,0,0,1,351,99.2,12.08,12.08,0,0,1,357.39,97.51ZM349.75,118a10.64,10.64,0,0,0,15,0,10.76,10.76,0,0,0,0-15,10.64,10.64,0,0,0-15,0,10.76,10.76,0,0,0,0,15Z"/><path class="cls-1" d="M379,91.46a2,2,0,0,1-2.79,0,1.88,1.88,0,0,1-.6-1.42,1.83,1.83,0,0,1,.6-1.37,2,2,0,0,1,2.79,0,1.83,1.83,0,0,1,.6,1.37A1.88,1.88,0,0,1,379,91.46ZM376.31,123V98.06h2.49V123Z"/><path class="cls-1" d="M408.39,98.06h2.54V123h-2.54v-5.63a11.74,11.74,0,0,1-4.38,4.53,12.22,12.22,0,0,1-6.32,1.64,13,13,0,0,1,0-26A12.23,12.23,0,0,1,404,99.15a11.75,11.75,0,0,1,4.38,4.53Zm-18,20a10.61,10.61,0,0,0,15,0,10.83,10.83,0,0,0,0-15,10.61,10.61,0,0,0-15,0,10.76,10.76,0,0,0,0,15Z"/><path class="cls-4" d="M723.84,119.23a6.21,6.21,0,0,1-3-.7,4.14,4.14,0,0,1-1.88-2l1-.63q.86,2.17,3.82,2.17a4.33,4.33,0,0,0,2.9-.92,3.25,3.25,0,0,0,1.08-2.62V102.65h1.26V114.5a4.3,4.3,0,0,1-1.48,3.5A5.68,5.68,0,0,1,723.84,119.23Z"/><path class="cls-4" d="M741.05,107.32h1.17V119h-1.17v-2.22a4.82,4.82,0,0,1-7.47,1.2,4.68,4.68,0,0,1-1.22-3.39v-7.25h1.19v7.25a3.63,3.63,0,0,0,.9,2.59,3.3,3.3,0,0,0,2.53,1,3.9,3.9,0,0,0,2.94-1.19,4.79,4.79,0,0,0,1.14-3.45Z"/><path class="cls-4" d="M745.81,119V102H747v17Z"/><path class="cls-4" d="M751.8,104.23a.93.93,0,0,1-1.31,0,.88.88,0,0,1-.28-.66.86.86,0,0,1,.28-.64.93.93,0,0,1,1.31,0,.86.86,0,0,1,.28.64A.88.88,0,0,1,751.8,104.23ZM750.56,119V107.32h1.17V119Z"/><path class="cls-4" d="M760.66,119.23a6,6,0,0,1-4.35-1.76,6.14,6.14,0,0,1,0-8.65,6.22,6.22,0,0,1,8.67,0,6.14,6.14,0,0,1,0,8.65A5.93,5.93,0,0,1,760.66,119.23Zm-3.51-2.56a5,5,0,0,0,7,0,5.07,5.07,0,0,0,0-7,5,5,0,0,0-7,0,5,5,0,0,0,0,7Z"/><path class="cls-4" d="M783.58,119.23a8.42,8.42,0,1,1,4.1-15.77,7.57,7.57,0,0,1,2.89,2.86l-1.1.63a6.19,6.19,0,0,0-2.4-2.44,6.84,6.84,0,0,0-3.5-.92,7,7,0,0,0-5.21,2.09,7.5,7.5,0,0,0,0,10.28,7,7,0,0,0,5.21,2.09,6.89,6.89,0,0,0,3.52-.93,6.13,6.13,0,0,0,2.42-2.49l1.1.63a7.46,7.46,0,0,1-2.89,2.9A8.19,8.19,0,0,1,783.58,119.23Z"/><path class="cls-4" d="M798.52,119.23a6,6,0,0,1-4.35-1.76,6.14,6.14,0,0,1,0-8.65,6.22,6.22,0,0,1,8.67,0,6.14,6.14,0,0,1,0,8.65A5.93,5.93,0,0,1,798.52,119.23ZM795,116.67a5,5,0,0,0,7,0,5.07,5.07,0,0,0,0-7,5,5,0,0,0-7,0,5,5,0,0,0,0,7Z"/><path class="cls-4" d="M808.6,109.6a3.87,3.87,0,0,1,3.89-2.45v1.12a3.88,3.88,0,0,0-2.77,1.06,4.15,4.15,0,0,0-1.12,3.16V119h-1.17V107.32h1.17Z"/><path class="cls-4" d="M821,108.46H817.5V116a2.24,2.24,0,0,0,.37,1.45,1.58,1.58,0,0,0,1.14.5,11.7,11.7,0,0,0,2-.06v1a5.5,5.5,0,0,1-3.51-.33,2.77,2.77,0,0,1-1.15-2.61v-7.58h-2.56v-1.14h2.56V104.4l1.19-.35v3.26H821Z"/><path class="cls-4" d="M833.33,107.32h1.19V119h-1.19v-2.63a5.49,5.49,0,0,1-2.05,2.12,5.72,5.72,0,0,1-3,.77,6.09,6.09,0,0,1,0-12.17,5.72,5.72,0,0,1,3,.77,5.5,5.5,0,0,1,2.05,2.12Zm-8.43,9.35a5,5,0,0,0,7,0,5.07,5.07,0,0,0,0-7,5,5,0,0,0-7,0,5,5,0,0,0,0,7Z"/><path class="cls-4" d="M839.25,117.83h7.2V119h-8.91v-.77l7-9.75h-6.76v-1.14h8.42v.79Z"/><path class="cls-4" d="M858.79,107.32H860V119h-1.19v-2.63a5.49,5.49,0,0,1-2.05,2.12,5.72,5.72,0,0,1-3,.77,6.09,6.09,0,0,1,0-12.17,5.72,5.72,0,0,1,3,.77,5.5,5.5,0,0,1,2.05,2.12Zm-8.43,9.35a5,5,0,0,0,7,0,5.07,5.07,0,0,0,0-7,5,5,0,0,0-7,0,5,5,0,0,0,0,7Z"/><path class="cls-4" d="M864.74,109.6a3.87,3.87,0,0,1,3.89-2.45v1.12a3.88,3.88,0,0,0-2.77,1.06,4.15,4.15,0,0,0-1.12,3.16V119h-1.17V107.32h1.17Z"/><path class="cls-4" d="M678.6,262.46l-.61-1.72h-3.92l-.57,1.72h-2l3.34-9.55h2.33l3.37,9.55ZM674.68,259h2.69l-1.38-3.9Z"/><path class="cls-4" d="M684.41,262.65a3.6,3.6,0,1,1,0-7.21,3.53,3.53,0,0,1,1.81.48,3.17,3.17,0,0,1,1.24,1.28l-1.51.89a1.55,1.55,0,0,0-.62-.67,1.81,1.81,0,0,0-.93-.25,1.76,1.76,0,0,0-1.31.53,1.83,1.83,0,0,0-.52,1.34,1.81,1.81,0,0,0,.52,1.33,1.76,1.76,0,0,0,1.31.53,1.87,1.87,0,0,0,.95-.24A1.5,1.5,0,0,0,686,260l1.53.87a3.42,3.42,0,0,1-1.27,1.29A3.5,3.5,0,0,1,684.41,262.65Z"/><path class="cls-4" d="M692.33,257.33h-1.54v2.84a.67.67,0,0,0,.18.52.81.81,0,0,0,.52.18,7.6,7.6,0,0,0,.85,0v1.6a3.75,3.75,0,0,1-2.56-.34,2.27,2.27,0,0,1-.74-2v-2.84h-1.19v-1.69H689v-1.38l1.76-.53v1.91h1.54Z"/><path class="cls-4" d="M694.44,254.82a1.1,1.1,0,0,1-1.08-1.08,1.06,1.06,0,0,1,.32-.76,1,1,0,0,1,.76-.33,1,1,0,0,1,.77.33,1.06,1.06,0,0,1,.32.76,1,1,0,0,1-.32.76A1.05,1.05,0,0,1,694.44,254.82Zm-.87,7.64v-6.82h1.76v6.82Z"/><path class="cls-4" d="M701.43,255.64h1.94l-2.59,6.82h-2l-2.59-6.82h1.94l1.65,4.78Z"/><path class="cls-4" d="M705.09,254.82a1.1,1.1,0,0,1-1.08-1.08,1.06,1.06,0,0,1,.32-.76,1,1,0,0,1,.76-.33,1,1,0,0,1,.77.33,1.06,1.06,0,0,1,.32.76,1,1,0,0,1-.32.76A1.05,1.05,0,0,1,705.09,254.82Zm-.87,7.64v-6.82H706v6.82Z"/><path class="cls-4" d="M712.76,252.91h1.76v9.55h-1.76v-.81a2.64,2.64,0,0,1-2.21,1,3.11,3.11,0,0,1-2.35-1,3.84,3.84,0,0,1,0-5.12,3.11,3.11,0,0,1,2.35-1,2.64,2.64,0,0,1,2.21,1Zm-3.24,7.53a1.84,1.84,0,0,0,1.36.54,1.82,1.82,0,0,0,1.35-.54,2.07,2.07,0,0,0,0-2.77,1.82,1.82,0,0,0-1.35-.54,1.84,1.84,0,0,0-1.36.54,2,2,0,0,0,0,2.77Z"/><path class="cls-4" d="M721.31,255.64h1.76v6.82h-1.76v-.81a2.68,2.68,0,0,1-2.22,1,3.09,3.09,0,0,1-2.34-1,3.84,3.84,0,0,1,0-5.12,3.09,3.09,0,0,1,2.34-1,2.68,2.68,0,0,1,2.22,1Zm-3.25,4.8a1.82,1.82,0,0,0,1.35.54,1.84,1.84,0,0,0,1.36-.54,2,2,0,0,0,0-2.77,1.84,1.84,0,0,0-1.36-.54,1.82,1.82,0,0,0-1.35.54,2.07,2.07,0,0,0,0,2.77Z"/><path class="cls-4" d="M729.84,252.91h1.76v9.55h-1.76v-.81a2.64,2.64,0,0,1-2.21,1,3.11,3.11,0,0,1-2.35-1,3.84,3.84,0,0,1,0-5.12,3.11,3.11,0,0,1,2.35-1,2.64,2.64,0,0,1,2.21,1Zm-3.24,7.53A1.84,1.84,0,0,0,728,261a1.82,1.82,0,0,0,1.35-.54,2.07,2.07,0,0,0,0-2.77,1.82,1.82,0,0,0-1.35-.54,1.84,1.84,0,0,0-1.36.54,2,2,0,0,0,0,2.77Z"/><path class="cls-5" d="M826.1,252.91a2.89,2.89,0,0,1,3,3,2.85,2.85,0,0,1-.85,2.11,2.9,2.9,0,0,1-2.13.84h-2.52v3.64h-.72v-9.55Zm0,5.23a2.18,2.18,0,0,0,1.62-.64,2.41,2.41,0,0,0,0-3.26,2.18,2.18,0,0,0-1.62-.64h-2.52v4.54Z"/><path class="cls-5" d="M831.28,257a2.27,2.27,0,0,1,2.28-1.43v.65a2.27,2.27,0,0,0-1.62.62,2.43,2.43,0,0,0-.66,1.85v3.79h-.68v-6.82h.68Z"/><path class="cls-5" d="M837.59,255.49a3.09,3.09,0,0,1,2.44,1.06,3.7,3.7,0,0,1,.93,2.52s0,.09,0,.16,0,.13,0,.16h-6.18a2.76,2.76,0,0,0,.92,1.85,3.14,3.14,0,0,0,3.4.36,2.33,2.33,0,0,0,.93-.9l.6.35a3,3,0,0,1-1.2,1.13,3.7,3.7,0,0,1-1.77.42,3.51,3.51,0,0,1-2.58-1,3.45,3.45,0,0,1-1-2.56,3.5,3.5,0,0,1,1-2.55A3.4,3.4,0,0,1,837.59,255.49Zm0,.66a2.74,2.74,0,0,0-1.94.72,2.82,2.82,0,0,0-.89,1.87h5.49a2.81,2.81,0,0,0-.87-1.9A2.58,2.58,0,0,0,837.59,256.14Z"/><path class="cls-5" d="M846.18,255.49a3.56,3.56,0,0,1,0,7.12,3.31,3.31,0,0,1-1.74-.46,3.17,3.17,0,0,1-1.19-1.27v4.31h-.68v-9.55h.68v1.58a3.17,3.17,0,0,1,1.19-1.27A3.31,3.31,0,0,1,846.18,255.49Zm-2.09,5.62a2.92,2.92,0,0,0,4.11,0,2.95,2.95,0,0,0,0-4.12,2.92,2.92,0,0,0-4.11,0,2.95,2.95,0,0,0,0,4.12Z"/><path class="cls-5" d="M857.37,255.64h.7v6.82h-.7v-1.54a3.22,3.22,0,0,1-1.2,1.24,3.35,3.35,0,0,1-1.73.45,3.56,3.56,0,0,1,0-7.12,3.35,3.35,0,0,1,1.73.45,3.22,3.22,0,0,1,1.2,1.24Zm-4.93,5.47a2.91,2.91,0,0,0,4.1,0,3,3,0,0,0,0-4.12,2.91,2.91,0,0,0-4.1,0,2.95,2.95,0,0,0,0,4.12Z"/><path class="cls-5" d="M860.85,257a2.27,2.27,0,0,1,2.28-1.43v.65a2.27,2.27,0,0,0-1.62.62,2.43,2.43,0,0,0-.66,1.85v3.79h-.68v-6.82h.68Z"/><path class="cls-5" d="M870.1,255.64h.7v6.82h-.7v-1.54a3.22,3.22,0,0,1-1.2,1.24,3.35,3.35,0,0,1-1.73.45,3.56,3.56,0,0,1,0-7.12,3.35,3.35,0,0,1,1.73.45,3.22,3.22,0,0,1,1.2,1.24Zm-4.93,5.47a2.91,2.91,0,0,0,4.1,0,3,3,0,0,0,0-4.12,2.91,2.91,0,0,0-4.1,0,2.95,2.95,0,0,0,0,4.12Z"/><path class="cls-5" d="M873.58,257a2.27,2.27,0,0,1,2.28-1.43v.65a2.27,2.27,0,0,0-1.62.62,2.43,2.43,0,0,0-.66,1.85v3.79h-.68v-6.82h.68Z"/><path class="cls-5" d="M884,255.49a3.09,3.09,0,0,1,2.44,1.06,3.7,3.7,0,0,1,.93,2.52s0,.09,0,.16,0,.13,0,.16h-6.18a2.76,2.76,0,0,0,.92,1.85,3.14,3.14,0,0,0,3.4.36,2.33,2.33,0,0,0,.93-.9l.6.35a3,3,0,0,1-1.2,1.13,3.7,3.7,0,0,1-1.77.42,3.51,3.51,0,0,1-2.58-1,3.45,3.45,0,0,1-1-2.56,3.5,3.5,0,0,1,1-2.55A3.4,3.4,0,0,1,884,255.49Zm0,.66a2.74,2.74,0,0,0-1.94.72,2.82,2.82,0,0,0-.89,1.87h5.49a2.81,2.81,0,0,0-.87-1.9A2.58,2.58,0,0,0,884,256.14Z"/><path class="cls-5" d="M888.92,262.46v-10h.68v10Z"/><path class="cls-5" d="M902.63,255.49a2.41,2.41,0,0,1,1.8.7,2.67,2.67,0,0,1,.68,2v4.33h-.68v-4.33a2,2,0,0,0-.5-1.47,1.74,1.74,0,0,0-1.32-.52,1.9,1.9,0,0,0-1.48.63,2.73,2.73,0,0,0-.57,1.88v3.81h-.68v-4.33a2.12,2.12,0,0,0-.47-1.47,1.64,1.64,0,0,0-1.28-.52,2,2,0,0,0-1.51.63,2.61,2.61,0,0,0-.61,1.88v3.81h-.68v-6.82H896v1.17a2.33,2.33,0,0,1,2.2-1.32,2.36,2.36,0,0,1,1.31.36,2.09,2.09,0,0,1,.82,1,2.44,2.44,0,0,1,1-1A2.6,2.6,0,0,1,902.63,255.49Z"/><path class="cls-5" d="M913,255.64h.7v6.82H913v-1.54a3.22,3.22,0,0,1-1.2,1.24,3.35,3.35,0,0,1-1.73.45,3.56,3.56,0,0,1,0-7.12,3.35,3.35,0,0,1,1.73.45,3.22,3.22,0,0,1,1.2,1.24Zm-4.93,5.47a2.91,2.91,0,0,0,4.1,0,3,3,0,0,0,0-4.12,2.91,2.91,0,0,0-4.1,0,2.95,2.95,0,0,0,0,4.12Z"/><path class="cls-5" d="M919.34,256.31h-2v4.44a1.31,1.31,0,0,0,.22.85.92.92,0,0,0,.67.29,6.85,6.85,0,0,0,1.15,0v.61a3.22,3.22,0,0,1-2.05-.19,1.62,1.62,0,0,1-.68-1.53v-4.44h-1.5v-.67h1.5v-1.71l.7-.2v1.91h2Z"/><path class="cls-5" d="M923.63,255.49a3.09,3.09,0,0,1,2.44,1.06,3.7,3.7,0,0,1,.93,2.52s0,.09,0,.16,0,.13,0,.16h-6.18a2.76,2.76,0,0,0,.92,1.85,3.14,3.14,0,0,0,3.4.36,2.33,2.33,0,0,0,.93-.9l.6.35a3,3,0,0,1-1.2,1.13,3.7,3.7,0,0,1-1.77.42,3.51,3.51,0,0,1-2.58-1,3.45,3.45,0,0,1-1-2.56,3.5,3.5,0,0,1,1-2.55A3.4,3.4,0,0,1,923.63,255.49Zm0,.66a2.74,2.74,0,0,0-1.94.72,2.82,2.82,0,0,0-.89,1.87h5.49a2.81,2.81,0,0,0-.87-1.9A2.58,2.58,0,0,0,923.63,256.14Z"/><path class="cls-4" d="M681.67,216.37v9.55H679.8v-6.2l-2.69,4.43h-.22l-2.68-4.42v6.17h-1.88v-9.55h1.94l2.74,4.51,2.73-4.51Z"/><path class="cls-4" d="M689.18,225.07a3.64,3.64,0,1,1,1.05-2.56A3.5,3.5,0,0,1,689.18,225.07Zm-3.88-1.21a1.77,1.77,0,0,0,1.32.53,1.8,1.8,0,0,0,1.32-.53,2,2,0,0,0,0-2.7,1.8,1.8,0,0,0-1.32-.53,1.77,1.77,0,0,0-1.32.53,2,2,0,0,0,0,2.7Z"/><path class="cls-4" d="M696.64,216.37h1.76v9.55h-1.76v-.81a2.64,2.64,0,0,1-2.21,1,3.11,3.11,0,0,1-2.35-1,3.84,3.84,0,0,1,0-5.12,3.11,3.11,0,0,1,2.35-1,2.64,2.64,0,0,1,2.21,1Zm-3.24,7.53a1.84,1.84,0,0,0,1.36.54,1.82,1.82,0,0,0,1.35-.54,2.07,2.07,0,0,0,0-2.77,1.82,1.82,0,0,0-1.35-.54,1.84,1.84,0,0,0-1.36.54,2,2,0,0,0,0,2.77Z"/><path class="cls-4" d="M705.83,225.07a3.64,3.64,0,1,1,1.05-2.56A3.5,3.5,0,0,1,705.83,225.07Zm-3.88-1.21a1.77,1.77,0,0,0,1.32.53,1.8,1.8,0,0,0,1.32-.53,2,2,0,0,0,0-2.7,1.8,1.8,0,0,0-1.32-.53,1.77,1.77,0,0,0-1.32.53,2,2,0,0,0,0,2.7Z"/><path class="cls-5" d="M861,225.92l-.93-2.43h-4.78l-.93,2.43h-.76l3.71-9.55H858l3.7,9.55Zm-5.45-3.11h4.26l-2.13-5.55Z"/><path class="cls-5" d="M866,226.07a3.56,3.56,0,1,1,1.8-6.65,2.81,2.81,0,0,1,1.17,1.28l-.56.33a2.3,2.3,0,0,0-.95-1,2.84,2.84,0,0,0-1.47-.38,2.79,2.79,0,0,0-2.06.84,3,3,0,0,0,0,4.13,2.79,2.79,0,0,0,2.06.84,2.84,2.84,0,0,0,1.47-.38,2.56,2.56,0,0,0,1-1l.57.34a3.08,3.08,0,0,1-1.22,1.26A3.54,3.54,0,0,1,866,226.07Z"/><path class="cls-5" d="M874,219.77h-2v4.44a1.31,1.31,0,0,0,.22.85.92.92,0,0,0,.67.29,6.85,6.85,0,0,0,1.15,0v.61a3.22,3.22,0,0,1-2.05-.19,1.62,1.62,0,0,1-.68-1.53v-4.44h-1.5v-.67h1.5v-1.71l.7-.2v1.91h2Z"/><path class="cls-5" d="M876.36,217.29a.54.54,0,0,1-.76,0,.52.52,0,0,1-.16-.39.5.5,0,0,1,.16-.38.54.54,0,0,1,.76,0,.5.5,0,0,1,.16.38A.52.52,0,0,1,876.36,217.29Zm-.72,8.63V219.1h.68v6.82Z"/><path class="cls-5" d="M883.43,219.1h.72l-2.88,6.82h-.83l-2.89-6.82h.74l2.56,6.12Z"/><path class="cls-5" d="M886.12,217.29a.54.54,0,0,1-.76,0,.52.52,0,0,1-.16-.39.5.5,0,0,1,.16-.38.54.54,0,0,1,.76,0,.5.5,0,0,1,.16.38A.52.52,0,0,1,886.12,217.29Zm-.72,8.63V219.1h.68v6.82Z"/><path class="cls-5" d="M894.2,216.37h.68v9.55h-.68v-1.58a3.18,3.18,0,0,1-1.19,1.27,3.31,3.31,0,0,1-1.74.46,3.56,3.56,0,0,1,0-7.12,3.31,3.31,0,0,1,1.74.46,3.18,3.18,0,0,1,1.19,1.27Zm-4.95,8.2a2.92,2.92,0,0,0,4.11,0,2.95,2.95,0,0,0,0-4.12,2.92,2.92,0,0,0-4.11,0,2.95,2.95,0,0,0,0,4.12Z"/><path class="cls-5" d="M903,219.1h.7v6.82H903v-1.54a3.22,3.22,0,0,1-1.2,1.24,3.35,3.35,0,0,1-1.73.45,3.56,3.56,0,0,1,0-7.12,3.35,3.35,0,0,1,1.73.45,3.22,3.22,0,0,1,1.2,1.24Zm-4.93,5.47a2.91,2.91,0,0,0,4.1,0,3,3,0,0,0,0-4.12,2.91,2.91,0,0,0-4.1,0,2.95,2.95,0,0,0,0,4.12Z"/><path class="cls-5" d="M911.8,216.37h.68v9.55h-.68v-1.58a3.18,3.18,0,0,1-1.19,1.27,3.31,3.31,0,0,1-1.74.46,3.56,3.56,0,0,1,0-7.12,3.31,3.31,0,0,1,1.74.46,3.18,3.18,0,0,1,1.19,1.27Zm-4.95,8.2a2.92,2.92,0,0,0,4.11,0,2.95,2.95,0,0,0,0-4.12,2.92,2.92,0,0,0-4.11,0,2.95,2.95,0,0,0,0,4.12Z"/><path class="cls-5" d="M917.66,218.95a3.09,3.09,0,0,1,2.44,1.06,3.7,3.7,0,0,1,.93,2.52s0,.09,0,.16,0,.13,0,.16h-6.18a2.76,2.76,0,0,0,.92,1.85,3.14,3.14,0,0,0,3.4.36,2.33,2.33,0,0,0,.93-.9l.6.35a3,3,0,0,1-1.2,1.13,3.7,3.7,0,0,1-1.77.42,3.51,3.51,0,0,1-2.58-1,3.45,3.45,0,0,1-1-2.56,3.5,3.5,0,0,1,1-2.55A3.4,3.4,0,0,1,917.66,218.95Zm0,.66a2.74,2.74,0,0,0-1.94.72,2.82,2.82,0,0,0-.89,1.87h5.49a2.81,2.81,0,0,0-.87-1.9A2.58,2.58,0,0,0,917.66,219.6Z"/><path class="cls-5" d="M922.82,220.86a.88.88,0,0,0,.43.78,3.48,3.48,0,0,0,1,.44l1.22.32a2.2,2.2,0,0,1,1,.59,1.56,1.56,0,0,1,.42,1.14,1.71,1.71,0,0,1-.68,1.39,2.73,2.73,0,0,1-1.77.55,3.1,3.1,0,0,1-1.66-.42,2.18,2.18,0,0,1-.93-1.1l.59-.34a1.62,1.62,0,0,0,.72.88,2.43,2.43,0,0,0,1.29.32,2.22,2.22,0,0,0,1.26-.33,1.08,1.08,0,0,0,.5-.95.94.94,0,0,0-.42-.8,3.16,3.16,0,0,0-1-.46l-1.22-.32a2.3,2.3,0,0,1-1-.57,1.45,1.45,0,0,1-.42-1.09,1.75,1.75,0,0,1,.65-1.38,2.47,2.47,0,0,1,1.67-.56,2.69,2.69,0,0,1,1.43.37,2.23,2.23,0,0,1,.89,1l-.57.33a1.51,1.51,0,0,0-.68-.77,2.15,2.15,0,0,0-1.06-.27,1.93,1.93,0,0,0-1.17.34A1.08,1.08,0,0,0,922.82,220.86Z"/><path class="cls-5" d="M677.36,188.12a6.09,6.09,0,0,1-3.41-.91,4.85,4.85,0,0,1-1.95-2.47l2.3-1.35a3.06,3.06,0,0,0,3.14,2.09,2.7,2.7,0,0,0,1.66-.41,1.29,1.29,0,0,0-.12-2.15,9.94,9.94,0,0,0-2.3-.87,14.15,14.15,0,0,1-1.55-.55,6.67,6.67,0,0,1-1.27-.73,3,3,0,0,1-1-1.16,3.79,3.79,0,0,1-.33-1.64,3.65,3.65,0,0,1,1.32-3,4.77,4.77,0,0,1,3.17-1.1,5.27,5.27,0,0,1,2.91.81,5.44,5.44,0,0,1,2,2.25l-2.26,1.31a2.72,2.72,0,0,0-2.61-1.75,2.06,2.06,0,0,0-1.32.38,1.2,1.2,0,0,0-.48,1,1.24,1.24,0,0,0,.54,1,7.49,7.49,0,0,0,2.06.87l.95.3.88.33a5.31,5.31,0,0,1,.86.42,6.77,6.77,0,0,1,.69.53,2.7,2.7,0,0,1,.59.68,3.9,3.9,0,0,1,.5,1.93,3.66,3.66,0,0,1-1.37,3A5.51,5.51,0,0,1,677.36,188.12Z"/><path class="cls-5" d="M686.35,184a2.5,2.5,0,0,0,2.75,1.83,2.57,2.57,0,0,0,2.18-1l2,1.17a4.83,4.83,0,0,1-4.25,2.09,5.24,5.24,0,0,1-3.88-1.46,5.14,5.14,0,0,1,3.68-8.83,4.65,4.65,0,0,1,3.54,1.48A5.15,5.15,0,0,1,693.8,183a5.89,5.89,0,0,1-.1,1Zm0-1.95h5a2.36,2.36,0,0,0-.89-1.48,2.54,2.54,0,0,0-1.53-.49,2.65,2.65,0,0,0-1.68.52A2.47,2.47,0,0,0,686.31,182.05Z"/><path class="cls-5" d="M697.48,180.86q0,.39.52.63a6.86,6.86,0,0,0,1.26.43,13.09,13.09,0,0,1,1.48.47,2.88,2.88,0,0,1,1.26.95,2.61,2.61,0,0,1,.52,1.66,2.68,2.68,0,0,1-1.12,2.31,4.66,4.66,0,0,1-2.8.81,4.1,4.1,0,0,1-4.09-2.32l2.18-1.23a1.81,1.81,0,0,0,1.91,1.27q1.35,0,1.35-.84,0-.39-.52-.63a7.39,7.39,0,0,0-1.26-.44,13.1,13.1,0,0,1-1.48-.49,3,3,0,0,1-1.26-.93,2.43,2.43,0,0,1-.52-1.59,2.72,2.72,0,0,1,1.06-2.27,4.16,4.16,0,0,1,2.64-.83,4.42,4.42,0,0,1,2.16.54,3.92,3.92,0,0,1,1.54,1.53l-2.14,1.17a1.6,1.6,0,0,0-1.56-1,1.43,1.43,0,0,0-.81.21A.67.67,0,0,0,697.48,180.86Z"/><path class="cls-5" d="M705.38,176.93a1.57,1.57,0,0,1-1.54-1.54,1.51,1.51,0,0,1,.46-1.09,1.46,1.46,0,0,1,1.08-.47,1.49,1.49,0,0,1,1.1.47,1.51,1.51,0,0,1,.46,1.09,1.48,1.48,0,0,1-.46,1.08A1.5,1.5,0,0,1,705.38,176.93Zm-1.25,10.92V178.1h2.51v9.75Z"/><path class="cls-5" d="M717.25,186.62a5.2,5.2,0,1,1,1.5-3.66A5,5,0,0,1,717.25,186.62Zm-5.55-1.73a2.53,2.53,0,0,0,1.88.76,2.57,2.57,0,0,0,1.89-.76,2.83,2.83,0,0,0,0-3.86,2.57,2.57,0,0,0-1.89-.76,2.53,2.53,0,0,0-1.88.76,2.86,2.86,0,0,0,0,3.86Zm.32-8.19h2.42l2.16-2.67h-3Z"/><path class="cls-5" d="M725.94,177.82a3.53,3.53,0,0,1,2.64,1.07,4.07,4.07,0,0,1,1,3v6h-2.51v-5.67a2,2,0,0,0-.53-1.49,1.92,1.92,0,0,0-1.4-.52,2.07,2.07,0,0,0-1.56.6,2.51,2.51,0,0,0-.58,1.81v5.26h-2.51V178.1H723v1.09A3.25,3.25,0,0,1,725.94,177.82Z"/><path class="cls-4" d="M677.85,289.45h1.88V299H678.3l-4.09-5.84V299h-1.88v-9.55h1.43l4.1,5.82Z"/><path class="cls-4" d="M682.3,291.36a1.1,1.1,0,0,1-1.08-1.08,1.06,1.06,0,0,1,.32-.76,1,1,0,0,1,.76-.33,1,1,0,0,1,.77.33,1.06,1.06,0,0,1,.32.76,1,1,0,0,1-.32.76A1.05,1.05,0,0,1,682.3,291.36Zm-.87,7.64v-6.82h1.76V299Z"/><path class="cls-4" d="M689.29,292.18h1.94L688.63,299h-2L684,292.18H686l1.65,4.78Z"/><path class="cls-4" d="M693.28,296.31a1.75,1.75,0,0,0,1.92,1.28,1.8,1.8,0,0,0,1.53-.68l1.42.82a3.38,3.38,0,0,1-3,1.46,3.67,3.67,0,0,1-2.72-1A3.6,3.6,0,0,1,695,292a3.26,3.26,0,0,1,2.48,1,3.6,3.6,0,0,1,1,2.57,4.12,4.12,0,0,1-.07.72Zm0-1.36h3.48a1.65,1.65,0,0,0-.62-1,1.78,1.78,0,0,0-1.07-.34,1.85,1.85,0,0,0-1.17.36A1.73,1.73,0,0,0,693.26,294.95Z"/><path class="cls-4" d="M699.73,299V289h1.76v10Z"/><path class="cls-5" d="M893.14,289.45h.72V299h-.72Z"/><path class="cls-5" d="M899.22,292a2.56,2.56,0,0,1,1.93.74,2.74,2.74,0,0,1,.72,2V299h-.7v-4.24a2.12,2.12,0,0,0-.53-1.51,1.93,1.93,0,0,0-1.48-.56,2.28,2.28,0,0,0-1.72.7,2.8,2.8,0,0,0-.67,2V299h-.68v-6.82h.68v1.3A2.54,2.54,0,0,1,899.22,292Z"/><path class="cls-5" d="M904.52,290.37a.54.54,0,0,1-.76,0,.52.52,0,0,1-.16-.39.5.5,0,0,1,.16-.38.54.54,0,0,1,.76,0,.5.5,0,0,1,.16.38A.52.52,0,0,1,904.52,290.37Zm-.72,8.63v-6.82h.68V299Z"/><path class="cls-5" d="M909.7,299.15a3.56,3.56,0,1,1,1.8-6.65,2.81,2.81,0,0,1,1.17,1.28l-.56.33a2.3,2.3,0,0,0-.95-1,2.84,2.84,0,0,0-1.47-.38,2.79,2.79,0,0,0-2.06.84,3,3,0,0,0,0,4.13,2.79,2.79,0,0,0,2.06.84,2.84,2.84,0,0,0,1.47-.38,2.56,2.56,0,0,0,1-1l.57.34a3.08,3.08,0,0,1-1.22,1.26A3.54,3.54,0,0,1,909.7,299.15Z"/><path class="cls-5" d="M915,290.37a.54.54,0,0,1-.76,0A.52.52,0,0,1,914,290a.5.5,0,0,1,.16-.38.54.54,0,0,1,.76,0,.5.5,0,0,1,.16.38A.52.52,0,0,1,915,290.37Zm-.72,8.63v-6.82h.68V299Z"/><path class="cls-5" d="M923,292.18h.7V299H923v-1.54a3.22,3.22,0,0,1-1.2,1.24,3.35,3.35,0,0,1-1.73.45,3.56,3.56,0,0,1,0-7.12,3.35,3.35,0,0,1,1.73.45,3.22,3.22,0,0,1,1.2,1.24Zm-4.93,5.47a2.91,2.91,0,0,0,4.1,0,3,3,0,0,0,0-4.12,2.91,2.91,0,0,0-4.1,0,2.95,2.95,0,0,0,0,4.12Z"/><path class="cls-5" d="M925.82,299V289h.68v10Z"/><path class="cls-4" d="M676.85,394.86a4.78,4.78,0,0,1-3.56-1.43,5.15,5.15,0,0,1,0-7.08,4.79,4.79,0,0,1,3.56-1.43,4.87,4.87,0,0,1,2.4.61,4.45,4.45,0,0,1,1.71,1.64l-1.62.94a2.52,2.52,0,0,0-1-1,3.27,3.27,0,0,0-3.72.51,3.42,3.42,0,0,0,0,4.52,3,3,0,0,0,2.24.87,3,3,0,0,0,1.48-.36,2.45,2.45,0,0,0,1-1l1.62.94a4.46,4.46,0,0,1-1.71,1.64A4.86,4.86,0,0,1,676.85,394.86Z"/><path class="cls-4" d="M687.89,393.82a3.64,3.64,0,1,1,1.05-2.56A3.5,3.5,0,0,1,687.89,393.82ZM684,392.61a1.77,1.77,0,0,0,1.32.53,1.8,1.8,0,0,0,1.32-.53,2,2,0,0,0,0-2.7,1.8,1.8,0,0,0-1.32-.53,1.77,1.77,0,0,0-1.32.53,2,2,0,0,0,0,2.7Z"/><path class="cls-4" d="M691.95,389a1.84,1.84,0,0,1,.81-1,2.47,2.47,0,0,1,1.26-.33v2a2.07,2.07,0,0,0-1.44.33,1.56,1.56,0,0,0-.63,1.41v3.26h-1.76v-6.82h1.76Z"/><path class="cls-4" d="M696.8,389a1.84,1.84,0,0,1,.81-1,2.47,2.47,0,0,1,1.26-.33v2a2.07,2.07,0,0,0-1.44.33,1.56,1.56,0,0,0-.63,1.41v3.26H695v-6.82h1.76Z"/><path class="cls-4" d="M701.13,392a1.75,1.75,0,0,0,1.92,1.28,1.8,1.8,0,0,0,1.53-.68l1.42.82a3.38,3.38,0,0,1-3,1.46,3.67,3.67,0,0,1-2.72-1,3.6,3.6,0,0,1,2.58-6.18,3.26,3.26,0,0,1,2.48,1,3.6,3.6,0,0,1,1,2.57,4.12,4.12,0,0,1-.07.72Zm0-1.36h3.48a1.65,1.65,0,0,0-.62-1,1.78,1.78,0,0,0-1.07-.34,1.85,1.85,0,0,0-1.17.36A1.73,1.73,0,0,0,701.1,390.62Z"/><path class="cls-4" d="M710.77,394.86a3.6,3.6,0,1,1,0-7.21,3.53,3.53,0,0,1,1.81.48,3.17,3.17,0,0,1,1.24,1.28l-1.51.89a1.55,1.55,0,0,0-.62-.67,1.81,1.81,0,0,0-.93-.25,1.76,1.76,0,0,0-1.31.53,1.83,1.83,0,0,0-.52,1.34,1.81,1.81,0,0,0,.52,1.33,1.76,1.76,0,0,0,1.31.53,1.87,1.87,0,0,0,.95-.24,1.5,1.5,0,0,0,.62-.66l1.53.87a3.42,3.42,0,0,1-1.27,1.29A3.5,3.5,0,0,1,710.77,394.86Z"/><path class="cls-4" d="M718.68,389.54h-1.54v2.84a.67.67,0,0,0,.18.52.81.81,0,0,0,.52.18,7.6,7.6,0,0,0,.85,0v1.6a3.75,3.75,0,0,1-2.56-.34,2.27,2.27,0,0,1-.74-2v-2.84h-1.19v-1.69h1.19v-1.38l1.76-.53v1.91h1.54Z"/><path class="cls-4" d="M724.9,387.85h1.76v6.82H724.9v-.81a2.68,2.68,0,0,1-2.22,1,3.09,3.09,0,0,1-2.34-1,3.84,3.84,0,0,1,0-5.12,3.09,3.09,0,0,1,2.34-1,2.68,2.68,0,0,1,2.22,1Zm-3.25,4.8a1.82,1.82,0,0,0,1.35.54,1.84,1.84,0,0,0,1.36-.54,2,2,0,0,0,0-2.77,1.84,1.84,0,0,0-1.36-.54,1.82,1.82,0,0,0-1.35.54,2.07,2.07,0,0,0,0,2.77Z"/><path class="cls-4" d="M729.83,389.79q0,.27.36.44a4.81,4.81,0,0,0,.88.3,9.17,9.17,0,0,1,1,.33,2,2,0,0,1,.88.66,1.83,1.83,0,0,1,.36,1.16,1.87,1.87,0,0,1-.78,1.62,3.26,3.26,0,0,1-2,.57,2.87,2.87,0,0,1-2.87-1.62l1.53-.86a1.26,1.26,0,0,0,1.34.89q.94,0,.94-.59,0-.27-.36-.44a5.18,5.18,0,0,0-.88-.31,9.17,9.17,0,0,1-1-.34,2.13,2.13,0,0,1-.88-.65,1.7,1.7,0,0,1-.36-1.11,1.9,1.9,0,0,1,.74-1.59,2.91,2.91,0,0,1,1.85-.58,3.09,3.09,0,0,1,1.51.38,2.75,2.75,0,0,1,1.08,1.07l-1.5.82a1.12,1.12,0,0,0-1.09-.7,1,1,0,0,0-.57.15A.47.47,0,0,0,729.83,389.79Z"/><path class="cls-5" d="M919.47,393.49a3.26,3.26,0,0,1-5.27,0,7.31,7.31,0,0,1,0-7.18,3.26,3.26,0,0,1,5.27,0,7.31,7.31,0,0,1,0,7.18Zm-4.72-.47a2.52,2.52,0,0,0,4.18,0,6.85,6.85,0,0,0,0-6.24,2.52,2.52,0,0,0-4.18,0,6.85,6.85,0,0,0,0,6.24Z"/><path class="cls-5" d="M921.18,385.12H927v.68l-3.71,8.87h-.75l3.71-8.87h-5Z"/><path class="cls-5" d="M677.36,356.87A6.09,6.09,0,0,1,674,356,4.85,4.85,0,0,1,672,353.5l2.3-1.35a3.06,3.06,0,0,0,3.14,2.09,2.7,2.7,0,0,0,1.66-.41,1.29,1.29,0,0,0-.12-2.15,9.94,9.94,0,0,0-2.3-.87,14.15,14.15,0,0,1-1.55-.55,6.67,6.67,0,0,1-1.27-.73,3,3,0,0,1-1-1.16,3.79,3.79,0,0,1-.33-1.64,3.65,3.65,0,0,1,1.32-3,4.77,4.77,0,0,1,3.17-1.1,5.27,5.27,0,0,1,2.91.81,5.44,5.44,0,0,1,2,2.25L679.66,347a2.72,2.72,0,0,0-2.61-1.75,2.06,2.06,0,0,0-1.32.38,1.2,1.2,0,0,0-.48,1,1.24,1.24,0,0,0,.54,1,7.49,7.49,0,0,0,2.06.87l.95.3.88.33a5.31,5.31,0,0,1,.86.42,6.77,6.77,0,0,1,.69.53,2.7,2.7,0,0,1,.59.68,3.9,3.9,0,0,1,.5,1.93,3.66,3.66,0,0,1-1.37,3A5.51,5.51,0,0,1,677.36,356.87Z"/><path class="cls-5" d="M686.35,352.76a2.5,2.5,0,0,0,2.75,1.83,2.57,2.57,0,0,0,2.18-1l2,1.17a4.83,4.83,0,0,1-4.25,2.09,5.24,5.24,0,0,1-3.88-1.46,5.14,5.14,0,0,1,3.68-8.83,4.65,4.65,0,0,1,3.54,1.48,5.15,5.15,0,0,1,1.39,3.67,5.89,5.89,0,0,1-.1,1Zm0-1.95h5a2.36,2.36,0,0,0-.89-1.48,2.54,2.54,0,0,0-1.53-.49,2.65,2.65,0,0,0-1.68.52A2.47,2.47,0,0,0,686.31,350.81Z"/><path class="cls-5" d="M695.55,356.6V342.36h2.51V356.6Z"/><path class="cls-5" d="M702.49,352.76a2.5,2.5,0,0,0,2.75,1.83,2.57,2.57,0,0,0,2.18-1l2,1.17a4.83,4.83,0,0,1-4.25,2.09,5.24,5.24,0,0,1-3.88-1.46,5.14,5.14,0,0,1,3.68-8.83,4.65,4.65,0,0,1,3.54,1.48,5.15,5.15,0,0,1,1.39,3.67,5.89,5.89,0,0,1-.1,1Zm0-1.95h5a2.36,2.36,0,0,0-.89-1.48,2.54,2.54,0,0,0-1.53-.49,2.65,2.65,0,0,0-1.68.52A2.47,2.47,0,0,0,702.45,350.81Z"/><path class="cls-5" d="M716.25,356.87a5.15,5.15,0,1,1,0-10.29,5.05,5.05,0,0,1,2.59.68,4.54,4.54,0,0,1,1.77,1.83l-2.16,1.27a2.21,2.21,0,0,0-.89-1,2.58,2.58,0,0,0-1.34-.35,2.52,2.52,0,0,0-1.87.75,2.83,2.83,0,0,0,0,3.82,2.52,2.52,0,0,0,1.87.75,2.67,2.67,0,0,0,1.35-.34,2.15,2.15,0,0,0,.89-.95l2.18,1.25a4.88,4.88,0,0,1-1.81,1.84A5,5,0,0,1,716.25,356.87Z"/><path class="cls-5" d="M726.47,356.87a5.15,5.15,0,1,1,0-10.29,5.05,5.05,0,0,1,2.59.68,4.54,4.54,0,0,1,1.77,1.83l-2.16,1.27a2.21,2.21,0,0,0-.89-1,2.58,2.58,0,0,0-1.34-.35,2.52,2.52,0,0,0-1.87.75,2.83,2.83,0,0,0,0,3.82,2.52,2.52,0,0,0,1.87.75,2.67,2.67,0,0,0,1.35-.34,2.15,2.15,0,0,0,.89-.95l2.18,1.25a4.88,4.88,0,0,1-1.81,1.84A5,5,0,0,1,726.47,356.87Z"/><path class="cls-5" d="M733.45,345.68a1.57,1.57,0,0,1-1.54-1.54,1.51,1.51,0,0,1,.46-1.09,1.46,1.46,0,0,1,1.08-.47,1.49,1.49,0,0,1,1.1.47,1.51,1.51,0,0,1,.46,1.09,1.48,1.48,0,0,1-.46,1.08A1.5,1.5,0,0,1,733.45,345.68ZM732.2,356.6v-9.75h2.51v9.75Z"/><path class="cls-5" d="M745.32,355.38a5.2,5.2,0,1,1,1.5-3.66A5,5,0,0,1,745.32,355.38Zm-5.55-1.73a2.53,2.53,0,0,0,1.88.76,2.57,2.57,0,0,0,1.89-.76,2.83,2.83,0,0,0,0-3.86,2.57,2.57,0,0,0-1.89-.76,2.53,2.53,0,0,0-1.88.76,2.86,2.86,0,0,0,0,3.86Z"/><path class="cls-5" d="M754,346.58a3.53,3.53,0,0,1,2.64,1.07,4.07,4.07,0,0,1,1,3v6h-2.51v-5.67a2,2,0,0,0-.53-1.49,1.92,1.92,0,0,0-1.4-.52,2.07,2.07,0,0,0-1.56.6,2.51,2.51,0,0,0-.58,1.81v5.26H748.6v-9.75h2.51v1.09A3.25,3.25,0,0,1,754,346.58Z"/><path class="cls-5" d="M762,352.76a2.5,2.5,0,0,0,2.75,1.83,2.57,2.57,0,0,0,2.18-1l2,1.17a4.83,4.83,0,0,1-4.25,2.09,5.24,5.24,0,0,1-3.88-1.46,5.14,5.14,0,0,1,3.68-8.83,4.65,4.65,0,0,1,3.54,1.48,5.15,5.15,0,0,1,1.39,3.67,5.89,5.89,0,0,1-.1,1Zm0-1.95h5a2.36,2.36,0,0,0-.89-1.48,2.54,2.54,0,0,0-1.53-.49,2.65,2.65,0,0,0-1.68.52A2.47,2.47,0,0,0,761.93,350.81Z"/><path class="cls-5" d="M773.1,349.62q0,.39.52.63a6.86,6.86,0,0,0,1.26.43,13.09,13.09,0,0,1,1.48.47,2.88,2.88,0,0,1,1.26.95,2.61,2.61,0,0,1,.52,1.66,2.68,2.68,0,0,1-1.12,2.31,4.66,4.66,0,0,1-2.8.81,4.1,4.1,0,0,1-4.09-2.32l2.18-1.23a1.81,1.81,0,0,0,1.91,1.27q1.35,0,1.35-.84,0-.39-.52-.63a7.39,7.39,0,0,0-1.26-.44,13.1,13.1,0,0,1-1.48-.49,3,3,0,0,1-1.26-.93,2.43,2.43,0,0,1-.52-1.59,2.72,2.72,0,0,1,1.06-2.27,4.16,4.16,0,0,1,2.64-.83,4.42,4.42,0,0,1,2.16.54,3.92,3.92,0,0,1,1.54,1.53l-2.14,1.17a1.6,1.6,0,0,0-1.56-1,1.43,1.43,0,0,0-.81.21A.67.67,0,0,0,773.1,349.62Z"/><path class="cls-5" d="M914.43,342.95h.88V356.6h-1V344.09l-3.16,1-.25-.9Z"/><path class="cls-5" d="M922.2,348.51a4.79,4.79,0,0,1,3.22,1.12,4.15,4.15,0,0,1,0,6.06,4.8,4.8,0,0,1-3.23,1.12,5,5,0,0,1-2.68-.72,3.73,3.73,0,0,1-1.63-2l.88-.51a2.92,2.92,0,0,0,1.25,1.68,4,4,0,0,0,2.18.58,3.7,3.7,0,0,0,2.52-.86,3.18,3.18,0,0,0,0-4.6,3.71,3.71,0,0,0-2.52-.86h-3.65l.44-6.55h7.24v1h-6.3l-.3,4.58Z"/><path class="cls-4" d="M672.32,421.66h1.88v9.55h-1.88Z"/><path class="cls-4" d="M679.69,424.2a2.47,2.47,0,0,1,1.85.75,2.85,2.85,0,0,1,.73,2.07v4.19h-1.76v-4a1.4,1.4,0,0,0-.37-1,1.34,1.34,0,0,0-1-.36,1.45,1.45,0,0,0-1.09.42,1.76,1.76,0,0,0-.41,1.27v3.68H675.9v-6.82h1.76v.76A2.27,2.27,0,0,1,679.69,424.2Z"/><path class="cls-4" d="M687,431.4a3.6,3.6,0,1,1,0-7.21,3.53,3.53,0,0,1,1.81.48,3.17,3.17,0,0,1,1.24,1.28l-1.51.89a1.55,1.55,0,0,0-.62-.67,1.81,1.81,0,0,0-.93-.25,1.76,1.76,0,0,0-1.31.53,1.83,1.83,0,0,0-.52,1.34,1.81,1.81,0,0,0,.52,1.33,1.76,1.76,0,0,0,1.31.53,1.87,1.87,0,0,0,.95-.24,1.5,1.5,0,0,0,.62-.66l1.53.87a3.42,3.42,0,0,1-1.27,1.29A3.5,3.5,0,0,1,687,431.4Z"/><path class="cls-4" d="M696.74,430.36a3.64,3.64,0,1,1,1.05-2.56A3.5,3.5,0,0,1,696.74,430.36Zm-3.88-1.21a1.77,1.77,0,0,0,1.32.53,1.8,1.8,0,0,0,1.32-.53,2,2,0,0,0,0-2.7,1.8,1.8,0,0,0-1.32-.53,1.77,1.77,0,0,0-1.32.53,2,2,0,0,0,0,2.7Z"/><path class="cls-4" d="M700.79,425.56a1.84,1.84,0,0,1,.81-1,2.47,2.47,0,0,1,1.26-.33v2a2.07,2.07,0,0,0-1.44.33,1.56,1.56,0,0,0-.63,1.41v3.26H699v-6.82h1.76Z"/><path class="cls-4" d="M705.65,425.56a1.84,1.84,0,0,1,.81-1,2.47,2.47,0,0,1,1.26-.33v2a2.07,2.07,0,0,0-1.44.33,1.56,1.56,0,0,0-.63,1.41v3.26h-1.76v-6.82h1.76Z"/><path class="cls-4" d="M710,428.53a1.75,1.75,0,0,0,1.92,1.28,1.8,1.8,0,0,0,1.53-.68l1.42.82a3.38,3.38,0,0,1-3,1.46,3.67,3.67,0,0,1-2.72-1,3.6,3.6,0,0,1,2.58-6.18,3.26,3.26,0,0,1,2.48,1,3.6,3.6,0,0,1,1,2.57,4.12,4.12,0,0,1-.07.72Zm0-1.36h3.48a1.65,1.65,0,0,0-.62-1,1.78,1.78,0,0,0-1.07-.34,1.85,1.85,0,0,0-1.17.36A1.73,1.73,0,0,0,709.95,427.16Z"/><path class="cls-4" d="M719.61,431.4a3.6,3.6,0,1,1,0-7.21,3.53,3.53,0,0,1,1.81.48,3.17,3.17,0,0,1,1.24,1.28l-1.51.89a1.55,1.55,0,0,0-.62-.67,1.81,1.81,0,0,0-.93-.25,1.76,1.76,0,0,0-1.31.53,1.83,1.83,0,0,0-.52,1.34,1.81,1.81,0,0,0,.52,1.33,1.76,1.76,0,0,0,1.31.53,1.87,1.87,0,0,0,.95-.24,1.5,1.5,0,0,0,.62-.66l1.53.87a3.42,3.42,0,0,1-1.27,1.29A3.5,3.5,0,0,1,719.61,431.4Z"/><path class="cls-4" d="M727.52,426.08H726v2.84a.67.67,0,0,0,.18.52.81.81,0,0,0,.52.18,7.6,7.6,0,0,0,.85,0v1.6a3.75,3.75,0,0,1-2.56-.34,2.27,2.27,0,0,1-.74-2v-2.84H723v-1.69h1.19V423l1.76-.53v1.91h1.54Z"/><path class="cls-4" d="M733.75,424.39h1.76v6.82h-1.76v-.81a2.68,2.68,0,0,1-2.22,1,3.09,3.09,0,0,1-2.34-1,3.84,3.84,0,0,1,0-5.12,3.09,3.09,0,0,1,2.34-1,2.68,2.68,0,0,1,2.22,1Zm-3.25,4.8a1.82,1.82,0,0,0,1.35.54,1.84,1.84,0,0,0,1.36-.54,2,2,0,0,0,0-2.77,1.84,1.84,0,0,0-1.36-.54,1.82,1.82,0,0,0-1.35.54,2.07,2.07,0,0,0,0,2.77Z"/><path class="cls-4" d="M738.67,426.33q0,.27.36.44a4.81,4.81,0,0,0,.88.3,9.17,9.17,0,0,1,1,.33,2,2,0,0,1,.88.66,1.83,1.83,0,0,1,.36,1.16,1.87,1.87,0,0,1-.78,1.62,3.26,3.26,0,0,1-2,.57,2.87,2.87,0,0,1-2.87-1.62l1.53-.86a1.26,1.26,0,0,0,1.34.89q.94,0,.94-.59,0-.27-.36-.44a5.18,5.18,0,0,0-.88-.31,9.17,9.17,0,0,1-1-.34,2.13,2.13,0,0,1-.88-.65,1.7,1.7,0,0,1-.36-1.11,1.9,1.9,0,0,1,.74-1.59,2.91,2.91,0,0,1,1.85-.58,3.09,3.09,0,0,1,1.51.38,2.75,2.75,0,0,1,1.08,1.07l-1.5.82a1.12,1.12,0,0,0-1.09-.7,1,1,0,0,0-.57.15A.47.47,0,0,0,738.67,426.33Z"/><path class="cls-5" d="M918.07,430a3.26,3.26,0,0,1-5.27,0,7.31,7.31,0,0,1,0-7.18,3.26,3.26,0,0,1,5.27,0,7.31,7.31,0,0,1,0,7.18Zm-4.72-.47a2.52,2.52,0,0,0,4.18,0,6.85,6.85,0,0,0,0-6.24,2.52,2.52,0,0,0-4.18,0,6.85,6.85,0,0,0,0,6.24Z"/><path class="cls-5" d="M927.21,428.53v.68H926v2h-.72v-2h-5.14v-.68l3.63-6.86h.79l-3.61,6.86h4.34v-3H926v3Z"/><path class="cls-5" d="M678.64,474.28v1.8h-2.58v7.75h-1.88v-7.75h-2.57v-1.8Z"/><path class="cls-5" d="M680.48,476.2a1.1,1.1,0,0,1-1.08-1.08,1.06,1.06,0,0,1,.32-.76,1,1,0,0,1,.76-.33,1,1,0,0,1,.77.33,1.06,1.06,0,0,1,.32.76,1,1,0,0,1-.32.76A1.05,1.05,0,0,1,680.48,476.2Zm-.87,7.64V477h1.76v6.82Z"/><path class="cls-5" d="M684.47,481.15a1.75,1.75,0,0,0,1.92,1.28,1.8,1.8,0,0,0,1.53-.68l1.42.82a3.39,3.39,0,0,1-3,1.46,3.67,3.67,0,0,1-2.72-1,3.6,3.6,0,0,1,2.58-6.18,3.25,3.25,0,0,1,2.48,1,3.6,3.6,0,0,1,1,2.57,4.11,4.11,0,0,1-.07.72Zm0-1.36h3.48a1.65,1.65,0,0,0-.62-1,1.78,1.78,0,0,0-1.07-.34,1.85,1.85,0,0,0-1.17.36A1.73,1.73,0,0,0,684.44,479.78Z"/><path class="cls-5" d="M698.46,476.82a2.43,2.43,0,0,1,1.88.76,2.91,2.91,0,0,1,.7,2v4.2h-1.76v-4.08a1.4,1.4,0,0,0-.3-1,1.07,1.07,0,0,0-.85-.34,1.16,1.16,0,0,0-.93.4,1.73,1.73,0,0,0-.33,1.15v3.83H695.1v-4.08a1.4,1.4,0,0,0-.3-1,1.07,1.07,0,0,0-.85-.34,1.18,1.18,0,0,0-.93.4,1.69,1.69,0,0,0-.35,1.15v3.83h-1.76V477h1.76v.72a2.13,2.13,0,0,1,1.9-.91,2,2,0,0,1,1.86,1A2.31,2.31,0,0,1,698.46,476.82Z"/><path class="cls-5" d="M706.51,476.82a3.11,3.11,0,0,1,2.35,1,3.84,3.84,0,0,1,0,5.12,3.11,3.11,0,0,1-2.35,1,2.64,2.64,0,0,1-2.21-1v3.53h-1.76V477h1.76v.81A2.64,2.64,0,0,1,706.51,476.82Zm-1.68,5a1.82,1.82,0,0,0,1.35.54,1.84,1.84,0,0,0,1.36-.54,2,2,0,0,0,0-2.77,1.84,1.84,0,0,0-1.36-.54,1.82,1.82,0,0,0-1.35.54,2.07,2.07,0,0,0,0,2.77Z"/><path class="cls-5" d="M716.89,483a3.6,3.6,0,1,1,0-5.12,3.64,3.64,0,0,1,0,5.12ZM713,481.78a1.77,1.77,0,0,0,1.32.53,1.8,1.8,0,0,0,1.32-.53,2,2,0,0,0,0-2.7,1.8,1.8,0,0,0-1.32-.53,1.77,1.77,0,0,0-1.32.53,2,2,0,0,0,0,2.7Z"/><path class="cls-5" d="M863.36,474.28H864v9.55h-.72v-8.75l-2.21.69-.18-.63Z"/><path class="cls-5" d="M868.8,478.17a3.36,3.36,0,0,1,2.25.78,2.91,2.91,0,0,1,0,4.24,3.36,3.36,0,0,1-2.26.78,3.52,3.52,0,0,1-1.88-.5,2.61,2.61,0,0,1-1.14-1.42l.61-.36a2,2,0,0,0,.87,1.17,2.78,2.78,0,0,0,1.53.41,2.59,2.59,0,0,0,1.77-.6,2.23,2.23,0,0,0,0-3.22,2.59,2.59,0,0,0-1.77-.6h-2.55l.31-4.59h5.07V475h-4.41l-.21,3.21Z"/><path class="cls-5" d="M884.52,476.86a2.41,2.41,0,0,1,1.8.7,2.67,2.67,0,0,1,.68,2v4.33h-.68v-4.33a2,2,0,0,0-.5-1.47,1.74,1.74,0,0,0-1.32-.52,1.9,1.9,0,0,0-1.48.63,2.73,2.73,0,0,0-.57,1.88v3.81h-.68v-4.33a2.12,2.12,0,0,0-.47-1.47,1.64,1.64,0,0,0-1.28-.52,2,2,0,0,0-1.51.63,2.61,2.61,0,0,0-.61,1.88v3.81h-.68V477h.68v1.17a2.33,2.33,0,0,1,2.2-1.32,2.36,2.36,0,0,1,1.31.36,2.09,2.09,0,0,1,.82,1,2.44,2.44,0,0,1,1-1A2.61,2.61,0,0,1,884.52,476.86Z"/><path class="cls-5" d="M889.66,475.21a.54.54,0,0,1-.76,0,.52.52,0,0,1-.16-.39.5.5,0,0,1,.16-.38.54.54,0,0,1,.76,0,.5.5,0,0,1,.16.38A.52.52,0,0,1,889.66,475.21Zm-.72,8.63V477h.68v6.82Z"/><path class="cls-5" d="M894.84,476.86a2.56,2.56,0,0,1,1.93.74,2.74,2.74,0,0,1,.72,2v4.24h-.7v-4.24a2.12,2.12,0,0,0-.53-1.51,1.93,1.93,0,0,0-1.48-.56,2.28,2.28,0,0,0-1.72.7,2.8,2.8,0,0,0-.67,2v3.6h-.68V477h.68v1.3A2.54,2.54,0,0,1,894.84,476.86Z"/><path class="cls-5" d="M908.94,482.65a3.26,3.26,0,0,1-5.27,0,7.31,7.31,0,0,1,0-7.18,3.26,3.26,0,0,1,5.27,0,7.31,7.31,0,0,1,0,7.18Zm-4.72-.47a2.52,2.52,0,0,0,4.18,0,6.85,6.85,0,0,0,0-6.24,2.52,2.52,0,0,0-4.18,0,6.85,6.85,0,0,0,0,6.24Z"/><path class="cls-5" d="M911.05,483.84v-.66l3.51-3.6a4.4,4.4,0,0,0,1.54-2.7,1.93,1.93,0,0,0-.6-1.5,2.15,2.15,0,0,0-1.5-.55,2.34,2.34,0,0,0-2.28,1.45l-.61-.37a3.08,3.08,0,0,1,1.18-1.32,3.25,3.25,0,0,1,1.71-.46,2.93,2.93,0,0,1,2,.74,2.53,2.53,0,0,1,.84,2,3,3,0,0,1-.47,1.58,9.26,9.26,0,0,1-1.33,1.62l-3,3.06h5v.7Z"/><path class="cls-5" d="M922.82,478.78a.88.88,0,0,0,.43.78,3.48,3.48,0,0,0,1,.44l1.22.32a2.2,2.2,0,0,1,1,.59A1.56,1.56,0,0,1,927,482a1.71,1.71,0,0,1-.68,1.39,2.73,2.73,0,0,1-1.77.55,3.1,3.1,0,0,1-1.66-.42,2.18,2.18,0,0,1-.93-1.1l.59-.34a1.62,1.62,0,0,0,.72.88,2.43,2.43,0,0,0,1.29.32,2.22,2.22,0,0,0,1.26-.33,1.07,1.07,0,0,0,.5-.95.94.94,0,0,0-.42-.8,3.16,3.16,0,0,0-1-.46l-1.22-.32a2.3,2.3,0,0,1-1-.57,1.45,1.45,0,0,1-.42-1.09,1.75,1.75,0,0,1,.65-1.38,2.47,2.47,0,0,1,1.67-.56,2.69,2.69,0,0,1,1.43.37,2.23,2.23,0,0,1,.89,1l-.57.33a1.51,1.51,0,0,0-.68-.77,2.15,2.15,0,0,0-1.06-.27,1.93,1.93,0,0,0-1.17.34A1.08,1.08,0,0,0,922.82,478.78Z"/><path class="cls-5" d="M674.21,518.58h4v1.8h-5.91v-9.55h5.84v1.8h-4v2h3.62v1.77h-3.62Z"/><path class="cls-5" d="M681.1,515.49q0,.27.36.44a4.78,4.78,0,0,0,.88.3,9.21,9.21,0,0,1,1,.33,2,2,0,0,1,.88.66,1.83,1.83,0,0,1,.36,1.16,1.87,1.87,0,0,1-.78,1.62,3.26,3.26,0,0,1-2,.57,2.87,2.87,0,0,1-2.87-1.62l1.53-.86a1.27,1.27,0,0,0,1.34.89q.94,0,.94-.59,0-.27-.36-.44a5.16,5.16,0,0,0-.88-.31,9.17,9.17,0,0,1-1-.34,2.13,2.13,0,0,1-.88-.65,1.7,1.7,0,0,1-.36-1.11,1.91,1.91,0,0,1,.74-1.59,2.91,2.91,0,0,1,1.85-.58,3.09,3.09,0,0,1,1.51.37,2.75,2.75,0,0,1,1.08,1.07l-1.5.82a1.12,1.12,0,0,0-1.09-.7,1,1,0,0,0-.57.15A.47.47,0,0,0,681.1,515.49Z"/><path class="cls-5" d="M689.45,515.25h-1.54v2.84a.67.67,0,0,0,.18.52.81.81,0,0,0,.52.18,7.6,7.6,0,0,0,.85,0v1.6a3.75,3.75,0,0,1-2.56-.34,2.27,2.27,0,0,1-.74-2v-2.84H685v-1.69h1.19v-1.38l1.76-.53v1.91h1.54Z"/><path class="cls-5" d="M695.67,513.55h1.76v6.82h-1.76v-.81a2.68,2.68,0,0,1-2.22,1,3.09,3.09,0,0,1-2.34-1,3.84,3.84,0,0,1,0-5.12,3.09,3.09,0,0,1,2.34-1,2.68,2.68,0,0,1,2.22,1Zm-3.25,4.8a1.82,1.82,0,0,0,1.35.54,1.84,1.84,0,0,0,1.36-.54,2,2,0,0,0,0-2.77,1.84,1.84,0,0,0-1.36-.54,1.82,1.82,0,0,0-1.35.54,2.07,2.07,0,0,0,0,2.77Z"/><path class="cls-5" d="M704.2,510.82H706v9.55H704.2v-.81a2.64,2.64,0,0,1-2.21,1,3.11,3.11,0,0,1-2.35-1,3.84,3.84,0,0,1,0-5.12,3.11,3.11,0,0,1,2.35-1,2.64,2.64,0,0,1,2.21,1ZM701,518.35a1.84,1.84,0,0,0,1.36.54,1.82,1.82,0,0,0,1.35-.54,2.07,2.07,0,0,0,0-2.77,1.82,1.82,0,0,0-1.35-.54,1.84,1.84,0,0,0-1.36.54,2,2,0,0,0,0,2.77Z"/><path class="cls-5" d="M713.39,519.52a3.6,3.6,0,1,1,0-5.12,3.64,3.64,0,0,1,0,5.12Zm-3.88-1.21a1.77,1.77,0,0,0,1.32.53,1.8,1.8,0,0,0,1.32-.53,2,2,0,0,0,0-2.7,1.8,1.8,0,0,0-1.32-.53,1.77,1.77,0,0,0-1.32.53,2,2,0,0,0,0,2.7Z"/><path class="cls-5" d="M864.67,510.82a2.89,2.89,0,0,1,3,3,2.85,2.85,0,0,1-.85,2.11,2.9,2.9,0,0,1-2.13.84h-2.52v3.64h-.72v-9.55Zm0,5.23a2.18,2.18,0,0,0,1.62-.64,2.41,2.41,0,0,0,0-3.26,2.18,2.18,0,0,0-1.62-.64h-2.52v4.54Z"/><path class="cls-5" d="M869.84,514.89a2.27,2.27,0,0,1,2.28-1.43v.66a2.27,2.27,0,0,0-1.62.62,2.43,2.43,0,0,0-.66,1.85v3.79h-.68v-6.82h.68Z"/><path class="cls-5" d="M876.16,513.4a3.09,3.09,0,0,1,2.44,1.06,3.7,3.7,0,0,1,.93,2.52s0,.09,0,.16,0,.13,0,.16h-6.18a2.76,2.76,0,0,0,.92,1.85,3.14,3.14,0,0,0,3.4.36,2.33,2.33,0,0,0,.93-.9l.6.35a3,3,0,0,1-1.2,1.13,3.7,3.7,0,0,1-1.77.42,3.51,3.51,0,0,1-2.58-1,3.45,3.45,0,0,1-1-2.56,3.5,3.5,0,0,1,1-2.55A3.4,3.4,0,0,1,876.16,513.4Zm0,.66a2.74,2.74,0,0,0-1.94.72,2.82,2.82,0,0,0-.89,1.87h5.49a2.8,2.8,0,0,0-.87-1.9A2.58,2.58,0,0,0,876.16,514.06Z"/><path class="cls-5" d="M884.74,513.4a3.56,3.56,0,0,1,0,7.12,3.3,3.3,0,0,1-1.74-.46,3.17,3.17,0,0,1-1.19-1.27v4.31h-.68v-9.55h.68v1.58a3.17,3.17,0,0,1,1.19-1.27A3.31,3.31,0,0,1,884.74,513.4ZM882.65,519a2.92,2.92,0,0,0,4.11,0,2.95,2.95,0,0,0,0-4.12,2.92,2.92,0,0,0-4.11,0,2.95,2.95,0,0,0,0,4.12Z"/><path class="cls-5" d="M895.93,513.55h.7v6.82h-.7v-1.54a3.23,3.23,0,0,1-1.2,1.24,3.35,3.35,0,0,1-1.73.45,3.56,3.56,0,0,1,0-7.12,3.35,3.35,0,0,1,1.73.45,3.22,3.22,0,0,1,1.2,1.24ZM891,519a2.91,2.91,0,0,0,4.1,0,3,3,0,0,0,0-4.12,2.91,2.91,0,0,0-4.1,0,2.95,2.95,0,0,0,0,4.12Z"/><path class="cls-5" d="M899.41,514.89a2.27,2.27,0,0,1,2.28-1.43v.66a2.27,2.27,0,0,0-1.62.62,2.43,2.43,0,0,0-.66,1.85v3.79h-.68v-6.82h.68Z"/><path class="cls-5" d="M908.66,513.55h.7v6.82h-.7v-1.54a3.23,3.23,0,0,1-1.2,1.24,3.35,3.35,0,0,1-1.73.45,3.56,3.56,0,0,1,0-7.12,3.35,3.35,0,0,1,1.73.45,3.22,3.22,0,0,1,1.2,1.24ZM903.73,519a2.91,2.91,0,0,0,4.1,0,3,3,0,0,0,0-4.12,2.91,2.91,0,0,0-4.1,0,2.95,2.95,0,0,0,0,4.12Z"/><path class="cls-5" d="M917.48,510.82h.68v9.55h-.68v-1.58a3.18,3.18,0,0,1-1.19,1.27,3.31,3.31,0,0,1-1.74.46A3.52,3.52,0,0,1,911,517a3.52,3.52,0,0,1,3.53-3.56,3.31,3.31,0,0,1,1.74.46,3.18,3.18,0,0,1,1.19,1.27Zm-4.95,8.2a2.92,2.92,0,0,0,4.11,0,2.95,2.95,0,0,0,0-4.12,2.92,2.92,0,0,0-4.11,0,2.95,2.95,0,0,0,0,4.12Z"/><path class="cls-5" d="M923.39,520.53a3.48,3.48,0,0,1-2.55-1,3.59,3.59,0,0,1,0-5.06,3.64,3.64,0,0,1,5.08,0,3.59,3.59,0,0,1,0,5.06A3.47,3.47,0,0,1,923.39,520.53Zm-2.05-1.5a2.91,2.91,0,0,0,4.1,0,3,3,0,0,0,0-4.12,2.91,2.91,0,0,0-4.1,0,2.95,2.95,0,0,0,0,4.12Z"/><path class="cls-1" d="M255.2,358.52l-1.2-3.13h-6.16l-1.2,3.13h-1l4.78-12.31h1l4.77,12.31Zm-7-4h5.49l-2.75-7.16Z"/><path class="cls-1" d="M258.68,351.44a2.92,2.92,0,0,1,2.94-1.85v.84a2.93,2.93,0,0,0-2.09.8,3.13,3.13,0,0,0-.84,2.38v4.89h-.88v-8.8h.88Z"/><path class="cls-1" d="M266.9,358.71a4.59,4.59,0,1,1,2.32-8.58,3.62,3.62,0,0,1,1.51,1.64l-.72.42a3,3,0,0,0-1.22-1.34,3.65,3.65,0,0,0-1.89-.49,3.59,3.59,0,0,0-2.66,1.08,3.85,3.85,0,0,0,0,5.33,3.59,3.59,0,0,0,2.66,1.08,3.65,3.65,0,0,0,1.89-.49,3.29,3.29,0,0,0,1.28-1.34l.74.44a4,4,0,0,1-1.57,1.63A4.56,4.56,0,0,1,266.9,358.71Z"/><path class="cls-1" d="M276.77,349.53a3.3,3.3,0,0,1,2.49,1,3.53,3.53,0,0,1,.92,2.56v5.47h-.9V353a2.74,2.74,0,0,0-.68-2,2.49,2.49,0,0,0-1.91-.72,2.94,2.94,0,0,0-2.22.9,3.61,3.61,0,0,0-.86,2.6v4.64h-.88V346.2h.88v5.19A3.27,3.27,0,0,1,276.77,349.53Z"/><path class="cls-1" d="M283.59,347.39a.7.7,0,0,1-1,0,.67.67,0,0,1-.21-.5.65.65,0,0,1,.21-.48.7.7,0,0,1,1,0,.65.65,0,0,1,.21.48A.67.67,0,0,1,283.59,347.39Zm-.93,11.13v-8.8h.88v8.8Z"/><path class="cls-1" d="M292.7,349.72h.93l-3.71,8.8h-1.07l-3.73-8.8h.95l3.3,7.88Z"/><path class="cls-1" d="M298.91,358.71a4.49,4.49,0,0,1-3.28-1.33,4.63,4.63,0,0,1,0-6.53,4.69,4.69,0,0,1,6.54,0,4.63,4.63,0,0,1,0,6.53A4.47,4.47,0,0,1,298.91,358.71Zm-2.65-1.94a3.75,3.75,0,0,0,5.29,0,3.82,3.82,0,0,0,0-5.31,3.75,3.75,0,0,0-5.29,0,3.8,3.8,0,0,0,0,5.31Z"/><path class="cls-1" d="M318.09,346.2H319v12.31h-.88v-2a4.09,4.09,0,0,1-1.54,1.64,4.26,4.26,0,0,1-2.24.6,4.59,4.59,0,0,1,0-9.18,4.27,4.27,0,0,1,2.24.6,4.1,4.1,0,0,1,1.54,1.64Zm-6.38,10.57a3.76,3.76,0,0,0,5.29,0,3.8,3.8,0,0,0,0-5.31,3.76,3.76,0,0,0-5.29,0,3.8,3.8,0,0,0,0,5.31Z"/><path class="cls-1" d="M325.63,349.53a4,4,0,0,1,3.14,1.37,4.77,4.77,0,0,1,1.21,3.25s0,.12,0,.21,0,.16,0,.21h-8a3.56,3.56,0,0,0,1.19,2.38,4.05,4.05,0,0,0,4.39.47,3,3,0,0,0,1.2-1.16l.77.46a3.9,3.9,0,0,1-1.55,1.45,4.77,4.77,0,0,1-2.29.54,4.52,4.52,0,0,1-3.32-1.29,4.45,4.45,0,0,1-1.3-3.3,4.52,4.52,0,0,1,1.28-3.28A4.38,4.38,0,0,1,325.63,349.53Zm0,.84a3.53,3.53,0,0,0-2.5.93,3.64,3.64,0,0,0-1.14,2.41h7.07a3.61,3.61,0,0,0-1.12-2.45A3.32,3.32,0,0,0,325.63,350.37Z"/><path class="cls-1" d="M340.76,358.71a4.59,4.59,0,1,1,2.32-8.58,3.62,3.62,0,0,1,1.51,1.64l-.72.42a3,3,0,0,0-1.22-1.34,3.65,3.65,0,0,0-1.89-.49,3.59,3.59,0,0,0-2.66,1.08,3.85,3.85,0,0,0,0,5.33,3.59,3.59,0,0,0,2.66,1.08,3.65,3.65,0,0,0,1.89-.49,3.29,3.29,0,0,0,1.28-1.34l.74.44a4,4,0,0,1-1.57,1.63A4.56,4.56,0,0,1,340.76,358.71Z"/><path class="cls-1" d="M354.26,349.72h.9v8.8h-.9v-2a4.15,4.15,0,0,1-1.55,1.6,4.32,4.32,0,0,1-2.23.58,4.59,4.59,0,0,1,0-9.18,4.32,4.32,0,0,1,2.23.58,4.15,4.15,0,0,1,1.55,1.6Zm-6.36,7.05a3.75,3.75,0,0,0,5.29,0,3.82,3.82,0,0,0,0-5.31,3.75,3.75,0,0,0-5.29,0,3.8,3.8,0,0,0,0,5.31Z"/><path class="cls-1" d="M357.86,358.52V345.67h.88v12.84Z"/><path class="cls-1" d="M362.38,347.39a.7.7,0,0,1-1,0,.67.67,0,0,1-.21-.5.65.65,0,0,1,.21-.48.7.7,0,0,1,1,0,.65.65,0,0,1,.21.48A.67.67,0,0,1,362.38,347.39Zm-.93,11.13v-8.8h.88v8.8Z"/><path class="cls-1" d="M369.7,349.53a4.59,4.59,0,0,1,0,9.18,4.26,4.26,0,0,1-2.24-.6,4.09,4.09,0,0,1-1.54-1.64v2H365V346.2h.88v5.56a4.1,4.1,0,0,1,1.54-1.64A4.27,4.27,0,0,1,369.7,349.53Zm-2.7,7.25a3.76,3.76,0,0,0,5.29,0,3.8,3.8,0,0,0,0-5.31,3.76,3.76,0,0,0-5.29,0,3.8,3.8,0,0,0,0,5.31Z"/><path class="cls-1" d="M377.27,351.44a2.92,2.92,0,0,1,2.94-1.85v.84a2.93,2.93,0,0,0-2.09.8,3.13,3.13,0,0,0-.84,2.38v4.89h-.88v-8.8h.88Z"/><path class="cls-1" d="M389.19,349.72h.9v8.8h-.9v-2a4.15,4.15,0,0,1-1.55,1.6,4.32,4.32,0,0,1-2.23.58,4.59,4.59,0,0,1,0-9.18,4.32,4.32,0,0,1,2.23.58,4.15,4.15,0,0,1,1.55,1.6Zm-6.36,7.05a3.75,3.75,0,0,0,5.29,0,3.82,3.82,0,0,0,0-5.31,3.75,3.75,0,0,0-5.29,0,3.8,3.8,0,0,0,0,5.31Z"/><path class="cls-1" d="M396.83,358.71a4.59,4.59,0,1,1,2.32-8.58,3.62,3.62,0,0,1,1.51,1.64l-.72.42a3,3,0,0,0-1.22-1.34,3.65,3.65,0,0,0-1.89-.49,3.59,3.59,0,0,0-2.66,1.08,3.85,3.85,0,0,0,0,5.33,3.59,3.59,0,0,0,2.66,1.08,3.65,3.65,0,0,0,1.89-.49A3.29,3.29,0,0,0,400,356l.74.44a4,4,0,0,1-1.57,1.63A4.56,4.56,0,0,1,396.83,358.71Z"/><path class="cls-1" d="M403.6,347.39a.7.7,0,0,1-1,0,.67.67,0,0,1-.21-.5.65.65,0,0,1,.21-.48.7.7,0,0,1,1,0,.65.65,0,0,1,.21.48A.67.67,0,0,1,403.6,347.39Zm-.93,11.13v-8.8h.88v8.8Z"/><path class="cls-1" d="M410.28,358.71a4.49,4.49,0,0,1-3.28-1.33,4.63,4.63,0,0,1,0-6.53,4.69,4.69,0,0,1,6.54,0,4.63,4.63,0,0,1,0,6.53A4.47,4.47,0,0,1,410.28,358.71Zm-2.65-1.94a3.75,3.75,0,0,0,5.29,0,3.82,3.82,0,0,0,0-5.31,3.75,3.75,0,0,0-5.29,0,3.8,3.8,0,0,0,0,5.31Zm1.86-8.29h.86l1.6-2.24h-1Z"/><path class="cls-1" d="M421,349.53a3.3,3.3,0,0,1,2.49,1,3.53,3.53,0,0,1,.92,2.56v5.47h-.9V353a2.74,2.74,0,0,0-.68-2,2.49,2.49,0,0,0-1.91-.72,2.94,2.94,0,0,0-2.22.9,3.61,3.61,0,0,0-.86,2.6v4.64H417v-8.8h.88v1.67A3.27,3.27,0,0,1,421,349.53Z"/><rect class="cls-3" x="149.7" y="331.55" width="9.4" height="32.04"/><polygon class="cls-1" points="471.66 219.68 467.19 214.03 467.87 213.49 471.66 218.29 475.6 213.32 476.27 213.85 471.66 219.68"/><rect class="cls-5" x="376.94" y="467.15" width="119.28" height="59.73" rx="3.16" ry="3.16"/><path class="cls-1" d="M493.06,527.31h-113a3.59,3.59,0,0,1-3.59-3.59V470.31a3.59,3.59,0,0,1,3.59-3.59h113a3.59,3.59,0,0,1,3.59,3.59v53.41A3.59,3.59,0,0,1,493.06,527.31Zm-113-59.73a2.73,2.73,0,0,0-2.73,2.73v53.41a2.73,2.73,0,0,0,2.73,2.73h113a2.73,2.73,0,0,0,2.73-2.73V470.31a2.73,2.73,0,0,0-2.73-2.73Z"/><path class="cls-6" d="M409.25,501.73a7.49,7.49,0,0,1-3.09.55c-3.3,0-5.78-2.08-5.78-5.91a5.82,5.82,0,0,1,6.11-6.14,6.26,6.26,0,0,1,2.77.52L408.9,492a5.5,5.5,0,0,0-2.36-.49c-2.74,0-4.56,1.75-4.56,4.82,0,2.86,1.65,4.7,4.49,4.7a6,6,0,0,0,2.46-.49Z"/><path class="cls-6" d="M418.49,497.84a4.1,4.1,0,0,1-4.18,4.46,4,4,0,0,1-4-4.32,4.1,4.1,0,0,1,4.16-4.46A4,4,0,0,1,418.49,497.84Zm-6.66.09c0,1.84,1.06,3.23,2.55,3.23s2.55-1.37,2.55-3.26c0-1.42-.71-3.23-2.51-3.23S411.83,496.33,411.83,497.93Z"/><path class="cls-6" d="M420.42,496c0-.87,0-1.58-.07-2.27h1.34l.07,1.35h.05a2.89,2.89,0,0,1,2.64-1.54,2.48,2.48,0,0,1,2.38,1.68h0a3.46,3.46,0,0,1,.94-1.09,2.86,2.86,0,0,1,1.86-.59c1.11,0,2.76.73,2.76,3.64v4.94h-1.49v-4.75c0-1.61-.59-2.58-1.82-2.58a2,2,0,0,0-1.8,1.39,2.51,2.51,0,0,0-.12.76v5.19h-1.49v-5c0-1.34-.59-2.31-1.75-2.31a2.28,2.28,0,0,0-2,2.27v5.06h-1.49Z"/><path class="cls-6" d="M435.73,498.19a2.69,2.69,0,0,0,2.88,2.91,5.52,5.52,0,0,0,2.32-.43l.26,1.09a6.8,6.8,0,0,1-2.79.52,3.9,3.9,0,0,1-4.13-4.23c0-2.53,1.49-4.53,3.94-4.53,2.74,0,3.47,2.41,3.47,4a5.68,5.68,0,0,1-.05.71Zm4.47-1.09a2.17,2.17,0,0,0-2.12-2.48,2.53,2.53,0,0,0-2.34,2.48Z"/><path class="cls-6" d="M443.57,496c0-.87,0-1.58-.07-2.27h1.35l.09,1.39h0a3.09,3.09,0,0,1,2.78-1.58c1.16,0,3,.69,3,3.57v5h-1.53v-4.84c0-1.35-.5-2.48-1.94-2.48a2.17,2.17,0,0,0-2,1.56,2.19,2.19,0,0,0-.1.71v5h-1.53Z"/><path class="cls-6" d="M452.25,501.22l3.8-4.94c.36-.45.71-.85,1.09-1.3v0h-4.54v-1.23H459l0,1-3.75,4.87c-.35.47-.69.88-1.08,1.32v0h4.91v1.21h-6.82Z"/><path class="cls-6" d="M465.27,502.11l-.12-1.06h-.05a3.13,3.13,0,0,1-2.57,1.25,2.39,2.39,0,0,1-2.57-2.41c0-2,1.8-3.14,5-3.12v-.17a1.73,1.73,0,0,0-1.91-1.94,4.18,4.18,0,0,0-2.19.62l-.35-1a5.21,5.21,0,0,1,2.76-.75c2.57,0,3.19,1.75,3.19,3.43v3.14a11.82,11.82,0,0,0,.14,2Zm-.23-4.28c-1.66,0-3.56.26-3.56,1.89a1.35,1.35,0,0,0,1.44,1.46,2.09,2.09,0,0,0,2-1.4,1.6,1.6,0,0,0,.09-.49Z"/><path class="cls-6" d="M469,496.33c0-1,0-1.84-.07-2.62h1.34l.05,1.65h.07a2.52,2.52,0,0,1,2.32-1.84,1.66,1.66,0,0,1,.43.05V495a2.3,2.3,0,0,0-.52-.05,2.14,2.14,0,0,0-2,2,4.32,4.32,0,0,0-.07.71v4.48H469Z"/><rect class="cls-2" x="505.11" y="203.61" width="59.16" height="25.35" rx="0.59" ry="0.59"/><path class="cls-1" d="M563.68,229.18h-58a.81.81,0,0,1-.81-.81V204.2a.81.81,0,0,1,.81-.81h58a.81.81,0,0,1,.81.81v24.17A.81.81,0,0,1,563.68,229.18Zm-58-25.35a.38.38,0,0,0-.38.38v24.17a.38.38,0,0,0,.38.38h58a.38.38,0,0,0,.38-.38V204.2a.38.38,0,0,0-.38-.38Z"/><rect class="cls-2" x="245.38" y="374.35" width="318.89" height="25.35" rx="0.59" ry="0.59"/><path class="cls-1" d="M563.68,399.91H246a.81.81,0,0,1-.81-.81V374.94a.81.81,0,0,1,.81-.81H563.68a.81.81,0,0,1,.81.81v24.17A.81.81,0,0,1,563.68,399.91ZM246,374.56a.38.38,0,0,0-.38.38v24.17a.38.38,0,0,0,.38.38H563.68a.38.38,0,0,0,.38-.38V374.94a.38.38,0,0,0-.38-.38Z"/><path class="cls-1" d="M381,314.8H246.11a.81.81,0,0,1-.81-.81V289.83a.81.81,0,0,1,.81-.81H381a.81.81,0,0,1,.81.81V314A.81.81,0,0,1,381,314.8ZM246.11,289.45a.38.38,0,0,0-.38.38V314a.38.38,0,0,0,.38.38H381a.38.38,0,0,0,.38-.38V289.83a.38.38,0,0,0-.38-.38Z"/><path class="cls-1" d="M255.14,261.15h.93v12.31h-.83L248,262.87v10.6H247V261.15h.78l7.32,10.64Z"/><path class="cls-1" d="M259.89,262.34a.7.7,0,0,1-1,0,.67.67,0,0,1-.21-.5.65.65,0,0,1,.21-.48.7.7,0,0,1,1,0,.65.65,0,0,1,.21.48A.67.67,0,0,1,259.89,262.34ZM259,273.47v-8.8h.88v8.8Z"/><path class="cls-1" d="M269,264.67h.93l-3.71,8.8h-1.07l-3.73-8.8h.95l3.3,7.88Z"/><path class="cls-1" d="M275.14,264.48a4,4,0,0,1,3.14,1.37,4.77,4.77,0,0,1,1.21,3.25s0,.12,0,.21,0,.16,0,.21h-8a3.56,3.56,0,0,0,1.19,2.38,4.05,4.05,0,0,0,4.39.47,3,3,0,0,0,1.2-1.16l.77.46a3.9,3.9,0,0,1-1.55,1.45,4.77,4.77,0,0,1-2.29.54,4.52,4.52,0,0,1-3.32-1.29,4.45,4.45,0,0,1-1.3-3.3,4.52,4.52,0,0,1,1.28-3.28A4.38,4.38,0,0,1,275.14,264.48Zm0,.84a3.53,3.53,0,0,0-2.5.93,3.64,3.64,0,0,0-1.14,2.41h7.07a3.61,3.61,0,0,0-1.12-2.45A3.32,3.32,0,0,0,275.14,265.32Z"/><path class="cls-1" d="M281.54,273.47V260.63h.88v12.84Z"/><polygon class="cls-1" points="365.64 305.22 360.11 299.69 360.72 299.08 365.64 304 370.74 298.91 371.35 299.52 365.64 305.22"/><path class="cls-1" d="M563.68,314.8H428.75a.81.81,0,0,1-.81-.81V289.83a.81.81,0,0,1,.81-.81H563.68a.81.81,0,0,1,.81.81V314A.81.81,0,0,1,563.68,314.8ZM428.75,289.45a.38.38,0,0,0-.38.38V314a.38.38,0,0,0,.38.38H563.68a.38.38,0,0,0,.38-.38V289.83a.38.38,0,0,0-.38-.38Z"/><path class="cls-1" d="M441.4,267.73v.47a5.17,5.17,0,0,1-1.64,3.88,6,6,0,0,1-4.31,1.57,6.28,6.28,0,0,1-4.64-1.84,6.39,6.39,0,0,1,7.68-10.05,5.75,5.75,0,0,1,2.19,2.16l-.83.49a4.68,4.68,0,0,0-1.82-1.86,5.16,5.16,0,0,0-2.65-.7,5.26,5.26,0,0,0-3.93,1.57,5.46,5.46,0,0,0,4,9.33,5.1,5.1,0,0,0,3.5-1.18,4.33,4.33,0,0,0,1.5-3h-5.22v-.88Z"/><path class="cls-1" d="M450,264.67h.88v8.8H450V271.8a3.64,3.64,0,0,1-5.64.91,3.53,3.53,0,0,1-.92-2.56v-5.47h.9v5.47a2.74,2.74,0,0,0,.68,2,2.49,2.49,0,0,0,1.91.72,2.94,2.94,0,0,0,2.22-.9,3.61,3.61,0,0,0,.86-2.6Z"/><path class="cls-1" d="M454.47,261.21h1.07l-1.18,2.23h-.86Zm-.05,12.26v-8.8h-.88v8.8Z"/><path class="cls-1" d="M464.87,264.67h.9v8.8h-.9v-2a4.15,4.15,0,0,1-1.55,1.6,4.32,4.32,0,0,1-2.23.58,4.59,4.59,0,0,1,0-9.18,4.32,4.32,0,0,1,2.23.58,4.15,4.15,0,0,1,1.55,1.6Zm-6.36,7.05a3.75,3.75,0,0,0,5.29,0,3.82,3.82,0,0,0,0-5.31,3.75,3.75,0,0,0-5.29,0,3.8,3.8,0,0,0,0,5.31Z"/><path class="cls-1" d="M474.1,262.34a.7.7,0,0,1-1,0,.67.67,0,0,1-.21-.5.65.65,0,0,1,.21-.48.7.7,0,0,1,1,0,.65.65,0,0,1,.21.48A.67.67,0,0,1,474.1,262.34Zm-.93,11.13v-8.8h.88v8.8Z"/><path class="cls-1" d="M480.79,264.48a3.3,3.3,0,0,1,2.49,1,3.53,3.53,0,0,1,.92,2.56v5.47h-.9V268a2.74,2.74,0,0,0-.68-2,2.49,2.49,0,0,0-1.91-.72,2.94,2.94,0,0,0-2.22.9,3.61,3.61,0,0,0-.86,2.6v4.64h-.88v-8.8h.88v1.67A3.27,3.27,0,0,1,480.79,264.48Z"/><path class="cls-1" d="M487.61,262.34a.7.7,0,0,1-1,0,.67.67,0,0,1-.21-.5.65.65,0,0,1,.21-.48.7.7,0,0,1,1,0,.65.65,0,0,1,.21.48A.67.67,0,0,1,487.61,262.34Zm-.93,11.13v-8.8h.88v8.8Z"/><path class="cls-1" d="M494.3,273.66a4.59,4.59,0,1,1,2.32-8.58,3.62,3.62,0,0,1,1.51,1.64l-.72.42a3,3,0,0,0-1.22-1.34,3.65,3.65,0,0,0-1.89-.49,3.59,3.59,0,0,0-2.66,1.08,3.85,3.85,0,0,0,0,5.33,3.59,3.59,0,0,0,2.66,1.08,3.65,3.65,0,0,0,1.89-.49,3.29,3.29,0,0,0,1.28-1.34l.74.44a4,4,0,0,1-1.57,1.63A4.56,4.56,0,0,1,494.3,273.66Z"/><path class="cls-1" d="M501.07,262.34a.7.7,0,0,1-1,0,.67.67,0,0,1-.21-.5.65.65,0,0,1,.21-.48.7.7,0,0,1,1,0,.65.65,0,0,1,.21.48A.67.67,0,0,1,501.07,262.34Zm-.93,11.13v-8.8H501v8.8Z"/><path class="cls-1" d="M511.47,264.67h.9v8.8h-.9v-2a4.15,4.15,0,0,1-1.55,1.6,4.32,4.32,0,0,1-2.23.58,4.59,4.59,0,0,1,0-9.18,4.32,4.32,0,0,1,2.23.58,4.15,4.15,0,0,1,1.55,1.6Zm-6.36,7.05a3.75,3.75,0,0,0,5.29,0,3.82,3.82,0,0,0,0-5.31,3.75,3.75,0,0,0-5.29,0,3.8,3.8,0,0,0,0,5.31Z"/><path class="cls-1" d="M515.07,273.47V260.63H516v12.84Z"/><polygon class="cls-1" points="548.28 305.22 542.75 299.69 543.36 299.08 548.28 304 553.38 298.91 553.99 299.52 548.28 305.22"/><path class="cls-3" d="M24.72,525a5.43,5.43,0,0,0,2.74.77c1.57,0,2.48-.83,2.48-2s-.63-1.74-2.23-2.36c-1.94-.69-3.13-1.69-3.13-3.36,0-1.85,1.53-3.22,3.84-3.22a5.39,5.39,0,0,1,2.62.58l-.42,1.25a4.72,4.72,0,0,0-2.25-.56c-1.62,0-2.23,1-2.23,1.78,0,1.11.72,1.65,2.36,2.29,2,.77,3,1.74,3,3.48s-1.35,3.41-4.15,3.41a6.13,6.13,0,0,1-3-.76Z"/><path class="cls-3" d="M38.32,526.88l-.12-1.07h-.05a3.17,3.17,0,0,1-2.6,1.27,2.43,2.43,0,0,1-2.6-2.45c0-2.06,1.83-3.18,5.12-3.17v-.18a1.76,1.76,0,0,0-1.94-2,4.24,4.24,0,0,0-2.22.63l-.35-1a5.28,5.28,0,0,1,2.8-.76c2.6,0,3.24,1.78,3.24,3.48v3.18a12,12,0,0,0,.14,2Zm-.23-4.35c-1.69,0-3.61.26-3.61,1.92a1.37,1.37,0,0,0,1.46,1.48A2.12,2.12,0,0,0,38,524.5a1.6,1.6,0,0,0,.09-.49Z"/><path class="cls-3" d="M42.09,514.39h1.55v12.49H42.09Z"/><path class="cls-3" d="M48,516A1,1,0,0,1,46,516a.94.94,0,0,1,1-1A.92.92,0,0,1,48,516Zm-1.72,10.91v-8.52h1.55v8.52Z"/><path class="cls-3" d="M50.36,521c0-1,0-1.86-.07-2.66h1.35l.05,1.67h.07a2.56,2.56,0,0,1,2.36-1.86,1.69,1.69,0,0,1,.44.05v1.46a2.34,2.34,0,0,0-.53-.05,2.17,2.17,0,0,0-2.08,2,4.33,4.33,0,0,0-.07.72v4.54H50.36Z"/><g class="cls-7"><path class="cls-3" d="M119.29,104.25,106.37,93.7a2,2,0,0,0-.47-2.37l3.7-6.86a.44.44,0,0,0-.77-.42l0,.08L87.35,81.64a2,2,0,0,0-1.89-1.76l-1.13-6a.44.44,0,0,0-.86.16l1.13,6a2,2,0,0,0-1,.88L66.34,76.17a.44.44,0,1,0-.23.85L83.4,81.77v0l-14.75,3A2,2,0,0,0,65,85L50.6,84a.44.44,0,1,0-.06.87L64.9,85.92a2,2,0,0,0,.8,1.31l-7.83,18.51-7.66,4.86a2,2,0,0,0-3.08.38l-9.25-3.09a.44.44,0,1,0-.28.83l9.24,3.09c0,.06,0,.13,0,.2a2,2,0,0,0,1.23,1.83l-1.47,8.77a.44.44,0,0,0,.36.5H47a.44.44,0,0,0,.43-.37L48.93,114a2,2,0,0,0,1-.31l15.49,15.17h0l0,0,0,0,0,0h0l.06,0h.21l.06,0,0,0,0,0,0,0,0,0h0L82.7,110.54a2,2,0,0,0,.58.22L83.66,129a.44.44,0,0,0,.44.43h0a.44.44,0,0,0,.43-.45l-.38-18.28a2,2,0,0,0,1.27-1l18.29,4.87s0,0,0,.07a2,2,0,0,0,2.81,1.8l6.58,8.56a.44.44,0,1,0,.69-.53l-6.58-8.55a2,2,0,0,0-1.18-3.21l-.91-18a2,2,0,0,0,.68-.35l12.93,10.55a.44.44,0,0,0,.55-.68ZM105.13,90.91a2,2,0,0,0-2.45,1.41l-23.57-.67L68.76,86.14a2,2,0,0,0,.07-.47l14.75-3a2,2,0,0,0,3.67-.16L108.34,85ZM58.45,106.4a.44.44,0,0,0,.17-.2L66.5,87.57a2,2,0,0,0,1.84-.65l10.28,5.47,4.11,14.7a2,2,0,0,0-1,1.74s0,.06,0,.09l-7,1.95-23.93.66-.05-.17Zm7.22,21.49L50.5,113a2,2,0,0,0,.26-.65l24-.66.1,0,7.09-2,.12.19Zm20-19s0,0,0-.07a2,2,0,0,0-2-2h-.1l-4-14.31,23.07.66a2,2,0,0,0,1.6,1.56l.91,18a2,2,0,0,0-1.22,1Z"/></g><circle class="cls-3" cx="50.2" cy="83.16" r="1.96"/><circle class="cls-3" cx="83.93" cy="73.16" r="1.96"/><circle class="cls-3" cx="96.98" cy="116.64" r="1.96"/><circle class="cls-3" cx="113.94" cy="124.97" r="1.96"/><circle class="cls-3" cx="109.38" cy="84.06" r="1.96"/><path class="cls-3" d="M119.6,101.7a2.43,2.43,0,0,0-.67.1l-8-15.82a2.48,2.48,0,1,0-3.44-3.54l-9-4.55L86.4,73.46a2.45,2.45,0,0,0,0-.3,2.48,2.48,0,0,0-4.94-.2L68.26,74.61a2.48,2.48,0,0,0-4.72,1.07,2.29,2.29,0,0,0,0,.35L52.21,81.7a2.48,2.48,0,0,0-4.48,1.46,2.44,2.44,0,0,0,.47,1.43l-8.87,10.2a2.45,2.45,0,0,0-1.2-.32,2.48,2.48,0,0,0-.67,4.87l-.6,6.32a2.48,2.48,0,0,0,.3,4.94,2.42,2.42,0,0,0,.92-.18L45,121.06a2.48,2.48,0,0,0,1.53,4.44,2.49,2.49,0,0,0,2.22-1.39l14.14,4.19c0,.08,0,.16,0,.24a2.48,2.48,0,0,0,4.9.53l13.82.1A2.46,2.46,0,0,0,83.93,131a2.36,2.36,0,0,0,.8-.15l6.42,10a2.48,2.48,0,1,0,4,.62l17.52-14.44a2.42,2.42,0,0,0,1.31.39,2.48,2.48,0,0,0,1.45-4.49l4.14-16.3h.07a2.48,2.48,0,0,0,0-5ZM107.94,84a1.38,1.38,0,0,1,.08-.45v0h0l.05-.12a1.35,1.35,0,0,1,.15-.25h0a1.44,1.44,0,1,1,2,2.05,1.31,1.31,0,0,1-.4.19h0a1.47,1.47,0,0,1-1.23-.18,1.66,1.66,0,0,1-.33-.31h0a1.42,1.42,0,0,1-.17-.29v0a1.5,1.5,0,0,1-.07-.21v0a1.26,1.26,0,0,1,0-.17v-.07s0-.05,0-.08Zm.17,2.13a2.32,2.32,0,0,0,1.89.27l8,15.84a2.49,2.49,0,0,0-.7.94l-20-3.77a2.45,2.45,0,0,0-.45-1.34ZM77.46,110.81s0-.09,0-.13A2.47,2.47,0,0,0,76,108.42L78.91,94.5h0a2.46,2.46,0,0,0,1.94-1L92.43,99h0a2.47,2.47,0,0,0,2.18,3L96,114.25a2.46,2.46,0,0,0-1.41,1.21l-17.15-4.65h0Zm-17.34-5.58L77.18,93.8a2.35,2.35,0,0,0,.71.48L75,108.19a2.48,2.48,0,0,0-2.19,1.36l-12.48-3.29s0-.08,0-.12A2.43,2.43,0,0,0,60.11,105.23Zm-2.3-14.62a1.45,1.45,0,0,1,1.42,1.23.88.88,0,0,1,0,.21.82.82,0,0,1,0,.2h0l-.07.29a1.42,1.42,0,0,1-.88.87l-.26.07h0l-.17,0h0l-.21,0h-.06a1.4,1.4,0,0,1-1.05-.85h0v0a1.37,1.37,0,0,1-.1-.4V92a1.45,1.45,0,0,1,.34-.92h0a1.69,1.69,0,0,1,.34-.3A1.46,1.46,0,0,1,57.81,90.61Zm-.63-.42a1.94,1.94,0,0,1,.62-.1A2,2,0,0,0,57.18,90.19Zm1-.07a2,2,0,0,1,1.33.95A2,2,0,0,0,58.17,90.12Zm.41,3.74-.24.08h0Zm-1.29.07h0l-.18-.06Zm.06,10.87.26-.06H58l.28.07a1.43,1.43,0,0,1,.57.38,1.25,1.25,0,0,1,.2.29l0,.07h0a1.39,1.39,0,0,1,.14.6h0v0s0,.09,0,.13a1.28,1.28,0,0,1,0,.16v.05a1.23,1.23,0,0,1-.07.2h0a1.43,1.43,0,0,1-1.31.86,1.46,1.46,0,0,1-.59-.12h0l-.08,0a1.35,1.35,0,0,1-.29-.2h0a1.39,1.39,0,0,1-.43-.73,1.14,1.14,0,0,1,0-.34s0,0,0,0v0l0-.29A1.44,1.44,0,0,1,57.35,104.79Zm1-1.06V94.47a2.46,2.46,0,0,0,1.9-1.9l16.24,0a2.36,2.36,0,0,0,.11.39h0L59.53,104.37A2.4,2.4,0,0,0,58.34,103.73ZM77.46,92a.89.89,0,0,1,0-.2l.07-.29a1.43,1.43,0,0,1,.39-.59l.18-.13h0l.2-.11a1.4,1.4,0,0,1,.91-.08,1.24,1.24,0,0,1,.41.17h0a1.44,1.44,0,0,1,.58.66,1.41,1.41,0,0,1,.11.45s0,.08,0,.13a1.38,1.38,0,0,1-.06.41,1.19,1.19,0,0,1-.07.2l0,.08-.07.12h0a1.43,1.43,0,0,1-1.17.63h-.1a1.29,1.29,0,0,1-.43-.09h0a1.35,1.35,0,0,1-.54-.36l-.13-.17,0-.07-.07-.13a1.47,1.47,0,0,1-.07-.24l0-.15,0-.15S77.46,92,77.46,92Zm-3.91,18.51a1.53,1.53,0,0,1,.11-.43,1.46,1.46,0,0,1,1.3-.86h.11a1.14,1.14,0,0,1,.27,0l.13,0h0a1.43,1.43,0,0,1,.91,1.33h0v.17a1.24,1.24,0,0,1,0,.15s0,0,0,.06a1.49,1.49,0,0,1-.07.21,1.47,1.47,0,0,1-.48.59l-.07,0-.13.08h0l-.2.08h0a1.4,1.4,0,0,1-.86,0h0l-.18-.08-.19-.12-.05,0a1.44,1.44,0,0,1-.53-1.12S73.55,110.58,73.55,110.53Zm20.94-9.62a1.43,1.43,0,0,1-1.07-1.39,1.35,1.35,0,0,1,0-.33l0-.08a1.4,1.4,0,0,1,.18-.39,1.45,1.45,0,0,1,2-.39,1.67,1.67,0,0,1,.33.31,1.44,1.44,0,0,1,.3.83v.11a1.22,1.22,0,0,1-.08.42h0a1.43,1.43,0,0,1-1,.91,1.49,1.49,0,0,1-.36.05h-.06l-.34-.08Zm.89,15.69v-.17a1.2,1.2,0,0,1,0-.2l0-.07a1.25,1.25,0,0,1,.05-.14h0a1.43,1.43,0,0,1,.91-.79h0a1.42,1.42,0,0,1,.38-.05l.37.09v0a1.43,1.43,0,0,1,1.07,1.39,1.34,1.34,0,0,1-.06.41v0a1.31,1.31,0,0,1-.19.39,1.49,1.49,0,0,1-2.07.31,1.66,1.66,0,0,1-.31-.33,1.45,1.45,0,0,1-.25-.81Zm3.12-1.82a2.5,2.5,0,0,0-1.43-.64l-1.41-12.27a2.5,2.5,0,0,0,1.5-1.39l20,3.77a2.46,2.46,0,0,0,.09.59Zm8.66-29.61a2.52,2.52,0,0,0,.18.28L96.13,97.4a2.44,2.44,0,0,0-3.24.62L81.32,92.58a2.5,2.5,0,0,0,.07-.56s0-.07,0-.1l25.78-6.74h0ZM86,74.45l12.06,4.4,8.9,4.52a2.37,2.37,0,0,0-.11.68s0,.07,0,.11L81.11,90.9a2.43,2.43,0,0,0-.9-1l3.63-14.28h.09A2.48,2.48,0,0,0,86,74.45Zm-3.55-1.32a1.44,1.44,0,0,1,2.88,0,1.55,1.55,0,0,1,0,.25,1.43,1.43,0,0,1-1.55,1.18,1.31,1.31,0,0,1-.31-.07l-.1,0h0a1.41,1.41,0,0,1-.78-.88v0h0a1.39,1.39,0,0,1,0-.14v-.08s0-.07,0-.11,0-.06,0-.1Zm-14,2.54s0,0,0,0L81.6,74a2.46,2.46,0,0,0,1.23,1.39L79.22,89.56a2.43,2.43,0,0,0-1.25.16l-10-12.5A2.45,2.45,0,0,0,68.51,75.67ZM66,74.24a1.45,1.45,0,0,1,1.31.83,1.29,1.29,0,0,1,.12.43v.1s0,0,0,.07a1.41,1.41,0,0,1-.38,1,1.51,1.51,0,0,1-.35.28,1.44,1.44,0,0,1-2-.61,1.42,1.42,0,0,1-.13-.43h0a1.12,1.12,0,0,1,0-.2A1.44,1.44,0,0,1,66,74.24ZM52.69,83.16a2.46,2.46,0,0,0-.06-.51L63.94,77a2.45,2.45,0,0,0,3.19.88l10,12.43a2.44,2.44,0,0,0-.62,1.18l-16.26,0a2.46,2.46,0,0,0-3.59-1.65l-4.46-5.21A2.47,2.47,0,0,0,52.69,83.16ZM50.2,81.72a1.43,1.43,0,0,1,1.23.69,1.24,1.24,0,0,1,.16.41v0a1.2,1.2,0,0,1,0,.32,1.44,1.44,0,0,1-.34.94l-.16.16-.11.08-.07,0h0a1.45,1.45,0,0,1-1.56,0,1.79,1.79,0,0,1-.33-.31,1.46,1.46,0,0,1-.3-.89A1.44,1.44,0,0,1,50.2,81.72ZM49,85.3a2.41,2.41,0,0,0,1.24.35h0a2.49,2.49,0,0,0,1.15-.3l4.46,5.21A2.46,2.46,0,0,0,55.33,92s0,.05,0,.08l-15,3.73a2.29,2.29,0,0,0-.23-.38ZM36.68,97a1.44,1.44,0,0,1,1.44-1.44,1.42,1.42,0,0,1,.76.22,1.68,1.68,0,0,1,.34.3,1.44,1.44,0,0,1,.22.37,1.24,1.24,0,0,1,.1.42V97a1.44,1.44,0,0,1-1.28,1.42h-.12a1.32,1.32,0,0,1-.33,0h0A1.43,1.43,0,0,1,36.68,97Zm1.92,11.21h0l-.06.33a1.44,1.44,0,0,1-.4.66h0a1.48,1.48,0,0,1-.36.25,1.4,1.4,0,0,1-.62.14,1.44,1.44,0,0,1-.07-2.88h.06a1.33,1.33,0,0,1,.37,0h0a1.44,1.44,0,0,1,1,1h0a1.29,1.29,0,0,1,0,.34A.4.4,0,0,1,38.59,108.16Zm-.7-2.42.6-6.35A2.48,2.48,0,0,0,40.6,97s0-.05,0-.08l15-3.73a2.46,2.46,0,0,0,1.7,1.33v9.26a2.49,2.49,0,0,0-1.93,2.13l-15.84,1.5A2.46,2.46,0,0,0,37.9,105.74ZM44.53,123a2,2,0,0,1,.64-1.45A2,2,0,0,0,44.53,123Zm3.4.06v0s0,0,0,.06a1.26,1.26,0,0,1-.09.37h0a1.44,1.44,0,1,1-2.08-1.76,1.26,1.26,0,0,1,.42-.17h0a1.2,1.2,0,0,1,.32,0,1.42,1.42,0,0,1,.81.25,1.65,1.65,0,0,1,.33.31,1.46,1.46,0,0,1,.3.88S47.92,123,47.92,123.07Zm-.27-2.25a2.5,2.5,0,0,0-1.74-.22l-7-10.78a2.47,2.47,0,0,0,.67-1.41l15.84-1.5a2.43,2.43,0,0,0,.6,1Zm.63,1.4a1.92,1.92,0,0,1,.16.71A2,2,0,0,0,48.28,122.22Zm14.89,5.07L49,123.09s0-.05,0-.08a2.42,2.42,0,0,0-.53-1.5l8.49-13A2.47,2.47,0,0,0,60,107.28l12.48,3.29s0,.08,0,.11a2.49,2.49,0,0,0,.88,1.9L66.15,126.2a2.42,2.42,0,0,0-.84-.15A2.48,2.48,0,0,0,63.16,127.29Zm2.64-.66a2,2,0,0,0-.49-.06A1.93,1.93,0,0,1,65.8,126.63Zm-2.12.81a2,2,0,0,1,.28-.34,2,2,0,0,0-.28.34Zm3,1.28h0l-.07.29a1.43,1.43,0,0,1-2.78-.49s0-.08,0-.11l0-.13a1.4,1.4,0,0,1,.14-.42,1.44,1.44,0,0,1,1.28-.78,1.46,1.46,0,0,1,.61.13l.09.05.09.05h0l.16.13h0a1.45,1.45,0,0,1,.44.85,1.09,1.09,0,0,1,0,.2A.82.82,0,0,1,66.73,128.73Zm.46-.71a2,2,0,0,0-.3-.66,1.89,1.89,0,0,1,.3.66Zm14.3.09L67.73,128a2.42,2.42,0,0,0-.7-1.26l7.27-13.7a2.16,2.16,0,0,0,1.28,0l6.75,13.56A2.45,2.45,0,0,0,81.48,128.12Zm3.36,1.53a1.43,1.43,0,0,1-.38.22h0a1.39,1.39,0,0,1-.52.1,1.42,1.42,0,0,1-1.4-1.13,1.24,1.24,0,0,1,0-.31.83.83,0,0,1,0-.11l.07-.3h0a1.43,1.43,0,0,1,.51-.74,1.35,1.35,0,0,1,.35-.19l0,0h0a1.5,1.5,0,0,1,.5-.08,1.42,1.42,0,0,1,.92.36h0l.12.12,0,0,.12.17a1.47,1.47,0,0,1,.2.74A1.43,1.43,0,0,1,84.84,129.65Zm-.92-3.6a2.42,2.42,0,0,0-.66.1l-6.74-13.54a2.46,2.46,0,0,0,.66-.8l17.16,4.65s0,.09,0,.14a2.44,2.44,0,0,0,.36,1.27l-9.28,8.68A2.4,2.4,0,0,0,83.92,126Zm7,16.6a2,2,0,0,1,.5-1.31A2,2,0,0,0,90.94,142.65Zm2,1.44a1.44,1.44,0,0,1-1.44-1.44,1.45,1.45,0,0,1,.49-1.08,1.5,1.5,0,0,1,.37-.24,1.48,1.48,0,0,1,.58-.12,1.43,1.43,0,0,1,1,.36,1.52,1.52,0,0,1,.28.34,1.44,1.44,0,0,1-1.24,2.17Zm-.48-3.34a1.94,1.94,0,0,1,.48-.06A2,2,0,0,0,92.41,140.75Zm.49-.06a2,2,0,0,1,.8.17A2,2,0,0,0,92.91,140.69Zm1.52,0a2.43,2.43,0,0,0-2.4-.38l-6.41-10a2.44,2.44,0,0,0,.79-1.8,2.49,2.49,0,0,0-.31-1.19l9.31-8.71a2.44,2.44,0,0,0,3.35-.5l12.77,6.24a2.37,2.37,0,0,0,.33,1.95Zm19.51-14.3a1.46,1.46,0,0,1-.77-.22,1.57,1.57,0,0,1-.34-.31,1.44,1.44,0,0,1-.33-.91,1.34,1.34,0,0,1,.07-.42v0a1.53,1.53,0,0,1,.07-.18l0-.07.07-.13h0a1.43,1.43,0,0,1,1.18-.61,1.23,1.23,0,0,1,.4.06l.07,0h0l.14.06a1.41,1.41,0,0,1,.25.14,1.44,1.44,0,0,1-.86,2.59Zm.48-3.87a2.36,2.36,0,0,0-.5-.05,2.46,2.46,0,0,0-1.93,1L99.23,117.2a2.42,2.42,0,0,0,.08-.59,2.45,2.45,0,0,0-.17-.9l18.6-9.89a2.44,2.44,0,0,0,.78.59Zm5.2-16.92h-.14a1.42,1.42,0,0,1-.43-.1,1.47,1.47,0,0,1-.88-1.16v-.22a1.15,1.15,0,0,1,0-.2l0-.08a1.44,1.44,0,0,1,0-.15h0a1.46,1.46,0,0,1,.48-.67l.13-.08.06,0,.18-.08h0a1.44,1.44,0,1,1,.49,2.79Z"/><rect class="cls-8" x="-12.88" y="-115.76" width="988.7" height="847.46"/></svg>