<svg width="600" height="600"
id="Cognitask_isotipo" data-name="Cognitask isotipo" xmlns="http://www.w3.org/2000/svg" viewBox="0 0 1168.6 1168.6"><defs><style>.cls-1,.cls-3{fill:#262b32;}.cls-1{opacity:0.1;}.cls-2{fill:#23b59c;}</style></defs><title>cognitask2</title><path class="cls-1" d="M967.88,550l-121.2-98.9a18.47,18.47,0,0,0-4.4-22.2L877,364.6a4.11,4.11,0,0,0-7.23-3.91l-.41.76-201-23.37a18.54,18.54,0,0,0-17.74-16.53L640,265.14a4.11,4.11,0,0,0-8.08,1.52L642.55,323a18.62,18.62,0,0,0-9,8.27l-162.1-44.54a4.11,4.11,0,1,0-2.18,7.92l162.13,44.54c0,.13,0,.27,0,.4L493.12,367.78a18.55,18.55,0,0,0-34.64,2.2L323.88,360a4.11,4.11,0,1,0-.6,8.2l134.62,9.94a18.52,18.52,0,0,0,7.5,12.28L392,564l-71.78,45.61a18.53,18.53,0,0,0-28.91,3.54l-86.69-29a4.11,4.11,0,1,0-2.61,7.8l86.67,29c-.06.61-.09,1.22-.09,1.84a18.55,18.55,0,0,0,11.52,17.16l-13.76,82.22a4.11,4.11,0,0,0,3.38,4.73,4.17,4.17,0,0,0,.68.06,4.11,4.11,0,0,0,4-3.43l13.76-82.24a18.43,18.43,0,0,0,9-2.91L462.47,780.57l.05,0,.05.06a4,4,0,0,0,.33.25c.08.06.16.13.25.19a4.1,4.1,0,0,0,.44.23l.25.12a4,4,0,0,0,.52.15l.21.06a4.12,4.12,0,0,0,.76.07h0a4.12,4.12,0,0,0,.81-.08l.21-.06a4.13,4.13,0,0,0,.57-.18c.09,0,.18-.1.27-.14a3.93,3.93,0,0,0,.46-.26c.1-.07.18-.15.27-.23a4,4,0,0,0,.34-.28l0-.06,0,0L624.82,609a18.39,18.39,0,0,0,5.42,2.05l3.55,171.32a4.11,4.11,0,0,0,4.11,4H638a4.11,4.11,0,0,0,4-4.19L638.46,610.9a18.57,18.57,0,0,0,11.94-9.36L821.86,647.2c0,.23,0,.45,0,.68a18.53,18.53,0,0,0,26.33,16.83l61.73,80.21a4.11,4.11,0,1,0,6.51-5l-61.73-80.2a18.54,18.54,0,0,0-11.09-30.09L835.09,460.7a18.47,18.47,0,0,0,6.4-3.24l121.2,98.9a4.11,4.11,0,1,0,5.2-6.37ZM835.05,425a18.48,18.48,0,0,0-22.93,13.24l-221-6.32-97.06-51.63a18.52,18.52,0,0,0,.64-4.44L633,347.71a18.53,18.53,0,0,0,34.38-1.46l197.76,23ZM397.48,570.23a4.11,4.11,0,0,0,1.58-1.87L473,393.67a18.36,18.36,0,0,0,17.29-6.13l96.36,51.25,38.54,137.8a18.55,18.55,0,0,0-9.72,16.32c0,.29,0,.57,0,.85l-66,18.24-224.33,6.15q-.21-.83-.49-1.62Zm67.7,201.49L322.94,632.46a18.41,18.41,0,0,0,2.41-6.1l224.82-6.16a4.06,4.06,0,0,0,1-.15l66.48-18.37a18.5,18.5,0,0,0,1.12,1.81ZM652.5,593.59c0-.23,0-.45,0-.68A18.56,18.56,0,0,0,634,574.36c-.31,0-.61,0-.91,0L595.55,440.25l216.32,6.19a18.56,18.56,0,0,0,15,14.67L835.37,630A18.58,18.58,0,0,0,824,639.26Z"/><circle class="cls-2" cx="320.13" cy="352.29" r="18.4"/><circle class="cls-2" cx="636.33" cy="258.57" r="18.4"/><circle class="cls-2" cx="758.73" cy="666.2" r="18.4"/><circle class="cls-2" cx="917.69" cy="744.32" r="18.4"/><circle class="cls-2" cx="874.91" cy="360.7" r="18.4"/><path class="cls-3" d="M970.78,526.16a22.77,22.77,0,0,0-6.29,1L889.43,378.83a23.23,23.23,0,1,0-32.22-33.15L773.08,303,659.45,261.4a23,23,0,0,0,.18-2.82,23.21,23.21,0,0,0-46.36-1.91L489.4,272.11a23.22,23.22,0,0,0-44.21,10,21.46,21.46,0,0,0,.27,3.26L338.89,338.61a23.22,23.22,0,0,0-42,13.66,22.92,22.92,0,0,0,4.41,13.42l-83.19,95.59a23,23,0,0,0-11.22-3,23.22,23.22,0,0,0-6.27,45.61L195,563.2a23.23,23.23,0,0,0,2.85,46.29,22.64,22.64,0,0,0,8.66-1.7L271,707.6a23.26,23.26,0,0,0,14.31,41.62,23.36,23.36,0,0,0,20.8-13l132.62,39.28c-.07.74-.22,1.52-.22,2.24a23.23,23.23,0,0,0,45.93,5l129.55.94A23.05,23.05,0,0,0,636.34,801a22.14,22.14,0,0,0,7.49-1.4l60.21,94a23.29,23.29,0,1,0,37,5.84L905.36,764a22.67,22.67,0,0,0,12.32,3.64,23.22,23.22,0,0,0,13.63-42.06l38.84-152.85c.21,0,.41,0,.62,0a23.29,23.29,0,0,0,0-46.57ZM861.41,360.61a12.94,12.94,0,0,1,.74-4.24l.1-.28,0-.05c.14-.39.33-.76.5-1.13a12.65,12.65,0,0,1,1.39-2.37l0,0a13.51,13.51,0,1,1,18.52,19.24,12.28,12.28,0,0,1-3.72,1.78l-.13,0a13.8,13.8,0,0,1-11.51-1.67,15.59,15.59,0,0,1-3.08-2.92h0a13.33,13.33,0,0,1-1.63-2.71l-.09-.2a14.09,14.09,0,0,1-.68-2c0-.12,0-.23-.06-.35a11.82,11.82,0,0,1-.28-1.62l-.05-.65c0-.25,0-.5,0-.75Zm1.58,20a21.77,21.77,0,0,0,17.69,2.58l75.21,148.5a23.35,23.35,0,0,0-6.52,8.8L762.08,505.1a23,23,0,0,0-4.18-12.53Zm-287.33,231c0-.42,0-.84,0-1.26a23.14,23.14,0,0,0-13.89-21.18l27.47-130.45h.15a23.05,23.05,0,0,0,18.2-9.18L716,500.38v0l.11.05a23.15,23.15,0,0,0,20.39,28.31l13.25,115.05a23.08,23.08,0,0,0-13.21,11.33l-160.8-43.58h0ZM413,559.21,573,452a22,22,0,0,0,6.62,4.53L552.3,587a23.29,23.29,0,0,0-20.57,12.76l-117-30.86c0-.38,0-.78,0-1.08A22.76,22.76,0,0,0,413,559.21ZM391.46,422.13a13.57,13.57,0,0,1,13.3,11.54,8.29,8.29,0,0,1,.18,1.94,7.69,7.69,0,0,1-.17,1.86v0l-.67,2.69a13.32,13.32,0,0,1-8.29,8.17l-2.47.62h0a8,8,0,0,1-1.54.16h-.4a9.7,9.7,0,0,1-1.93-.21l-.53-.13a13.16,13.16,0,0,1-9.86-8h0c0-.08,0-.16-.08-.23a12.84,12.84,0,0,1-.9-3.74l-.08-1.36a13.62,13.62,0,0,1,3.19-8.58h0a15.81,15.81,0,0,1,3.19-2.77A13.69,13.69,0,0,1,391.46,422.13Zm-5.89-3.93a18.22,18.22,0,0,1,5.83-1A18.43,18.43,0,0,0,385.57,418.2Zm9.23-.66a18.42,18.42,0,0,1,12.51,8.88A18.56,18.56,0,0,0,394.8,417.54Zm3.83,35a17.86,17.86,0,0,1-2.27.8v0A17.88,17.88,0,0,0,398.63,452.56Zm-12.07.69v.1c-.58-.16-1.16-.33-1.71-.54A16.64,16.64,0,0,0,386.56,453.25Zm.59,101.88,2.45-.61a5.81,5.81,0,0,1,.85-.13c.3,0,.63,0,1,0a10.23,10.23,0,0,1,1.06,0l.25,0,.64.11,2.62.65a13.44,13.44,0,0,1,5.38,3.55,11.74,11.74,0,0,1,1.85,2.68c.12.23.27.44.38.69l0,.06a13.06,13.06,0,0,1,1.28,5.66v0c0,.05,0,.11,0,.16,0,.41,0,.8-.09,1.24a12,12,0,0,1-.27,1.52c0,.17,0,.34-.09.5a11.57,11.57,0,0,1-.69,1.91l0,.06a13.44,13.44,0,0,1-12.31,8,13.66,13.66,0,0,1-5.51-1.15h0c-.26-.12-.48-.27-.72-.39a12.67,12.67,0,0,1-2.76-1.89h0a13.06,13.06,0,0,1-4-6.83,10.65,10.65,0,0,1-.43-3.2c0-.13,0-.28,0-.42l0-.21.43-2.71A13.48,13.48,0,0,1,387.15,555.13Zm9.22-10V458.34a23.1,23.1,0,0,0,17.78-17.84l152.31-.23a22.08,22.08,0,0,0,1.07,3.63l0,0v0L407.55,551.19A22.55,22.55,0,0,0,396.37,545.17ZM575.69,435.32a8.33,8.33,0,0,1,.19-1.88l.68-2.71a13.43,13.43,0,0,1,3.69-5.53A13.1,13.1,0,0,1,581.9,424h0a15.38,15.38,0,0,1,1.87-1,13.15,13.15,0,0,1,8.52-.73,11.59,11.59,0,0,1,3.82,1.56h0a13.46,13.46,0,0,1,5.42,6.17,13.22,13.22,0,0,1,1,4.18c0,.4.07.77.07,1.17a13,13,0,0,1-.6,3.87,11.13,11.13,0,0,1-.69,1.84c-.12.25-.29.51-.43.76s-.39.75-.65,1.13h0a13.43,13.43,0,0,1-11,5.91l-.92,0a12.06,12.06,0,0,1-4-.88h0a12.61,12.61,0,0,1-5.08-3.41A13.45,13.45,0,0,1,578,442.9c-.14-.21-.26-.45-.39-.67-.24-.39-.48-.77-.7-1.2a13.81,13.81,0,0,1-.7-2.25l-.33-1.39-.18-1.43C575.71,435.74,575.69,435.55,575.69,435.32ZM539,608.88a14.36,14.36,0,0,1,1-4,13.64,13.64,0,0,1,12.17-8.05l1,0a10.72,10.72,0,0,1,2.54.41,9.74,9.74,0,0,1,1.22.39l.16.06.24.11a13.39,13.39,0,0,1,8.56,12.47h0l-.14,1.56a11.63,11.63,0,0,1-.25,1.4c0,.19-.05.39-.11.59a14,14,0,0,1-.68,2,13.78,13.78,0,0,1-4.51,5.5c-.22.16-.45.26-.67.4a13.23,13.23,0,0,1-1.2.71h0a11.6,11.6,0,0,1-1.87.71l-.36.1a13.14,13.14,0,0,1-8.06-.16l-.24-.07a10.59,10.59,0,0,1-1.68-.73,15.78,15.78,0,0,1-1.74-1.14l-.5-.36a13.51,13.51,0,0,1-5-10.49C538.93,609.84,539,609.41,539,608.88Zm196.34-90.17a13.36,13.36,0,0,1-10-13,12.68,12.68,0,0,1,.39-3.13l.2-.72a13.1,13.1,0,0,1,1.68-3.7,13.62,13.62,0,0,1,18.82-3.63,15.68,15.68,0,0,1,3.07,2.9,13.54,13.54,0,0,1,2.8,7.74v1.07a11.46,11.46,0,0,1-.74,3.94h0a13.39,13.39,0,0,1-9.15,8.5,14,14,0,0,1-3.36.47l-.52,0-3.19-.78Zm8.35,147.14.14-1.58a11.29,11.29,0,0,1,.33-1.86c.06-.23.16-.46.23-.69a11.74,11.74,0,0,1,.49-1.34l0-.1a13.43,13.43,0,0,1,8.5-7.37l.28-.08a13.29,13.29,0,0,1,3.58-.51l3.43.84,0-.33a13.4,13.4,0,0,1,10,13,12.55,12.55,0,0,1-.6,3.87l0,.17a12.31,12.31,0,0,1-1.76,3.67,14,14,0,0,1-19.4,2.93,15.59,15.59,0,0,1-2.9-3.06,13.58,13.58,0,0,1-2.32-7.58Zm29.23-17.08a23.41,23.41,0,0,0-13.41-6L746.27,527.71a23.41,23.41,0,0,0,14-13l187.25,35.34a23,23,0,0,0,.83,5.49ZM854.14,371.2a23.67,23.67,0,0,0,1.73,2.63l-105.13,112a22.9,22.9,0,0,0-30.39,5.78l-108.53-51a23.42,23.42,0,0,0,.68-5.27c0-.33-.05-.63-.07-1L854.11,371.2h0Zm-198-100.53L769.21,312l83.43,42.36a22.26,22.26,0,0,0-1,6.39c0,.31,0,.67,0,1L609.88,424.85a22.81,22.81,0,0,0-8.4-9.17l34-133.87c.29,0,.57.06.86.06A23.24,23.24,0,0,0,656.11,270.67Zm-33.26-12.38a13.48,13.48,0,0,1,27,.3,14.51,14.51,0,0,1-.21,2.33A13.39,13.39,0,0,1,635,272a12.3,12.3,0,0,1-2.95-.66c-.32-.11-.65-.2-.95-.34l-.1,0-.22-.1a13.21,13.21,0,0,1-7.32-8.24l-.05-.18,0-.09a13,13,0,0,1-.31-1.34c0-.25-.1-.5-.14-.76s-.06-.66-.07-1-.05-.6-.05-.93ZM491.77,282.12c0-.13,0-.26,0-.39l122.73-15.36a23.09,23.09,0,0,0,11.49,13L592.15,412.32a22.8,22.8,0,0,0-11.69,1.53l-94-117.17A22.93,22.93,0,0,0,491.77,282.12Zm-23.29-13.48a13.58,13.58,0,0,1,12.24,7.8,12.11,12.11,0,0,1,1.11,4.07l.08.91c0,.23.05.46.05.7a13.25,13.25,0,0,1-3.52,9.08,14.11,14.11,0,0,1-3.26,2.63,13.51,13.51,0,0,1-18.78-5.69,13.28,13.28,0,0,1-1.25-4V284a10.51,10.51,0,0,1-.15-1.92A13.5,13.5,0,0,1,468.48,268.63ZM343.42,352.27a23.06,23.06,0,0,0-.55-4.74l106-52.92a22.95,22.95,0,0,0,29.95,8.26l93.49,116.56a22.89,22.89,0,0,0-5.82,11l-152.41.17a23,23,0,0,0-33.67-15.47l-41.86-48.89A23.13,23.13,0,0,0,343.42,352.27Zm-23.29-13.48a13.41,13.41,0,0,1,11.52,6.47,11.63,11.63,0,0,1,1.54,3.82l0,.15a11.3,11.3,0,0,1,.39,3A13.46,13.46,0,0,1,330.4,361a15,15,0,0,1-1.51,1.5c-.33.28-.69.52-1,.77s-.4.31-.61.45h0a13.6,13.6,0,0,1-14.61-.28,16.83,16.83,0,0,1-3.12-2.87,13.7,13.7,0,0,1-2.84-8.35A13.5,13.5,0,0,1,320.13,338.79ZM308.5,372.35a22.6,22.6,0,0,0,11.63,3.25h.24a23.33,23.33,0,0,0,10.82-2.85L373,421.64a23,23,0,0,0-4.85,14c0,.26,0,.5,0,.76l-140.58,35a21.43,21.43,0,0,0-2.17-3.55ZM193.31,481.59a13.52,13.52,0,0,1,13.53-13.48,13.27,13.27,0,0,1,7.16,2A15.71,15.71,0,0,1,217.2,473a13.5,13.5,0,0,1,2,3.44,11.64,11.64,0,0,1,1,3.92l.08,1.4a13.47,13.47,0,0,1-12,13.27c-.35,0-.73,0-1.09,0a12.34,12.34,0,0,1-3.07-.24l-.09,0A13.43,13.43,0,0,1,193.31,481.59Zm18,105.14v0l-.52,3.06a13.46,13.46,0,0,1-3.71,6.2h0a13.9,13.9,0,0,1-3.41,2.36,13.14,13.14,0,0,1-5.82,1.32,13.5,13.5,0,0,1-.69-27,3.45,3.45,0,0,1,.47,0h.05a12.47,12.47,0,0,1,3.44.41h0a13.53,13.53,0,0,1,9.79,9.84h0a12.11,12.11,0,0,1,.4,3.21A3.71,3.71,0,0,1,211.28,586.73ZM204.76,564l5.61-59.53a23.21,23.21,0,0,0,19.75-22.9c0-.25,0-.49-.05-.75l140.55-35a23.06,23.06,0,0,0,15.94,12.49v86.8a23.36,23.36,0,0,0-18.12,19.93L219.94,579.17A23.1,23.1,0,0,0,204.76,564Zm62.13,161.9a18.24,18.24,0,0,1,6-13.62A18.51,18.51,0,0,0,266.89,725.93Zm31.85.52,0,.46c0,.19-.06.36-.08.55a11.81,11.81,0,0,1-.88,3.48h0a13.47,13.47,0,1,1-19.51-16.53,11.83,11.83,0,0,1,3.91-1.56l.15,0a11.27,11.27,0,0,1,3-.39,13.3,13.3,0,0,1,7.61,2.35,15.45,15.45,0,0,1,3.05,2.89,13.72,13.72,0,0,1,2.82,8.25C298.76,726.11,298.75,726.28,298.74,726.45Zm-2.57-21.05a23.42,23.42,0,0,0-16.35-2.1L214.54,602.21a23.17,23.17,0,0,0,6.28-13.27l148.54-14.08a22.75,22.75,0,0,0,5.62,9.27Zm5.91,13.11a18,18,0,0,1,1.51,6.7A18.43,18.43,0,0,0,302.08,718.51Zm139.57,47.56L308.5,726.69c0-.26.06-.5.06-.76a22.72,22.72,0,0,0-4.95-14.09l79.56-122.27a23.12,23.12,0,0,0,29-11.16l117,30.84c0,.36,0,.75,0,1a23.31,23.31,0,0,0,8.29,17.81L469.62,755.8a22.73,22.73,0,0,0-7.86-1.38A23.3,23.3,0,0,0,441.65,766.07Zm24.71-6.17a18.43,18.43,0,0,0-4.57-.58A18.07,18.07,0,0,1,466.35,759.9Zm-19.83,7.61a18.33,18.33,0,0,1,2.65-3.2,18.69,18.69,0,0,0-2.64,3.2Zm28.55,12v0l-.68,2.7a13.45,13.45,0,0,1-26.1-4.6c0-.4,0-.73,0-1.06l.17-1.18a13.14,13.14,0,0,1,1.28-3.94,13.48,13.48,0,0,1,12-7.3,13.71,13.71,0,0,1,5.68,1.24c.32.15.58.31.88.47s.64.32.88.47l.15.12a12,12,0,0,1,1.5,1.24l.06.06a13.55,13.55,0,0,1,4.17,8,10.25,10.25,0,0,1,.16,1.91A7.65,7.65,0,0,1,475.07,779.55Zm4.28-6.63a18.29,18.29,0,0,0-2.83-6.18,17.77,17.77,0,0,1,2.84,6.18Zm134,.89-129-.85a22.7,22.7,0,0,0-6.54-11.86l68.18-128.49a20.29,20.29,0,0,0,12,.19l63.3,127.09A23,23,0,0,0,613.39,773.81Zm31.46,14.34a13.4,13.4,0,0,1-3.6,2.09h0a13,13,0,0,1-4.91.95,13.34,13.34,0,0,1-13.12-10.56,11.62,11.62,0,0,1-.36-2.92,7.76,7.76,0,0,1,.08-1l.63-2.82h-.13a13.42,13.42,0,0,1,4.75-6.93,12.7,12.7,0,0,1,3.28-1.78c.12,0,.22-.11.34-.15h0a14,14,0,0,1,4.69-.79,13.27,13.27,0,0,1,8.67,3.33h0l0,0a15.68,15.68,0,0,1,1.11,1.12c.14.15.3.29.43.44a13.52,13.52,0,0,1,1.16,1.58,13.75,13.75,0,0,1,1.91,7A13.36,13.36,0,0,1,644.85,788.15Zm-8.63-33.73a22.73,22.73,0,0,0-6.15,1l-63.18-126.9a23.07,23.07,0,0,0,6.19-7.46L734,664.59c0,.43-.1.85-.1,1.28a22.85,22.85,0,0,0,3.39,11.92l-87,81.36A22.49,22.49,0,0,0,636.22,754.41ZM702,910a18.31,18.31,0,0,1,4.73-12.27A18.49,18.49,0,0,0,702,910Zm18.38,13.5a13.5,13.5,0,0,1-13.48-13.48,13.64,13.64,0,0,1,4.56-10.12A14.1,14.1,0,0,1,715,897.7a13.91,13.91,0,0,1,5.43-1.12,13.42,13.42,0,0,1,9,3.41,14.25,14.25,0,0,1,2.66,3.2,13.52,13.52,0,0,1-11.63,20.35Zm-4.53-31.3a18.17,18.17,0,0,1,4.5-.56A18.49,18.49,0,0,0,715.88,892.24Zm4.64-.56A18.37,18.37,0,0,1,728,893.3,18.4,18.4,0,0,0,720.52,891.68Zm14.26.19a22.83,22.83,0,0,0-22.49-3.6l-60.07-93.66a22.88,22.88,0,0,0,7.4-16.91,23.34,23.34,0,0,0-2.9-11.13L744,684.91a22.91,22.91,0,0,0,31.45-4.68l119.69,58.55A22.18,22.18,0,0,0,898.29,757ZM917.69,757.8a13.72,13.72,0,0,1-7.25-2.08,14.7,14.7,0,0,1-3.16-2.86,13.49,13.49,0,0,1-3.07-8.54,12.59,12.59,0,0,1,.62-4c0-.08.07-.16.1-.25a14.34,14.34,0,0,1,.66-1.66c.11-.23.25-.43.37-.64a12.91,12.91,0,0,1,.69-1.18v0a13.37,13.37,0,0,1,11-5.76,11.54,11.54,0,0,1,3.71.57l.63.19.11,0a11,11,0,0,1,1.31.54,13.2,13.2,0,0,1,2.33,1.36,13.48,13.48,0,0,1-8.09,24.26Zm4.54-36.27a22.15,22.15,0,0,0-4.66-.5,23,23,0,0,0-18.09,8.91L779.76,671.42a22.7,22.7,0,0,0,.75-5.54,23,23,0,0,0-1.59-8.42l174.42-92.69a22.85,22.85,0,0,0,7.28,5.51Zm48.72-158.62-1.3-.08a13.29,13.29,0,0,1-4-.9,13.76,13.76,0,0,1-8.29-10.88V549a10.75,10.75,0,0,1,.18-1.88c0-.24.13-.49.19-.73a13.51,13.51,0,0,1,.37-1.38v0a13.67,13.67,0,0,1,4.54-6.28,13.47,13.47,0,0,1,1.2-.75c.19-.11.36-.24.55-.34a13.62,13.62,0,0,1,1.71-.74l.18-.08h0a13.46,13.46,0,1,1,4.63,26.16Z"/></svg>