<?xml version="1.0" encoding="utf-8"?>
<!-- Generator: Adobe Illustrator 21.0.0, SVG Export Plug-In . SVG Version: 6.00 Build 0)  -->
<svg version="1.1" id="Capa_1" xmlns="http://www.w3.org/2000/svg" xmlns:xlink="http://www.w3.org/1999/xlink" x="0px" y="0px"
	 viewBox="0 0 2230.5 1381.2" style="enable-background:new 0 0 2230.5 1381.2;" xml:space="preserve">
<style type="text/css">
	.st0{fill:#1E272F;}
	.st1{fill:#F3F3F7;}
	.st2{fill:#FFFFFF;}
	.st3{fill:#727C8E;}
	.st4{fill:#00B59B;}
	.st5{fill:#F1F1F1;}
	.st6{opacity:0.1;}
</style>
<title>profesional</title>
<g>
	<g>
		<path class="st0" d="M2200.5,1381.2H30c-16.6,0-30-13.4-30-30V30C0,13.4,13.4,0,30,0h2170.5c16.6,0,30,13.4,30,30v1321.2
			C2230.5,1367.8,2217,1381.2,2200.5,1381.2z"/>
	</g>
	<g>
		<path class="st1" d="M2195.3,1356H375.5c-6,0-10.9-4.9-10.9-10.9V30.7c0-6,4.9-10.9,10.9-10.9h1819.8c6,0,10.9,4.9,10.9,10.9
			v1314.4C2206.2,1351.1,2201.4,1356,2195.3,1356z"/>
	</g>
	<g>
		<path class="st2" d="M1501.7,1356H375.5c-6,0-10.9-4.9-10.9-10.9V30.7c0-6,4.9-10.9,10.9-10.9h1126.2V1356z"/>
	</g>
	<g>
		<g>
			<path class="st0" d="M838,1222.4H576.2c-4.6,0-8.3-3.7-8.3-8.3v-123.8c0-4.6,3.7-8.3,8.3-8.3H838c4.6,0,8.3,3.7,8.3,8.3v123.8
				C846.3,1218.7,842.6,1222.4,838,1222.4z M576.2,1083.9c-3.5,0-6.3,2.8-6.3,6.3v123.8c0,3.5,2.8,6.3,6.3,6.3H838
				c3.5,0,6.3-2.8,6.3-6.3v-123.8c0-3.5-2.8-6.3-6.3-6.3H576.2z"/>
		</g>
		<g>
			<path class="st0" d="M656.1,1155.4l-2.8,8.5h-3.6l9.2-27.1h4.2l9.2,27.1h-3.7l-2.9-8.5H656.1z M665,1152.7l-2.7-7.8
				c-0.6-1.8-1-3.4-1.4-4.9h-0.1c-0.4,1.6-0.8,3.3-1.4,4.9l-2.7,7.8H665z"/>
			<path class="st0" d="M676.1,1150.9c0-2.5-0.1-4.5-0.2-6.4h3.2l0.2,3.3h0.1c1.4-2.4,3.7-3.8,6.9-3.8c4.7,0,8.2,4,8.2,9.9
				c0,7-4.3,10.5-8.8,10.5c-2.6,0-4.8-1.1-6-3.1h-0.1v10.6h-3.5V1150.9z M679.6,1156c0,0.5,0.1,1,0.2,1.4c0.6,2.5,2.8,4.1,5.3,4.1
				c3.7,0,5.9-3.1,5.9-7.5c0-3.9-2.1-7.2-5.8-7.2c-2.4,0-4.7,1.7-5.3,4.4c-0.1,0.4-0.2,1-0.2,1.4V1156z"/>
			<path class="st0" d="M699,1135.4h3.5v28.5H699V1135.4z"/>
			<path class="st0" d="M712.4,1139c0,1.2-0.8,2.2-2.3,2.2c-1.2,0-2.1-1-2.1-2.2c0-1.2,0.9-2.2,2.2-2.2
				C711.6,1136.8,712.4,1137.8,712.4,1139z M708.5,1164v-19.5h3.5v19.5H708.5z"/>
			<path class="st0" d="M731.8,1163.2c-0.9,0.5-3,1.1-5.6,1.1c-5.9,0-9.7-4-9.7-9.9c0-6,4.1-10.3,10.5-10.3c2.1,0,3.9,0.5,4.9,1
				l-0.8,2.7c-0.8-0.5-2.2-0.9-4.1-0.9c-4.5,0-6.9,3.3-6.9,7.4c0,4.5,2.9,7.3,6.8,7.3c2,0,3.3-0.5,4.3-1L731.8,1163.2z"/>
			<path class="st0" d="M746.7,1164l-0.3-2.5h-0.1c-1.1,1.5-3.2,2.9-6,2.9c-3.9,0-6-2.8-6-5.6c0-4.7,4.2-7.3,11.7-7.2v-0.4
				c0-1.6-0.4-4.5-4.4-4.5c-1.8,0-3.7,0.6-5.1,1.4l-0.8-2.3c1.6-1,3.9-1.7,6.4-1.7c6,0,7.4,4.1,7.4,8v7.3c0,1.7,0.1,3.3,0.3,4.7
				H746.7z M746.2,1154c-3.9-0.1-8.2,0.6-8.2,4.4c0,2.3,1.5,3.4,3.3,3.4c2.5,0,4.1-1.6,4.7-3.3c0.1-0.4,0.2-0.8,0.2-1.1V1154z"/>
			<path class="st0" d="M755.3,1150.6c0-2.3,0-4.3-0.2-6.1h3.1l0.1,3.8h0.2c0.9-2.6,3-4.3,5.4-4.3c0.4,0,0.7,0,1,0.1v3.3
				c-0.4-0.1-0.7-0.1-1.2-0.1c-2.5,0-4.3,1.9-4.7,4.5c-0.1,0.5-0.2,1-0.2,1.6v10.4h-3.5V1150.6z"/>
		</g>
	</g>
	<g>
		<path class="st0" d="M1121.3,531.3H570.2c-1,0-1.9-0.8-1.9-1.9v-56c0-1,0.8-1.9,1.9-1.9h551.1c1,0,1.9,0.8,1.9,1.9v56
			C1123.2,530.4,1122.4,531.3,1121.3,531.3z M570.2,472.5c-0.5,0-0.9,0.4-0.9,0.9v56c0,0.5,0.4,0.9,0.9,0.9h551.1
			c0.5,0,0.9-0.4,0.9-0.9v-56c0-0.5-0.4-0.9-0.9-0.9H570.2z"/>
	</g>
	<g>
		<path class="st0" d="M589.9,406.9v2h-9v26.5h-2.2v-26.5h-9v-2H589.9z"/>
		<path class="st0" d="M596.2,409.7c-0.3,0.3-0.7,0.5-1.1,0.5s-0.8-0.2-1.1-0.5s-0.5-0.7-0.5-1.2c0-0.4,0.2-0.8,0.5-1.1
			s0.7-0.5,1.1-0.5s0.8,0.2,1.1,0.5s0.5,0.7,0.5,1.1C596.7,409,596.5,409.3,596.2,409.7z M594,435.5v-20.4h2v20.4H594z"/>
		<path class="st0" d="M613.1,414.6c2.9,0,5.4,1,7.5,3.1c2.1,2.1,3.1,4.6,3.1,7.6s-1,5.5-3.1,7.6c-2.1,2.1-4.5,3.1-7.5,3.1
			c-1.9,0-3.7-0.5-5.2-1.4c-1.5-0.9-2.7-2.2-3.6-3.8v12.9h-2v-28.5h2v4.7c0.8-1.6,2-2.9,3.6-3.8S611.2,414.6,613.1,414.6z
			 M606.9,431.4c1.7,1.7,3.7,2.5,6.1,2.5s4.5-0.8,6.1-2.5c1.7-1.7,2.5-3.7,2.5-6.2c0-2.4-0.8-4.5-2.5-6.2c-1.7-1.7-3.7-2.5-6.1-2.5
			s-4.5,0.8-6.1,2.5c-1.7,1.7-2.5,3.7-2.5,6.2C604.4,427.7,605.2,429.7,606.9,431.4z"/>
		<path class="st0" d="M638,435.9c-3,0-5.5-1-7.6-3.1c-2.1-2.1-3.1-4.6-3.1-7.6s1-5.5,3.1-7.6c2.1-2.1,4.6-3.1,7.6-3.1
			c3,0,5.5,1,7.6,3.1c2.1,2.1,3.1,4.6,3.1,7.6s-1,5.5-3.1,7.6C643.4,434.9,640.9,435.9,638,435.9z M631.8,431.4
			c1.7,1.7,3.7,2.5,6.1,2.5s4.5-0.8,6.1-2.5c1.7-1.7,2.5-3.7,2.5-6.2c0-2.4-0.8-4.5-2.5-6.2c-1.7-1.7-3.7-2.5-6.1-2.5
			s-4.5,0.8-6.1,2.5c-1.7,1.7-2.5,3.7-2.5,6.2C629.3,427.7,630.2,429.7,631.8,431.4z"/>
		<path class="st0" d="M682.4,406.9h2v28.5h-2v-4.7c-0.8,1.6-2,2.9-3.6,3.8c-1.5,0.9-3.3,1.4-5.2,1.4c-2.9,0-5.4-1-7.5-3.1
			c-2.1-2.1-3.1-4.6-3.1-7.6s1-5.5,3.1-7.6c2.1-2.1,4.5-3.1,7.5-3.1c1.9,0,3.7,0.5,5.2,1.4s2.7,2.2,3.6,3.8V406.9z M667.6,431.4
			c1.7,1.7,3.7,2.5,6.1,2.5s4.5-0.8,6.1-2.5c1.7-1.7,2.5-3.7,2.5-6.2c0-2.4-0.8-4.5-2.5-6.2c-1.7-1.7-3.7-2.5-6.1-2.5
			s-4.5,0.8-6.1,2.5c-1.7,1.7-2.5,3.7-2.5,6.2C665.1,427.7,666,429.7,667.6,431.4z"/>
		<path class="st0" d="M699.9,414.6c3,0,5.4,1.1,7.3,3.2s2.8,4.6,2.8,7.5c0,0.1,0,0.3,0,0.5c0,0.2,0,0.4,0,0.5h-18.5
			c0.2,2.3,1.2,4.1,2.8,5.5c1.6,1.4,3.6,2.1,5.9,2.1c1.6,0,3.1-0.3,4.3-1c1.2-0.7,2.1-1.6,2.8-2.7l1.8,1.1c-0.8,1.4-2,2.5-3.6,3.4
			c-1.5,0.8-3.3,1.2-5.3,1.2c-3.1,0-5.7-1-7.7-3c-2-2-3-4.5-3-7.6c0-3,1-5.6,3-7.6C694.3,415.6,696.8,414.6,699.9,414.6z
			 M699.9,416.6c-2.3,0-4.2,0.7-5.8,2.2c-1.5,1.4-2.4,3.3-2.7,5.6h16.4c-0.2-2.4-1.1-4.3-2.6-5.7C703.8,417.3,702,416.6,699.9,416.6
			z"/>
		<path class="st0" d="M736.1,417.1H730v13.3c0,1.2,0.2,2,0.7,2.5c0.4,0.5,1.1,0.8,2,0.9s2,0,3.4-0.1v1.8c-2.7,0.4-4.8,0.2-6.1-0.6
			s-2-2.3-2-4.6v-13.3h-4.5v-2h4.5V410l2.1-0.6v5.7h6.1V417.1z"/>
		<path class="st0" d="M757.7,415.1h2.1v20.4h-2.1v-4.6c-0.9,1.6-2.1,2.8-3.6,3.7c-1.5,0.9-3.2,1.3-5.2,1.3c-2.9,0-5.4-1-7.5-3.1
			c-2.1-2.1-3.1-4.6-3.1-7.6s1-5.5,3.1-7.6c2.1-2.1,4.6-3.1,7.5-3.1c1.9,0,3.7,0.4,5.2,1.3c1.5,0.9,2.7,2.1,3.6,3.7V415.1z
			 M742.9,431.4c1.7,1.7,3.7,2.5,6.1,2.5s4.5-0.8,6.1-2.5c1.7-1.7,2.5-3.7,2.5-6.2c0-2.4-0.8-4.5-2.5-6.2c-1.7-1.7-3.7-2.5-6.1-2.5
			s-4.5,0.8-6.1,2.5c-1.7,1.7-2.5,3.7-2.5,6.2C740.4,427.7,741.3,429.7,742.9,431.4z"/>
		<path class="st0" d="M768.1,419.1c1.2-2.9,3.5-4.3,6.8-4.3v2c-1.9,0-3.5,0.6-4.9,1.9s-2,3.1-2,5.5v11.3h-2v-20.4h2V419.1z"/>
		<path class="st0" d="M787,414.6c3,0,5.4,1.1,7.3,3.2s2.8,4.6,2.8,7.5c0,0.1,0,0.3,0,0.5c0,0.2,0,0.4,0,0.5h-18.5
			c0.2,2.3,1.2,4.1,2.8,5.5c1.6,1.4,3.6,2.1,5.9,2.1c1.6,0,3.1-0.3,4.3-1c1.2-0.7,2.1-1.6,2.8-2.7l1.8,1.1c-0.8,1.4-2,2.5-3.6,3.4
			c-1.5,0.8-3.3,1.2-5.3,1.2c-3.1,0-5.7-1-7.7-3c-2-2-3-4.5-3-7.6c0-3,1-5.6,3-7.6C781.3,415.6,783.9,414.6,787,414.6z M787,416.6
			c-2.3,0-4.2,0.7-5.8,2.2c-1.5,1.4-2.4,3.3-2.7,5.6h16.4c-0.2-2.4-1.1-4.3-2.6-5.7C790.8,417.3,789,416.6,787,416.6z"/>
		<path class="st0" d="M819.8,415.1h2.1v20.4h-2.1v-4.6c-0.9,1.6-2.1,2.8-3.6,3.7c-1.5,0.9-3.2,1.3-5.2,1.3c-2.9,0-5.4-1-7.5-3.1
			c-2.1-2.1-3.1-4.6-3.1-7.6s1-5.5,3.1-7.6c2.1-2.1,4.6-3.1,7.5-3.1c1.9,0,3.7,0.4,5.2,1.3c1.5,0.9,2.7,2.1,3.6,3.7V415.1z
			 M805,431.4c1.7,1.7,3.7,2.5,6.1,2.5s4.5-0.8,6.1-2.5c1.7-1.7,2.5-3.7,2.5-6.2c0-2.4-0.8-4.5-2.5-6.2c-1.7-1.7-3.7-2.5-6.1-2.5
			s-4.5,0.8-6.1,2.5c-1.7,1.7-2.5,3.7-2.5,6.2C802.5,427.7,803.3,429.7,805,431.4z"/>
	</g>
	<g>
		<g>
			<path class="st2" d="M57.8,549.5V522h3.9l8.8,13.9c2,3.2,3.6,6.1,4.9,8.9l0.1,0c-0.3-3.7-0.4-7-0.4-11.3V522h3.3v27.5h-3.6
				l-8.7-13.9c-1.9-3.1-3.8-6.2-5.1-9.2l-0.1,0c0.2,3.5,0.3,6.8,0.3,11.3v11.7H57.8z"/>
			<path class="st2" d="M101,544.1c0,2,0,3.8,0.2,5.4H98l-0.2-3.2h-0.1c-0.9,1.6-3,3.7-6.5,3.7c-3.1,0-6.8-1.7-6.8-8.6v-11.5H88
				v10.9c0,3.8,1.1,6.3,4.4,6.3c2.4,0,4.1-1.7,4.7-3.3c0.2-0.5,0.3-1.2,0.3-1.8v-12.1h3.6V544.1z"/>
			<path class="st2" d="M109,540.3c0.1,4.9,3.2,6.9,6.8,6.9c2.6,0,4.1-0.4,5.5-1l0.6,2.6c-1.3,0.6-3.4,1.2-6.6,1.2
				c-6.1,0-9.7-4-9.7-10c0-6,3.5-10.6,9.3-10.6c6.4,0,8.2,5.7,8.2,9.3c0,0.7-0.1,1.3-0.1,1.7H109z M119.5,537.7c0-2.3-0.9-5.8-5-5.8
				c-3.6,0-5.2,3.3-5.5,5.8H119.5z"/>
			<path class="st2" d="M128.8,529.8l3.9,11.1c0.7,1.8,1.2,3.4,1.6,5.1h0.1c0.4-1.6,1-3.3,1.7-5.1l3.8-11.1h3.8l-7.8,19.7h-3.4
				l-7.5-19.7H128.8z"/>
			<path class="st2" d="M157.8,549.5l-0.3-2.5h-0.1c-1.1,1.5-3.2,2.9-6,2.9c-4,0-6-2.8-6-5.7c0-4.8,4.2-7.4,11.9-7.3v-0.4
				c0-1.6-0.4-4.6-4.5-4.6c-1.8,0-3.8,0.6-5.1,1.5l-0.8-2.4c1.6-1.1,4-1.8,6.5-1.8c6,0,7.5,4.1,7.5,8.1v7.4c0,1.7,0.1,3.4,0.3,4.7
				H157.8z M157.3,539.4c-3.9-0.1-8.4,0.6-8.4,4.4c0,2.3,1.5,3.4,3.4,3.4c2.6,0,4.2-1.6,4.8-3.3c0.1-0.4,0.2-0.8,0.2-1.1V539.4z"/>
			<path class="st2" d="M174.7,545.8c1.1,0.7,2.9,1.4,4.7,1.4c2.6,0,3.8-1.3,3.8-2.9c0-1.7-1-2.7-3.7-3.6c-3.5-1.3-5.2-3.2-5.2-5.6
				c0-3.2,2.6-5.8,6.8-5.8c2,0,3.8,0.6,4.9,1.2l-0.9,2.6c-0.8-0.5-2.2-1.1-4-1.1c-2.1,0-3.3,1.2-3.3,2.7c0,1.6,1.2,2.4,3.8,3.3
				c3.4,1.3,5.2,3,5.2,6c0,3.5-2.7,5.9-7.4,5.9c-2.2,0-4.2-0.5-5.5-1.3L174.7,545.8z"/>
			<path class="st2" d="M193.3,540.3c0.1,4.9,3.2,6.9,6.8,6.9c2.6,0,4.1-0.4,5.5-1l0.6,2.6c-1.3,0.6-3.4,1.2-6.6,1.2
				c-6.1,0-9.7-4-9.7-10c0-6,3.5-10.6,9.3-10.6c6.4,0,8.2,5.7,8.2,9.3c0,0.7-0.1,1.3-0.1,1.7H193.3z M203.8,537.7
				c0-2.3-0.9-5.8-5-5.8c-3.6,0-5.2,3.3-5.5,5.8H203.8z"/>
			<path class="st2" d="M211.3,545.8c1.1,0.7,2.9,1.4,4.7,1.4c2.6,0,3.8-1.3,3.8-2.9c0-1.7-1-2.7-3.7-3.6c-3.5-1.3-5.2-3.2-5.2-5.6
				c0-3.2,2.6-5.8,6.8-5.8c2,0,3.8,0.6,4.9,1.2l-0.9,2.6c-0.8-0.5-2.2-1.1-4-1.1c-2.1,0-3.3,1.2-3.3,2.7c0,1.6,1.2,2.4,3.8,3.3
				c3.4,1.3,5.2,3,5.2,6c0,3.5-2.7,5.9-7.4,5.9c-2.2,0-4.2-0.5-5.5-1.3L211.3,545.8z"/>
			<path class="st2" d="M231.9,524.2c0,1.2-0.9,2.2-2.3,2.2c-1.3,0-2.2-1-2.2-2.2c0-1.3,0.9-2.2,2.2-2.2
				C231,522,231.9,523,231.9,524.2z M227.9,549.5v-19.7h3.6v19.7H227.9z"/>
			<path class="st2" d="M255.3,539.5c0,7.3-5.1,10.5-9.8,10.5c-5.3,0-9.5-3.9-9.5-10.2c0-6.6,4.3-10.5,9.8-10.5
				C251.5,529.3,255.3,533.5,255.3,539.5z M239.6,539.7c0,4.3,2.5,7.6,6,7.6c3.4,0,6-3.2,6-7.7c0-3.3-1.7-7.6-5.9-7.6
				C241.5,532,239.6,535.9,239.6,539.7z M251,521.3l-5,5.8h-2.6l3.6-5.8H251z"/>
			<path class="st2" d="M259.8,535.1c0-2,0-3.7-0.2-5.3h3.2l0.2,3.3h0.1c1-1.9,3.3-3.7,6.5-3.7c2.7,0,7,1.6,7,8.4v11.8H273v-11.4
				c0-3.2-1.2-5.8-4.6-5.8c-2.4,0-4.2,1.7-4.8,3.7c-0.2,0.4-0.2,1.1-0.2,1.7v11.9h-3.6V535.1z"/>
		</g>
		<g>
			<path class="st2" d="M77,683.2c-1.3,0.7-3.9,1.3-7.3,1.3c-7.8,0-13.6-4.9-13.6-13.9c0-8.6,5.8-14.4,14.4-14.4
				c3.4,0,5.6,0.7,6.5,1.2l-0.9,2.9c-1.3-0.7-3.3-1.1-5.5-1.1c-6.4,0-10.7,4.1-10.7,11.3c0,6.7,3.9,11.1,10.6,11.1
				c2.2,0,4.4-0.4,5.8-1.1L77,683.2z"/>
			<path class="st2" d="M92,684.1l-0.3-2.5h-0.1c-1.1,1.5-3.2,2.9-6,2.9c-4,0-6-2.8-6-5.7c0-4.8,4.2-7.4,11.9-7.3v-0.4
				c0-1.6-0.4-4.6-4.5-4.6c-1.8,0-3.8,0.6-5.1,1.5l-0.8-2.4c1.6-1.1,4-1.8,6.5-1.8c6,0,7.5,4.1,7.5,8.1v7.4c0,1.7,0.1,3.4,0.3,4.7
				H92z M91.4,674c-3.9-0.1-8.4,0.6-8.4,4.4c0,2.3,1.5,3.4,3.4,3.4c2.6,0,4.2-1.6,4.8-3.3c0.1-0.4,0.2-0.8,0.2-1.1V674z"/>
			<path class="st2" d="M100.7,655.1h3.6v29h-3.6V655.1z"/>
			<path class="st2" d="M114.3,658.8c0,1.2-0.9,2.2-2.3,2.2c-1.3,0-2.2-1-2.2-2.2c0-1.3,0.9-2.2,2.2-2.2
				C113.5,656.5,114.3,657.5,114.3,658.8z M110.3,684.1v-19.7h3.6v19.7H110.3z"/>
			<path class="st2" d="M119.7,684.1c0.1-1.3,0.2-3.3,0.2-5.1v-23.9h3.5v12.4h0.1c1.3-2.2,3.5-3.6,6.7-3.6c4.9,0,8.4,4.1,8.3,10.1
				c0,7.1-4.4,10.6-8.9,10.6c-2.9,0-5.1-1.1-6.6-3.7H123l-0.2,3.3H119.7z M123.4,676.2c0,0.4,0.1,0.9,0.2,1.3
				c0.7,2.5,2.8,4.2,5.4,4.2c3.8,0,6-3.1,6-7.6c0-4-2-7.3-5.9-7.3c-2.4,0-4.7,1.7-5.5,4.4c-0.1,0.4-0.2,0.9-0.2,1.5V676.2z"/>
			<path class="st2" d="M143.1,670.5c0-2.3,0-4.3-0.2-6.2h3.1l0.1,3.9h0.2c0.9-2.7,3.1-4.3,5.5-4.3c0.4,0,0.7,0,1,0.1v3.4
				c-0.4-0.1-0.7-0.1-1.2-0.1c-2.5,0-4.3,1.9-4.8,4.6c-0.1,0.5-0.2,1.1-0.2,1.7v10.5h-3.5V670.5z"/>
			<path class="st2" d="M167.1,684.1l-0.3-2.5h-0.1c-1.1,1.5-3.2,2.9-6,2.9c-4,0-6-2.8-6-5.7c0-4.8,4.2-7.4,11.9-7.3v-0.4
				c0-1.6-0.4-4.6-4.5-4.6c-1.8,0-3.8,0.6-5.1,1.5l-0.8-2.4c1.6-1.1,4-1.8,6.5-1.8c6,0,7.5,4.1,7.5,8.1v7.4c0,1.7,0.1,3.4,0.3,4.7
				H167.1z M166.6,674c-3.9-0.1-8.4,0.6-8.4,4.4c0,2.3,1.5,3.4,3.4,3.4c2.6,0,4.2-1.6,4.8-3.3c0.1-0.4,0.2-0.8,0.2-1.1V674z"/>
			<path class="st2" d="M189.9,683.3c-0.9,0.5-3,1.1-5.7,1.1c-6,0-9.8-4-9.8-10.1c0-6.1,4.2-10.5,10.6-10.5c2.1,0,4,0.5,5,1
				l-0.8,2.8c-0.9-0.5-2.2-0.9-4.2-0.9c-4.5,0-7,3.3-7,7.5c0,4.6,2.9,7.4,6.9,7.4c2,0,3.4-0.5,4.4-1L189.9,683.3z"/>
			<path class="st2" d="M198.1,658.8c0,1.2-0.9,2.2-2.3,2.2c-1.3,0-2.2-1-2.2-2.2c0-1.3,0.9-2.2,2.2-2.2
				C197.3,656.5,198.1,657.5,198.1,658.8z M194.1,684.1v-19.7h3.6v19.7H194.1z"/>
			<path class="st2" d="M221.5,674c0,7.3-5.1,10.5-9.8,10.5c-5.3,0-9.5-3.9-9.5-10.2c0-6.6,4.3-10.5,9.8-10.5
				C217.7,663.9,221.5,668,221.5,674z M205.9,674.2c0,4.3,2.5,7.6,6,7.6c3.4,0,6-3.2,6-7.7c0-3.3-1.7-7.6-5.9-7.6
				C207.7,666.6,205.9,670.5,205.9,674.2z M217.3,655.8l-5,5.8h-2.6l3.6-5.8H217.3z"/>
			<path class="st2" d="M226.1,669.7c0-2,0-3.7-0.2-5.3h3.2l0.2,3.3h0.1c1-1.9,3.3-3.7,6.5-3.7c2.7,0,7,1.6,7,8.4v11.8h-3.6v-11.4
				c0-3.2-1.2-5.8-4.6-5.8c-2.4,0-4.2,1.7-4.8,3.7c-0.2,0.4-0.2,1.1-0.2,1.7v11.9h-3.6V669.7z"/>
		</g>
		<g>
			<path class="st2" d="M63,794.1h-8.4v-3H75v3h-8.4v24.5H63V794.1z"/>
			<path class="st2" d="M77.1,809.4c0.1,4.9,3.2,6.9,6.8,6.9c2.6,0,4.1-0.4,5.5-1l0.6,2.6c-1.3,0.6-3.4,1.2-6.6,1.2
				c-6.1,0-9.7-4-9.7-10c0-6,3.5-10.6,9.3-10.6c6.4,0,8.2,5.7,8.2,9.3c0,0.7-0.1,1.3-0.1,1.7H77.1z M87.6,806.8c0-2.3-0.9-5.8-5-5.8
				c-3.6,0-5.2,3.3-5.5,5.8H87.6z"/>
			<path class="st2" d="M95.5,805c0-2.3,0-4.3-0.2-6.2h3.1l0.1,3.9h0.2c0.9-2.7,3.1-4.3,5.5-4.3c0.4,0,0.7,0,1,0.1v3.4
				c-0.4-0.1-0.7-0.1-1.2-0.1c-2.5,0-4.3,1.9-4.8,4.6c-0.1,0.5-0.2,1.1-0.2,1.7v10.5h-3.5V805z"/>
			<path class="st2" d="M119.5,818.6l-0.3-2.5h-0.1c-1.1,1.5-3.2,2.9-6,2.9c-4,0-6-2.8-6-5.7c0-4.8,4.2-7.4,11.9-7.3v-0.4
				c0-1.6-0.4-4.6-4.5-4.6c-1.8,0-3.8,0.6-5.1,1.5l-0.8-2.4c1.6-1.1,4-1.8,6.5-1.8c6,0,7.5,4.1,7.5,8.1v7.4c0,1.7,0.1,3.4,0.3,4.7
				H119.5z M119,808.5c-3.9-0.1-8.4,0.6-8.4,4.4c0,2.3,1.5,3.4,3.4,3.4c2.6,0,4.2-1.6,4.8-3.3c0.1-0.4,0.2-0.8,0.2-1.1V808.5z"/>
			<path class="st2" d="M128.3,805.3c0-2.5-0.1-4.6-0.2-6.4h3.2l0.2,3.4h0.1c1.5-2.4,3.8-3.8,7-3.8c4.8,0,8.4,4,8.4,10
				c0,7.1-4.3,10.6-9,10.6c-2.6,0-4.9-1.1-6.1-3.1h-0.1v10.7h-3.5V805.3z M131.8,810.6c0,0.5,0.1,1,0.2,1.5c0.7,2.5,2.8,4.2,5.4,4.2
				c3.8,0,6-3.1,6-7.6c0-4-2.1-7.3-5.9-7.3c-2.4,0-4.7,1.8-5.4,4.4c-0.1,0.4-0.2,1-0.2,1.5V810.6z"/>
			<path class="st2" d="M155.5,793.3c0,1.2-0.9,2.2-2.3,2.2c-1.3,0-2.2-1-2.2-2.2c0-1.3,0.9-2.2,2.2-2.2
				C154.6,791.1,155.5,792.1,155.5,793.3z M151.5,818.6v-19.7h3.6v19.7H151.5z"/>
			<path class="st2" d="M171.9,818.6l-0.3-2.5h-0.1c-1.1,1.5-3.2,2.9-6,2.9c-4,0-6-2.8-6-5.7c0-4.8,4.2-7.4,11.9-7.3v-0.4
				c0-1.6-0.4-4.6-4.5-4.6c-1.8,0-3.8,0.6-5.1,1.5l-0.8-2.4c1.6-1.1,4-1.8,6.5-1.8c6,0,7.5,4.1,7.5,8.1v7.4c0,1.7,0.1,3.4,0.3,4.7
				H171.9z M171.4,808.5c-3.9-0.1-8.4,0.6-8.4,4.4c0,2.3,1.5,3.4,3.4,3.4c2.6,0,4.2-1.6,4.8-3.3c0.1-0.4,0.2-0.8,0.2-1.1V808.5z"/>
		</g>
	</g>
	<g>
		<path class="st0" d="M621,204.2v5.8h-25.4v75h-6.2v-75H564v-5.8H621z"/>
		<path class="st0" d="M648.2,226c8.5,0,15.3,3,20.6,9c5.3,6,7.9,13.1,7.9,21.4c0,0.3,0,0.8-0.1,1.4c0,0.6-0.1,1.1-0.1,1.4h-52.3
			c0.7,6.5,3.3,11.7,7.8,15.6c4.5,4,10.1,5.9,16.7,5.9c4.6,0,8.7-1,12.1-2.9c3.5-1.9,6.1-4.5,7.9-7.6l5.1,3c-2.4,4-5.8,7.2-10.2,9.5
			c-4.4,2.3-9.4,3.5-15,3.5c-8.9,0-16.1-2.8-21.8-8.5c-5.7-5.7-8.5-12.9-8.5-21.6c0-8.6,2.8-15.8,8.4-21.5
			C632.2,228.9,639.4,226,648.2,226z M648.2,231.6c-6.5,0-12,2-16.4,6.1c-4.4,4.1-6.9,9.4-7.5,15.8h46.4c-0.6-6.8-3.1-12.2-7.3-16.1
			C659.1,233.5,654,231.6,648.2,231.6z"/>
		<path class="st0" d="M696,238.6c3.5-8.1,9.9-12.1,19.3-12.1v5.5c-5.5,0-10,1.8-13.7,5.3c-3.7,3.5-5.5,8.7-5.5,15.6V285h-5.8v-57.7
			h5.8V238.6z"/>
		<path class="st0" d="M774.2,227.3h5.9V285h-5.9v-13c-2.5,4.5-5.8,8-10.2,10.5c-4.3,2.5-9.2,3.8-14.7,3.8c-8.2,0-15.3-2.9-21.1-8.7
			c-5.8-5.8-8.8-12.9-8.8-21.4c0-8.5,2.9-15.6,8.8-21.4c5.8-5.8,12.9-8.7,21.1-8.7c5.5,0,10.4,1.3,14.7,3.8c4.3,2.5,7.7,6,10.2,10.5
			V227.3z M732.5,273.6c4.7,4.8,10.5,7.2,17.4,7.2c6.8,0,12.6-2.4,17.3-7.2c4.7-4.8,7-10.6,7-17.4c0-6.8-2.3-12.7-7-17.4
			c-4.7-4.8-10.5-7.2-17.3-7.2c-6.9,0-12.6,2.4-17.4,7.2c-4.7,4.8-7.1,10.6-7.1,17.4C725.4,263,727.8,268.8,732.5,273.6z"/>
		<path class="st0" d="M828.5,226c8.3,0,15.4,2.9,21.2,8.7c5.8,5.8,8.7,13,8.7,21.4c0,8.5-2.9,15.6-8.7,21.4
			c-5.8,5.8-12.9,8.7-21.2,8.7c-5.5,0-10.4-1.3-14.7-3.9c-4.3-2.6-7.7-6.2-10.1-10.7v36.5h-5.8v-80.8h5.8v13.4
			c2.4-4.5,5.8-8.1,10.1-10.7C818.1,227.4,823,226,828.5,226z M810.8,273.6c4.7,4.8,10.5,7.2,17.4,7.2c6.8,0,12.6-2.4,17.4-7.2
			c4.7-4.8,7.1-10.6,7.1-17.4c0-6.8-2.4-12.7-7.1-17.4c-4.7-4.8-10.5-7.2-17.4-7.2c-6.9,0-12.6,2.4-17.4,7.2
			c-4.7,4.8-7.1,10.6-7.1,17.4C803.7,263,806,268.8,810.8,273.6z"/>
		<path class="st0" d="M878.5,212c-0.9,0.9-2,1.3-3.2,1.3c-1.2,0-2.3-0.4-3.2-1.3c-0.9-0.9-1.4-2-1.4-3.3c0-1.2,0.5-2.3,1.4-3.2
			c0.9-0.9,2-1.3,3.2-1.3c1.2,0,2.3,0.4,3.2,1.3c0.9,0.9,1.4,1.9,1.4,3.2C879.9,210,879.4,211.1,878.5,212z M872.4,285v-57.7h5.8
			V285H872.4z"/>
		<path class="st0" d="M946.7,227.3h5.9V285h-5.9v-13c-2.5,4.5-5.8,8-10.2,10.5c-4.3,2.5-9.2,3.8-14.7,3.8c-8.2,0-15.3-2.9-21.1-8.7
			c-5.8-5.8-8.8-12.9-8.8-21.4c0-8.5,2.9-15.6,8.8-21.4c5.8-5.8,12.9-8.7,21.1-8.7c5.5,0,10.4,1.3,14.7,3.8c4.3,2.5,7.7,6,10.2,10.5
			V227.3z M905,273.6c4.7,4.8,10.5,7.2,17.4,7.2c6.8,0,12.6-2.4,17.3-7.2c4.7-4.8,7-10.6,7-17.4c0-6.8-2.3-12.7-7-17.4
			c-4.7-4.8-10.5-7.2-17.3-7.2c-6.9,0-12.6,2.4-17.4,7.2c-4.7,4.8-7.1,10.6-7.1,17.4C897.9,263,900.2,268.8,905,273.6z"/>
	</g>
	<g>
		<path class="st3" d="M1678,276.4c-2.6,0-4.9-0.5-6.9-1.6s-3.5-2.6-4.4-4.7l2.4-1.5c1.3,3.4,4.3,5,8.9,5c2.8,0,5.1-0.7,6.7-2.1
			c1.7-1.4,2.5-3.4,2.5-6.1V238h2.9v27.5c0,3.5-1.1,6.2-3.4,8.1C1684.4,275.4,1681.5,276.4,1678,276.4z"/>
		<path class="st3" d="M1717.9,248.8h2.7v27h-2.7v-5.1c-1.9,3.8-5.2,5.7-9.7,5.7c-3.2,0-5.8-1-7.6-2.9s-2.8-4.6-2.8-7.9v-16.8h2.8
			v16.8c0,2.5,0.7,4.5,2.1,6c1.4,1.5,3.3,2.2,5.9,2.2c2.8,0,5-0.9,6.8-2.8c1.8-1.8,2.6-4.5,2.6-8V248.8z"/>
		<path class="st3" d="M1728.9,275.8v-39.5h2.7v39.5H1728.9z"/>
		<path class="st3" d="M1742.8,241.6c-0.4,0.4-0.9,0.6-1.5,0.6s-1.1-0.2-1.5-0.6c-0.4-0.4-0.6-0.9-0.6-1.5c0-0.6,0.2-1.1,0.6-1.5
			c0.4-0.4,0.9-0.6,1.5-0.6s1.1,0.2,1.5,0.6c0.4,0.4,0.6,0.9,0.6,1.5C1743.4,240.7,1743.2,241.2,1742.8,241.6z M1739.9,275.8v-27
			h2.7v27H1739.9z"/>
		<path class="st3" d="M1763.3,276.4c-4,0-7.3-1.4-10.1-4.1s-4.1-6.1-4.1-10s1.4-7.3,4.1-10c2.8-2.7,6.1-4.1,10.1-4.1
			c3.9,0,7.3,1.4,10,4.1c2.8,2.7,4.1,6.1,4.1,10s-1.4,7.3-4.1,10S1767.3,276.4,1763.3,276.4z M1755.2,270.5c2.2,2.2,4.9,3.4,8.1,3.4
			s5.9-1.1,8.1-3.4c2.2-2.2,3.3-5,3.3-8.2s-1.1-5.9-3.3-8.2c-2.2-2.2-4.9-3.4-8.1-3.4s-5.9,1.1-8.1,3.4c-2.2,2.2-3.3,5-3.3,8.2
			S1753,268.2,1755.2,270.5z"/>
		<path class="st3" d="M1816.5,276.4c-5.7,0-10.4-1.9-14.1-5.6c-3.7-3.8-5.6-8.4-5.6-13.9c0-5.5,1.9-10.1,5.6-13.9
			c3.7-3.8,8.4-5.6,14.1-5.6c3.5,0,6.6,0.8,9.5,2.5c2.9,1.6,5.1,3.8,6.7,6.6l-2.5,1.5c-1.3-2.3-3.1-4.2-5.6-5.6
			c-2.5-1.4-5.2-2.1-8.1-2.1c-4.9,0-8.9,1.6-12.1,4.8c-3.2,3.2-4.7,7.2-4.7,11.9c0,4.7,1.6,8.7,4.7,11.9c3.2,3.2,7.2,4.8,12.1,4.8
			c3,0,5.7-0.7,8.2-2.2c2.5-1.4,4.4-3.4,5.6-5.8l2.5,1.5c-1.5,2.8-3.8,5.1-6.7,6.7C1823.2,275.6,1820,276.4,1816.5,276.4z"/>
		<path class="st3" d="M1851.1,276.4c-4,0-7.3-1.4-10.1-4.1s-4.1-6.1-4.1-10s1.4-7.3,4.1-10c2.8-2.7,6.1-4.1,10.1-4.1
			c3.9,0,7.3,1.4,10,4.1c2.8,2.7,4.1,6.1,4.1,10s-1.4,7.3-4.1,10S1855,276.4,1851.1,276.4z M1843,270.5c2.2,2.2,4.9,3.4,8.1,3.4
			s5.9-1.1,8.1-3.4c2.2-2.2,3.3-5,3.3-8.2s-1.1-5.9-3.3-8.2c-2.2-2.2-4.9-3.4-8.1-3.4s-5.9,1.1-8.1,3.4c-2.2,2.2-3.3,5-3.3,8.2
			S1840.8,268.2,1843,270.5z"/>
		<path class="st3" d="M1874.5,254.1c1.6-3.8,4.6-5.7,9-5.7v2.6c-2.6,0-4.7,0.8-6.4,2.5c-1.7,1.6-2.6,4.1-2.6,7.3v15h-2.7v-27h2.7
			V254.1z"/>
		<path class="st3" d="M1903.2,251.4h-8.1V269c0,1.5,0.3,2.7,0.9,3.4c0.6,0.7,1.5,1.1,2.6,1.2c1.2,0.1,2.7,0,4.5-0.1v2.4
			c-3.6,0.5-6.4,0.3-8.1-0.8c-1.8-1-2.7-3.1-2.7-6.1v-17.6h-5.9v-2.6h5.9V242l2.8-0.8v7.6h8.1V251.4z"/>
		<path class="st3" d="M1931.8,248.8h2.8v27h-2.8v-6.1c-1.2,2.1-2.7,3.7-4.8,4.9c-2,1.2-4.3,1.8-6.9,1.8c-3.9,0-7.2-1.4-9.9-4.1
			s-4.1-6.1-4.1-10s1.4-7.3,4.1-10c2.7-2.7,6-4.1,9.9-4.1c2.6,0,4.8,0.6,6.9,1.8c2,1.2,3.6,2.8,4.8,4.9V248.8z M1912.3,270.5
			c2.2,2.2,4.9,3.4,8.1,3.4s5.9-1.1,8.1-3.4c2.2-2.2,3.3-5,3.3-8.2s-1.1-5.9-3.3-8.2c-2.2-2.2-4.9-3.4-8.1-3.4s-5.9,1.1-8.1,3.4
			c-2.2,2.2-3.3,5-3.3,8.2S1910,268.2,1912.3,270.5z"/>
		<path class="st3" d="M1945.5,273.2h16.7v2.6h-20.6V274l16.2-22.6h-15.7v-2.6h19.5v1.8L1945.5,273.2z"/>
		<path class="st3" d="M1990.8,248.8h2.8v27h-2.8v-6.1c-1.2,2.1-2.7,3.7-4.8,4.9c-2,1.2-4.3,1.8-6.9,1.8c-3.9,0-7.2-1.4-9.9-4.1
			s-4.1-6.1-4.1-10s1.4-7.3,4.1-10c2.7-2.7,6-4.1,9.9-4.1c2.6,0,4.8,0.6,6.9,1.8c2,1.2,3.6,2.8,4.8,4.9V248.8z M1971.3,270.5
			c2.2,2.2,4.9,3.4,8.1,3.4s5.9-1.1,8.1-3.4c2.2-2.2,3.3-5,3.3-8.2s-1.1-5.9-3.3-8.2c-2.2-2.2-4.9-3.4-8.1-3.4s-5.9,1.1-8.1,3.4
			c-2.2,2.2-3.3,5-3.3,8.2S1969.1,268.2,1971.3,270.5z"/>
		<path class="st3" d="M2004.6,254.1c1.6-3.8,4.6-5.7,9-5.7v2.6c-2.6,0-4.7,0.8-6.4,2.5c-1.7,1.6-2.6,4.1-2.6,7.3v15h-2.7v-27h2.7
			V254.1z"/>
	</g>
	<g>
		<g>
			<g>
				<g>
					<path class="st3" d="M1573.1,608.4l-1.4-4h-9.1l-1.3,4h-4.7l7.8-22.1h5.4l7.8,22.1H1573.1z M1564,600.4h6.2l-3.2-9L1564,600.4z
						"/>
					<path class="st3" d="M1586.6,608.9c-2.4,0-4.4-0.8-6-2.4c-1.6-1.6-2.4-3.6-2.4-5.9s0.8-4.3,2.4-5.9c1.6-1.6,3.6-2.4,6-2.4
						c1.5,0,2.9,0.4,4.2,1.1c1.3,0.7,2.2,1.7,2.9,3l-3.5,2.1c-0.3-0.7-0.8-1.2-1.4-1.6c-0.6-0.4-1.4-0.6-2.2-0.6
						c-1.2,0-2.2,0.4-3,1.2c-0.8,0.8-1.2,1.9-1.2,3.1c0,1.2,0.4,2.3,1.2,3.1c0.8,0.8,1.8,1.2,3,1.2c0.8,0,1.6-0.2,2.2-0.6
						c0.6-0.4,1.1-0.9,1.4-1.5l3.5,2c-0.7,1.2-1.7,2.2-2.9,3C1589.5,608.5,1588.1,608.9,1586.6,608.9z"/>
					<path class="st3" d="M1604.9,596.5h-3.6v6.6c0,0.5,0.1,0.9,0.4,1.2c0.3,0.3,0.7,0.4,1.2,0.4c0.5,0,1.2,0,2,0v3.7
						c-2.8,0.3-4.8,0.1-5.9-0.8c-1.1-0.8-1.7-2.4-1.7-4.5v-6.6h-2.8v-3.9h2.8v-3.2l4.1-1.2v4.4h3.6V596.5z"/>
					<path class="st3" d="M1609.8,590.7c-0.7,0-1.3-0.2-1.8-0.7c-0.5-0.5-0.7-1.1-0.7-1.8s0.2-1.3,0.7-1.8c0.5-0.5,1.1-0.8,1.8-0.8
						c0.7,0,1.3,0.3,1.8,0.8c0.5,0.5,0.7,1.1,0.7,1.8s-0.2,1.3-0.7,1.8C1611.1,590.5,1610.5,590.7,1609.8,590.7z M1607.8,608.4
						v-15.8h4.1v15.8H1607.8z"/>
					<path class="st3" d="M1626,592.6h4.5l-6,15.8h-4.7l-6-15.8h4.5l3.8,11.1L1626,592.6z"/>
					<path class="st3" d="M1634.5,590.7c-0.7,0-1.3-0.2-1.8-0.7c-0.5-0.5-0.7-1.1-0.7-1.8s0.2-1.3,0.7-1.8c0.5-0.5,1.1-0.8,1.8-0.8
						c0.7,0,1.3,0.3,1.8,0.8c0.5,0.5,0.7,1.1,0.7,1.8s-0.2,1.3-0.7,1.8C1635.8,590.5,1635.2,590.7,1634.5,590.7z M1632.5,608.4
						v-15.8h4.1v15.8H1632.5z"/>
					<path class="st3" d="M1652.3,586.3h4.1v22.1h-4.1v-1.9c-1.2,1.5-2.9,2.3-5.1,2.3c-2.1,0-3.9-0.8-5.5-2.4
						c-1.5-1.6-2.3-3.6-2.3-5.9s0.8-4.3,2.3-5.9c1.5-1.6,3.3-2.4,5.5-2.4c2.2,0,3.9,0.8,5.1,2.3V586.3z M1644.8,603.7
						c0.8,0.8,1.9,1.2,3.1,1.2s2.3-0.4,3.1-1.2s1.2-1.9,1.2-3.2s-0.4-2.4-1.2-3.2s-1.9-1.2-3.1-1.2s-2.3,0.4-3.1,1.2
						s-1.3,1.9-1.3,3.2S1643.9,602.9,1644.8,603.7z"/>
					<path class="st3" d="M1672.1,592.6h4.1v15.8h-4.1v-1.9c-1.2,1.5-2.9,2.3-5.2,2.3c-2.1,0-3.9-0.8-5.4-2.4s-2.3-3.6-2.3-5.9
						s0.8-4.3,2.3-5.9s3.3-2.4,5.4-2.4c2.2,0,3.9,0.8,5.2,2.3V592.6z M1664.6,603.7c0.8,0.8,1.9,1.2,3.1,1.2s2.3-0.4,3.1-1.2
						s1.3-1.9,1.3-3.2s-0.4-2.4-1.3-3.2s-1.9-1.2-3.1-1.2s-2.3,0.4-3.1,1.2s-1.2,1.9-1.2,3.2S1663.8,602.9,1664.6,603.7z"/>
					<path class="st3" d="M1691.9,586.3h4.1v22.1h-4.1v-1.9c-1.2,1.5-2.9,2.3-5.1,2.3c-2.1,0-3.9-0.8-5.5-2.4
						c-1.5-1.6-2.3-3.6-2.3-5.9s0.8-4.3,2.3-5.9c1.5-1.6,3.3-2.4,5.5-2.4c2.2,0,3.9,0.8,5.1,2.3V586.3z M1684.4,603.7
						c0.8,0.8,1.9,1.2,3.1,1.2s2.3-0.4,3.1-1.2s1.2-1.9,1.2-3.2s-0.4-2.4-1.2-3.2s-1.9-1.2-3.1-1.2s-2.3,0.4-3.1,1.2
						s-1.3,1.9-1.3,3.2S1683.5,602.9,1684.4,603.7z"/>
				</g>
				<g>
					<path class="st4" d="M1915,586.3c2,0,3.6,0.7,4.9,2c1.3,1.3,2,2.9,2,4.9c0,2-0.7,3.6-2,4.9s-3,1.9-4.9,1.9h-5.9v8.4h-1.7v-22.1
						H1915z M1915,598.4c1.5,0,2.8-0.5,3.7-1.5c1-1,1.5-2.2,1.5-3.8c0-1.5-0.5-2.8-1.5-3.8c-1-1-2.2-1.5-3.7-1.5h-5.9v10.5H1915z"/>
					<path class="st4" d="M1927,595.7c0.9-2.2,2.7-3.3,5.3-3.3v1.5c-1.5,0-2.8,0.5-3.8,1.4c-1,1-1.5,2.4-1.5,4.3v8.8h-1.6v-15.8h1.6
						V595.7z"/>
					<path class="st4" d="M1941.7,592.3c2.3,0,4.2,0.8,5.6,2.5s2.2,3.6,2.2,5.9c0,0.1,0,0.2,0,0.4c0,0.2,0,0.3,0,0.4h-14.3
						c0.2,1.8,0.9,3.2,2.1,4.3c1.2,1.1,2.8,1.6,4.6,1.6c1.3,0,2.4-0.3,3.3-0.8c0.9-0.5,1.7-1.2,2.2-2.1l1.4,0.8
						c-0.7,1.1-1.6,2-2.8,2.6s-2.6,1-4.1,1c-2.4,0-4.4-0.8-6-2.3s-2.3-3.5-2.3-5.9c0-2.4,0.8-4.3,2.3-5.9
						C1937.3,593.1,1939.3,592.3,1941.7,592.3z M1941.7,593.8c-1.8,0-3.3,0.6-4.5,1.7c-1.2,1.1-1.9,2.6-2.1,4.3h12.7
						c-0.2-1.9-0.8-3.3-2-4.4C1944.7,594.3,1943.3,593.8,1941.7,593.8z"/>
					<path class="st4" d="M1961.6,592.3c2.3,0,4.2,0.8,5.8,2.4c1.6,1.6,2.4,3.5,2.4,5.9c0,2.3-0.8,4.3-2.4,5.9
						c-1.6,1.6-3.5,2.4-5.8,2.4c-1.5,0-2.8-0.4-4-1.1c-1.2-0.7-2.1-1.7-2.8-2.9v10h-1.6v-22.1h1.6v3.7c0.7-1.2,1.6-2.2,2.8-2.9
						C1958.7,592.6,1960.1,592.3,1961.6,592.3z M1956.7,605.3c1.3,1.3,2.9,2,4.8,2c1.9,0,3.5-0.7,4.8-2c1.3-1.3,1.9-2.9,1.9-4.8
						c0-1.9-0.6-3.5-1.9-4.8c-1.3-1.3-2.9-2-4.8-2c-1.9,0-3.5,0.7-4.8,2c-1.3,1.3-1.9,2.9-1.9,4.8
						C1954.8,602.4,1955.4,604,1956.7,605.3z"/>
					<path class="st4" d="M1987.5,592.6h1.6v15.8h-1.6v-3.6c-0.7,1.2-1.6,2.2-2.8,2.9c-1.2,0.7-2.5,1-4,1c-2.3,0-4.2-0.8-5.8-2.4
						c-1.6-1.6-2.4-3.5-2.4-5.9c0-2.3,0.8-4.3,2.4-5.9c1.6-1.6,3.5-2.4,5.8-2.4c1.5,0,2.8,0.3,4,1c1.2,0.7,2.1,1.7,2.8,2.9V592.6z
						 M1976.1,605.3c1.3,1.3,2.9,2,4.8,2c1.9,0,3.5-0.7,4.7-2c1.3-1.3,1.9-2.9,1.9-4.8c0-1.9-0.6-3.5-1.9-4.8c-1.3-1.3-2.9-2-4.7-2
						c-1.9,0-3.5,0.7-4.8,2c-1.3,1.3-1.9,2.9-1.9,4.8C1974.1,602.4,1974.8,604,1976.1,605.3z"/>
					<path class="st4" d="M1995.6,595.7c0.9-2.2,2.7-3.3,5.3-3.3v1.5c-1.5,0-2.8,0.5-3.8,1.4c-1,1-1.5,2.4-1.5,4.3v8.8h-1.6v-15.8
						h1.6V595.7z"/>
					<path class="st4" d="M2017,592.6h1.6v15.8h-1.6v-3.6c-0.7,1.2-1.6,2.2-2.8,2.9c-1.2,0.7-2.5,1-4,1c-2.3,0-4.2-0.8-5.8-2.4
						c-1.6-1.6-2.4-3.5-2.4-5.9c0-2.3,0.8-4.3,2.4-5.9c1.6-1.6,3.5-2.4,5.8-2.4c1.5,0,2.8,0.3,4,1c1.2,0.7,2.1,1.7,2.8,2.9V592.6z
						 M2005.6,605.3c1.3,1.3,2.9,2,4.8,2c1.9,0,3.5-0.7,4.7-2c1.3-1.3,1.9-2.9,1.9-4.8c0-1.9-0.6-3.5-1.9-4.8c-1.3-1.3-2.9-2-4.7-2
						c-1.9,0-3.5,0.7-4.8,2c-1.3,1.3-1.9,2.9-1.9,4.8C2003.7,602.4,2004.3,604,2005.6,605.3z"/>
					<path class="st4" d="M2025.1,595.7c0.9-2.2,2.7-3.3,5.3-3.3v1.5c-1.5,0-2.8,0.5-3.8,1.4c-1,1-1.5,2.4-1.5,4.3v8.8h-1.6v-15.8
						h1.6V595.7z"/>
					<path class="st4" d="M2049.1,592.3c2.3,0,4.2,0.8,5.6,2.5s2.2,3.6,2.2,5.9c0,0.1,0,0.2,0,0.4c0,0.2,0,0.3,0,0.4h-14.3
						c0.2,1.8,0.9,3.2,2.1,4.3c1.2,1.1,2.8,1.6,4.6,1.6c1.3,0,2.4-0.3,3.3-0.8c0.9-0.5,1.7-1.2,2.2-2.1l1.4,0.8
						c-0.7,1.1-1.6,2-2.8,2.6s-2.6,1-4.1,1c-2.4,0-4.4-0.8-6-2.3s-2.3-3.5-2.3-5.9c0-2.4,0.8-4.3,2.3-5.9
						C2044.8,593.1,2046.7,592.3,2049.1,592.3z M2049.1,593.8c-1.8,0-3.3,0.6-4.5,1.7c-1.2,1.1-1.9,2.6-2.1,4.3h12.7
						c-0.2-1.9-0.8-3.3-2-4.4C2052.1,594.3,2050.7,593.8,2049.1,593.8z"/>
					<path class="st4" d="M2060.7,608.4v-23.1h1.6v23.1H2060.7z"/>
					<path class="st4" d="M2092.5,592.3c1.7,0,3.1,0.5,4.2,1.6c1.1,1.1,1.6,2.6,1.6,4.5v10h-1.6v-10c0-1.5-0.4-2.6-1.2-3.4
						c-0.8-0.8-1.8-1.2-3.1-1.2c-1.4,0-2.6,0.5-3.4,1.5c-0.9,1-1.3,2.4-1.3,4.4v8.8h-1.6v-10c0-1.5-0.4-2.6-1.1-3.4
						c-0.7-0.8-1.7-1.2-3-1.2c-1.4,0-2.6,0.5-3.5,1.5c-0.9,1-1.4,2.4-1.4,4.3v8.8h-1.6v-15.8h1.6v2.7c1.1-2,2.8-3.1,5.1-3.1
						c1.2,0,2.2,0.3,3,0.8c0.9,0.6,1.5,1.4,1.9,2.4c0.5-1.1,1.3-1.9,2.2-2.4C2090.3,592.5,2091.4,592.3,2092.5,592.3z"/>
					<path class="st4" d="M2116.6,592.6h1.6v15.8h-1.6v-3.6c-0.7,1.2-1.6,2.2-2.8,2.9c-1.2,0.7-2.5,1-4,1c-2.3,0-4.2-0.8-5.8-2.4
						c-1.6-1.6-2.4-3.5-2.4-5.9c0-2.3,0.8-4.3,2.4-5.9c1.6-1.6,3.5-2.4,5.8-2.4c1.5,0,2.8,0.3,4,1c1.2,0.7,2.1,1.7,2.8,2.9V592.6z
						 M2105.2,605.3c1.3,1.3,2.9,2,4.8,2c1.9,0,3.5-0.7,4.7-2c1.3-1.3,1.9-2.9,1.9-4.8c0-1.9-0.6-3.5-1.9-4.8c-1.3-1.3-2.9-2-4.7-2
						c-1.9,0-3.5,0.7-4.8,2c-1.3,1.3-1.9,2.9-1.9,4.8C2103.2,602.4,2103.9,604,2105.2,605.3z"/>
					<path class="st4" d="M2131.2,594.2h-4.7v10.3c0,0.9,0.2,1.6,0.5,2c0.3,0.4,0.9,0.6,1.5,0.7s1.6,0,2.7-0.1v1.4
						c-2.1,0.3-3.7,0.2-4.8-0.4s-1.6-1.8-1.6-3.5v-10.3h-3.5v-1.6h3.5v-4l1.6-0.5v4.4h4.7V594.2z"/>
					<path class="st4" d="M2141.1,592.3c2.3,0,4.2,0.8,5.6,2.5s2.2,3.6,2.2,5.9c0,0.1,0,0.2,0,0.4c0,0.2,0,0.3,0,0.4h-14.3
						c0.2,1.8,0.9,3.2,2.1,4.3c1.2,1.1,2.8,1.6,4.6,1.6c1.3,0,2.4-0.3,3.3-0.8c0.9-0.5,1.7-1.2,2.2-2.1l1.4,0.8
						c-0.7,1.1-1.6,2-2.8,2.6s-2.6,1-4.1,1c-2.4,0-4.4-0.8-6-2.3s-2.3-3.5-2.3-5.9c0-2.4,0.8-4.3,2.3-5.9
						C2136.8,593.1,2138.7,592.3,2141.1,592.3z M2141.1,593.8c-1.8,0-3.3,0.6-4.5,1.7c-1.2,1.1-1.9,2.6-2.1,4.3h12.7
						c-0.2-1.9-0.8-3.3-2-4.4C2144.1,594.3,2142.7,593.8,2141.1,593.8z"/>
				</g>
			</g>
			<g>
				<g>
					<path class="st3" d="M1573.2,501.6v4.2h-6v18h-4.4v-18h-5.9v-4.2H1573.2z"/>
					<path class="st3" d="M1577.5,506c-0.7,0-1.3-0.2-1.8-0.7c-0.5-0.5-0.7-1.1-0.7-1.8s0.2-1.3,0.7-1.8c0.5-0.5,1.1-0.8,1.8-0.8
						c0.7,0,1.3,0.3,1.8,0.8c0.5,0.5,0.7,1.1,0.7,1.8s-0.2,1.3-0.7,1.8C1578.8,505.8,1578.2,506,1577.5,506z M1575.4,523.7v-15.8
						h4.1v15.8H1575.4z"/>
					<path class="st3" d="M1592.5,507.5c2.1,0,3.9,0.8,5.5,2.4s2.3,3.6,2.3,5.9s-0.8,4.3-2.3,5.9s-3.3,2.4-5.5,2.4
						c-2.2,0-3.9-0.8-5.1-2.3v8.2h-4.1v-22.1h4.1v1.9C1588.5,508.2,1590.3,507.5,1592.5,507.5z M1588.6,519c0.8,0.8,1.9,1.3,3.1,1.3
						c1.3,0,2.3-0.4,3.1-1.3c0.8-0.8,1.2-1.9,1.2-3.2c0-1.3-0.4-2.4-1.2-3.2c-0.8-0.8-1.9-1.3-3.1-1.3c-1.3,0-2.3,0.4-3.1,1.3
						c-0.8,0.8-1.2,1.9-1.2,3.2C1587.3,517.1,1587.8,518.2,1588.6,519z"/>
					<path class="st3" d="M1616.5,521.7c-1.6,1.6-3.6,2.4-5.9,2.4s-4.3-0.8-5.9-2.4s-2.4-3.6-2.4-5.9s0.8-4.3,2.4-5.9
						s3.6-2.4,5.9-2.4s4.3,0.8,5.9,2.4s2.4,3.6,2.4,5.9S1618.2,520.1,1616.5,521.7z M1607.5,518.9c0.8,0.8,1.8,1.2,3.1,1.2
						c1.2,0,2.2-0.4,3.1-1.2c0.8-0.8,1.2-1.9,1.2-3.1s-0.4-2.3-1.2-3.1c-0.8-0.8-1.8-1.2-3.1-1.2c-1.2,0-2.2,0.4-3.1,1.2
						c-0.8,0.8-1.2,1.9-1.2,3.1S1606.7,518.1,1607.5,518.9z"/>
				</g>
				<g>
					<path class="st4" d="M1995.9,523.7l-2.2-5.6h-11.1l-2.2,5.6h-1.8l8.6-22.1h1.8l8.6,22.1H1995.9z M1983.2,516.5h9.9l-4.9-12.9
						L1983.2,516.5z"/>
					<path class="st4" d="M2007.5,524.1c-2.4,0-4.4-0.8-5.9-2.4c-1.6-1.6-2.4-3.5-2.4-5.9s0.8-4.3,2.4-5.9c1.6-1.6,3.6-2.4,5.9-2.4
						c1.5,0,2.9,0.4,4.2,1.1c1.2,0.7,2.2,1.7,2.7,3l-1.3,0.8c-0.5-1-1.2-1.8-2.2-2.4c-1-0.6-2.1-0.9-3.4-0.9c-1.9,0-3.5,0.6-4.8,1.9
						s-1.9,2.9-1.9,4.8s0.6,3.5,1.9,4.8s2.9,1.9,4.8,1.9c1.3,0,2.4-0.3,3.4-0.9c1-0.6,1.8-1.4,2.3-2.4l1.3,0.8
						c-0.6,1.2-1.6,2.2-2.8,2.9C2010.4,523.7,2009,524.1,2007.5,524.1z"/>
					<path class="st4" d="M2026.1,509.5h-4.7v10.3c0,0.9,0.2,1.6,0.5,2c0.3,0.4,0.9,0.6,1.5,0.7s1.6,0,2.7-0.1v1.4
						c-2.1,0.3-3.7,0.2-4.8-0.4s-1.6-1.8-1.6-3.5v-10.3h-3.5v-1.5h3.5v-4l1.6-0.5v4.4h4.7V509.5z"/>
					<path class="st4" d="M2031.6,503.7c-0.3,0.2-0.5,0.4-0.9,0.4c-0.3,0-0.6-0.1-0.9-0.4s-0.4-0.5-0.4-0.9c0-0.3,0.1-0.6,0.4-0.9
						c0.3-0.2,0.5-0.4,0.9-0.4c0.3,0,0.6,0.1,0.9,0.4c0.3,0.2,0.4,0.5,0.4,0.9C2031.9,503.2,2031.8,503.5,2031.6,503.7z
						 M2029.9,523.7v-15.8h1.6v15.8H2029.9z"/>
					<path class="st4" d="M2047.9,507.9h1.7l-6.7,15.8h-1.9l-6.7-15.8h1.7l5.9,14.2L2047.9,507.9z"/>
					<path class="st4" d="M2054.2,503.7c-0.3,0.2-0.5,0.4-0.9,0.4c-0.3,0-0.6-0.1-0.9-0.4s-0.4-0.5-0.4-0.9c0-0.3,0.1-0.6,0.4-0.9
						c0.3-0.2,0.5-0.4,0.9-0.4c0.3,0,0.6,0.1,0.9,0.4c0.3,0.2,0.4,0.5,0.4,0.9C2054.6,503.2,2054.4,503.5,2054.2,503.7z
						 M2052.5,523.7v-15.8h1.6v15.8H2052.5z"/>
					<path class="st4" d="M2072.9,501.6h1.6v22.1h-1.6v-3.7c-0.7,1.2-1.6,2.2-2.8,2.9c-1.2,0.7-2.5,1.1-4,1.1
						c-2.3,0-4.2-0.8-5.8-2.4c-1.6-1.6-2.4-3.5-2.4-5.9s0.8-4.3,2.4-5.9c1.6-1.6,3.5-2.4,5.8-2.4c1.5,0,2.8,0.4,4,1.1
						c1.2,0.7,2.1,1.7,2.8,2.9V501.6z M2061.4,520.6c1.3,1.3,2.9,2,4.8,2c1.9,0,3.5-0.7,4.8-2c1.3-1.3,1.9-2.9,1.9-4.8
						s-0.6-3.5-1.9-4.8c-1.3-1.3-2.9-2-4.8-2c-1.9,0-3.5,0.7-4.8,2c-1.3,1.3-1.9,2.9-1.9,4.8S2060.1,519.3,2061.4,520.6z"/>
					<path class="st4" d="M2093.3,507.9h1.6v15.8h-1.6v-3.6c-0.7,1.2-1.6,2.2-2.8,2.9c-1.2,0.7-2.5,1-4,1c-2.3,0-4.2-0.8-5.8-2.4
						c-1.6-1.6-2.4-3.5-2.4-5.9s0.8-4.3,2.4-5.9c1.6-1.6,3.5-2.4,5.8-2.4c1.5,0,2.8,0.3,4,1c1.2,0.7,2.1,1.7,2.8,2.9V507.9z
						 M2081.8,520.6c1.3,1.3,2.9,2,4.8,2c1.9,0,3.5-0.7,4.7-2c1.3-1.3,1.9-2.9,1.9-4.8s-0.6-3.5-1.9-4.8c-1.3-1.3-2.9-2-4.7-2
						c-1.9,0-3.5,0.7-4.8,2c-1.3,1.3-1.9,2.9-1.9,4.8S2080.5,519.3,2081.8,520.6z"/>
					<path class="st4" d="M2113.7,501.6h1.6v22.1h-1.6v-3.7c-0.7,1.2-1.6,2.2-2.8,2.9c-1.2,0.7-2.5,1.1-4,1.1
						c-2.3,0-4.2-0.8-5.8-2.4c-1.6-1.6-2.4-3.5-2.4-5.9s0.8-4.3,2.4-5.9c1.6-1.6,3.5-2.4,5.8-2.4c1.5,0,2.8,0.4,4,1.1
						c1.2,0.7,2.1,1.7,2.8,2.9V501.6z M2102.2,520.6c1.3,1.3,2.9,2,4.8,2c1.9,0,3.5-0.7,4.8-2c1.3-1.3,1.9-2.9,1.9-4.8
						s-0.6-3.5-1.9-4.8c-1.3-1.3-2.9-2-4.8-2c-1.9,0-3.5,0.7-4.8,2c-1.3,1.3-1.9,2.9-1.9,4.8S2100.9,519.3,2102.2,520.6z"/>
					<path class="st4" d="M2127.3,507.6c2.3,0,4.2,0.8,5.6,2.5s2.2,3.6,2.2,5.9c0,0.1,0,0.2,0,0.4c0,0.2,0,0.3,0,0.4h-14.3
						c0.2,1.8,0.9,3.2,2.1,4.3s2.8,1.6,4.6,1.6c1.3,0,2.4-0.3,3.3-0.8s1.7-1.2,2.2-2.1l1.4,0.8c-0.7,1.1-1.6,2-2.8,2.6s-2.6,1-4.1,1
						c-2.4,0-4.4-0.8-6-2.3c-1.6-1.6-2.3-3.5-2.3-5.9c0-2.4,0.8-4.3,2.3-5.9C2122.9,508.3,2124.9,507.6,2127.3,507.6z M2127.3,509.1
						c-1.8,0-3.3,0.6-4.5,1.7s-1.9,2.6-2.1,4.3h12.7c-0.2-1.9-0.8-3.3-2-4.4C2130.3,509.6,2128.9,509.1,2127.3,509.1z"/>
					<path class="st4" d="M2139.2,512c0,0.8,0.3,1.4,1,1.8s1.5,0.8,2.4,1c0.9,0.2,1.9,0.5,2.8,0.7c0.9,0.3,1.7,0.7,2.4,1.4
						c0.6,0.7,1,1.5,1,2.6c0,1.3-0.5,2.4-1.6,3.2c-1,0.8-2.4,1.3-4.1,1.3c-1.5,0-2.8-0.3-3.8-1s-1.8-1.5-2.2-2.5l1.4-0.8
						c0.3,0.9,0.8,1.5,1.7,2c0.8,0.5,1.8,0.7,3,0.7c1.2,0,2.2-0.3,2.9-0.8c0.8-0.5,1.2-1.2,1.2-2.2c0-0.8-0.3-1.4-1-1.9
						c-0.7-0.5-1.5-0.8-2.4-1.1c-0.9-0.2-1.9-0.5-2.8-0.7c-0.9-0.3-1.8-0.7-2.4-1.3c-0.7-0.6-1-1.5-1-2.5c0-1.3,0.5-2.3,1.5-3.2
						c1-0.9,2.3-1.3,3.9-1.3c1.3,0,2.4,0.3,3.3,0.9c0.9,0.6,1.6,1.3,2.1,2.3l-1.3,0.8c-0.3-0.8-0.8-1.4-1.6-1.8
						c-0.7-0.4-1.6-0.6-2.5-0.6c-1.1,0-2,0.3-2.7,0.8C2139.6,510.4,2139.2,511.1,2139.2,512z"/>
				</g>
			</g>
			<g>
				<g>
					<path class="st4" d="M1570.2,436.1c-3.1,0-5.8-0.7-7.9-2.1c-2.1-1.4-3.6-3.3-4.5-5.7l5.3-3.1c1.2,3.2,3.7,4.8,7.3,4.8
						c1.7,0,3-0.3,3.8-0.9c0.8-0.6,1.2-1.4,1.2-2.4c0-1.1-0.5-2-1.5-2.6s-2.8-1.3-5.3-2c-1.4-0.4-2.6-0.8-3.6-1.3
						c-1-0.4-2-1-2.9-1.7c-1-0.7-1.7-1.6-2.2-2.7c-0.5-1.1-0.8-2.4-0.8-3.8c0-2.9,1-5.1,3.1-6.8c2-1.7,4.5-2.6,7.3-2.6
						c2.6,0,4.8,0.6,6.8,1.9c1.9,1.3,3.5,3,4.5,5.2l-5.2,3c-1.3-2.7-3.3-4.1-6.1-4.1c-1.3,0-2.3,0.3-3.1,0.9s-1.1,1.3-1.1,2.3
						c0,1,0.4,1.8,1.2,2.4c0.8,0.6,2.4,1.3,4.8,2c1,0.3,1.7,0.5,2.2,0.7s1.2,0.4,2,0.8c0.9,0.3,1.5,0.7,2,1s1,0.7,1.6,1.2
						s1.1,1,1.4,1.6c0.3,0.5,0.6,1.2,0.8,2c0.2,0.8,0.3,1.6,0.3,2.5c0,2.9-1.1,5.2-3.2,7C1576.4,435.2,1573.6,436.1,1570.2,436.1z"
						/>
					<path class="st4" d="M1591.1,426.5c0.8,2.8,2.9,4.2,6.4,4.2c2.2,0,3.9-0.8,5.1-2.3l4.7,2.7c-2.2,3.2-5.5,4.8-9.9,4.8
						c-3.7,0-6.7-1.1-9-3.4s-3.4-5.1-3.4-8.5c0-3.4,1.1-6.2,3.3-8.5c2.2-2.3,5.1-3.4,8.6-3.4c3.3,0,6,1.1,8.2,3.4
						c2.2,2.3,3.2,5.1,3.2,8.5c0,0.8-0.1,1.6-0.2,2.4H1591.1z M1591,422h11.5c-0.3-1.5-1-2.7-2.1-3.4s-2.2-1.1-3.5-1.1
						c-1.6,0-2.9,0.4-3.9,1.2C1592,419.5,1591.3,420.6,1591,422z"/>
					<path class="st4" d="M1616.9,419.3c0,0.6,0.4,1.1,1.2,1.5c0.8,0.4,1.8,0.7,2.9,1c1.1,0.3,2.3,0.6,3.4,1.1
						c1.1,0.4,2.1,1.2,2.9,2.2c0.8,1,1.2,2.3,1.2,3.8c0,2.3-0.9,4.1-2.6,5.4c-1.7,1.3-3.9,1.9-6.5,1.9c-4.6,0-7.8-1.8-9.5-5.4
						l5.1-2.8c0.7,2,2.1,2.9,4.4,2.9c2.1,0,3.1-0.6,3.1-1.9c0-0.6-0.4-1.1-1.2-1.5c-0.8-0.4-1.8-0.7-2.9-1c-1.1-0.3-2.3-0.7-3.4-1.1
						c-1.1-0.5-2.1-1.2-2.9-2.1c-0.8-1-1.2-2.2-1.2-3.7c0-2.2,0.8-4,2.5-5.3c1.6-1.3,3.7-1.9,6.1-1.9c1.8,0,3.5,0.4,5,1.2
						c1.5,0.8,2.7,2,3.6,3.5l-5,2.7c-0.7-1.5-1.9-2.3-3.6-2.3c-0.8,0-1.4,0.2-1.9,0.5C1617.1,418.2,1616.9,418.7,1616.9,419.3z"/>
					<path class="st4" d="M1635.2,410.1c-1,0-1.8-0.4-2.5-1.1c-0.7-0.7-1.1-1.5-1.1-2.5c0-1,0.4-1.8,1.1-2.5
						c0.7-0.7,1.5-1.1,2.5-1.1c1,0,1.8,0.4,2.6,1.1c0.7,0.7,1.1,1.6,1.1,2.5c0,1-0.4,1.8-1.1,2.5
						C1637,409.8,1636.2,410.1,1635.2,410.1z M1632.3,435.5v-22.6h5.8v22.6H1632.3z"/>
					<path class="st4" d="M1662.7,432.6c-2.3,2.3-5.2,3.5-8.5,3.5c-3.3,0-6.2-1.2-8.5-3.5s-3.5-5.1-3.5-8.5s1.2-6.2,3.5-8.5
						s5.1-3.5,8.5-3.5c3.3,0,6.2,1.2,8.5,3.5s3.5,5.1,3.5,8.5S1665,430.3,1662.7,432.6z M1649.8,428.6c1.2,1.2,2.6,1.8,4.4,1.8
						s3.2-0.6,4.4-1.8c1.2-1.2,1.8-2.7,1.8-4.5s-0.6-3.3-1.8-4.5c-1.2-1.2-2.6-1.8-4.4-1.8s-3.2,0.6-4.4,1.8
						c-1.2,1.2-1.7,2.7-1.7,4.5S1648.7,427.5,1649.8,428.6z M1650.6,409.6h5.6l5-6.2h-7L1650.6,409.6z"/>
					<path class="st4" d="M1682.9,412.2c2.5,0,4.5,0.8,6.1,2.5c1.6,1.7,2.4,3.9,2.4,6.9v13.9h-5.8v-13.2c0-1.5-0.4-2.7-1.2-3.5
						s-1.9-1.2-3.3-1.2c-1.5,0-2.7,0.5-3.6,1.4c-0.9,0.9-1.4,2.3-1.4,4.2v12.2h-5.8v-22.6h5.8v2.5
						C1677.5,413.3,1679.8,412.2,1682.9,412.2z"/>
				</g>
			</g>
			<g>
				<g>
					<path class="st3" d="M1571.4,671h4.4v22.1h-3.3l-9.5-13.5v13.5h-4.4V671h3.3l9.5,13.5V671z"/>
					<path class="st3" d="M1581.7,675.4c-0.7,0-1.3-0.2-1.8-0.7c-0.5-0.5-0.7-1.1-0.7-1.8s0.2-1.3,0.7-1.8c0.5-0.5,1.1-0.8,1.8-0.8
						c0.7,0,1.3,0.3,1.8,0.8c0.5,0.5,0.7,1.1,0.7,1.8s-0.2,1.3-0.7,1.8C1583,675.2,1582.4,675.4,1581.7,675.4z M1579.7,693.1v-15.8
						h4.1v15.8H1579.7z"/>
					<path class="st3" d="M1597.9,677.3h4.5l-6,15.8h-4.7l-6-15.8h4.5l3.8,11.1L1597.9,677.3z"/>
					<path class="st3" d="M1607.1,686.9c0.5,2,2,3,4.5,3c1.6,0,2.7-0.5,3.5-1.6l3.3,1.9c-1.6,2.3-3.9,3.4-6.9,3.4
						c-2.6,0-4.7-0.8-6.3-2.4c-1.6-1.6-2.4-3.6-2.4-6c0-2.4,0.8-4.4,2.3-6s3.6-2.4,6-2.4c2.3,0,4.2,0.8,5.7,2.4
						c1.5,1.6,2.3,3.6,2.3,5.9c0,0.5-0.1,1.1-0.2,1.7H1607.1z M1607.1,683.7h8.1c-0.2-1.1-0.7-1.9-1.4-2.4s-1.6-0.8-2.5-0.8
						c-1.1,0-2,0.3-2.7,0.8S1607.3,682.7,1607.1,683.7z"/>
					<path class="st3" d="M1622.1,693.1V670h4.1v23.1H1622.1z"/>
				</g>
				<g>
					<path class="st4" d="M2070.4,671h1.7v22.1h-1.7V671z"/>
					<path class="st4" d="M2084.5,677c1.9,0,3.4,0.6,4.5,1.7c1.1,1.1,1.7,2.7,1.7,4.6v9.8h-1.6v-9.8c0-1.5-0.4-2.6-1.2-3.5
						c-0.8-0.9-2-1.3-3.4-1.3c-1.6,0-3,0.5-4,1.6s-1.5,2.6-1.5,4.7v8.4h-1.6v-15.8h1.6v3C2080,678.1,2081.9,677,2084.5,677z"/>
					<path class="st4" d="M2096.8,673.1c-0.3,0.2-0.5,0.4-0.9,0.4c-0.3,0-0.6-0.1-0.9-0.4c-0.3-0.2-0.4-0.5-0.4-0.9
						c0-0.3,0.1-0.6,0.4-0.9c0.3-0.2,0.5-0.4,0.9-0.4c0.3,0,0.6,0.1,0.9,0.4c0.3,0.2,0.4,0.5,0.4,0.9
						C2097.2,672.6,2097.1,672.9,2096.8,673.1z M2095.1,693.1v-15.8h1.6v15.8H2095.1z"/>
					<path class="st4" d="M2108.8,693.5c-2.4,0-4.4-0.8-5.9-2.4c-1.6-1.6-2.4-3.5-2.4-5.9s0.8-4.3,2.4-5.9c1.6-1.6,3.6-2.4,5.9-2.4
						c1.5,0,2.9,0.4,4.2,1.1c1.2,0.7,2.2,1.7,2.7,3l-1.3,0.8c-0.5-1-1.2-1.8-2.2-2.4c-1-0.6-2.1-0.9-3.4-0.9c-1.9,0-3.5,0.6-4.8,1.9
						c-1.3,1.3-1.9,2.9-1.9,4.8s0.6,3.5,1.9,4.8c1.3,1.3,2.9,1.9,4.8,1.9c1.3,0,2.4-0.3,3.4-0.9c1-0.6,1.8-1.4,2.3-2.4l1.3,0.8
						c-0.6,1.2-1.6,2.2-2.8,2.9C2111.8,693.1,2110.4,693.5,2108.8,693.5z"/>
					<path class="st4" d="M2121,673.1c-0.3,0.2-0.5,0.4-0.9,0.4c-0.3,0-0.6-0.1-0.9-0.4c-0.3-0.2-0.4-0.5-0.4-0.9
						c0-0.3,0.1-0.6,0.4-0.9c0.3-0.2,0.5-0.4,0.9-0.4c0.3,0,0.6,0.1,0.9,0.4c0.3,0.2,0.4,0.5,0.4,0.9
						C2121.4,672.6,2121.3,672.9,2121,673.1z M2119.3,693.1v-15.8h1.6v15.8H2119.3z"/>
					<path class="st4" d="M2139.7,677.3h1.6v15.8h-1.6v-3.6c-0.7,1.2-1.6,2.2-2.8,2.9c-1.2,0.7-2.5,1-4,1c-2.3,0-4.2-0.8-5.8-2.4
						c-1.6-1.6-2.4-3.5-2.4-5.9c0-2.3,0.8-4.3,2.4-5.9c1.6-1.6,3.5-2.4,5.8-2.4c1.5,0,2.8,0.3,4,1c1.2,0.7,2.1,1.7,2.8,2.9V677.3z
						 M2128.3,690c1.3,1.3,2.9,2,4.8,2c1.9,0,3.5-0.7,4.7-2c1.3-1.3,1.9-2.9,1.9-4.8c0-1.9-0.6-3.5-1.9-4.8c-1.3-1.3-2.9-2-4.7-2
						c-1.9,0-3.5,0.7-4.8,2c-1.3,1.3-1.9,2.9-1.9,4.8C2126.3,687.1,2127,688.7,2128.3,690z"/>
					<path class="st4" d="M2146.2,693.1V670h1.6v23.1H2146.2z"/>
				</g>
			</g>
		</g>
		<g>
			<g>
				<g>
					<path class="st3" d="M1569.1,915.4c-3.3,0-6.1-1.1-8.3-3.3c-2.2-2.2-3.3-4.9-3.3-8.2c0-3.3,1.1-6,3.3-8.2
						c2.2-2.2,4.9-3.3,8.3-3.3c2,0,3.9,0.5,5.6,1.4c1.7,0.9,3,2.2,4,3.8l-3.8,2.2c-0.5-1-1.3-1.8-2.3-2.3s-2.2-0.8-3.4-0.8
						c-2.2,0-3.9,0.7-5.2,2c-1.3,1.3-2,3.1-2,5.3c0,2.1,0.7,3.9,2,5.2c1.3,1.4,3.1,2,5.2,2c1.3,0,2.4-0.3,3.4-0.8
						c1-0.6,1.8-1.3,2.3-2.3l3.8,2.2c-0.9,1.6-2.3,2.9-4,3.8C1572.9,914.9,1571.1,915.4,1569.1,915.4z"/>
					<path class="st3" d="M1594.7,912.9c-1.6,1.6-3.6,2.4-5.9,2.4s-4.3-0.8-5.9-2.4s-2.4-3.6-2.4-5.9s0.8-4.3,2.4-5.9
						s3.6-2.4,5.9-2.4s4.3,0.8,5.9,2.4s2.4,3.6,2.4,5.9S1596.3,911.3,1594.7,912.9z M1585.7,910.1c0.8,0.8,1.8,1.2,3.1,1.2
						c1.2,0,2.2-0.4,3.1-1.2s1.2-1.9,1.2-3.1c0-1.3-0.4-2.3-1.2-3.1s-1.8-1.2-3.1-1.2c-1.2,0-2.2,0.4-3.1,1.2
						c-0.8,0.8-1.2,1.9-1.2,3.1C1584.4,908.3,1584.8,909.3,1585.7,910.1z"/>
					<path class="st3" d="M1604,901.8c0.4-1,1-1.8,1.9-2.3c0.9-0.5,1.9-0.8,2.9-0.8v4.6c-1.2-0.1-2.4,0.1-3.3,0.8
						c-1,0.7-1.5,1.7-1.5,3.3v7.6h-4.1v-15.8h4.1V901.8z"/>
					<path class="st3" d="M1615.3,901.8c0.4-1,1-1.8,1.9-2.3c0.9-0.5,1.9-0.8,2.9-0.8v4.6c-1.2-0.1-2.4,0.1-3.3,0.8
						c-1,0.7-1.5,1.7-1.5,3.3v7.6h-4.1v-15.8h4.1V901.8z"/>
					<path class="st3" d="M1625.3,908.7c0.5,2,2,3,4.5,3c1.6,0,2.7-0.5,3.5-1.6l3.3,1.9c-1.6,2.3-3.9,3.4-6.9,3.4
						c-2.6,0-4.7-0.8-6.3-2.4c-1.6-1.6-2.4-3.6-2.4-6c0-2.4,0.8-4.4,2.3-6s3.6-2.4,6-2.4c2.3,0,4.2,0.8,5.7,2.4
						c1.5,1.6,2.3,3.6,2.3,5.9c0,0.5-0.1,1.1-0.2,1.7H1625.3z M1625.3,905.5h8.1c-0.2-1.1-0.7-1.9-1.4-2.4c-0.7-0.5-1.6-0.8-2.5-0.8
						c-1.1,0-2,0.3-2.7,0.8C1626,903.7,1625.5,904.5,1625.3,905.5z"/>
					<path class="st3" d="M1647.7,915.4c-2.4,0-4.4-0.8-6-2.4c-1.6-1.6-2.4-3.6-2.4-5.9s0.8-4.3,2.4-5.9c1.6-1.6,3.6-2.4,6-2.4
						c1.5,0,2.9,0.4,4.2,1.1c1.3,0.7,2.2,1.7,2.9,3l-3.5,2.1c-0.3-0.7-0.8-1.2-1.4-1.6c-0.6-0.4-1.4-0.6-2.2-0.6
						c-1.2,0-2.2,0.4-3,1.2c-0.8,0.8-1.2,1.9-1.2,3.1c0,1.2,0.4,2.3,1.2,3.1c0.8,0.8,1.8,1.2,3,1.2c0.8,0,1.6-0.2,2.2-0.6
						c0.6-0.4,1.1-0.9,1.4-1.5l3.5,2c-0.7,1.2-1.7,2.2-2.9,3C1650.6,915,1649.2,915.4,1647.7,915.4z"/>
					<path class="st3" d="M1666,903h-3.6v6.6c0,0.5,0.1,0.9,0.4,1.2c0.3,0.3,0.7,0.4,1.2,0.4c0.5,0,1.2,0,2,0v3.7
						c-2.8,0.3-4.8,0.1-5.9-0.8c-1.1-0.8-1.7-2.4-1.7-4.5V903h-2.8v-3.9h2.8v-3.2l4.1-1.2v4.4h3.6V903z"/>
					<path class="st3" d="M1680.4,899.1h4.1v15.8h-4.1v-1.9c-1.2,1.5-2.9,2.3-5.2,2.3c-2.1,0-3.9-0.8-5.4-2.4s-2.3-3.6-2.3-5.9
						s0.8-4.3,2.3-5.9s3.3-2.4,5.4-2.4c2.2,0,3.9,0.8,5.2,2.3V899.1z M1672.9,910.2c0.8,0.8,1.9,1.2,3.1,1.2s2.3-0.4,3.1-1.2
						s1.3-1.9,1.3-3.2s-0.4-2.4-1.3-3.2s-1.9-1.2-3.1-1.2s-2.3,0.4-3.1,1.2s-1.2,1.9-1.2,3.2S1672.1,909.4,1672.9,910.2z"/>
					<path class="st3" d="M1691.9,903.6c0,0.4,0.3,0.8,0.8,1c0.6,0.3,1.2,0.5,2,0.7c0.8,0.2,1.6,0.5,2.4,0.8c0.8,0.3,1.5,0.8,2,1.5
						c0.6,0.7,0.8,1.6,0.8,2.7c0,1.6-0.6,2.9-1.8,3.7c-1.2,0.9-2.7,1.3-4.5,1.3c-3.2,0-5.5-1.3-6.6-3.8l3.5-2
						c0.5,1.4,1.5,2.1,3.1,2.1c1.5,0,2.2-0.5,2.2-1.4c0-0.4-0.3-0.8-0.8-1c-0.6-0.3-1.2-0.5-2-0.7c-0.8-0.2-1.6-0.5-2.4-0.8
						c-0.8-0.3-1.5-0.8-2-1.5c-0.6-0.7-0.8-1.5-0.8-2.6c0-1.6,0.6-2.8,1.7-3.7c1.1-0.9,2.6-1.3,4.3-1.3c1.3,0,2.5,0.3,3.5,0.9
						c1.1,0.6,1.9,1.4,2.5,2.5l-3.5,1.9c-0.5-1.1-1.3-1.6-2.5-1.6c-0.5,0-1,0.1-1.3,0.3C1692,902.9,1691.9,903.2,1691.9,903.6z"/>
				</g>
				<g>
					<path class="st4" d="M2131.5,912.2c-1.5,2.1-3.5,3.1-6.1,3.1s-4.7-1-6.1-3.1c-1.5-2.1-2.2-4.8-2.2-8.3c0-3.5,0.7-6.3,2.2-8.3
						c1.5-2.1,3.5-3.1,6.1-3.1s4.7,1,6.1,3.1c1.5,2.1,2.2,4.8,2.2,8.3C2133.7,907.3,2132.9,910.1,2131.5,912.2z M2120.5,911.1
						c1.2,1.7,2.8,2.6,4.8,2.6c2.1,0,3.7-0.9,4.8-2.6c1.2-1.7,1.7-4.1,1.7-7.2c0-3.1-0.6-5.5-1.7-7.2c-1.2-1.7-2.8-2.6-4.8-2.6
						c-2.1,0-3.7,0.9-4.8,2.6c-1.2,1.7-1.7,4.1-1.7,7.2C2118.8,906.9,2119.4,909.4,2120.5,911.1z"/>
					<path class="st4" d="M2135.4,892.8h13.4v1.6l-8.6,20.6h-1.7l8.6-20.6h-11.7V892.8z"/>
				</g>
			</g>
			<g>
				<g>
					<path class="st4" d="M1570.2,827.3c-3.1,0-5.8-0.7-7.9-2.1c-2.1-1.4-3.6-3.3-4.5-5.7l5.3-3.1c1.2,3.2,3.7,4.8,7.3,4.8
						c1.7,0,3-0.3,3.8-0.9s1.2-1.4,1.2-2.4c0-1.1-0.5-2-1.5-2.6c-1-0.6-2.8-1.3-5.3-2c-1.4-0.4-2.6-0.8-3.6-1.3c-1-0.4-2-1-2.9-1.7
						c-1-0.7-1.7-1.6-2.2-2.7c-0.5-1.1-0.8-2.3-0.8-3.8c0-2.9,1-5.1,3.1-6.8c2-1.7,4.5-2.6,7.3-2.6c2.6,0,4.8,0.6,6.8,1.9
						s3.5,3,4.5,5.2l-5.2,3c-1.3-2.7-3.3-4.1-6.1-4.1c-1.3,0-2.3,0.3-3.1,0.9c-0.7,0.6-1.1,1.3-1.1,2.3c0,1,0.4,1.8,1.2,2.4
						c0.8,0.6,2.4,1.3,4.8,2c1,0.3,1.7,0.5,2.2,0.7c0.5,0.2,1.2,0.4,2,0.8c0.9,0.3,1.5,0.7,2,1c0.5,0.3,1,0.7,1.6,1.2s1.1,1,1.4,1.6
						c0.3,0.5,0.6,1.2,0.8,2c0.2,0.8,0.3,1.6,0.3,2.5c0,2.9-1.1,5.2-3.2,7C1576.4,826.4,1573.6,827.3,1570.2,827.3z"/>
					<path class="st4" d="M1591.1,817.7c0.8,2.8,2.9,4.2,6.4,4.2c2.2,0,3.9-0.8,5.1-2.3l4.7,2.7c-2.2,3.2-5.5,4.8-9.9,4.8
						c-3.7,0-6.7-1.1-9-3.4s-3.4-5.1-3.4-8.5c0-3.4,1.1-6.2,3.3-8.5c2.2-2.3,5.1-3.4,8.6-3.4c3.3,0,6,1.1,8.2,3.4
						c2.2,2.3,3.2,5.1,3.2,8.5c0,0.8-0.1,1.6-0.2,2.4H1591.1z M1591,813.2h11.5c-0.3-1.5-1-2.7-2.1-3.4c-1-0.8-2.2-1.1-3.5-1.1
						c-1.6,0-2.9,0.4-3.9,1.2S1591.3,811.8,1591,813.2z"/>
					<path class="st4" d="M1612.4,826.6v-33h5.8v33H1612.4z"/>
					<path class="st4" d="M1628.5,817.7c0.8,2.8,2.9,4.2,6.4,4.2c2.2,0,3.9-0.8,5.1-2.3l4.7,2.7c-2.2,3.2-5.5,4.8-9.9,4.8
						c-3.7,0-6.7-1.1-9-3.4s-3.4-5.1-3.4-8.5c0-3.4,1.1-6.2,3.3-8.5c2.2-2.3,5.1-3.4,8.6-3.4c3.3,0,6,1.1,8.2,3.4
						c2.2,2.3,3.2,5.1,3.2,8.5c0,0.8-0.1,1.6-0.2,2.4H1628.5z M1628.4,813.2h11.5c-0.3-1.5-1-2.7-2.1-3.4c-1-0.8-2.2-1.1-3.5-1.1
						c-1.6,0-2.9,0.4-3.9,1.2S1628.7,811.8,1628.4,813.2z"/>
					<path class="st4" d="M1660.4,827.3c-3.4,0-6.2-1.1-8.5-3.4c-2.3-2.3-3.4-5.1-3.4-8.5c0-3.4,1.1-6.2,3.4-8.5
						c2.3-2.3,5.1-3.4,8.5-3.4c2.2,0,4.2,0.5,6,1.6s3.2,2.5,4.1,4.2l-5,2.9c-0.5-0.9-1.1-1.7-2.1-2.2c-0.9-0.5-2-0.8-3.1-0.8
						c-1.7,0-3.2,0.6-4.3,1.7c-1.1,1.2-1.7,2.6-1.7,4.5c0,1.8,0.6,3.2,1.7,4.4c1.1,1.2,2.6,1.7,4.3,1.7c1.2,0,2.2-0.3,3.1-0.8
						s1.6-1.3,2.1-2.2l5.1,2.9c-1,1.8-2.4,3.2-4.2,4.3C1664.6,826.7,1662.6,827.3,1660.4,827.3z"/>
					<path class="st4" d="M1684.1,827.3c-3.4,0-6.2-1.1-8.5-3.4c-2.3-2.3-3.4-5.1-3.4-8.5c0-3.4,1.1-6.2,3.4-8.5
						c2.3-2.3,5.1-3.4,8.5-3.4c2.2,0,4.2,0.5,6,1.6s3.2,2.5,4.1,4.2l-5,2.9c-0.5-0.9-1.1-1.7-2.1-2.2c-0.9-0.5-2-0.8-3.1-0.8
						c-1.7,0-3.2,0.6-4.3,1.7c-1.1,1.2-1.7,2.6-1.7,4.5c0,1.8,0.6,3.2,1.7,4.4c1.1,1.2,2.6,1.7,4.3,1.7c1.2,0,2.2-0.3,3.1-0.8
						s1.6-1.3,2.1-2.2l5.1,2.9c-1,1.8-2.4,3.2-4.2,4.3C1688.3,826.7,1686.3,827.3,1684.1,827.3z"/>
					<path class="st4" d="M1700.3,801.3c-1,0-1.8-0.4-2.5-1.1c-0.7-0.7-1.1-1.5-1.1-2.5c0-1,0.4-1.8,1.1-2.5
						c0.7-0.7,1.5-1.1,2.5-1.1c1,0,1.8,0.4,2.6,1.1c0.7,0.7,1.1,1.6,1.1,2.5c0,1-0.4,1.8-1.1,2.5
						C1702.1,801,1701.3,801.3,1700.3,801.3z M1697.4,826.6v-22.6h5.8v22.6H1697.4z"/>
					<path class="st4" d="M1727.8,823.8c-2.3,2.3-5.2,3.5-8.5,3.5c-3.3,0-6.2-1.2-8.5-3.5c-2.3-2.3-3.5-5.1-3.5-8.5s1.2-6.2,3.5-8.5
						c2.3-2.3,5.1-3.5,8.5-3.5c3.3,0,6.2,1.2,8.5,3.5c2.3,2.3,3.5,5.1,3.5,8.5S1730.1,821.5,1727.8,823.8z M1714.9,819.8
						c1.2,1.2,2.6,1.8,4.4,1.8s3.2-0.6,4.4-1.8c1.2-1.2,1.8-2.7,1.8-4.5c0-1.8-0.6-3.3-1.8-4.5s-2.6-1.8-4.4-1.8s-3.2,0.6-4.4,1.8
						c-1.2,1.2-1.7,2.7-1.7,4.5C1713.2,817.2,1713.8,818.6,1714.9,819.8z"/>
					<path class="st4" d="M1747.9,803.4c2.5,0,4.5,0.8,6.1,2.5c1.6,1.7,2.4,3.9,2.4,6.9v13.9h-5.8v-13.2c0-1.5-0.4-2.7-1.2-3.5
						c-0.8-0.8-1.9-1.2-3.3-1.2c-1.5,0-2.7,0.5-3.6,1.4c-0.9,0.9-1.4,2.3-1.4,4.2v12.2h-5.8v-22.6h5.8v2.5
						C1742.6,804.5,1744.9,803.4,1747.9,803.4z"/>
					<path class="st4" d="M1766.4,817.7c0.8,2.8,2.9,4.2,6.4,4.2c2.2,0,3.9-0.8,5.1-2.3l4.7,2.7c-2.2,3.2-5.5,4.8-9.9,4.8
						c-3.7,0-6.7-1.1-9-3.4s-3.4-5.1-3.4-8.5c0-3.4,1.1-6.2,3.3-8.5c2.2-2.3,5.1-3.4,8.6-3.4c3.3,0,6,1.1,8.2,3.4
						c2.2,2.3,3.2,5.1,3.2,8.5c0,0.8-0.1,1.6-0.2,2.4H1766.4z M1766.3,813.2h11.5c-0.3-1.5-1-2.7-2.1-3.4c-1-0.8-2.2-1.1-3.5-1.1
						c-1.6,0-2.9,0.4-3.9,1.2S1766.6,811.8,1766.3,813.2z"/>
					<path class="st4" d="M1792.2,810.5c0,0.6,0.4,1.1,1.2,1.5c0.8,0.4,1.8,0.7,2.9,1c1.1,0.3,2.3,0.6,3.4,1.1
						c1.1,0.4,2.1,1.2,2.9,2.2c0.8,1,1.2,2.3,1.2,3.8c0,2.3-0.9,4.1-2.6,5.4c-1.7,1.2-3.9,1.9-6.5,1.9c-4.6,0-7.8-1.8-9.5-5.4
						l5.1-2.8c0.7,2,2.1,2.9,4.4,2.9c2.1,0,3.1-0.6,3.1-1.9c0-0.6-0.4-1.1-1.2-1.5c-0.8-0.4-1.8-0.7-2.9-1c-1.1-0.3-2.3-0.7-3.4-1.1
						c-1.1-0.5-2.1-1.2-2.9-2.1c-0.8-1-1.2-2.2-1.2-3.7c0-2.2,0.8-4,2.5-5.3c1.6-1.3,3.7-1.9,6.1-1.9c1.8,0,3.5,0.4,5,1.2
						c1.5,0.8,2.7,2,3.6,3.5l-5,2.7c-0.7-1.5-1.9-2.3-3.6-2.3c-0.8,0-1.4,0.2-1.9,0.5C1792.4,809.4,1792.2,809.9,1792.2,810.5z"/>
				</g>
				<g>
					<path class="st4" d="M2119.8,795h2v31.6h-2.4v-29l-7.3,2.3l-0.6-2.1L2119.8,795z"/>
					<path class="st4" d="M2137.8,807.9c2.9,0,5.4,0.9,7.5,2.6s3,4.1,3,7s-1,5.3-3,7c-2,1.7-4.5,2.6-7.5,2.6c-2.3,0-4.4-0.6-6.2-1.7
						c-1.8-1.1-3.1-2.7-3.8-4.7l2-1.2c0.5,1.7,1.5,3,2.9,3.9c1.4,0.9,3.1,1.4,5.1,1.4c2.4,0,4.3-0.7,5.9-2c1.5-1.3,2.3-3.1,2.3-5.3
						s-0.8-4-2.3-5.3c-1.5-1.3-3.5-2-5.9-2h-8.5l1-15.2h16.8v2.3h-14.6l-0.7,10.6H2137.8z"/>
				</g>
			</g>
			<g>
				<g>
					<path class="st3" d="M1558.6,977.5h4.4v22.1h-4.4V977.5z"/>
					<path class="st3" d="M1575.6,983.4c1.7,0,3.2,0.6,4.3,1.7c1.1,1.2,1.7,2.8,1.7,4.8v9.7h-4.1v-9.2c0-1.1-0.3-1.9-0.9-2.4
						c-0.6-0.6-1.3-0.8-2.3-0.8c-1.1,0-1.9,0.3-2.5,1c-0.6,0.7-0.9,1.6-0.9,2.9v8.5h-4.1v-15.8h4.1v1.8
						C1571.9,984.1,1573.5,983.4,1575.6,983.4z"/>
					<path class="st3" d="M1592.6,1000.1c-2.4,0-4.4-0.8-6-2.4c-1.6-1.6-2.4-3.6-2.4-5.9s0.8-4.3,2.4-5.9c1.6-1.6,3.6-2.4,6-2.4
						c1.5,0,2.9,0.4,4.2,1.1c1.3,0.7,2.2,1.7,2.9,3l-3.5,2.1c-0.3-0.7-0.8-1.2-1.4-1.6c-0.6-0.4-1.4-0.6-2.2-0.6
						c-1.2,0-2.2,0.4-3,1.2c-0.8,0.8-1.2,1.9-1.2,3.1c0,1.2,0.4,2.3,1.2,3.1c0.8,0.8,1.8,1.2,3,1.2c0.8,0,1.6-0.2,2.2-0.6
						c0.6-0.4,1.1-0.9,1.4-1.5l3.5,2c-0.7,1.2-1.7,2.2-2.9,3C1595.6,999.7,1594.2,1000.1,1592.6,1000.1z"/>
					<path class="st3" d="M1615.2,997.6c-1.6,1.6-3.6,2.4-5.9,2.4s-4.3-0.8-5.9-2.4s-2.4-3.6-2.4-5.9s0.8-4.3,2.4-5.9
						s3.6-2.4,5.9-2.4s4.3,0.8,5.9,2.4s2.4,3.6,2.4,5.9S1616.8,996,1615.2,997.6z M1606.2,994.8c0.8,0.8,1.8,1.2,3.1,1.2
						c1.2,0,2.2-0.4,3.1-1.2s1.2-1.9,1.2-3.1c0-1.3-0.4-2.3-1.2-3.1s-1.8-1.2-3.1-1.2c-1.2,0-2.2,0.4-3.1,1.2
						c-0.8,0.8-1.2,1.9-1.2,3.1C1604.9,993,1605.3,994,1606.2,994.8z"/>
					<path class="st3" d="M1624.5,986.5c0.4-1,1-1.8,1.9-2.3c0.9-0.5,1.9-0.8,2.9-0.8v4.6c-1.2-0.1-2.4,0.1-3.3,0.8
						c-1,0.7-1.5,1.7-1.5,3.3v7.6h-4.1v-15.8h4.1V986.5z"/>
					<path class="st3" d="M1635.8,986.5c0.4-1,1-1.8,1.9-2.3c0.9-0.5,1.9-0.8,2.9-0.8v4.6c-1.2-0.1-2.4,0.1-3.3,0.8
						c-1,0.7-1.5,1.7-1.5,3.3v7.6h-4.1v-15.8h4.1V986.5z"/>
					<path class="st3" d="M1645.8,993.4c0.5,2,2,3,4.5,3c1.6,0,2.7-0.5,3.5-1.6l3.3,1.9c-1.6,2.3-3.9,3.4-6.9,3.4
						c-2.6,0-4.7-0.8-6.3-2.4c-1.6-1.6-2.4-3.6-2.4-6c0-2.4,0.8-4.4,2.3-6s3.6-2.4,6-2.4c2.3,0,4.2,0.8,5.7,2.4
						c1.5,1.6,2.3,3.6,2.3,5.9c0,0.5-0.1,1.1-0.2,1.7H1645.8z M1645.8,990.2h8.1c-0.2-1.1-0.7-1.9-1.4-2.4c-0.7-0.5-1.6-0.8-2.5-0.8
						c-1.1,0-2,0.3-2.7,0.8C1646.5,988.4,1646,989.2,1645.8,990.2z"/>
					<path class="st3" d="M1668.2,1000.1c-2.4,0-4.4-0.8-6-2.4c-1.6-1.6-2.4-3.6-2.4-5.9s0.8-4.3,2.4-5.9c1.6-1.6,3.6-2.4,6-2.4
						c1.5,0,2.9,0.4,4.2,1.1c1.3,0.7,2.2,1.7,2.9,3l-3.5,2.1c-0.3-0.7-0.8-1.2-1.4-1.6c-0.6-0.4-1.4-0.6-2.2-0.6
						c-1.2,0-2.2,0.4-3,1.2c-0.8,0.8-1.2,1.9-1.2,3.1c0,1.2,0.4,2.3,1.2,3.1c0.8,0.8,1.8,1.2,3,1.2c0.8,0,1.6-0.2,2.2-0.6
						c0.6-0.4,1.1-0.9,1.4-1.5l3.5,2c-0.7,1.2-1.7,2.2-2.9,3C1671.1,999.7,1669.7,1000.1,1668.2,1000.1z"/>
					<path class="st3" d="M1686.5,987.7h-3.6v6.6c0,0.5,0.1,0.9,0.4,1.2c0.3,0.3,0.7,0.4,1.2,0.4c0.5,0,1.2,0,2,0v3.7
						c-2.8,0.3-4.8,0.1-5.9-0.8c-1.1-0.8-1.7-2.4-1.7-4.5v-6.6h-2.8v-3.9h2.8v-3.2l4.1-1.2v4.4h3.6V987.7z"/>
					<path class="st3" d="M1700.9,983.8h4.1v15.8h-4.1v-1.9c-1.2,1.5-2.9,2.3-5.2,2.3c-2.1,0-3.9-0.8-5.4-2.4s-2.3-3.6-2.3-5.9
						s0.8-4.3,2.3-5.9s3.3-2.4,5.4-2.4c2.2,0,3.9,0.8,5.2,2.3V983.8z M1693.4,994.9c0.8,0.8,1.9,1.2,3.1,1.2s2.3-0.4,3.1-1.2
						s1.3-1.9,1.3-3.2s-0.4-2.4-1.3-3.2s-1.9-1.2-3.1-1.2s-2.3,0.4-3.1,1.2s-1.2,1.9-1.2,3.2S1692.6,994.1,1693.4,994.9z"/>
					<path class="st3" d="M1712.4,988.3c0,0.4,0.3,0.8,0.8,1c0.6,0.3,1.2,0.5,2,0.7c0.8,0.2,1.6,0.5,2.4,0.8c0.8,0.3,1.5,0.8,2,1.5
						c0.6,0.7,0.8,1.6,0.8,2.7c0,1.6-0.6,2.9-1.8,3.7c-1.2,0.9-2.7,1.3-4.5,1.3c-3.2,0-5.5-1.3-6.6-3.8l3.5-2
						c0.5,1.4,1.5,2.1,3.1,2.1c1.5,0,2.2-0.5,2.2-1.4c0-0.4-0.3-0.8-0.8-1c-0.6-0.3-1.2-0.5-2-0.7c-0.8-0.2-1.6-0.5-2.4-0.8
						c-0.8-0.3-1.5-0.8-2-1.5c-0.6-0.7-0.8-1.5-0.8-2.6c0-1.6,0.6-2.8,1.7-3.7c1.1-0.9,2.6-1.3,4.3-1.3c1.3,0,2.5,0.3,3.5,0.9
						c1.1,0.6,1.9,1.4,2.5,2.5l-3.5,1.9c-0.5-1.1-1.3-1.6-2.5-1.6c-0.5,0-1,0.1-1.3,0.3C1712.5,987.6,1712.4,987.9,1712.4,988.3z"/>
				</g>
				<g>
					<path class="st4" d="M2128.2,996.9c-1.5,2.1-3.5,3.1-6.1,3.1s-4.7-1-6.1-3.1c-1.5-2.1-2.2-4.8-2.2-8.3c0-3.5,0.7-6.3,2.2-8.3
						c1.5-2.1,3.5-3.1,6.1-3.1s4.7,1,6.1,3.1c1.5,2.1,2.2,4.8,2.2,8.3C2130.4,992,2129.7,994.8,2128.2,996.9z M2117.3,995.8
						c1.2,1.7,2.8,2.6,4.8,2.6c2.1,0,3.7-0.9,4.8-2.6c1.2-1.7,1.7-4.1,1.7-7.2c0-3.1-0.6-5.5-1.7-7.2c-1.2-1.7-2.8-2.6-4.8-2.6
						c-2.1,0-3.7,0.9-4.8,2.6c-1.2,1.7-1.7,4.1-1.7,7.2C2115.5,991.7,2116.1,994.1,2117.3,995.8z"/>
					<path class="st4" d="M2149.4,993.4v1.6h-2.8v4.7h-1.7V995H2133v-1.6l8.4-15.9h1.8l-8.4,15.9h10.1v-7h1.7v7H2149.4z"/>
				</g>
			</g>
		</g>
		<g>
			<g>
				<g>
					<path class="st4" d="M1573.2,1099.5v4.2h-6v18h-4.4v-18h-5.9v-4.2H1573.2z"/>
					<path class="st4" d="M1577.5,1103.9c-0.7,0-1.3-0.2-1.8-0.7c-0.5-0.5-0.7-1.1-0.7-1.8s0.2-1.3,0.7-1.8c0.5-0.5,1.1-0.8,1.8-0.8
						c0.7,0,1.3,0.3,1.8,0.8c0.5,0.5,0.7,1.1,0.7,1.8s-0.2,1.3-0.7,1.8C1578.8,1103.7,1578.2,1103.9,1577.5,1103.9z M1575.4,1121.6
						v-15.8h4.1v15.8H1575.4z"/>
					<path class="st4" d="M1586.7,1115.4c0.5,2,2,3,4.5,3c1.6,0,2.7-0.5,3.5-1.6l3.3,1.9c-1.6,2.3-3.9,3.4-6.9,3.4
						c-2.6,0-4.7-0.8-6.3-2.4c-1.6-1.6-2.4-3.6-2.4-6c0-2.4,0.8-4.4,2.3-6s3.6-2.4,6-2.4c2.3,0,4.2,0.8,5.7,2.4
						c1.5,1.6,2.3,3.6,2.3,5.9c0,0.5-0.1,1.1-0.2,1.7H1586.7z M1586.6,1112.2h8.1c-0.2-1.1-0.7-1.9-1.4-2.4
						c-0.7-0.5-1.6-0.8-2.5-0.8c-1.1,0-2,0.3-2.7,0.8C1587.4,1110.4,1586.9,1111.2,1586.6,1112.2z"/>
					<path class="st4" d="M1619.1,1105.4c1.8,0,3.3,0.6,4.3,1.8c1.1,1.2,1.6,2.8,1.6,4.7v9.7h-4.1v-9.5c0-0.9-0.2-1.7-0.7-2.2
						s-1.1-0.8-2-0.8c-0.9,0-1.7,0.3-2.2,0.9c-0.5,0.6-0.8,1.5-0.8,2.7v8.9h-4.1v-9.5c0-0.9-0.2-1.7-0.7-2.2c-0.5-0.5-1.1-0.8-2-0.8
						c-0.9,0-1.6,0.3-2.2,0.9s-0.8,1.5-0.8,2.7v8.9h-4.1v-15.8h4.1v1.7c0.9-1.4,2.4-2.1,4.4-2.1c1.9,0,3.4,0.8,4.3,2.3
						C1615.5,1106.1,1617,1105.4,1619.1,1105.4z"/>
					<path class="st4" d="M1637.8,1105.4c2.1,0,3.9,0.8,5.5,2.4s2.3,3.6,2.3,5.9s-0.8,4.3-2.3,5.9s-3.3,2.4-5.5,2.4
						c-2.2,0-3.9-0.8-5.1-2.3v8.2h-4.1v-22.1h4.1v1.9C1633.9,1106.1,1635.6,1105.4,1637.8,1105.4z M1633.9,1116.9
						c0.8,0.8,1.9,1.2,3.1,1.2c1.3,0,2.3-0.4,3.1-1.2c0.8-0.8,1.2-1.9,1.2-3.2s-0.4-2.4-1.2-3.2c-0.8-0.8-1.9-1.2-3.1-1.2
						c-1.3,0-2.3,0.4-3.1,1.2c-0.8,0.8-1.2,1.9-1.2,3.2S1633.1,1116.1,1633.9,1116.9z"/>
					<path class="st4" d="M1661.9,1119.6c-1.6,1.6-3.6,2.4-5.9,2.4s-4.3-0.8-5.9-2.4s-2.4-3.6-2.4-5.9s0.8-4.3,2.4-5.9
						s3.6-2.4,5.9-2.4s4.3,0.8,5.9,2.4s2.4,3.6,2.4,5.9S1663.5,1118,1661.9,1119.6z M1652.9,1116.8c0.8,0.8,1.8,1.2,3.1,1.2
						c1.2,0,2.2-0.4,3.1-1.2s1.2-1.9,1.2-3.1c0-1.3-0.4-2.3-1.2-3.1s-1.8-1.2-3.1-1.2c-1.2,0-2.2,0.4-3.1,1.2
						c-0.8,0.8-1.2,1.9-1.2,3.1C1651.7,1115,1652.1,1116,1652.9,1116.8z"/>
				</g>
				<g>
					<path class="st4" d="M2001.4,1099.5h1.4v22.1h-1.7v-20.3l-5.1,1.6l-0.4-1.5L2001.4,1099.5z"/>
					<path class="st4" d="M2014,1108.5c2.1,0,3.8,0.6,5.2,1.8c1.4,1.2,2.1,2.9,2.1,4.9s-0.7,3.7-2.1,4.9c-1.4,1.2-3.2,1.8-5.2,1.8
						c-1.6,0-3.1-0.4-4.3-1.2c-1.3-0.8-2.2-1.9-2.6-3.3l1.4-0.8c0.4,1.2,1,2.1,2,2.7c1,0.6,2.2,0.9,3.5,0.9c1.7,0,3-0.5,4.1-1.4
						c1.1-0.9,1.6-2.2,1.6-3.7s-0.5-2.8-1.6-3.7c-1.1-0.9-2.4-1.4-4.1-1.4h-5.9l0.7-10.6h11.8v1.6h-10.2l-0.5,7.4H2014z"/>
					<path class="st4" d="M2050.5,1105.4c1.7,0,3.1,0.5,4.2,1.6c1.1,1.1,1.6,2.6,1.6,4.5v10h-1.6v-10c0-1.5-0.4-2.6-1.2-3.4
						c-0.8-0.8-1.8-1.2-3.1-1.2c-1.4,0-2.6,0.5-3.4,1.5c-0.9,1-1.3,2.4-1.3,4.4v8.8h-1.6v-10c0-1.5-0.4-2.6-1.1-3.4
						c-0.7-0.8-1.7-1.2-3-1.2c-1.4,0-2.6,0.5-3.5,1.5c-0.9,1-1.4,2.4-1.4,4.3v8.8h-1.6v-15.8h1.6v2.7c1.1-2,2.8-3.1,5.1-3.1
						c1.2,0,2.2,0.3,3,0.8c0.9,0.6,1.5,1.4,1.9,2.4c0.5-1.1,1.3-1.9,2.2-2.4C2048.4,1105.7,2049.4,1105.4,2050.5,1105.4z"/>
					<path class="st4" d="M2062.4,1101.6c-0.3,0.2-0.5,0.4-0.9,0.4c-0.3,0-0.6-0.1-0.9-0.4c-0.3-0.2-0.4-0.5-0.4-0.9
						c0-0.3,0.1-0.6,0.4-0.9c0.3-0.2,0.5-0.4,0.9-0.4c0.3,0,0.6,0.1,0.9,0.4c0.3,0.2,0.4,0.5,0.4,0.9
						C2062.7,1101.1,2062.6,1101.4,2062.4,1101.6z M2060.7,1121.6v-15.8h1.6v15.8H2060.7z"/>
					<path class="st4" d="M2074.4,1105.4c1.9,0,3.4,0.6,4.5,1.7c1.1,1.1,1.7,2.7,1.7,4.6v9.8h-1.6v-9.8c0-1.5-0.4-2.6-1.2-3.5
						c-0.8-0.9-2-1.3-3.4-1.3c-1.6,0-3,0.5-4,1.6s-1.5,2.6-1.5,4.7v8.4h-1.6v-15.8h1.6v3C2069.9,1106.6,2071.8,1105.4,2074.4,1105.4
						z"/>
					<path class="st4" d="M2107.1,1118.9c-1.5,2.1-3.5,3.1-6.1,3.1s-4.7-1-6.1-3.1c-1.5-2.1-2.2-4.8-2.2-8.3c0-3.5,0.7-6.3,2.2-8.3
						s3.5-3.1,6.1-3.1s4.7,1,6.1,3.1s2.2,4.8,2.2,8.3C2109.2,1114,2108.5,1116.8,2107.1,1118.9z M2096.1,1117.8
						c1.2,1.7,2.8,2.6,4.8,2.6c2.1,0,3.7-0.9,4.8-2.6s1.7-4.1,1.7-7.2c0-3.1-0.6-5.5-1.7-7.2s-2.8-2.6-4.8-2.6
						c-2.1,0-3.7,0.9-4.8,2.6c-1.2,1.7-1.7,4.1-1.7,7.2C2094.4,1113.6,2095,1116.1,2096.1,1117.8z"/>
					<path class="st4" d="M2112,1121.6v-1.5l8.1-8.4c2.4-2.5,3.6-4.6,3.6-6.3c0-1.5-0.5-2.6-1.4-3.5s-2.1-1.3-3.5-1.3
						c-2.5,0-4.2,1.1-5.3,3.4l-1.4-0.9c0.7-1.3,1.6-2.3,2.7-3.1c1.2-0.7,2.5-1.1,4-1.1c1.8,0,3.3,0.6,4.6,1.7
						c1.3,1.1,1.9,2.7,1.9,4.7c0,1.3-0.4,2.5-1.1,3.7c-0.7,1.2-1.8,2.4-3.1,3.8l-6.9,7.1h11.5v1.6H2112z"/>
					<path class="st4" d="M2139.2,1109.9c0,0.8,0.3,1.4,1,1.8s1.5,0.8,2.4,1s1.9,0.5,2.8,0.7s1.7,0.7,2.4,1.4c0.6,0.7,1,1.5,1,2.6
						c0,1.3-0.5,2.4-1.6,3.2s-2.4,1.3-4.1,1.3c-1.5,0-2.8-0.3-3.8-1s-1.8-1.5-2.2-2.5l1.4-0.8c0.3,0.9,0.8,1.5,1.7,2s1.8,0.7,3,0.7
						c1.2,0,2.2-0.3,2.9-0.8c0.8-0.5,1.2-1.2,1.2-2.2c0-0.8-0.3-1.4-1-1.9c-0.7-0.5-1.5-0.8-2.4-1.1c-0.9-0.2-1.9-0.5-2.8-0.7
						c-0.9-0.2-1.8-0.7-2.4-1.3s-1-1.5-1-2.5c0-1.3,0.5-2.3,1.5-3.2c1-0.9,2.3-1.3,3.9-1.3c1.3,0,2.4,0.3,3.3,0.9s1.6,1.3,2.1,2.3
						l-1.3,0.8c-0.3-0.8-0.8-1.4-1.6-1.8c-0.7-0.4-1.6-0.6-2.5-0.6c-1.1,0-2,0.3-2.7,0.8C2139.6,1108.3,2139.2,1109,2139.2,1109.9z"
						/>
				</g>
			</g>
			<g>
				<g>
					<path class="st4" d="M1562.9,1202.1h9.3v4.2h-13.7v-22.1h13.5v4.2h-9.2v4.7h8.4v4.1h-8.4V1202.1z"/>
					<path class="st4" d="M1578.9,1195c0,0.4,0.3,0.8,0.8,1c0.6,0.3,1.2,0.5,2,0.7c0.8,0.2,1.6,0.5,2.4,0.8c0.8,0.3,1.5,0.8,2,1.5
						c0.6,0.7,0.8,1.6,0.8,2.7c0,1.6-0.6,2.9-1.8,3.7c-1.2,0.9-2.7,1.3-4.5,1.3c-3.2,0-5.5-1.3-6.6-3.8l3.5-2
						c0.5,1.4,1.5,2.1,3.1,2.1c1.5,0,2.2-0.5,2.2-1.4c0-0.4-0.3-0.8-0.8-1c-0.6-0.3-1.2-0.5-2-0.7c-0.8-0.2-1.6-0.5-2.4-0.8
						c-0.8-0.3-1.5-0.8-2-1.5c-0.6-0.7-0.8-1.5-0.8-2.6c0-1.6,0.6-2.8,1.7-3.7c1.1-0.9,2.6-1.3,4.3-1.3c1.3,0,2.5,0.3,3.5,0.9
						c1.1,0.6,1.9,1.4,2.5,2.5l-3.5,1.9c-0.5-1.1-1.3-1.6-2.5-1.6c-0.5,0-1,0.1-1.3,0.3C1579.1,1194.3,1578.9,1194.6,1578.9,1195z"
						/>
					<path class="st4" d="M1598.3,1194.4h-3.6v6.6c0,0.5,0.1,0.9,0.4,1.2c0.3,0.3,0.7,0.4,1.2,0.4c0.5,0,1.2,0,2,0v3.7
						c-2.8,0.3-4.8,0.1-5.9-0.8c-1.1-0.8-1.7-2.4-1.7-4.5v-6.6h-2.8v-3.9h2.8v-3.2l4.1-1.2v4.4h3.6V1194.4z"/>
					<path class="st4" d="M1612.7,1190.5h4.1v15.8h-4.1v-1.9c-1.2,1.5-2.9,2.3-5.2,2.3c-2.1,0-3.9-0.8-5.4-2.4s-2.3-3.6-2.3-5.9
						s0.8-4.3,2.3-5.9s3.3-2.4,5.4-2.4c2.2,0,3.9,0.8,5.2,2.3V1190.5z M1605.2,1201.6c0.8,0.8,1.9,1.2,3.1,1.2s2.3-0.4,3.1-1.2
						s1.3-1.9,1.3-3.2s-0.4-2.4-1.3-3.2s-1.9-1.2-3.1-1.2s-2.3,0.4-3.1,1.2s-1.2,1.9-1.2,3.2S1604.3,1200.8,1605.2,1201.6z"/>
					<path class="st4" d="M1632.5,1184.2h4.1v22.1h-4.1v-1.9c-1.2,1.5-2.9,2.3-5.1,2.3c-2.1,0-3.9-0.8-5.5-2.4
						c-1.5-1.6-2.3-3.6-2.3-5.9s0.8-4.3,2.3-5.9c1.5-1.6,3.3-2.4,5.5-2.4c2.2,0,3.9,0.8,5.1,2.3V1184.2z M1624.9,1201.6
						c0.8,0.8,1.9,1.2,3.1,1.2s2.3-0.4,3.1-1.2s1.2-1.9,1.2-3.2s-0.4-2.4-1.2-3.2s-1.9-1.2-3.1-1.2s-2.3,0.4-3.1,1.2
						s-1.3,1.9-1.3,3.2S1624.1,1200.8,1624.9,1201.6z"/>
					<path class="st4" d="M1653.7,1204.3c-1.6,1.6-3.6,2.4-5.9,2.4s-4.3-0.8-5.9-2.4s-2.4-3.6-2.4-5.9s0.8-4.3,2.4-5.9
						s3.6-2.4,5.9-2.4s4.3,0.8,5.9,2.4s2.4,3.6,2.4,5.9S1655.4,1202.7,1653.7,1204.3z M1644.7,1201.5c0.8,0.8,1.8,1.2,3.1,1.2
						c1.2,0,2.2-0.4,3.1-1.2s1.2-1.9,1.2-3.1c0-1.3-0.4-2.3-1.2-3.1s-1.8-1.2-3.1-1.2c-1.2,0-2.2,0.4-3.1,1.2
						c-0.8,0.8-1.2,1.9-1.2,3.1C1643.5,1199.7,1643.9,1200.7,1644.7,1201.5z"/>
				</g>
				<g>
					<path class="st4" d="M2004.4,1184.2c2,0,3.6,0.7,4.9,2c1.3,1.3,2,2.9,2,4.9c0,2-0.7,3.6-2,4.9s-3,1.9-4.9,1.9h-5.9v8.4h-1.7
						v-22.1H2004.4z M2004.4,1196.3c1.5,0,2.8-0.5,3.7-1.5c1-1,1.5-2.2,1.5-3.8c0-1.5-0.5-2.8-1.5-3.8c-1-1-2.2-1.5-3.7-1.5h-5.9
						v10.5H2004.4z"/>
					<path class="st4" d="M2016.4,1193.6c0.9-2.2,2.7-3.3,5.3-3.3v1.5c-1.5,0-2.8,0.5-3.8,1.4c-1,1-1.5,2.4-1.5,4.3v8.8h-1.6v-15.8
						h1.6V1193.6z"/>
					<path class="st4" d="M2031.1,1190.2c2.3,0,4.2,0.8,5.6,2.5s2.2,3.6,2.2,5.9c0,0.1,0,0.2,0,0.4c0,0.2,0,0.3,0,0.4h-14.3
						c0.2,1.8,0.9,3.2,2.1,4.3c1.2,1.1,2.8,1.6,4.6,1.6c1.3,0,2.4-0.3,3.3-0.8c0.9-0.5,1.7-1.2,2.2-2.1l1.4,0.8
						c-0.7,1.1-1.6,2-2.8,2.6s-2.6,1-4.1,1c-2.4,0-4.4-0.8-6-2.3s-2.3-3.5-2.3-5.9c0-2.4,0.8-4.3,2.3-5.9
						C2026.7,1190.9,2028.7,1190.2,2031.1,1190.2z M2031.1,1191.7c-1.8,0-3.3,0.6-4.5,1.7c-1.2,1.1-1.9,2.6-2.1,4.3h12.7
						c-0.2-1.9-0.8-3.3-2-4.4C2034.1,1192.2,2032.7,1191.7,2031.1,1191.7z"/>
					<path class="st4" d="M2051,1190.2c2.3,0,4.2,0.8,5.8,2.4c1.6,1.6,2.4,3.5,2.4,5.9c0,2.3-0.8,4.3-2.4,5.9
						c-1.6,1.6-3.5,2.4-5.8,2.4c-1.5,0-2.8-0.4-4-1.1c-1.2-0.7-2.1-1.7-2.8-2.9v10h-1.6v-22.1h1.6v3.7c0.7-1.2,1.6-2.2,2.8-2.9
						C2048.1,1190.5,2049.5,1190.2,2051,1190.2z M2046.1,1203.2c1.3,1.3,2.9,2,4.8,2c1.9,0,3.5-0.7,4.8-2c1.3-1.3,1.9-2.9,1.9-4.8
						c0-1.9-0.6-3.5-1.9-4.8c-1.3-1.3-2.9-2-4.8-2c-1.9,0-3.5,0.7-4.8,2c-1.3,1.3-1.9,2.9-1.9,4.8
						C2044.2,1200.3,2044.8,1201.9,2046.1,1203.2z"/>
					<path class="st4" d="M2076.9,1190.5h1.6v15.8h-1.6v-3.6c-0.7,1.2-1.6,2.2-2.8,2.9c-1.2,0.7-2.5,1-4,1c-2.3,0-4.2-0.8-5.8-2.4
						c-1.6-1.6-2.4-3.5-2.4-5.9c0-2.3,0.8-4.3,2.4-5.9c1.6-1.6,3.5-2.4,5.8-2.4c1.5,0,2.8,0.3,4,1c1.2,0.7,2.1,1.7,2.8,2.9V1190.5z
						 M2065.5,1203.2c1.3,1.3,2.9,2,4.8,2c1.9,0,3.5-0.7,4.7-2c1.3-1.3,1.9-2.9,1.9-4.8c0-1.9-0.6-3.5-1.9-4.8c-1.3-1.3-2.9-2-4.7-2
						c-1.9,0-3.5,0.7-4.8,2c-1.3,1.3-1.9,2.9-1.9,4.8C2063.5,1200.3,2064.2,1201.9,2065.5,1203.2z"/>
					<path class="st4" d="M2085,1193.6c0.9-2.2,2.7-3.3,5.3-3.3v1.5c-1.5,0-2.8,0.5-3.8,1.4c-1,1-1.5,2.4-1.5,4.3v8.8h-1.6v-15.8
						h1.6V1193.6z"/>
					<path class="st4" d="M2106.4,1190.5h1.6v15.8h-1.6v-3.6c-0.7,1.2-1.6,2.2-2.8,2.9c-1.2,0.7-2.5,1-4,1c-2.3,0-4.2-0.8-5.8-2.4
						c-1.6-1.6-2.4-3.5-2.4-5.9c0-2.3,0.8-4.3,2.4-5.9c1.6-1.6,3.5-2.4,5.8-2.4c1.5,0,2.8,0.3,4,1c1.2,0.7,2.1,1.7,2.8,2.9V1190.5z
						 M2095,1203.2c1.3,1.3,2.9,2,4.8,2c1.9,0,3.5-0.7,4.7-2c1.3-1.3,1.9-2.9,1.9-4.8c0-1.9-0.6-3.5-1.9-4.8c-1.3-1.3-2.9-2-4.7-2
						c-1.9,0-3.5,0.7-4.8,2c-1.3,1.3-1.9,2.9-1.9,4.8C2093.1,1200.3,2093.7,1201.9,2095,1203.2z"/>
					<path class="st4" d="M2126.9,1184.2h1.6v22.1h-1.6v-3.7c-0.7,1.2-1.6,2.2-2.8,2.9c-1.2,0.7-2.5,1.1-4,1.1
						c-2.3,0-4.2-0.8-5.8-2.4c-1.6-1.6-2.4-3.5-2.4-5.9c0-2.3,0.8-4.3,2.4-5.9c1.6-1.6,3.5-2.4,5.8-2.4c1.5,0,2.8,0.4,4,1.1
						c1.2,0.7,2.1,1.7,2.8,2.9V1184.2z M2115.4,1203.2c1.3,1.3,2.9,2,4.8,2c1.9,0,3.5-0.7,4.8-2c1.3-1.3,1.9-2.9,1.9-4.8
						c0-1.9-0.6-3.5-1.9-4.8c-1.3-1.3-2.9-2-4.8-2c-1.9,0-3.5,0.7-4.8,2c-1.3,1.3-1.9,2.9-1.9,4.8
						C2113.5,1200.3,2114.1,1201.9,2115.4,1203.2z"/>
					<path class="st4" d="M2140.6,1206.7c-2.3,0-4.3-0.8-5.9-2.4c-1.6-1.6-2.4-3.5-2.4-5.9c0-2.3,0.8-4.3,2.4-5.9
						c1.6-1.6,3.6-2.4,5.9-2.4c2.3,0,4.3,0.8,5.9,2.4c1.6,1.6,2.4,3.5,2.4,5.9c0,2.3-0.8,4.3-2.4,5.9
						C2144.8,1205.9,2142.9,1206.7,2140.6,1206.7z M2135.8,1203.2c1.3,1.3,2.9,2,4.8,2c1.9,0,3.5-0.7,4.7-2c1.3-1.3,1.9-2.9,1.9-4.8
						c0-1.9-0.6-3.5-1.9-4.8c-1.3-1.3-2.9-2-4.7-2c-1.9,0-3.5,0.7-4.8,2c-1.3,1.3-1.9,2.9-1.9,4.8
						C2133.9,1200.3,2134.5,1201.9,2135.8,1203.2z"/>
				</g>
			</g>
		</g>
	</g>
	<g>
		<path class="st0" d="M591.6,831.1l-2.8-7.3h-14.3l-2.8,7.3h-2.3l11.1-28.5h2.3l11.1,28.5H591.6z M575.3,821.8H588l-6.4-16.6
			L575.3,821.8z"/>
		<path class="st0" d="M599.7,814.7c1.2-2.9,3.5-4.3,6.8-4.3v2c-1.9,0-3.5,0.6-4.9,1.9c-1.3,1.2-2,3.1-2,5.5v11.3h-2v-20.4h2V814.7z
			"/>
		<path class="st0" d="M618.7,831.5c-3.1,0-5.6-1-7.7-3.1c-2-2-3.1-4.6-3.1-7.6s1-5.5,3.1-7.6c2-2,4.6-3.1,7.7-3.1
			c2,0,3.8,0.5,5.4,1.4c1.6,0.9,2.8,2.2,3.5,3.8l-1.7,1c-0.6-1.3-1.5-2.3-2.8-3.1c-1.3-0.8-2.8-1.1-4.4-1.1c-2.4,0-4.5,0.8-6.2,2.5
			c-1.7,1.7-2.5,3.7-2.5,6.2s0.8,4.5,2.5,6.2c1.7,1.7,3.7,2.5,6.2,2.5c1.6,0,3.1-0.4,4.4-1.1c1.3-0.8,2.3-1.8,3-3.1l1.7,1
			c-0.8,1.6-2,2.8-3.7,3.8S620.7,831.5,618.7,831.5z"/>
		<path class="st0" d="M641.6,810.3c2.4,0,4.3,0.7,5.8,2.2c1.4,1.5,2.1,3.5,2.1,5.9v12.7h-2.1v-12.7c0-1.9-0.5-3.4-1.6-4.5
			c-1-1.1-2.5-1.7-4.4-1.7c-2.1,0-3.8,0.7-5.1,2.1c-1.3,1.4-2,3.4-2,6v10.8h-2v-28.5h2v12C635.8,811.7,638.2,810.3,641.6,810.3z"/>
		<path class="st0" d="M657.4,805.3c-0.3,0.3-0.7,0.5-1.1,0.5s-0.8-0.2-1.1-0.5c-0.3-0.3-0.5-0.7-0.5-1.2c0-0.4,0.2-0.8,0.5-1.1
			c0.3-0.3,0.7-0.5,1.1-0.5s0.8,0.2,1.1,0.5c0.3,0.3,0.5,0.7,0.5,1.1C657.9,804.6,657.7,805,657.4,805.3z M655.3,831.1v-20.4h2v20.4
			H655.3z"/>
		<path class="st0" d="M678.5,810.7h2.2l-8.6,20.4h-2.5l-8.6-20.4h2.2l7.7,18.3L678.5,810.7z"/>
		<path class="st0" d="M692.9,831.5c-3,0-5.5-1-7.6-3.1s-3.1-4.6-3.1-7.6s1-5.5,3.1-7.6s4.6-3.1,7.6-3.1c3,0,5.5,1,7.6,3.1
			c2.1,2.1,3.1,4.6,3.1,7.6s-1,5.5-3.1,7.6C698.4,830.5,695.9,831.5,692.9,831.5z M686.8,827.1c1.7,1.7,3.7,2.5,6.1,2.5
			s4.5-0.8,6.1-2.5s2.5-3.7,2.5-6.2s-0.8-4.5-2.5-6.2s-3.7-2.5-6.1-2.5s-4.5,0.8-6.1,2.5c-1.7,1.7-2.5,3.7-2.5,6.2
			S685.1,825.4,686.8,827.1z"/>
		<path class="st0" d="M737.4,802.6h2v28.5h-2v-4.7c-0.8,1.6-2,2.9-3.6,3.8c-1.5,0.9-3.3,1.4-5.2,1.4c-2.9,0-5.4-1-7.5-3.1
			s-3.1-4.6-3.1-7.6s1-5.5,3.1-7.6s4.5-3.1,7.5-3.1c1.9,0,3.7,0.5,5.2,1.4c1.5,0.9,2.7,2.2,3.6,3.8V802.6z M722.6,827.1
			c1.7,1.7,3.7,2.5,6.1,2.5s4.5-0.8,6.1-2.5s2.5-3.7,2.5-6.2s-0.8-4.5-2.5-6.2s-3.7-2.5-6.1-2.5s-4.5,0.8-6.1,2.5
			c-1.7,1.7-2.5,3.7-2.5,6.2S720.9,825.4,722.6,827.1z"/>
		<path class="st0" d="M754.9,810.3c3,0,5.4,1.1,7.3,3.2s2.8,4.6,2.8,7.5c0,0.1,0,0.3,0,0.5c0,0.2,0,0.4,0,0.5h-18.5
			c0.2,2.3,1.2,4.1,2.8,5.5c1.6,1.4,3.6,2.1,5.9,2.1c1.6,0,3.1-0.3,4.3-1c1.2-0.7,2.1-1.6,2.8-2.7l1.8,1.1c-0.8,1.4-2,2.5-3.6,3.4
			s-3.3,1.2-5.3,1.2c-3.1,0-5.7-1-7.7-3c-2-2-3-4.5-3-7.6c0-3,1-5.6,3-7.6C749.2,811.3,751.8,810.3,754.9,810.3z M754.9,812.2
			c-2.3,0-4.2,0.7-5.8,2.2c-1.5,1.4-2.4,3.3-2.7,5.6h16.4c-0.2-2.4-1.1-4.3-2.6-5.7C758.7,812.9,756.9,812.2,754.9,812.2z"/>
		<path class="st0" d="M789.9,831.5c-3.1,0-5.6-1-7.7-3.1c-2-2-3.1-4.6-3.1-7.6s1-5.5,3.1-7.6c2-2,4.6-3.1,7.7-3.1
			c2,0,3.8,0.5,5.4,1.4c1.6,0.9,2.8,2.2,3.5,3.8l-1.7,1c-0.6-1.3-1.5-2.3-2.8-3.1c-1.3-0.8-2.8-1.1-4.4-1.1c-2.4,0-4.5,0.8-6.2,2.5
			c-1.7,1.7-2.5,3.7-2.5,6.2s0.8,4.5,2.5,6.2c1.7,1.7,3.7,2.5,6.2,2.5c1.6,0,3.1-0.4,4.4-1.1c1.3-0.8,2.3-1.8,3-3.1l1.7,1
			c-0.8,1.6-2,2.8-3.7,3.8S791.9,831.5,789.9,831.5z"/>
		<path class="st0" d="M821.2,810.7h2.1v20.4h-2.1v-4.6c-0.9,1.6-2.1,2.8-3.6,3.7c-1.5,0.9-3.2,1.3-5.2,1.3c-2.9,0-5.4-1-7.5-3.1
			s-3.1-4.6-3.1-7.6s1-5.5,3.1-7.6s4.6-3.1,7.5-3.1c1.9,0,3.7,0.4,5.2,1.3c1.5,0.9,2.7,2.1,3.6,3.7V810.7z M806.5,827.1
			c1.7,1.7,3.7,2.5,6.1,2.5s4.5-0.8,6.1-2.5s2.5-3.7,2.5-6.2s-0.8-4.5-2.5-6.2s-3.7-2.5-6.1-2.5s-4.5,0.8-6.1,2.5
			c-1.7,1.7-2.5,3.7-2.5,6.2S804.8,825.4,806.5,827.1z"/>
		<path class="st0" d="M829.6,831.1v-29.8h2v29.8H829.6z"/>
		<path class="st0" d="M840.1,805.3c-0.3,0.3-0.7,0.5-1.1,0.5s-0.8-0.2-1.1-0.5c-0.3-0.3-0.5-0.7-0.5-1.2c0-0.4,0.2-0.8,0.5-1.1
			c0.3-0.3,0.7-0.5,1.1-0.5s0.8,0.2,1.1,0.5c0.3,0.3,0.5,0.7,0.5,1.1C840.6,804.6,840.4,805,840.1,805.3z M837.9,831.1v-20.4h2v20.4
			H837.9z"/>
		<path class="st0" d="M857,810.3c2.9,0,5.4,1,7.5,3.1s3.1,4.6,3.1,7.6s-1,5.5-3.1,7.6s-4.5,3.1-7.5,3.1c-1.9,0-3.7-0.5-5.2-1.4
			c-1.5-0.9-2.7-2.2-3.6-3.8v4.7h-2v-28.5h2v12.9c0.8-1.6,2-2.9,3.6-3.8C853.4,810.7,855.1,810.3,857,810.3z M850.8,827.1
			c1.7,1.7,3.7,2.5,6.1,2.5s4.5-0.8,6.1-2.5s2.5-3.7,2.5-6.2s-0.8-4.5-2.5-6.2s-3.7-2.5-6.1-2.5s-4.5,0.8-6.1,2.5
			c-1.7,1.7-2.5,3.7-2.5,6.2S849.1,825.4,850.8,827.1z"/>
		<path class="st0" d="M874.6,814.7c1.2-2.9,3.5-4.3,6.8-4.3v2c-1.9,0-3.5,0.6-4.9,1.9c-1.3,1.2-2,3.1-2,5.5v11.3h-2v-20.4h2V814.7z
			"/>
		<path class="st0" d="M902.2,810.7h2.1v20.4h-2.1v-4.6c-0.9,1.6-2.1,2.8-3.6,3.7c-1.5,0.9-3.2,1.3-5.2,1.3c-2.9,0-5.4-1-7.5-3.1
			s-3.1-4.6-3.1-7.6s1-5.5,3.1-7.6s4.6-3.1,7.5-3.1c1.9,0,3.7,0.4,5.2,1.3c1.5,0.9,2.7,2.1,3.6,3.7V810.7z M887.5,827.1
			c1.7,1.7,3.7,2.5,6.1,2.5s4.5-0.8,6.1-2.5s2.5-3.7,2.5-6.2s-0.8-4.5-2.5-6.2s-3.7-2.5-6.1-2.5s-4.5,0.8-6.1,2.5
			c-1.7,1.7-2.5,3.7-2.5,6.2S885.8,825.4,887.5,827.1z"/>
		<path class="st0" d="M919.9,831.5c-3.1,0-5.6-1-7.7-3.1c-2-2-3.1-4.6-3.1-7.6s1-5.5,3.1-7.6c2-2,4.6-3.1,7.7-3.1
			c2,0,3.8,0.5,5.4,1.4c1.6,0.9,2.8,2.2,3.5,3.8l-1.7,1c-0.6-1.3-1.5-2.3-2.8-3.1c-1.3-0.8-2.8-1.1-4.4-1.1c-2.4,0-4.5,0.8-6.2,2.5
			c-1.7,1.7-2.5,3.7-2.5,6.2s0.8,4.5,2.5,6.2c1.7,1.7,3.7,2.5,6.2,2.5c1.6,0,3.1-0.4,4.4-1.1c1.3-0.8,2.3-1.8,3-3.1l1.7,1
			c-0.8,1.6-2,2.8-3.7,3.8S921.9,831.5,919.9,831.5z"/>
		<path class="st0" d="M935.6,805.3c-0.3,0.3-0.7,0.5-1.1,0.5s-0.8-0.2-1.1-0.5c-0.3-0.3-0.5-0.7-0.5-1.2c0-0.4,0.2-0.8,0.5-1.1
			c0.3-0.3,0.7-0.5,1.1-0.5s0.8,0.2,1.1,0.5c0.3,0.3,0.5,0.7,0.5,1.1C936.1,804.6,935.9,805,935.6,805.3z M933.4,831.1v-20.4h2v20.4
			H933.4z"/>
		<path class="st0" d="M951.1,831.5c-3,0-5.5-1-7.6-3.1s-3.1-4.6-3.1-7.6s1-5.5,3.1-7.6s4.6-3.1,7.6-3.1c3,0,5.5,1,7.6,3.1
			c2.1,2.1,3.1,4.6,3.1,7.6s-1,5.5-3.1,7.6C956.6,830.5,954.1,831.5,951.1,831.5z M945,827.1c1.7,1.7,3.7,2.5,6.1,2.5
			s4.5-0.8,6.1-2.5s2.5-3.7,2.5-6.2s-0.8-4.5-2.5-6.2s-3.7-2.5-6.1-2.5s-4.5,0.8-6.1,2.5c-1.7,1.7-2.5,3.7-2.5,6.2
			S943.3,825.4,945,827.1z M949.3,807.9l2,0l3.7-5.2l-2.4,0L949.3,807.9z"/>
		<path class="st0" d="M976,810.3c2.4,0,4.3,0.7,5.8,2.2c1.4,1.5,2.1,3.5,2.1,5.9v12.7h-2.1v-12.7c0-1.9-0.5-3.4-1.6-4.5
			c-1-1.1-2.5-1.7-4.4-1.7c-2.1,0-3.8,0.7-5.1,2.1c-1.3,1.4-2,3.4-2,6v10.8h-2v-20.4h2v3.9C970.2,811.7,972.6,810.3,976,810.3z"/>
	</g>
	<g>
		<rect x="347" y="768.6" class="st2" width="21.8" height="74.3"/>
	</g>
	<g>
		<polygon class="st0" points="1093.4,509.3 1083,496.1 1084.6,494.9 1093.4,506 1102.5,494.5 1104.1,495.7 		"/>
	</g>
	<g>
		<g>
			<g>
				<path class="st4" d="M1143,1221.4H881.1c-4,0-7.3-3.3-7.3-7.3v-123.8c0-4,3.3-7.3,7.3-7.3H1143c4,0,7.3,3.3,7.3,7.3v123.8
					C1150.3,1218.1,1147,1221.4,1143,1221.4z"/>
			</g>
			<g>
				<path class="st0" d="M1143,1222.4H881.1c-4.6,0-8.3-3.7-8.3-8.3v-123.8c0-4.6,3.7-8.3,8.3-8.3H1143c4.6,0,8.3,3.7,8.3,8.3v123.8
					C1151.3,1218.7,1147.6,1222.4,1143,1222.4z M881.1,1083.9c-3.5,0-6.3,2.8-6.3,6.3v123.8c0,3.5,2.8,6.3,6.3,6.3H1143
					c3.5,0,6.3-2.8,6.3-6.3v-123.8c0-3.5-2.8-6.3-6.3-6.3H881.1z"/>
			</g>
		</g>
		<g>
			<path class="st5" d="M948.7,1163.1c-1.3,0.6-3.9,1.3-7.2,1.3c-7.6,0-13.4-4.8-13.4-13.7c0-8.5,5.8-14.2,14.2-14.2
				c3.4,0,5.5,0.7,6.4,1.2l-0.8,2.9c-1.3-0.6-3.2-1.1-5.5-1.1c-6.4,0-10.6,4.1-10.6,11.2c0,6.6,3.8,10.9,10.4,10.9
				c2.1,0,4.3-0.4,5.7-1.1L948.7,1163.1z"/>
			<path class="st5" d="M970.1,1154.1c0,7.2-5,10.3-9.7,10.3c-5.3,0-9.3-3.9-9.3-10c0-6.5,4.3-10.3,9.6-10.3
				C966.4,1144.1,970.1,1148.1,970.1,1154.1z M954.7,1154.3c0,4.3,2.5,7.5,5.9,7.5c3.4,0,5.9-3.2,5.9-7.6c0-3.3-1.6-7.5-5.8-7.5
				C956.5,1146.7,954.7,1150.6,954.7,1154.3z"/>
			<path class="st5" d="M974.6,1149.8c0-2,0-3.7-0.2-5.3h3.1l0.2,3.1h0.1c1.1-1.8,2.9-3.6,6.1-3.6c2.7,0,4.7,1.6,5.5,3.9h0.1
				c0.6-1.1,1.4-1.9,2.2-2.5c1.2-0.9,2.5-1.4,4.3-1.4c2.6,0,6.4,1.7,6.4,8.4v11.5h-3.5v-11c0-3.7-1.4-6-4.2-6c-2,0-3.6,1.5-4.2,3.2
				c-0.2,0.5-0.3,1.1-0.3,1.8v12h-3.5v-11.7c0-3.1-1.4-5.3-4.1-5.3c-2.2,0-3.8,1.8-4.4,3.5c-0.2,0.5-0.3,1.1-0.3,1.7v11.7h-3.5
				V1149.8z"/>
			<path class="st5" d="M1010.1,1154.9c0.1,4.8,3.1,6.8,6.7,6.8c2.5,0,4.1-0.4,5.4-1l0.6,2.5c-1.2,0.6-3.4,1.2-6.5,1.2
				c-6,0-9.6-3.9-9.6-9.8c0-5.9,3.5-10.5,9.1-10.5c6.4,0,8,5.6,8,9.2c0,0.7-0.1,1.3-0.1,1.6H1010.1z M1020.5,1152.3
				c0-2.3-0.9-5.8-4.9-5.8c-3.6,0-5.1,3.3-5.4,5.8H1020.5z"/>
			<path class="st5" d="M1028.3,1149.8c0-2,0-3.7-0.2-5.3h3.1l0.2,3.2h0.1c1-1.8,3.2-3.7,6.4-3.7c2.7,0,6.9,1.6,6.9,8.3v11.6h-3.5
				v-11.2c0-3.1-1.2-5.8-4.5-5.8c-2.3,0-4.1,1.6-4.7,3.6c-0.2,0.4-0.2,1-0.2,1.6v11.7h-3.5V1149.8z"/>
			<path class="st5" d="M1048.4,1161.9l8.8-11.5c0.8-1,1.6-2,2.5-3v-0.1h-10.5v-2.9h14.8l0,2.2l-8.7,11.3c-0.8,1.1-1.6,2.1-2.5,3.1
				v0.1h11.4v2.8h-15.8V1161.9z"/>
			<path class="st5" d="M1078.6,1164l-0.3-2.5h-0.1c-1.1,1.5-3.2,2.9-6,2.9c-3.9,0-6-2.8-6-5.6c0-4.7,4.2-7.3,11.7-7.2v-0.4
				c0-1.6-0.4-4.5-4.4-4.5c-1.8,0-3.7,0.6-5.1,1.4l-0.8-2.3c1.6-1,3.9-1.7,6.4-1.7c6,0,7.4,4.1,7.4,8v7.3c0,1.7,0.1,3.3,0.3,4.7
				H1078.6z M1078.1,1154c-3.9-0.1-8.2,0.6-8.2,4.4c0,2.3,1.5,3.4,3.3,3.4c2.5,0,4.1-1.6,4.7-3.3c0.1-0.4,0.2-0.8,0.2-1.1V1154z"/>
			<path class="st5" d="M1087.2,1150.6c0-2.3,0-4.3-0.2-6.1h3.1l0.1,3.8h0.2c0.9-2.6,3-4.3,5.4-4.3c0.4,0,0.7,0,1,0.1v3.3
				c-0.4-0.1-0.7-0.1-1.2-0.1c-2.5,0-4.3,1.9-4.7,4.5c-0.1,0.5-0.2,1-0.2,1.6v10.4h-3.5V1150.6z"/>
		</g>
	</g>
	<g>
		<g>
			<path class="st1" d="M1306.7,530.8h-134.4c-0.8,0-1.4-0.6-1.4-1.4v-56c0-0.8,0.6-1.4,1.4-1.4h134.4c0.8,0,1.4,0.6,1.4,1.4v56
				C1308.1,530.2,1307.5,530.8,1306.7,530.8z"/>
		</g>
		<g>
			<path class="st0" d="M1306.7,531.3h-134.4c-1,0-1.9-0.8-1.9-1.9v-56c0-1,0.8-1.9,1.9-1.9h134.4c1,0,1.9,0.8,1.9,1.9v56
				C1308.6,530.4,1307.7,531.3,1306.7,531.3z M1172.3,472.5c-0.5,0-0.9,0.4-0.9,0.9v56c0,0.5,0.4,0.9,0.9,0.9h134.4
				c0.5,0,0.9-0.4,0.9-0.9v-56c0-0.5-0.4-0.9-0.9-0.9H1172.3z"/>
		</g>
	</g>
	<g>
		<g>
			<path class="st1" d="M1306.7,926.6H570.2c-0.8,0-1.4-0.6-1.4-1.4v-56c0-0.8,0.6-1.4,1.4-1.4h736.5c0.8,0,1.4,0.6,1.4,1.4v56
				C1308.1,926,1307.5,926.6,1306.7,926.6z"/>
		</g>
		<g>
			<path class="st0" d="M1306.7,927.1H570.2c-1,0-1.9-0.8-1.9-1.9v-56c0-1,0.8-1.9,1.9-1.9h736.5c1,0,1.9,0.8,1.9,1.9v56
				C1308.6,926.2,1307.7,927.1,1306.7,927.1z M570.2,868.3c-0.5,0-0.9,0.4-0.9,0.9v56c0,0.5,0.4,0.9,0.9,0.9h736.5
				c0.5,0,0.9-0.4,0.9-0.9v-56c0-0.5-0.4-0.9-0.9-0.9H570.2z"/>
		</g>
	</g>
	<g>
		<path class="st0" d="M883.3,729.8H570.5c-1,0-1.9-0.8-1.9-1.9v-56c0-1,0.8-1.9,1.9-1.9h312.8c1,0,1.9,0.8,1.9,1.9v56
			C885.2,728.9,884.4,729.8,883.3,729.8z M570.5,671c-0.5,0-0.9,0.4-0.9,0.9v56c0,0.5,0.4,0.9,0.9,0.9h312.8c0.5,0,0.9-0.4,0.9-0.9
			v-56c0-0.5-0.4-0.9-0.9-0.9H570.5z"/>
	</g>
	<g>
		<path class="st0" d="M591.5,605.4h2.2v28.5h-1.9l-16.8-24.6v24.6h-2.2v-28.5h1.8l17,24.7V605.4z"/>
		<path class="st0" d="M602.5,608.2c-0.3,0.3-0.7,0.5-1.1,0.5s-0.8-0.2-1.1-0.5c-0.3-0.3-0.5-0.7-0.5-1.2c0-0.4,0.2-0.8,0.5-1.1
			c0.3-0.3,0.7-0.5,1.1-0.5s0.8,0.2,1.1,0.5c0.3,0.3,0.5,0.7,0.5,1.1C603,607.5,602.8,607.8,602.5,608.2z M600.3,633.9v-20.4h2v20.4
			H600.3z"/>
		<path class="st0" d="M623.6,613.6h2.2l-8.6,20.4h-2.5l-8.6-20.4h2.2l7.7,18.3L623.6,613.6z"/>
		<path class="st0" d="M637.8,613.1c3,0,5.4,1.1,7.3,3.2s2.8,4.6,2.8,7.5c0,0.1,0,0.3,0,0.5c0,0.2,0,0.4,0,0.5h-18.5
			c0.2,2.3,1.2,4.1,2.8,5.5c1.6,1.4,3.6,2.1,5.9,2.1c1.6,0,3.1-0.3,4.3-1c1.2-0.7,2.1-1.6,2.8-2.7l1.8,1.1c-0.8,1.4-2,2.5-3.6,3.4
			s-3.3,1.2-5.3,1.2c-3.1,0-5.7-1-7.7-3c-2-2-3-4.5-3-7.6c0-3,1-5.6,3-7.6C632.2,614.1,634.7,613.1,637.8,613.1z M637.8,615.1
			c-2.3,0-4.2,0.7-5.8,2.2c-1.5,1.4-2.4,3.3-2.7,5.6h16.4c-0.2-2.4-1.1-4.3-2.6-5.7C641.7,615.8,639.9,615.1,637.8,615.1z"/>
		<path class="st0" d="M652.7,633.9v-29.8h2v29.8H652.7z"/>
	</g>
	<g>
		<polygon class="st0" points="847.6,707.6 834.8,694.7 836.2,693.3 847.6,704.7 859.4,692.9 860.8,694.3 		"/>
	</g>
	<g>
		<path class="st0" d="M1306.7,729.8H993.9c-1,0-1.9-0.8-1.9-1.9v-56c0-1,0.8-1.9,1.9-1.9h312.8c1,0,1.9,0.8,1.9,1.9v56
			C1308.6,728.9,1307.7,729.8,1306.7,729.8z M993.9,671c-0.5,0-0.9,0.4-0.9,0.9v56c0,0.5,0.4,0.9,0.9,0.9h312.8
			c0.5,0,0.9-0.4,0.9-0.9v-56c0-0.5-0.4-0.9-0.9-0.9H993.9z"/>
	</g>
	<g>
		<path class="st0" d="M1023.2,620.7v1.1c0,3.6-1.3,6.6-3.8,9s-5.9,3.6-10,3.6c-4.4,0-7.9-1.4-10.8-4.3c-2.8-2.8-4.2-6.3-4.2-10.5
			s1.4-7.6,4.2-10.5c2.8-2.8,6.3-4.3,10.6-4.3c2.6,0,5,0.6,7.2,1.9s3.9,2.9,5.1,5l-1.9,1.1c-1-1.8-2.4-3.2-4.2-4.3
			c-1.9-1.1-3.9-1.6-6.1-1.6c-3.7,0-6.7,1.2-9.1,3.7c-2.4,2.4-3.6,5.4-3.6,9c0,3.6,1.2,6.6,3.6,9c2.4,2.4,5.5,3.6,9.3,3.6
			c3.3,0,6-0.9,8.1-2.7c2.1-1.8,3.2-4.1,3.5-6.9h-12.1v-2H1023.2z"/>
		<path class="st0" d="M1043.1,613.6h2v20.4h-2v-3.9c-1.5,2.9-3.9,4.3-7.3,4.3c-2.4,0-4.3-0.7-5.8-2.2c-1.4-1.5-2.1-3.5-2.1-5.9
			v-12.7h2.1v12.7c0,1.9,0.5,3.4,1.6,4.5c1,1.1,2.5,1.7,4.4,1.7c2.1,0,3.8-0.7,5.1-2.1c1.3-1.4,2-3.4,2-6V613.6z"/>
		<path class="st0" d="M1053.5,605.5h2.5l-2.7,5.2l-2,0L1053.5,605.5z M1053.4,633.9v-20.4h-2v20.4H1053.4z"/>
		<path class="st0" d="M1077.6,613.6h2.1v20.4h-2.1v-4.6c-0.9,1.6-2.1,2.8-3.6,3.7c-1.5,0.9-3.2,1.3-5.2,1.3c-2.9,0-5.4-1-7.5-3.1
			s-3.1-4.6-3.1-7.6s1-5.5,3.1-7.6s4.6-3.1,7.5-3.1c1.9,0,3.7,0.4,5.2,1.3c1.5,0.9,2.7,2.1,3.6,3.7V613.6z M1062.9,629.9
			c1.7,1.7,3.7,2.5,6.1,2.5s4.5-0.8,6.1-2.5s2.5-3.7,2.5-6.2s-0.8-4.5-2.5-6.2s-3.7-2.5-6.1-2.5s-4.5,0.8-6.1,2.5
			c-1.7,1.7-2.5,3.7-2.5,6.2S1061.2,628.2,1062.9,629.9z"/>
		<path class="st0" d="M1099.1,608.2c-0.3,0.3-0.7,0.5-1.1,0.5s-0.8-0.2-1.1-0.5c-0.3-0.3-0.5-0.7-0.5-1.2c0-0.4,0.2-0.8,0.5-1.1
			c0.3-0.3,0.7-0.5,1.1-0.5s0.8,0.2,1.1,0.5c0.3,0.3,0.5,0.7,0.5,1.1C1099.5,607.5,1099.4,607.8,1099.1,608.2z M1096.9,633.9v-20.4
			h2v20.4H1096.9z"/>
		<path class="st0" d="M1114.5,613.1c2.4,0,4.3,0.7,5.8,2.2c1.4,1.5,2.1,3.5,2.1,5.9v12.7h-2.1v-12.7c0-1.9-0.5-3.4-1.6-4.5
			c-1-1.1-2.5-1.7-4.4-1.7c-2.1,0-3.8,0.7-5.1,2.1c-1.3,1.4-2,3.4-2,6v10.8h-2v-20.4h2v3.9C1108.7,614.5,1111.1,613.1,1114.5,613.1z
			"/>
		<path class="st0" d="M1130.4,608.2c-0.3,0.3-0.7,0.5-1.1,0.5s-0.8-0.2-1.1-0.5c-0.3-0.3-0.5-0.7-0.5-1.2c0-0.4,0.2-0.8,0.5-1.1
			c0.3-0.3,0.7-0.5,1.1-0.5s0.8,0.2,1.1,0.5c0.3,0.3,0.5,0.7,0.5,1.1C1130.9,607.5,1130.7,607.8,1130.4,608.2z M1128.2,633.9v-20.4
			h2v20.4H1128.2z"/>
		<path class="st0" d="M1145.9,634.4c-3.1,0-5.6-1-7.7-3.1c-2-2-3.1-4.6-3.1-7.6s1-5.5,3.1-7.6c2-2,4.6-3.1,7.7-3.1
			c2,0,3.8,0.5,5.4,1.4c1.6,0.9,2.8,2.2,3.5,3.8l-1.7,1c-0.6-1.3-1.5-2.3-2.8-3.1c-1.3-0.8-2.8-1.1-4.4-1.1c-2.4,0-4.5,0.8-6.2,2.5
			c-1.7,1.7-2.5,3.7-2.5,6.2s0.8,4.5,2.5,6.2c1.7,1.7,3.7,2.5,6.2,2.5c1.6,0,3.1-0.4,4.4-1.1c1.3-0.8,2.3-1.8,3-3.1l1.7,1
			c-0.8,1.6-2,2.8-3.7,3.8S1147.8,634.4,1145.9,634.4z"/>
		<path class="st0" d="M1161.6,608.2c-0.3,0.3-0.7,0.5-1.1,0.5s-0.8-0.2-1.1-0.5c-0.3-0.3-0.5-0.7-0.5-1.2c0-0.4,0.2-0.8,0.5-1.1
			c0.3-0.3,0.7-0.5,1.1-0.5s0.8,0.2,1.1,0.5c0.3,0.3,0.5,0.7,0.5,1.1C1162.1,607.5,1161.9,607.8,1161.6,608.2z M1159.4,633.9v-20.4
			h2v20.4H1159.4z"/>
		<path class="st0" d="M1185.7,613.6h2.1v20.4h-2.1v-4.6c-0.9,1.6-2.1,2.8-3.6,3.7c-1.5,0.9-3.2,1.3-5.2,1.3c-2.9,0-5.4-1-7.5-3.1
			s-3.1-4.6-3.1-7.6s1-5.5,3.1-7.6s4.6-3.1,7.5-3.1c1.9,0,3.7,0.4,5.2,1.3c1.5,0.9,2.7,2.1,3.6,3.7V613.6z M1170.9,629.9
			c1.7,1.7,3.7,2.5,6.1,2.5s4.5-0.8,6.1-2.5s2.5-3.7,2.5-6.2s-0.8-4.5-2.5-6.2s-3.7-2.5-6.1-2.5s-4.5,0.8-6.1,2.5
			c-1.7,1.7-2.5,3.7-2.5,6.2S1169.3,628.2,1170.9,629.9z"/>
		<path class="st0" d="M1194,633.9v-29.8h2v29.8H1194z"/>
	</g>
	<g>
		<polygon class="st0" points="1271,707.6 1258.2,694.7 1259.6,693.3 1271,704.7 1282.8,692.9 1284.2,694.3 		"/>
	</g>
	<g>
		<path class="st2" d="M57.3,1217.1c1.6,1,3.9,1.8,6.4,1.8c3.6,0,5.8-1.9,5.8-4.7c0-2.6-1.5-4-5.2-5.5c-4.5-1.6-7.3-3.9-7.3-7.8
			c0-4.3,3.5-7.5,8.9-7.5c2.8,0,4.9,0.7,6.1,1.3l-1,2.9c-0.9-0.5-2.7-1.3-5.2-1.3c-3.8,0-5.2,2.2-5.2,4.1c0,2.6,1.7,3.8,5.5,5.3
			c4.6,1.8,7,4,7,8.1c0,4.2-3.1,7.9-9.6,7.9c-2.7,0-5.5-0.8-7-1.8L57.3,1217.1z"/>
		<path class="st2" d="M88.8,1221.4l-0.3-2.5h-0.1c-1.1,1.5-3.2,2.9-6,2.9c-4,0-6-2.8-6-5.7c0-4.8,4.2-7.4,11.9-7.3v-0.4
			c0-1.6-0.4-4.6-4.5-4.6c-1.8,0-3.8,0.6-5.1,1.5l-0.8-2.4c1.6-1.1,4-1.8,6.5-1.8c6,0,7.5,4.1,7.5,8.1v7.4c0,1.7,0.1,3.4,0.3,4.7
			H88.8z M88.3,1211.3c-3.9-0.1-8.4,0.6-8.4,4.4c0,2.3,1.5,3.4,3.4,3.4c2.6,0,4.2-1.6,4.8-3.3c0.1-0.4,0.2-0.8,0.2-1.1V1211.3z"/>
		<path class="st2" d="M97.6,1192.4h3.6v29h-3.6V1192.4z"/>
		<path class="st2" d="M111.2,1196.1c0,1.2-0.9,2.2-2.3,2.2c-1.3,0-2.2-1-2.2-2.2c0-1.3,0.9-2.2,2.2-2.2
			C110.3,1193.9,111.2,1194.8,111.2,1196.1z M107.2,1221.4v-19.7h3.6v19.7H107.2z"/>
		<path class="st2" d="M116.7,1207.8c0-2.3,0-4.3-0.2-6.2h3.1l0.1,3.9h0.2c0.9-2.7,3.1-4.3,5.5-4.3c0.4,0,0.7,0,1,0.1v3.4
			c-0.4-0.1-0.7-0.1-1.2-0.1c-2.5,0-4.3,1.9-4.8,4.6c-0.1,0.5-0.2,1.1-0.2,1.7v10.5h-3.5V1207.8z"/>
	</g>
	<g>
		<g class="st6">
			<path class="st2" d="M276.5,241.7l-30-24.5c0.3-0.6,0.5-1.3,0.5-2c0-1.4-0.6-2.6-1.6-3.4l8.6-15.9c0.1-0.2,0.1-0.3,0.1-0.5
				c0-0.4-0.2-0.7-0.5-0.9c-0.5-0.3-1.1-0.1-1.4,0.4l-0.1,0.2l-49.7-5.8c-0.2-2.2-2.1-4-4.4-4.1l-2.6-13.9c-0.1-0.6-0.6-0.9-1.2-0.8
				c-0.6,0.1-0.9,0.6-0.8,1.2l2.6,13.9c-1,0.4-1.7,1.1-2.2,2l-40.1-11c-0.5-0.1-1.1,0.2-1.2,0.7c-0.1,0.5,0.2,1.1,0.7,1.2l40.1,11
				c0,0,0,0.1,0,0.1l-34.2,7c-0.7-1.6-2.3-2.7-4.2-2.7c-2.1,0-3.8,1.4-4.4,3.2l-33.3-2.5c-0.6,0-1,0.4-1.1,0.9c0,0.6,0.4,1,0.9,1.1
				l33.3,2.5c0.2,1.2,0.9,2.3,1.9,3l-18.1,42.9l-17.7,11.3c-0.8-0.8-2-1.3-3.2-1.3c-1.7,0-3.1,0.9-3.9,2.2l-21.4-7.2
				c-0.5-0.2-1.1,0.1-1.3,0.6c-0.2,0.5,0.1,1.1,0.6,1.3l21.4,7.2c0,0.1,0,0.3,0,0.5c0,1.9,1.2,3.6,2.8,4.2l-3.4,20.3
				c-0.1,0.6,0.3,1.1,0.8,1.2c0.1,0,0.1,0,0.2,0c0.5,0,0.9-0.4,1-0.8l3.4-20.3c0.8,0,1.6-0.3,2.2-0.7l35.9,35.2c0,0,0,0,0,0
				c0,0,0,0,0,0c0,0,0.1,0,0.1,0.1c0,0,0,0,0.1,0c0,0,0.1,0,0.1,0.1c0,0,0,0,0.1,0c0,0,0.1,0,0.1,0c0,0,0,0,0.1,0c0.1,0,0.1,0,0.2,0
				h0h0c0.1,0,0.1,0,0.2,0c0,0,0,0,0.1,0c0,0,0.1,0,0.1,0c0,0,0,0,0.1,0c0,0,0.1,0,0.1-0.1c0,0,0,0,0.1-0.1c0,0,0.1,0,0.1-0.1
				c0,0,0,0,0,0c0,0,0,0,0,0l38.7-42.4c0.4,0.2,0.9,0.4,1.3,0.5l0.9,42.4c0,0.6,0.5,1,1,1c0,0,0,0,0,0c0.6,0,1-0.5,1-1l-0.9-42.4
				c1.3-0.3,2.4-1.2,3-2.3l42.4,11.3c0,0.1,0,0.1,0,0.2c0,2.5,2.1,4.6,4.6,4.6c0.7,0,1.3-0.2,1.9-0.4l15.3,19.8
				c0.3,0.4,1,0.5,1.4,0.2c0.4-0.3,0.5-1,0.2-1.4l-15.3-19.8c0.7-0.8,1.1-1.8,1.1-2.9c0-2.3-1.6-4.1-3.8-4.5l-2.1-41.8
				c0.6-0.2,1.1-0.4,1.6-0.8l30,24.5c0.2,0.2,0.4,0.2,0.6,0.2c0.3,0,0.6-0.1,0.8-0.4C277,242.7,277,242,276.5,241.7z M243.7,210.8
				c-0.4-0.1-0.8-0.2-1.2-0.2c-2.1,0-3.9,1.5-4.4,3.4l-54.6-1.6l-24-12.8c0.1-0.4,0.2-0.7,0.2-1.1l34.2-7c0.7,1.6,2.3,2.7,4.2,2.7
				c2,0,3.7-1.3,4.3-3.1l48.9,5.7L243.7,210.8z M135.5,246.7c0.2-0.1,0.3-0.3,0.4-0.5l18.3-43.2c0.3,0,0.5,0.1,0.8,0.1
				c1.4,0,2.6-0.6,3.5-1.6l23.8,12.7l9.5,34.1c-1.4,0.8-2.4,2.3-2.4,4c0,0.1,0,0.1,0,0.2l-16.3,4.5l-55.5,1.5c0-0.1-0.1-0.3-0.1-0.4
				L135.5,246.7z M152.2,296.5l-35.2-34.4c0.3-0.5,0.5-1,0.6-1.5l55.6-1.5c0.1,0,0.2,0,0.2,0l16.4-4.5c0.1,0.2,0.2,0.3,0.3,0.4
				L152.2,296.5z M198.6,252.4c0-0.1,0-0.1,0-0.2c0-2.5-2.1-4.6-4.6-4.6c-0.1,0-0.1,0-0.2,0l-9.3-33.2l53.5,1.5
				c0.4,1.9,1.8,3.3,3.7,3.6l2.1,41.8c-1.2,0.3-2.2,1.2-2.8,2.3L198.6,252.4z"/>
		</g>
		<g>
			<g>
				<path class="st2" d="M86.1,250.6"/>
			</g>
		</g>
		<g>
			<g>
				<g>
					<circle class="st2" cx="116.4" cy="192.8" r="4.5"/>
				</g>
			</g>
			<g>
				<g>
					<circle class="st2" cx="194.6" cy="169.6" r="4.5"/>
				</g>
			</g>
			<g>
				<g>
					<circle class="st2" cx="224.8" cy="270.4" r="4.5"/>
				</g>
			</g>
			<g>
				<g>
					<circle class="st2" cx="264.1" cy="289.7" r="4.5"/>
				</g>
			</g>
			<g>
				<g>
					<circle class="st2" cx="253.6" cy="194.9" r="4.5"/>
				</g>
			</g>
		</g>
		<g>
			<path class="st2" d="M277.3,235.8c-0.5,0-1.1,0.1-1.6,0.2l-18.6-36.7c1.4-1.1,2.2-2.7,2.2-4.5c0-3.2-2.6-5.8-5.8-5.8
				c-1.7,0-3.3,0.8-4.4,2l-20.8-10.6l-28.1-10.3c0-0.2,0-0.5,0-0.7c0-3.2-2.6-5.8-5.8-5.8c-3,0-5.4,2.3-5.7,5.3l-30.6,3.8
				c-0.9-2-3-3.3-5.2-3.3c-3.2,0-5.8,2.6-5.8,5.8c0,0.3,0,0.5,0.1,0.8L121,189.4c-1.1-1.5-2.8-2.4-4.6-2.4c-3.2,0-5.8,2.6-5.8,5.8
				c0,1.2,0.4,2.4,1.1,3.3l-20.6,23.6c-0.8-0.5-1.8-0.7-2.8-0.7c-3.2,0-5.8,2.6-5.8,5.8c0,2.6,1.8,4.8,4.2,5.5l-1.4,14.7
				c-2.8,0.4-5.1,2.8-5.1,5.7c0,3.2,2.6,5.8,5.8,5.8c0.8,0,1.5-0.1,2.1-0.4l15.9,24.7c-1.4,1.1-2.2,2.7-2.2,4.5
				c0,3.2,2.6,5.8,5.8,5.8c2.2,0,4.2-1.3,5.1-3.2l32.8,9.7c0,0.2-0.1,0.4-0.1,0.6c0,3.2,2.6,5.8,5.8,5.8c2.7,0,5-1.9,5.6-4.5l32,0.2
				c0.7,2.5,2.9,4.3,5.5,4.3c0.7,0,1.3-0.1,1.9-0.3l14.9,23.2c-1.1,1.1-1.7,2.5-1.7,4.1c0,3.2,2.6,5.8,5.8,5.8
				c3.2,0,5.8-2.6,5.8-5.8c0-0.9-0.2-1.8-0.6-2.6l40.6-33.5c0.9,0.6,1.9,0.9,3,0.9c3.2,0,5.8-2.6,5.8-5.8c0-1.8-0.9-3.6-2.4-4.6
				l9.6-37.8c0.1,0,0.1,0,0.2,0c3.2,0,5.8-2.6,5.8-5.8C283,238.3,280.4,235.8,277.3,235.8z M250.2,194.8c0-0.4,0.1-0.7,0.2-1l0-0.1
				l0,0c0-0.1,0.1-0.2,0.1-0.3c0.1-0.2,0.2-0.4,0.3-0.6c0,0,0,0,0,0c0.6-0.8,1.6-1.3,2.6-1.3c1.8,0,3.3,1.5,3.3,3.3
				c0,1.1-0.5,2.1-1.4,2.7c-0.3,0.2-0.6,0.3-0.9,0.4l0,0c-0.8,0.3-2,0.2-2.8-0.4c-0.3-0.2-0.5-0.4-0.8-0.7l0,0
				c-0.2-0.2-0.3-0.4-0.4-0.7l0,0c-0.1-0.2-0.1-0.3-0.2-0.5c0,0,0-0.1,0-0.1c0-0.1-0.1-0.3-0.1-0.4l0-0.2
				C250.2,195,250.2,194.9,250.2,194.8C250.2,194.8,250.2,194.8,250.2,194.8z M250.6,199.8c0.9,0.5,1.9,0.8,2.9,0.8
				c0.5,0,1-0.1,1.4-0.2l18.6,36.7c-0.7,0.6-1.3,1.3-1.6,2.2l-46.3-8.7c0-1.1-0.4-2.2-1-3.1L250.6,199.8z M179.6,256.9
				c0-0.1,0-0.2,0-0.3c0-2.3-1.4-4.3-3.4-5.2l6.8-32.3c0,0,0,0,0,0c1.8,0,3.4-0.9,4.5-2.3l26.8,12.6l0,0l0,0
				c-0.1,0.4-0.1,0.9-0.1,1.3c0,3,2.3,5.4,5.2,5.7l3.3,28.4c-1.4,0.5-2.6,1.5-3.3,2.8L179.6,256.9L179.6,256.9L179.6,256.9z
				 M139.4,243.9l39.6-26.5c0.5,0.5,1,0.9,1.6,1.1l-6.8,32.3c-2.2,0-4.1,1.3-5.1,3.2l-28.9-7.6c0-0.1,0-0.2,0-0.3
				C139.8,245.3,139.6,244.6,139.4,243.9z M134,210c1.6,0,3,1.2,3.3,2.9c0,0.1,0,0.3,0,0.5c0,0.2,0,0.3,0,0.5l0,0l-0.2,0.7
				c-0.3,0.9-1.1,1.7-2.1,2l-0.6,0.2c0,0,0,0,0,0c-0.1,0-0.2,0-0.4,0c0,0-0.1,0-0.1,0c-0.2,0-0.3,0-0.5-0.1l-0.1,0
				c-1.1-0.2-2-0.9-2.4-2l0,0c0,0,0,0,0-0.1c-0.1-0.3-0.2-0.6-0.2-0.9l0-0.3c0-0.8,0.3-1.5,0.8-2.1l0,0c0.2-0.3,0.5-0.5,0.8-0.7
				C132.8,210.2,133.4,210,134,210z M132.6,209.1c0.5-0.2,0.9-0.2,1.4-0.2C133.5,208.8,133,208.9,132.6,209.1z M134.8,208.9
				c1.3,0.2,2.4,1.1,3.1,2.2C137.3,210,136.1,209.2,134.8,208.9z M135.8,217.6c-0.2,0.1-0.4,0.1-0.6,0.2v0
				C135.4,217.7,135.6,217.6,135.8,217.6z M132.8,217.7L132.8,217.7c-0.1,0-0.3-0.1-0.4-0.1C132.5,217.7,132.7,217.7,132.8,217.7z
				 M133,242.9l0.6-0.2c0.1,0,0.1,0,0.2,0c0.1,0,0.2,0,0.3,0c0.1,0,0.2,0,0.3,0c0,0,0,0,0.1,0c0.1,0,0.1,0,0.2,0l0.6,0.2
				c0.5,0.2,1,0.5,1.3,0.9c0.2,0.2,0.3,0.4,0.5,0.7c0,0.1,0.1,0.1,0.1,0.2l0,0c0.2,0.4,0.3,0.9,0.3,1.4c0,0,0,0,0,0c0,0,0,0,0,0
				c0,0.1,0,0.2,0,0.3c0,0.1,0,0.3-0.1,0.4c0,0,0,0.1,0,0.1c0,0.2-0.1,0.3-0.2,0.5l0,0c-0.5,1.2-1.7,2-3,2c-0.5,0-0.9-0.1-1.4-0.3
				l0,0c-0.1,0-0.1-0.1-0.2-0.1c-0.3-0.1-0.5-0.3-0.7-0.5l0,0c-0.5-0.4-0.8-1-1-1.7c-0.1-0.2-0.1-0.5-0.1-0.8c0,0,0-0.1,0-0.1
				c0,0,0,0,0-0.1l0.1-0.7C131.1,244.2,131.9,243.3,133,242.9z M135.2,240.5V219c2.2-0.5,3.9-2.2,4.4-4.4l37.7-0.1
				c0.1,0.3,0.1,0.6,0.3,0.9l0,0l0,0L138,242C137.2,241.2,136.3,240.7,135.2,240.5z M179.6,213.3c0-0.2,0-0.3,0-0.5l0.2-0.7
				c0.2-0.5,0.5-1,0.9-1.4c0.1-0.1,0.3-0.2,0.4-0.3c0,0,0,0,0,0c0.1-0.1,0.3-0.2,0.5-0.2c0.7-0.3,1.4-0.4,2.1-0.2
				c0.3,0.1,0.6,0.2,0.9,0.4l0,0c0.6,0.4,1.1,0.9,1.3,1.5c0.1,0.3,0.2,0.7,0.3,1c0,0.1,0,0.2,0,0.3c0,0.3,0,0.6-0.1,1
				c0,0.2-0.1,0.3-0.2,0.5c0,0.1-0.1,0.1-0.1,0.2c-0.1,0.1-0.1,0.2-0.2,0.3l0,0l0,0c-0.6,0.9-1.6,1.4-2.7,1.5l-0.2,0
				c-0.3,0-0.7-0.1-1-0.2l0,0c-0.5-0.2-0.9-0.5-1.3-0.8c-0.1-0.1-0.2-0.3-0.3-0.4c0-0.1-0.1-0.1-0.1-0.2c-0.1-0.1-0.1-0.2-0.2-0.3
				c-0.1-0.2-0.1-0.4-0.2-0.6l-0.1-0.3l0-0.4C179.6,213.4,179.6,213.4,179.6,213.3z M170.5,256.2c0-0.3,0.1-0.7,0.2-1
				c0.5-1.2,1.7-2,3-2l0.2,0c0.2,0,0.4,0,0.6,0.1c0.1,0,0.2,0.1,0.3,0.1l0,0l0.1,0c1.3,0.5,2.1,1.7,2.1,3.1c0,0,0,0,0,0c0,0,0,0,0,0
				c0,0,0,0,0,0v0v0l0,0.4c0,0.1,0,0.2-0.1,0.3c0,0,0,0.1,0,0.1c0,0.2-0.1,0.3-0.2,0.5c-0.2,0.5-0.6,1-1.1,1.4
				c-0.1,0-0.1,0.1-0.2,0.1c-0.1,0.1-0.2,0.1-0.3,0.2l0,0c-0.1,0.1-0.3,0.1-0.5,0.2l-0.1,0c-0.6,0.2-1.4,0.2-2,0l-0.1,0
				c-0.1,0-0.3-0.1-0.4-0.2c-0.1-0.1-0.3-0.2-0.4-0.3l-0.1-0.1c-0.8-0.6-1.2-1.6-1.2-2.6C170.5,256.5,170.5,256.4,170.5,256.2z
				 M219,233.9c-1.4-0.4-2.5-1.7-2.5-3.2c0-0.3,0-0.5,0.1-0.8l0-0.2c0.1-0.3,0.2-0.6,0.4-0.9c0.6-0.9,1.7-1.5,2.8-1.5
				c0.7,0,1.3,0.2,1.9,0.6c0.3,0.2,0.5,0.4,0.8,0.7c0.4,0.5,0.7,1.2,0.7,1.9v0.3c0,0.3-0.1,0.6-0.2,1l0,0c-0.4,1-1.2,1.8-2.3,2.1
				c-0.3,0.1-0.5,0.1-0.8,0.1l-0.1,0L219,233.9L219,233.9z M221.1,270.3l0-0.4c0-0.2,0-0.3,0.1-0.5c0-0.1,0-0.1,0.1-0.2
				c0-0.1,0.1-0.2,0.1-0.3l0,0c0.4-0.9,1.2-1.6,2.1-1.8l0.1,0c0.3-0.1,0.6-0.1,0.9-0.1l0.8,0.2l0-0.1c1.4,0.4,2.5,1.7,2.5,3.2
				c0,0.3-0.1,0.7-0.1,1l0,0c-0.1,0.3-0.2,0.6-0.4,0.9c-1.1,1.5-3.3,1.8-4.8,0.7c-0.3-0.2-0.5-0.5-0.7-0.8
				C221.3,271.6,221.1,271,221.1,270.3C221.1,270.3,221.1,270.3,221.1,270.3z M228.3,266.1c-0.9-0.8-2-1.4-3.3-1.5l-3.3-28.5
				c1.6-0.5,2.8-1.7,3.5-3.2l46.3,8.7c0,0.5,0.1,0.9,0.2,1.4L228.3,266.1z M248.4,197.5c0.1,0.2,0.3,0.4,0.4,0.6l-26,27.7
				c-0.9-0.5-1.9-0.8-3-0.8c-1.8,0-3.5,0.8-4.6,2.3l-26.8-12.6c0.1-0.4,0.2-0.9,0.2-1.3c0-0.1,0-0.2,0-0.2L248.4,197.5L248.4,197.5
				L248.4,197.5z M199.5,172.6l28,10.2l20.6,10.5c-0.2,0.5-0.3,1-0.3,1.6c0,0.1,0,0.2,0,0.3L188,210.7c-0.5-0.9-1.2-1.7-2.1-2.3
				l8.4-33.1c0.1,0,0.1,0,0.2,0C196.6,175.4,198.4,174.3,199.5,172.6z M191.2,169.5c0-1.8,1.5-3.3,3.3-3.3c1.8,0,3.3,1.5,3.3,3.3
				c0,0.2,0,0.4-0.1,0.6c-0.1,0.3-0.2,0.7-0.3,1c-0.6,1.2-2,1.9-3.3,1.8c-0.3,0-0.5-0.1-0.7-0.2c-0.1,0-0.2,0-0.2-0.1l0,0l-0.1,0
				c-0.9-0.4-1.5-1.1-1.8-2l0,0l0,0c0-0.1-0.1-0.2-0.1-0.3c0-0.1,0-0.1,0-0.2c0-0.1,0-0.2,0-0.2
				C191.2,169.7,191.2,169.6,191.2,169.5L191.2,169.5z M158.8,175.4C158.8,175.4,158.8,175.4,158.8,175.4l30.3-3.9
				c0.5,1.4,1.5,2.6,2.8,3.2l-8.4,32.9c-1-0.1-2,0-2.9,0.4l-23.3-29C158.3,178,158.8,176.8,158.8,175.4z M153.1,172.1
				c1.3,0,2.5,0.8,3,1.9c0.2,0.3,0.2,0.6,0.3,1l0,0.2c0,0.1,0,0.1,0,0.2c0,0.8-0.3,1.6-0.9,2.2c-0.2,0.3-0.5,0.5-0.8,0.6
				c-0.6,0.3-1.2,0.5-1.9,0.4c-1.2-0.1-2.2-0.8-2.8-1.8c-0.2-0.3-0.3-0.6-0.3-1l0,0c0-0.2,0-0.3,0-0.5
				C149.7,173.6,151.2,172.1,153.1,172.1z M122.1,192.8c0-0.4-0.1-0.8-0.1-1.2l26.2-13.1c1,1.7,2.8,2.7,4.8,2.7
				c0.9,0,1.8-0.2,2.6-0.6l23.1,28.8c-0.7,0.8-1.2,1.7-1.4,2.7l-37.7,0c-0.6-2.6-2.9-4.5-5.6-4.5c-1,0-1.9,0.3-2.7,0.7l-10.4-12.1
				C121.7,195.2,122.1,194,122.1,192.8z M116.4,189.4c1.2,0,2.2,0.6,2.8,1.6c0.2,0.3,0.3,0.6,0.4,0.9l0,0c0.1,0.2,0.1,0.5,0.1,0.7
				c0,0.8-0.3,1.6-0.8,2.2c-0.1,0.1-0.2,0.3-0.4,0.4c-0.1,0.1-0.2,0.1-0.3,0.2c-0.1,0-0.1,0.1-0.2,0.1l0,0c-1.1,0.7-2.5,0.7-3.6-0.1
				c-0.3-0.2-0.5-0.4-0.8-0.7c-0.5-0.6-0.7-1.3-0.7-2.1C113,190.9,114.5,189.4,116.4,189.4z M113.5,197.7c0.9,0.5,1.8,0.8,2.9,0.8
				c0,0,0,0,0.1,0c0.9,0,1.8-0.3,2.7-0.7l10.3,12.1c-0.8,1-1.2,2.2-1.2,3.5c0,0.1,0,0.1,0,0.2l-34.8,8.7c-0.2-0.3-0.3-0.6-0.5-0.9
				L113.5,197.7z M85,224.7c0-1.8,1.5-3.3,3.3-3.3c0.6,0,1.3,0.2,1.8,0.5c0.3,0.2,0.6,0.4,0.8,0.7c0.2,0.3,0.4,0.6,0.5,0.8
				c0.1,0.3,0.2,0.7,0.2,1l0,0.3c0,1.7-1.3,3.1-3,3.3c-0.1,0-0.2,0-0.3,0c-0.3,0-0.5,0-0.8-0.1l0,0C86.1,227.7,85,226.3,85,224.7z
				 M89.5,250.7L89.5,250.7l-0.1,0.8c-0.2,0.6-0.5,1.1-0.9,1.5l0,0c-0.2,0.2-0.5,0.4-0.8,0.6c-0.4,0.2-0.9,0.3-1.4,0.3
				c-1.8,0-3.3-1.5-3.3-3.3c0-1.7,1.4-3.2,3.2-3.3c0,0,0.1,0,0.1,0l0,0c0.3,0,0.6,0,0.8,0.1l0,0c1.2,0.3,2.1,1.2,2.4,2.4l0,0
				c0.1,0.2,0.1,0.5,0.1,0.8C89.5,250.7,89.5,250.7,89.5,250.7z M87.9,245.1l1.4-14.7c2.8-0.4,4.9-2.8,4.9-5.7c0-0.1,0-0.1,0-0.2
				l34.8-8.6c0.8,1.6,2.2,2.7,3.9,3.1v21.5c-2.4,0.5-4.2,2.5-4.5,4.9l-36.7,3.5C91,247.1,89.6,245.7,87.9,245.1z M103.2,285.2
				c0-1.3,0.5-2.5,1.5-3.4C103.8,282.6,103.2,283.9,103.2,285.2z M111.1,285.3l0,0.1c0,0,0,0.1,0,0.1c0,0.3-0.1,0.6-0.2,0.9l0,0
				c-0.5,1.3-1.7,2.1-3.1,2.1c-1.8,0-3.3-1.5-3.3-3.3c0-1.2,0.6-2.2,1.6-2.8c0.3-0.2,0.6-0.3,1-0.4l0,0c0.2-0.1,0.5-0.1,0.7-0.1
				c0.7,0,1.3,0.2,1.9,0.6c0.3,0.2,0.5,0.4,0.8,0.7c0.4,0.6,0.7,1.3,0.7,2C111.1,285.2,111.1,285.2,111.1,285.3z M110.5,280.1
				c-1.2-0.7-2.7-0.8-4-0.5l-16.1-25c0.9-0.9,1.4-2,1.6-3.3l36.7-3.5c0.3,0.9,0.7,1.6,1.4,2.3L110.5,280.1z M111.9,283.3
				c0.2,0.5,0.4,1.1,0.4,1.7C112.3,284.4,112.1,283.9,111.9,283.3z M146.4,295.1l-32.9-9.7c0-0.1,0-0.1,0-0.2c0-1.3-0.4-2.5-1.2-3.5
				l19.7-30.2c0.6,0.2,1.3,0.4,2,0.4c2.2,0,4.1-1.2,5.1-3.1l28.9,7.6c0,0.1,0,0.2,0,0.3c0,1.7,0.8,3.3,2,4.4l-16.8,31.6
				c-0.6-0.2-1.3-0.3-1.9-0.3C149.3,292.2,147.4,293.3,146.4,295.1z M152.5,293.6c-0.4-0.1-0.7-0.1-1.1-0.1
				C151.8,293.4,152.2,293.5,152.5,293.6z M147.6,295.4c0.2-0.3,0.4-0.6,0.7-0.8C148,294.9,147.8,295.2,147.6,295.4L147.6,295.4z
				 M154.7,298.4L154.7,298.4l-0.2,0.7c-0.5,1.3-1.7,2.2-3.1,2.2c-1.8,0-3.3-1.5-3.3-3.3c0-0.1,0-0.2,0-0.3l0-0.3
				c0-0.3,0.2-0.7,0.3-1c0.6-1.1,1.7-1.8,3-1.8c0.5,0,1,0.1,1.4,0.3c0.1,0,0.1,0.1,0.2,0.1c0.1,0,0.2,0.1,0.2,0.1c0,0,0,0,0,0
				c0.1,0.1,0.2,0.2,0.4,0.3l0,0c0.6,0.5,0.9,1.2,1,2c0,0.2,0,0.3,0,0.5C154.7,298.2,154.7,298.3,154.7,298.4z M155.7,296.8
				c-0.1-0.5-0.4-1.1-0.7-1.5C155.4,295.7,155.6,296.2,155.7,296.8L155.7,296.8z M188.9,297l-31.9-0.2c-0.2-1.1-0.8-2.1-1.6-2.9
				l16.9-31.8c0.5,0.1,1,0.2,1.6,0.2c0.5,0,1-0.1,1.4-0.2l15.7,31.4C189.8,294.4,189.1,295.7,188.9,297z M196.7,300.5
				c-0.3,0.2-0.6,0.4-0.9,0.5l0,0c-0.4,0.2-0.8,0.2-1.2,0.2c-1.6,0-2.9-1.1-3.2-2.6c-0.1-0.2-0.1-0.5-0.1-0.7c0-0.1,0-0.1,0-0.2
				l0.2-0.7l0,0c0.2-0.7,0.6-1.3,1.2-1.7c0.2-0.2,0.5-0.3,0.8-0.4c0,0,0.1,0,0.1,0l0,0c0.4-0.1,0.8-0.2,1.2-0.2
				c0.8,0,1.6,0.3,2.1,0.8c0,0,0,0,0,0l0,0c0.1,0.1,0.2,0.2,0.3,0.3c0,0,0.1,0.1,0.1,0.1c0.1,0.1,0.2,0.3,0.3,0.4
				c0.3,0.5,0.5,1.1,0.5,1.7C197.9,299,197.4,299.9,196.7,300.5z M194.5,292.2c-0.5,0-1,0.1-1.5,0.2l-15.6-31.4
				c0.6-0.5,1.2-1.1,1.5-1.8l39.8,10.8c0,0.1,0,0.2,0,0.3c0,1.1,0.3,2.1,0.8,2.9L198,293.4C197,292.6,195.8,292.2,194.5,292.2z
				 M210.8,330.7c0-1.1,0.4-2.2,1.2-3C211.2,328.5,210.8,329.6,210.8,330.7z M215.4,334c-1.8,0-3.3-1.5-3.3-3.3
				c0-0.9,0.4-1.9,1.1-2.5c0.3-0.2,0.5-0.4,0.9-0.6c0.4-0.2,0.9-0.3,1.3-0.3c0.8,0,1.6,0.3,2.2,0.8c0.2,0.2,0.5,0.5,0.7,0.8
				c0.3,0.5,0.5,1.1,0.5,1.7C218.7,332.5,217.2,334,215.4,334z M214.2,326.3c0.4-0.1,0.7-0.1,1.1-0.1
				C215,326.1,214.6,326.2,214.2,326.3z M215.4,326.1c0.6,0,1.3,0.1,1.8,0.4C216.7,326.3,216,326.1,215.4,326.1z M218.9,326.2
				c-1-0.8-2.2-1.3-3.6-1.3c-0.7,0-1.4,0.1-2,0.4l-14.9-23.2c1.2-1.1,1.8-2.6,1.8-4.2c0-1-0.3-1.9-0.7-2.8l21.6-20.2
				c1,0.7,2.1,1.1,3.3,1.1c1.8,0,3.4-0.8,4.5-2.2l29.6,14.5c-0.1,0.4-0.2,0.9-0.2,1.4c0,1.1,0.3,2.2,1,3.1L218.9,326.2z M264.1,293
				c-0.6,0-1.3-0.2-1.8-0.5c-0.3-0.2-0.6-0.5-0.8-0.7c-0.5-0.6-0.8-1.3-0.8-2.1c0-0.3,0.1-0.7,0.2-1c0,0,0,0,0-0.1
				c0-0.1,0.1-0.3,0.2-0.4c0-0.1,0.1-0.1,0.1-0.2c0.1-0.1,0.1-0.2,0.2-0.3l0,0c0.6-0.9,1.6-1.4,2.7-1.4c0.3,0,0.6,0,0.9,0.1l0.2,0
				l0,0c0.1,0,0.2,0.1,0.3,0.1c0.2,0.1,0.4,0.2,0.6,0.3c0.8,0.6,1.3,1.6,1.3,2.7C267.5,291.5,266,293,264.1,293z M265.3,284.1
				c-0.4-0.1-0.8-0.1-1.2-0.1c-1.8,0-3.4,0.8-4.5,2.2L230,271.7c0.1-0.4,0.2-0.9,0.2-1.4c0-0.7-0.1-1.4-0.4-2.1l43.1-22.9
				c0.5,0.6,1.1,1,1.8,1.4L265.3,284.1z M277.3,244.9l-0.3,0c-0.3,0-0.7-0.1-1-0.2c-1.1-0.5-1.9-1.5-2-2.7v-0.5c0-0.2,0-0.3,0-0.5
				c0-0.1,0-0.1,0-0.2c0-0.1,0.1-0.2,0.1-0.3l0,0c0.2-0.6,0.6-1.1,1.1-1.6c0.1-0.1,0.2-0.1,0.3-0.2c0,0,0.1-0.1,0.1-0.1
				c0.1-0.1,0.3-0.1,0.4-0.2c0,0,0,0,0,0l0,0c2.2-0.8,4.4,0.9,4.4,3.1C280.6,243.3,279.1,244.8,277.3,244.9z"/>
		</g>
	</g>
</g>
</svg>
