<svg xmlns="http://www.w3.org/2000/svg" viewBox="0 0 2230.47 1381.24"><defs><style>.cls-1{fill:#262b32;}.cls-2{fill:#f4f4f8;}.cls-3{fill:#fff;}.cls-4{fill:#747b8d;}.cls-5{fill:#23b59c;}.cls-6{fill:#f2f2f2;}.cls-7{opacity:0.1;}</style></defs><title>profesional</title><g id="pagina_web" data-name="pagina web"><rect class="cls-1" width="2230.47" height="1381.24" rx="30.01" ry="30.01"/><rect class="cls-2" x="364.61" y="19.75" width="1841.63" height="1336.23" rx="10.9" ry="10.9"/><path class="cls-3" d="M1501.67,1356H375.5a10.9,10.9,0,0,1-10.9-10.9V30.65a10.9,10.9,0,0,1,10.9-10.9H1501.67Z"/><path class="cls-1" d="M838,1222.39H576.16a8.33,8.33,0,0,1-8.32-8.32V1090.26a8.33,8.33,0,0,1,8.32-8.32H838a8.33,8.33,0,0,1,8.32,8.32v123.82A8.33,8.33,0,0,1,838,1222.39ZM576.16,1083.94a6.33,6.33,0,0,0-6.32,6.32v123.82a6.33,6.33,0,0,0,6.32,6.32H838a6.33,6.33,0,0,0,6.32-6.32V1090.26a6.33,6.33,0,0,0-6.32-6.32Z"/><path class="cls-1" d="M656.13,1155.44l-2.81,8.52H649.7l9.21-27.1h4.22l9.25,27.1h-3.74l-2.89-8.52Zm8.89-2.73-2.65-7.8c-.6-1.77-1-3.38-1.41-4.95h-.08c-.4,1.61-.84,3.26-1.37,4.91l-2.65,7.84Z"/><path class="cls-1" d="M676.11,1150.86c0-2.49-.08-4.5-.16-6.35h3.18l.16,3.34h.08a7.65,7.65,0,0,1,6.92-3.78c4.7,0,8.24,4,8.24,9.89,0,7-4.26,10.45-8.85,10.45a6.82,6.82,0,0,1-6-3.06h-.08v10.57h-3.5Zm3.5,5.19a8,8,0,0,0,.16,1.45,5.46,5.46,0,0,0,5.31,4.14c3.74,0,5.91-3.06,5.91-7.52,0-3.9-2.05-7.24-5.79-7.24a5.65,5.65,0,0,0-5.35,4.38,5.72,5.72,0,0,0-.24,1.45Z"/><path class="cls-1" d="M699,1135.42h3.54V1164H699Z"/><path class="cls-1" d="M712.42,1139a2.19,2.19,0,0,1-4.38,0,2.16,2.16,0,0,1,2.21-2.21A2.1,2.1,0,0,1,712.42,1139ZM708.48,1164v-19.46H712V1164Z"/><path class="cls-1" d="M731.76,1163.24a13,13,0,0,1-5.59,1.13c-5.87,0-9.69-4-9.69-9.93s4.1-10.33,10.45-10.33a11.83,11.83,0,0,1,4.91,1l-.8,2.73a8.21,8.21,0,0,0-4.1-.92c-4.46,0-6.87,3.3-6.87,7.36,0,4.5,2.89,7.28,6.75,7.28a10,10,0,0,0,4.34-1Z"/><path class="cls-1" d="M746.68,1164l-.28-2.45h-.12a7.25,7.25,0,0,1-6,2.89,5.54,5.54,0,0,1-6-5.59c0-4.7,4.18-7.28,11.7-7.24v-.4c0-1.61-.44-4.5-4.42-4.5a9.7,9.7,0,0,0-5.07,1.45l-.8-2.33a12.07,12.07,0,0,1,6.39-1.73c6,0,7.4,4.06,7.4,8v7.28a27.4,27.4,0,0,0,.32,4.66Zm-.52-9.93c-3.86-.08-8.24.6-8.24,4.38a3.13,3.13,0,0,0,3.34,3.38,4.84,4.84,0,0,0,4.71-3.26,3.71,3.71,0,0,0,.2-1.13Z"/><path class="cls-1" d="M755.28,1150.58c0-2.29,0-4.26-.16-6.07h3.1l.12,3.82h.16a5.84,5.84,0,0,1,5.39-4.26,3.81,3.81,0,0,1,1,.12v3.34a5.34,5.34,0,0,0-1.21-.12c-2.49,0-4.26,1.89-4.74,4.54a10,10,0,0,0-.16,1.65V1164h-3.5Z"/><path class="cls-1" d="M1121.34,531.27H570.21a1.88,1.88,0,0,1-1.87-1.87v-56a1.88,1.88,0,0,1,1.88-1.87h551.13a1.88,1.88,0,0,1,1.88,1.88v56A1.88,1.88,0,0,1,1121.34,531.27ZM570.21,472.5a.88.88,0,0,0-.87.88v56a.88.88,0,0,0,.88.88h551.13a.88.88,0,0,0,.88-.87v-56a.88.88,0,0,0-.87-.87Z"/><path class="cls-1" d="M598.2,406.9v28.55H596V410.09l-10.56,17.54h-.37l-10.56-17.54v25.37h-2.16V406.9h2.72l10.19,16.91,10.19-16.91Z"/><path class="cls-1" d="M614.23,435.9a10.42,10.42,0,0,1-7.61-3.08,10.73,10.73,0,0,1,0-15.13,10.88,10.88,0,0,1,15.17,0,10.73,10.73,0,0,1,0,15.13A10.37,10.37,0,0,1,614.23,435.9Zm-6.14-4.49a8.69,8.69,0,0,0,12.25,0,8.87,8.87,0,0,0,0-12.32,8.69,8.69,0,0,0-12.25,0,8.81,8.81,0,0,0,0,12.32Z"/><path class="cls-1" d="M647.79,406.9h2v28.55h-2v-4.73a9.49,9.49,0,0,1-3.57,3.79,9.88,9.88,0,0,1-5.2,1.39,10.64,10.64,0,0,1,0-21.29,9.89,9.89,0,0,1,5.2,1.39,9.5,9.5,0,0,1,3.57,3.79ZM633,431.41a8.71,8.71,0,0,0,12.27,0,8.81,8.81,0,0,0,0-12.32,8.71,8.71,0,0,0-12.27,0,8.81,8.81,0,0,0,0,12.32Z"/><path class="cls-1" d="M665.45,435.9a10.42,10.42,0,0,1-7.61-3.08,10.73,10.73,0,0,1,0-15.13,10.88,10.88,0,0,1,15.17,0,10.73,10.73,0,0,1,0,15.13A10.37,10.37,0,0,1,665.45,435.9Zm-6.14-4.49a8.69,8.69,0,0,0,12.25,0,8.87,8.87,0,0,0,0-12.32,8.69,8.69,0,0,0-12.25,0,8.81,8.81,0,0,0,0,12.32Z"/><path class="cls-1" d="M709.9,406.9h2v28.55h-2v-4.73a9.49,9.49,0,0,1-3.57,3.79,9.88,9.88,0,0,1-5.2,1.39,10.64,10.64,0,0,1,0-21.29,9.89,9.89,0,0,1,5.2,1.39,9.5,9.5,0,0,1,3.57,3.79Zm-14.78,24.51a8.71,8.71,0,0,0,12.27,0,8.81,8.81,0,0,0,0-12.32,8.71,8.71,0,0,0-12.27,0,8.81,8.81,0,0,0,0,12.32Z"/><path class="cls-1" d="M727.39,414.61a9.23,9.23,0,0,1,7.28,3.18,11.06,11.06,0,0,1,2.79,7.54c0,.11,0,.27,0,.49s0,.38,0,.49H719a8.24,8.24,0,0,0,2.75,5.53,9.39,9.39,0,0,0,10.17,1.08,7,7,0,0,0,2.77-2.69l1.79,1.06a9,9,0,0,1-3.59,3.36,11.06,11.06,0,0,1-5.3,1.24,10.47,10.47,0,0,1-7.71-3,10.31,10.31,0,0,1-3-7.65,10.47,10.47,0,0,1,3-7.61A10.15,10.15,0,0,1,727.39,414.61Zm0,2a8.18,8.18,0,0,0-5.79,2.16,8.44,8.44,0,0,0-2.65,5.59h16.39a8.38,8.38,0,0,0-2.59-5.69A7.7,7.7,0,0,0,727.39,416.57Z"/><path class="cls-1" d="M763.56,417.06h-6.08v13.25a3.91,3.91,0,0,0,.65,2.53,2.75,2.75,0,0,0,2,.88,20.35,20.35,0,0,0,3.43-.1v1.83q-4.12.61-6.14-.57t-2-4.57V417.06h-4.49v-2h4.49V410l2.08-.61v5.71h6.08Z"/><path class="cls-1" d="M776.41,414.61a9.23,9.23,0,0,1,7.28,3.18,11.06,11.06,0,0,1,2.79,7.54c0,.11,0,.27,0,.49s0,.38,0,.49H768a8.24,8.24,0,0,0,2.75,5.53,9.39,9.39,0,0,0,10.17,1.08,7,7,0,0,0,2.77-2.69l1.79,1.06a9,9,0,0,1-3.59,3.36,11.06,11.06,0,0,1-5.3,1.24,10.47,10.47,0,0,1-7.71-3,10.31,10.31,0,0,1-3-7.65,10.47,10.47,0,0,1,3-7.61A10.15,10.15,0,0,1,776.41,414.61Zm0,2a8.18,8.18,0,0,0-5.79,2.16,8.44,8.44,0,0,0-2.65,5.59h16.39a8.38,8.38,0,0,0-2.59-5.69A7.7,7.7,0,0,0,776.41,416.57Z"/><path class="cls-1" d="M793.29,419.06q1.84-4.28,6.81-4.28v2a6.78,6.78,0,0,0-4.85,1.86,7.27,7.27,0,0,0-2,5.53v11.34h-2V415.06h2Z"/><path class="cls-1" d="M820.94,415.06H823v20.39h-2.08v-4.61a9.62,9.62,0,0,1-3.59,3.71,10,10,0,0,1-5.18,1.35,10.64,10.64,0,0,1,0-21.29,10,10,0,0,1,5.18,1.35,9.62,9.62,0,0,1,3.59,3.71ZM806.2,431.41a8.69,8.69,0,0,0,12.25,0,8.87,8.87,0,0,0,0-12.32,8.69,8.69,0,0,0-12.25,0,8.81,8.81,0,0,0,0,12.32Z"/><path class="cls-1" d="M840.11,414.61a10.64,10.64,0,0,1,0,21.29,9.88,9.88,0,0,1-5.2-1.39,9.49,9.49,0,0,1-3.57-3.79v12.89h-2V415.06h2v4.73a9.5,9.5,0,0,1,3.57-3.79A9.89,9.89,0,0,1,840.11,414.61Zm-6.26,16.8a8.71,8.71,0,0,0,12.27,0,8.81,8.81,0,0,0,0-12.32,8.71,8.71,0,0,0-12.27,0,8.81,8.81,0,0,0,0,12.32Z"/><path class="cls-1" d="M857.76,409.66a1.63,1.63,0,0,1-2.28,0,1.55,1.55,0,0,1-.49-1.16,1.5,1.5,0,0,1,.49-1.12,1.63,1.63,0,0,1,2.28,0,1.5,1.5,0,0,1,.49,1.12A1.55,1.55,0,0,1,857.76,409.66Zm-2.16,25.79V415.06h2v20.39Z"/><path class="cls-1" d="M881.86,415.06h2.08v20.39h-2.08v-4.61a9.62,9.62,0,0,1-3.59,3.71,10,10,0,0,1-5.18,1.35,10.64,10.64,0,0,1,0-21.29,10,10,0,0,1,5.18,1.35,9.62,9.62,0,0,1,3.59,3.71Zm-14.74,16.35a8.69,8.69,0,0,0,12.25,0,8.87,8.87,0,0,0,0-12.32,8.69,8.69,0,0,0-12.25,0,8.81,8.81,0,0,0,0,12.32Z"/><path class="cls-3" d="M57.8,549.52V522h3.88l8.81,13.91a77.82,77.82,0,0,1,4.94,8.93l.08,0c-.33-3.67-.41-7-.41-11.3V522h3.34v27.49H74.85l-8.73-13.95A87.19,87.19,0,0,1,61,526.39l-.12,0c.2,3.47.29,6.77.29,11.34v11.75Z"/><path class="cls-3" d="M101,544.14c0,2,0,3.83.16,5.38H98l-.2-3.22h-.08A7.43,7.43,0,0,1,91.2,550c-3.1,0-6.81-1.71-6.81-8.65V529.78H88v10.93c0,3.75,1.14,6.28,4.41,6.28a5.19,5.19,0,0,0,4.73-3.26,5.25,5.25,0,0,0,.33-1.84V529.78H101Z"/><path class="cls-3" d="M109,540.3c.08,4.85,3.18,6.85,6.77,6.85a13,13,0,0,0,5.46-1l.61,2.57a16,16,0,0,1-6.57,1.22c-6.08,0-9.71-4-9.71-10s3.51-10.65,9.26-10.65c6.44,0,8.16,5.67,8.16,9.3a13.69,13.69,0,0,1-.12,1.67Zm10.52-2.57c0-2.28-.94-5.83-5-5.83-3.63,0-5.22,3.34-5.51,5.83Z"/><path class="cls-3" d="M128.8,529.78l3.88,11.09a50.92,50.92,0,0,1,1.59,5.06h.12c.45-1.63,1-3.26,1.67-5.06l3.83-11.09h3.75l-7.75,19.74h-3.43L125,529.78Z"/><path class="cls-3" d="M157.8,549.52l-.29-2.49h-.12a7.35,7.35,0,0,1-6,2.94,5.62,5.62,0,0,1-6-5.67c0-4.77,4.24-7.38,11.87-7.34v-.41c0-1.63-.45-4.57-4.49-4.57a9.83,9.83,0,0,0-5.14,1.47l-.82-2.37a12.25,12.25,0,0,1,6.48-1.75c6,0,7.5,4.12,7.5,8.08v7.38a27.85,27.85,0,0,0,.33,4.73Zm-.53-10.07c-3.92-.08-8.36.61-8.36,4.45a3.18,3.18,0,0,0,3.39,3.43,4.91,4.91,0,0,0,4.77-3.3,3.73,3.73,0,0,0,.2-1.14Z"/><path class="cls-3" d="M174.68,545.85a9.41,9.41,0,0,0,4.73,1.43c2.61,0,3.83-1.3,3.83-2.94s-1-2.65-3.67-3.63c-3.55-1.26-5.22-3.22-5.22-5.59,0-3.18,2.57-5.79,6.81-5.79a9.86,9.86,0,0,1,4.85,1.22l-.9,2.61a7.69,7.69,0,0,0-4-1.14c-2.12,0-3.3,1.22-3.3,2.69,0,1.63,1.18,2.37,3.75,3.34,3.43,1.31,5.18,3,5.18,6,0,3.47-2.69,5.91-7.38,5.91a11.26,11.26,0,0,1-5.55-1.35Z"/><path class="cls-3" d="M193.31,540.3c.08,4.85,3.18,6.85,6.77,6.85a13,13,0,0,0,5.46-1l.61,2.57a16,16,0,0,1-6.57,1.22c-6.08,0-9.71-4-9.71-10s3.51-10.65,9.26-10.65c6.44,0,8.16,5.67,8.16,9.3a13.69,13.69,0,0,1-.12,1.67Zm10.52-2.57c0-2.28-.94-5.83-5-5.83-3.63,0-5.22,3.34-5.51,5.83Z"/><path class="cls-3" d="M211.26,545.85a9.41,9.41,0,0,0,4.73,1.43c2.61,0,3.83-1.3,3.83-2.94s-1-2.65-3.67-3.63c-3.55-1.26-5.22-3.22-5.22-5.59,0-3.18,2.57-5.79,6.81-5.79a9.86,9.86,0,0,1,4.85,1.22l-.9,2.61a7.69,7.69,0,0,0-4-1.14c-2.12,0-3.3,1.22-3.3,2.69,0,1.63,1.18,2.37,3.75,3.34,3.43,1.31,5.18,3,5.18,6,0,3.47-2.69,5.91-7.38,5.91a11.26,11.26,0,0,1-5.55-1.35Z"/><path class="cls-3" d="M231.89,524.23a2.22,2.22,0,0,1-4.45,0,2.19,2.19,0,0,1,2.24-2.24A2.13,2.13,0,0,1,231.89,524.23Zm-4,25.29V529.78h3.59v19.74Z"/><path class="cls-3" d="M255.3,539.49c0,7.3-5.06,10.48-9.83,10.48-5.34,0-9.46-3.92-9.46-10.16,0-6.61,4.32-10.48,9.79-10.48C251.47,529.33,255.3,533.45,255.3,539.49Zm-15.66.2c0,4.32,2.49,7.59,6,7.59s6-3.22,6-7.67c0-3.34-1.67-7.59-5.91-7.59S239.64,535.94,239.64,539.69ZM251,521.25l-5,5.83h-2.57l3.59-5.83Z"/><path class="cls-3" d="M259.83,535.12c0-2,0-3.71-.16-5.34h3.18L263,533h.08a7.26,7.26,0,0,1,6.53-3.71c2.73,0,7,1.63,7,8.4v11.79H273V538.14c0-3.18-1.18-5.83-4.57-5.83a5.1,5.1,0,0,0-4.81,3.67,5.16,5.16,0,0,0-.25,1.67v11.87h-3.59Z"/><path class="cls-3" d="M77,683.17a17.6,17.6,0,0,1-7.26,1.31c-7.75,0-13.58-4.89-13.58-13.91,0-8.61,5.83-14.44,14.36-14.44a14.74,14.74,0,0,1,6.53,1.22l-.86,2.9a12.93,12.93,0,0,0-5.55-1.14c-6.44,0-10.73,4.12-10.73,11.34,0,6.73,3.88,11.05,10.56,11.05a14.2,14.2,0,0,0,5.79-1.14Z"/><path class="cls-3" d="M92,684.06l-.29-2.49h-.12a7.35,7.35,0,0,1-6,2.94,5.62,5.62,0,0,1-6-5.67c0-4.77,4.24-7.38,11.87-7.34v-.41c0-1.63-.45-4.57-4.49-4.57A9.83,9.83,0,0,0,81.74,668l-.82-2.37a12.25,12.25,0,0,1,6.48-1.75c6,0,7.5,4.12,7.5,8.08v7.38a27.85,27.85,0,0,0,.33,4.73ZM91.45,674c-3.92-.08-8.36.61-8.36,4.45a3.18,3.18,0,0,0,3.39,3.43,4.91,4.91,0,0,0,4.77-3.3,3.73,3.73,0,0,0,.2-1.14Z"/><path class="cls-3" d="M100.7,655.11h3.59v29H100.7Z"/><path class="cls-3" d="M114.33,658.78a2.22,2.22,0,0,1-4.45,0,2.19,2.19,0,0,1,2.24-2.24A2.13,2.13,0,0,1,114.33,658.78Zm-4,25.29V664.32h3.59v19.74Z"/><path class="cls-3" d="M119.71,684.06c.08-1.35.16-3.34.16-5.1V655.11h3.55v12.4h.08a7.35,7.35,0,0,1,6.73-3.63c4.89,0,8.36,4.08,8.32,10.07,0,7.06-4.45,10.56-8.85,10.56a7,7,0,0,1-6.61-3.71H123l-.16,3.26Zm3.71-7.91a6.68,6.68,0,0,0,.16,1.3,5.54,5.54,0,0,0,5.38,4.2c3.75,0,6-3.06,6-7.59,0-4-2-7.34-5.87-7.34a5.72,5.72,0,0,0-5.47,4.41,7.09,7.09,0,0,0-.2,1.47Z"/><path class="cls-3" d="M143.07,670.48c0-2.32,0-4.32-.16-6.16h3.14l.12,3.87h.16a5.92,5.92,0,0,1,5.47-4.32,3.86,3.86,0,0,1,1,.12v3.38a5.42,5.42,0,0,0-1.22-.12c-2.53,0-4.32,1.92-4.81,4.61a10.06,10.06,0,0,0-.16,1.67v10.52h-3.55Z"/><path class="cls-3" d="M167.14,684.06l-.29-2.49h-.12a7.35,7.35,0,0,1-6,2.94,5.62,5.62,0,0,1-6-5.67c0-4.77,4.24-7.38,11.87-7.34v-.41c0-1.63-.45-4.57-4.49-4.57A9.83,9.83,0,0,0,156.9,668l-.82-2.37a12.25,12.25,0,0,1,6.48-1.75c6,0,7.5,4.12,7.5,8.08v7.38a27.85,27.85,0,0,0,.33,4.73ZM166.61,674c-3.92-.08-8.36.61-8.36,4.45a3.18,3.18,0,0,0,3.39,3.43,4.91,4.91,0,0,0,4.77-3.3,3.73,3.73,0,0,0,.2-1.14Z"/><path class="cls-3" d="M189.93,683.33a13.21,13.21,0,0,1-5.67,1.14c-6,0-9.83-4-9.83-10.07s4.16-10.48,10.6-10.48a12,12,0,0,1,5,1l-.82,2.77a8.32,8.32,0,0,0-4.16-.94c-4.53,0-7,3.34-7,7.46,0,4.57,2.94,7.38,6.85,7.38a10.21,10.21,0,0,0,4.41-1Z"/><path class="cls-3" d="M198.13,658.78a2.22,2.22,0,0,1-4.45,0,2.19,2.19,0,0,1,2.24-2.24A2.13,2.13,0,0,1,198.13,658.78Zm-4,25.29V664.32h3.59v19.74Z"/><path class="cls-3" d="M221.54,674c0,7.3-5.06,10.48-9.83,10.48-5.34,0-9.46-3.92-9.46-10.16,0-6.61,4.32-10.48,9.79-10.48C217.7,663.87,221.54,668,221.54,674Zm-15.66.2c0,4.32,2.49,7.59,6,7.59s6-3.22,6-7.67c0-3.34-1.67-7.59-5.91-7.59S205.87,670.48,205.87,674.23Zm11.38-18.44-5,5.83h-2.57l3.59-5.83Z"/><path class="cls-3" d="M226.06,669.67c0-2,0-3.71-.16-5.34h3.18l.2,3.26h.08a7.26,7.26,0,0,1,6.53-3.71c2.73,0,7,1.63,7,8.4v11.79h-3.59V672.68c0-3.18-1.18-5.83-4.57-5.83a5.1,5.1,0,0,0-4.81,3.67,5.16,5.16,0,0,0-.25,1.67v11.87h-3.59Z"/><path class="cls-3" d="M63,794.14H54.66v-3H75v3h-8.4v24.47H63Z"/><path class="cls-3" d="M77.05,809.39c.08,4.85,3.18,6.85,6.77,6.85a13,13,0,0,0,5.47-1l.61,2.57A16,16,0,0,1,83.33,819c-6.08,0-9.71-4-9.71-10s3.51-10.65,9.26-10.65c6.44,0,8.16,5.67,8.16,9.3a13.69,13.69,0,0,1-.12,1.67Zm10.52-2.57c0-2.28-.94-5.83-5-5.83-3.63,0-5.22,3.34-5.51,5.83Z"/><path class="cls-3" d="M95.48,805c0-2.32,0-4.32-.16-6.16h3.14l.12,3.87h.16a5.92,5.92,0,0,1,5.47-4.32,3.86,3.86,0,0,1,1,.12v3.38a5.42,5.42,0,0,0-1.22-.12c-2.53,0-4.32,1.92-4.81,4.61a10.06,10.06,0,0,0-.16,1.67v10.52H95.48Z"/><path class="cls-3" d="M119.55,818.61l-.29-2.49h-.12a7.35,7.35,0,0,1-6,2.94,5.62,5.62,0,0,1-6-5.67c0-4.77,4.24-7.38,11.87-7.34v-.41c0-1.63-.45-4.57-4.49-4.57a9.83,9.83,0,0,0-5.14,1.47l-.82-2.37a12.25,12.25,0,0,1,6.48-1.75c6,0,7.5,4.12,7.5,8.08v7.38a27.85,27.85,0,0,0,.33,4.73ZM119,808.53c-3.92-.08-8.36.61-8.36,4.45A3.18,3.18,0,0,0,114,816.4a4.91,4.91,0,0,0,4.77-3.3A3.73,3.73,0,0,0,119,812Z"/><path class="cls-3" d="M128.27,805.31c0-2.53-.08-4.57-.16-6.44h3.22l.16,3.38h.08a7.76,7.76,0,0,1,7-3.83c4.77,0,8.36,4,8.36,10,0,7.1-4.32,10.6-9,10.6a6.92,6.92,0,0,1-6.08-3.1h-.08v10.73h-3.55Zm3.55,5.26A8,8,0,0,0,132,812a5.54,5.54,0,0,0,5.38,4.2c3.79,0,6-3.1,6-7.63,0-4-2.08-7.34-5.87-7.34a5.73,5.73,0,0,0-5.42,4.45,5.84,5.84,0,0,0-.24,1.47Z"/><path class="cls-3" d="M155.47,793.32a2.22,2.22,0,0,1-4.45,0,2.19,2.19,0,0,1,2.24-2.24A2.13,2.13,0,0,1,155.47,793.32Zm-4,25.29V798.87h3.59v19.74Z"/><path class="cls-3" d="M171.95,818.61l-.29-2.49h-.12a7.35,7.35,0,0,1-6,2.94,5.62,5.62,0,0,1-6-5.67c0-4.77,4.24-7.38,11.87-7.34v-.41c0-1.63-.45-4.57-4.49-4.57a9.83,9.83,0,0,0-5.14,1.47l-.82-2.37a12.25,12.25,0,0,1,6.48-1.75c6,0,7.5,4.12,7.5,8.08v7.38a27.85,27.85,0,0,0,.33,4.73Zm-.53-10.07c-3.92-.08-8.36.61-8.36,4.45a3.18,3.18,0,0,0,3.39,3.43,4.91,4.91,0,0,0,4.77-3.3,3.73,3.73,0,0,0,.2-1.14Z"/><path class="cls-1" d="M621,204.22V210h-25.4v75h-6.23V210H564v-5.77Z"/><path class="cls-1" d="M648.17,226q12.7,0,20.61,9a31.31,31.31,0,0,1,7.91,21.36c0,.31,0,.77-.06,1.39s-.06,1.08-.06,1.39h-52.3a23.33,23.33,0,0,0,7.79,15.64,26.59,26.59,0,0,0,28.8,3.06,19.7,19.7,0,0,0,7.85-7.62l5.08,3a25.55,25.55,0,0,1-10.16,9.52,31.32,31.32,0,0,1-15,3.52q-13.28,0-21.82-8.49t-8.54-21.65q0-12.93,8.37-21.53T648.17,226Zm0,5.54a23.15,23.15,0,0,0-16.39,6.12,23.87,23.87,0,0,0-7.5,15.82h46.41q-.93-10.27-7.33-16.1A21.81,21.81,0,0,0,648.17,231.58Z"/><path class="cls-1" d="M696,238.63q5.2-12.12,19.28-12.12V232a19.2,19.2,0,0,0-13.74,5.25Q696,242.55,696,252.94V285h-5.77V227.31H696Z"/><path class="cls-1" d="M774.23,227.31h5.89V285h-5.89V272a27.21,27.21,0,0,1-10.16,10.51,28.34,28.34,0,0,1-14.66,3.81,30.13,30.13,0,0,1,0-60.26,28.34,28.34,0,0,1,14.66,3.81,27.23,27.23,0,0,1,10.16,10.51ZM732.5,273.61a24.6,24.6,0,0,0,34.69,0,25.1,25.1,0,0,0,0-34.86,24.6,24.6,0,0,0-34.69,0,24.95,24.95,0,0,0,0,34.86Z"/><path class="cls-1" d="M828.49,226a30.29,30.29,0,0,1,21.18,51.55,28.84,28.84,0,0,1-21.18,8.72,28,28,0,0,1-14.72-3.93,26.85,26.85,0,0,1-10.1-10.74v36.48H797.9V227.31h5.77V240.7A26.88,26.88,0,0,1,813.77,230,28,28,0,0,1,828.49,226Zm-17.72,47.56a24.67,24.67,0,0,0,34.75,0,25,25,0,0,0,0-34.86,24.67,24.67,0,0,0-34.75,0,24.95,24.95,0,0,0,0,34.86Z"/><path class="cls-1" d="M878.48,212a4.6,4.6,0,0,1-6.46,0,4.37,4.37,0,0,1-1.39-3.29,4.25,4.25,0,0,1,1.39-3.17,4.6,4.6,0,0,1,6.46,0,4.25,4.25,0,0,1,1.39,3.17A4.37,4.37,0,0,1,878.48,212Zm-6.12,73V227.31h5.77V285Z"/><path class="cls-1" d="M946.71,227.31h5.89V285h-5.89V272a27.21,27.21,0,0,1-10.16,10.51,28.34,28.34,0,0,1-14.66,3.81,30.13,30.13,0,0,1,0-60.26,28.34,28.34,0,0,1,14.66,3.81,27.23,27.23,0,0,1,10.16,10.51ZM905,273.61a24.6,24.6,0,0,0,34.69,0,25.1,25.1,0,0,0,0-34.86,24.6,24.6,0,0,0-34.69,0,24.95,24.95,0,0,0,0,34.86Z"/><path class="cls-4" d="M1678,276.4a14.39,14.39,0,0,1-6.95-1.62,9.59,9.59,0,0,1-4.35-4.7l2.43-1.46q2,5,8.86,5a10,10,0,0,0,6.73-2.14,7.54,7.54,0,0,0,2.51-6.08V238h2.92v27.46a10,10,0,0,1-3.43,8.11A13.16,13.16,0,0,1,1678,276.4Z"/><path class="cls-4" d="M1717.88,248.78h2.7v27h-2.7v-5.13q-2.92,5.73-9.68,5.73a10.12,10.12,0,0,1-7.65-2.95,10.86,10.86,0,0,1-2.84-7.86V248.78h2.76v16.81a8.41,8.41,0,0,0,2.08,6,7.65,7.65,0,0,0,5.86,2.22,9,9,0,0,0,6.81-2.76q2.65-2.76,2.65-8Z"/><path class="cls-4" d="M1728.9,275.8V236.35h2.7V275.8Z"/><path class="cls-4" d="M1742.79,241.62a2.15,2.15,0,0,1-3,0,2,2,0,0,1-.65-1.54,2,2,0,0,1,.65-1.49,2.15,2.15,0,0,1,3,0,2,2,0,0,1,.65,1.49A2,2,0,0,1,1742.79,241.62Zm-2.86,34.19v-27h2.7v27Z"/><path class="cls-4" d="M1763.33,276.4a13.81,13.81,0,0,1-10.08-4.08,14.22,14.22,0,0,1,0-20.05,14.42,14.42,0,0,1,20.11,0,14.22,14.22,0,0,1,0,20.05A13.74,13.74,0,0,1,1763.33,276.4Zm-8.13-5.95a11.52,11.52,0,0,0,16.24,0,11.75,11.75,0,0,0,0-16.32,11.52,11.52,0,0,0-16.24,0,11.68,11.68,0,0,0,0,16.32Z"/><path class="cls-4" d="M1816.46,276.4a19.51,19.51,0,1,1,9.51-36.56,17.54,17.54,0,0,1,6.7,6.62l-2.54,1.46a14.34,14.34,0,0,0-5.57-5.65,15.85,15.85,0,0,0-8.11-2.14,16.17,16.17,0,0,0-12.08,4.84,17.38,17.38,0,0,0,0,23.84,16.16,16.16,0,0,0,12.08,4.84,16,16,0,0,0,8.16-2.16,14.22,14.22,0,0,0,5.62-5.78l2.54,1.46a17.3,17.3,0,0,1-6.7,6.73A19,19,0,0,1,1816.46,276.4Z"/><path class="cls-4" d="M1851.11,276.4a13.81,13.81,0,0,1-10.08-4.08,14.22,14.22,0,0,1,0-20.05,14.42,14.42,0,0,1,20.11,0,14.22,14.22,0,0,1,0,20.05A13.74,13.74,0,0,1,1851.11,276.4Zm-8.13-5.95a11.52,11.52,0,0,0,16.24,0,11.75,11.75,0,0,0,0-16.32,11.52,11.52,0,0,0-16.24,0,11.68,11.68,0,0,0,0,16.32Z"/><path class="cls-4" d="M1874.46,254.08q2.43-5.68,9-5.68V251a9,9,0,0,0-6.43,2.46q-2.59,2.46-2.59,7.32v15h-2.7v-27h2.7Z"/><path class="cls-4" d="M1903.16,251.43h-8.05V269a5.19,5.19,0,0,0,.86,3.35,3.65,3.65,0,0,0,2.65,1.16,27.05,27.05,0,0,0,4.54-.13v2.43q-5.46.81-8.13-.76t-2.68-6.05V251.43h-5.95v-2.65h5.95V242l2.76-.81v7.57h8.05Z"/><path class="cls-4" d="M1931.8,248.78h2.76v27h-2.76V269.7a12.74,12.74,0,0,1-4.76,4.92,13.27,13.27,0,0,1-6.86,1.78,14.11,14.11,0,0,1,0-28.21A13.27,13.27,0,0,1,1927,250a12.74,12.74,0,0,1,4.76,4.92Zm-19.54,21.67a11.52,11.52,0,0,0,16.24,0,11.75,11.75,0,0,0,0-16.32,11.52,11.52,0,0,0-16.24,0,11.68,11.68,0,0,0,0,16.32Z"/><path class="cls-4" d="M1945.53,273.16h16.7v2.65h-20.65V274l16.21-22.59h-15.67v-2.65h19.52v1.83Z"/><path class="cls-4" d="M1990.82,248.78h2.76v27h-2.76V269.7a12.74,12.74,0,0,1-4.76,4.92,13.27,13.27,0,0,1-6.86,1.78,14.11,14.11,0,0,1,0-28.21,13.27,13.27,0,0,1,6.86,1.78,12.74,12.74,0,0,1,4.76,4.92Zm-19.54,21.67a11.52,11.52,0,0,0,16.24,0,11.75,11.75,0,0,0,0-16.32,11.52,11.52,0,0,0-16.24,0,11.68,11.68,0,0,0,0,16.32Z"/><path class="cls-4" d="M2004.61,254.08q2.43-5.68,9-5.68V251a9,9,0,0,0-6.43,2.46q-2.59,2.46-2.59,7.32v15h-2.7v-27h2.7Z"/><path class="cls-4" d="M1573.11,608.43l-1.41-4h-9.1l-1.33,4h-4.71l7.75-22.14h5.41l7.81,22.14Zm-9.08-8.07h6.23l-3.2-9Z"/><path class="cls-4" d="M1586.59,608.87a8.35,8.35,0,1,1,0-16.7,8.19,8.19,0,0,1,4.21,1.11,7.36,7.36,0,0,1,2.88,3l-3.51,2.06a3.59,3.59,0,0,0-1.44-1.55,4.18,4.18,0,0,0-2.17-.57,4.09,4.09,0,0,0-3,1.22,4.25,4.25,0,0,0-1.2,3.12,4.21,4.21,0,0,0,1.2,3.08,4.08,4.08,0,0,0,3,1.22,4.33,4.33,0,0,0,2.2-.55,3.48,3.48,0,0,0,1.44-1.53l3.54,2a7.93,7.93,0,0,1-2.94,3A8.11,8.11,0,0,1,1586.59,608.87Z"/><path class="cls-4" d="M1604.93,596.53h-3.58v6.58a1.56,1.56,0,0,0,.41,1.2,1.88,1.88,0,0,0,1.2.43,17.38,17.38,0,0,0,2,0v3.7q-4.21.47-5.93-.79t-1.72-4.52v-6.58h-2.75v-3.92h2.75v-3.2l4.08-1.23v4.43h3.58Z"/><path class="cls-4" d="M1609.84,590.71a2.54,2.54,0,0,1-2.5-2.5,2.46,2.46,0,0,1,.74-1.77,2.37,2.37,0,0,1,1.75-.76,2.41,2.41,0,0,1,1.79.76,2.46,2.46,0,0,1,.74,1.77,2.4,2.4,0,0,1-.74,1.75A2.44,2.44,0,0,1,1609.84,590.71Zm-2,17.71V592.61h4.08v15.82Z"/><path class="cls-4" d="M1626,592.61h4.49l-6,15.82h-4.65l-6-15.82h4.49l3.83,11.07Z"/><path class="cls-4" d="M1634.51,590.71a2.54,2.54,0,0,1-2.5-2.5,2.46,2.46,0,0,1,.74-1.77,2.37,2.37,0,0,1,1.75-.76,2.41,2.41,0,0,1,1.79.76,2.46,2.46,0,0,1,.74,1.77,2.4,2.4,0,0,1-.74,1.75A2.44,2.44,0,0,1,1634.51,590.71Zm-2,17.71V592.61h4.08v15.82Z"/><path class="cls-4" d="M1652.29,586.28h4.08v22.14h-4.08v-1.87a6.12,6.12,0,0,1-5.12,2.31,7.2,7.2,0,0,1-5.46-2.42,8.91,8.91,0,0,1,0-11.86,7.2,7.2,0,0,1,5.46-2.42,6.12,6.12,0,0,1,5.13,2.31Zm-7.51,17.45a4.27,4.27,0,0,0,3.15,1.25,4.21,4.21,0,0,0,3.13-1.25,4.79,4.79,0,0,0,0-6.42,4.21,4.21,0,0,0-3.13-1.25,4.27,4.27,0,0,0-3.15,1.25,4.75,4.75,0,0,0,0,6.42Z"/><path class="cls-4" d="M1672.12,592.61h4.08v15.82h-4.08v-1.87a6.21,6.21,0,0,1-5.16,2.31,7.17,7.17,0,0,1-5.43-2.42,8.91,8.91,0,0,1,0-11.86,7.17,7.17,0,0,1,5.43-2.42,6.21,6.21,0,0,1,5.16,2.31Zm-7.53,11.12a4.21,4.21,0,0,0,3.13,1.25,4.27,4.27,0,0,0,3.15-1.25,4.75,4.75,0,0,0,0-6.42,4.27,4.27,0,0,0-3.15-1.25,4.21,4.21,0,0,0-3.13,1.25,4.8,4.8,0,0,0,0,6.42Z"/><path class="cls-4" d="M1691.9,586.28H1696v22.14h-4.08v-1.87a6.12,6.12,0,0,1-5.12,2.31,7.2,7.2,0,0,1-5.46-2.42,8.91,8.91,0,0,1,0-11.86,7.2,7.2,0,0,1,5.46-2.42,6.12,6.12,0,0,1,5.13,2.31Zm-7.51,17.45a4.27,4.27,0,0,0,3.15,1.25,4.21,4.21,0,0,0,3.13-1.25,4.79,4.79,0,0,0,0-6.42,4.21,4.21,0,0,0-3.13-1.25,4.27,4.27,0,0,0-3.15,1.25,4.75,4.75,0,0,0,0,6.42Z"/><path class="cls-5" d="M1915,586.28a6.71,6.71,0,0,1,6.9,6.87,6.6,6.6,0,0,1-2,4.89A6.72,6.72,0,0,1,1915,600h-5.85v8.45h-1.68V586.28Zm0,12.12a5,5,0,0,0,3.75-1.49,5.59,5.59,0,0,0,0-7.56,5,5,0,0,0-3.75-1.49h-5.85V598.4Z"/><path class="cls-5" d="M1927,595.71a5.25,5.25,0,0,1,5.28-3.32v1.52a5.26,5.26,0,0,0-3.76,1.44,5.64,5.64,0,0,0-1.52,4.29v8.79h-1.58V592.61H1927Z"/><path class="cls-5" d="M1941.68,592.26a7.16,7.16,0,0,1,5.65,2.47,8.58,8.58,0,0,1,2.17,5.85c0,.08,0,.21,0,.38s0,.3,0,.38h-14.33a6.4,6.4,0,0,0,2.14,4.29,7.28,7.28,0,0,0,7.89.84,5.4,5.4,0,0,0,2.15-2.09l1.39.82a7,7,0,0,1-2.78,2.61,8.59,8.59,0,0,1-4.11,1,8.13,8.13,0,0,1-6-2.33,8,8,0,0,1-2.34-5.93,8.12,8.12,0,0,1,2.29-5.9A7.87,7.87,0,0,1,1941.68,592.26Zm0,1.52a6.34,6.34,0,0,0-4.49,1.68,6.55,6.55,0,0,0-2.06,4.33h12.72a6.5,6.5,0,0,0-2-4.41A6,6,0,0,0,1941.68,593.78Z"/><path class="cls-5" d="M1961.58,592.26a8.26,8.26,0,0,1,0,16.51,7.66,7.66,0,0,1-4-1.08,7.36,7.36,0,0,1-2.77-2.94v10h-1.58V592.61h1.58v3.67a7.36,7.36,0,0,1,2.77-2.94A7.67,7.67,0,0,1,1961.58,592.26Zm-4.86,13a6.76,6.76,0,0,0,9.52,0,6.84,6.84,0,0,0,0-9.55,6.76,6.76,0,0,0-9.52,0,6.84,6.84,0,0,0,0,9.55Z"/><path class="cls-5" d="M1987.52,592.61h1.61v15.82h-1.61v-3.57a7.47,7.47,0,0,1-2.78,2.88,7.77,7.77,0,0,1-4,1,8.26,8.26,0,0,1,0-16.51,7.76,7.76,0,0,1,4,1,7.47,7.47,0,0,1,2.78,2.88Zm-11.44,12.69a6.74,6.74,0,0,0,9.51,0,6.88,6.88,0,0,0,0-9.55,6.74,6.74,0,0,0-9.51,0,6.84,6.84,0,0,0,0,9.55Z"/><path class="cls-5" d="M1995.59,595.71a5.25,5.25,0,0,1,5.28-3.32v1.52a5.26,5.26,0,0,0-3.76,1.44,5.64,5.64,0,0,0-1.52,4.29v8.79H1994V592.61h1.58Z"/><path class="cls-5" d="M2017,592.61h1.61v15.82H2017v-3.57a7.47,7.47,0,0,1-2.78,2.88,7.77,7.77,0,0,1-4,1,8.26,8.26,0,0,1,0-16.51,7.76,7.76,0,0,1,4,1,7.47,7.47,0,0,1,2.78,2.88ZM2005.6,605.3a6.74,6.74,0,0,0,9.51,0,6.88,6.88,0,0,0,0-9.55,6.74,6.74,0,0,0-9.51,0,6.84,6.84,0,0,0,0,9.55Z"/><path class="cls-5" d="M2025.1,595.71a5.25,5.25,0,0,1,5.28-3.32v1.52a5.26,5.26,0,0,0-3.76,1.44,5.64,5.64,0,0,0-1.52,4.29v8.79h-1.58V592.61h1.58Z"/><path class="cls-5" d="M2049.15,592.26a7.16,7.16,0,0,1,5.65,2.47,8.58,8.58,0,0,1,2.17,5.85c0,.08,0,.21,0,.38s0,.3,0,.38H2042.6a6.4,6.4,0,0,0,2.14,4.29,7.28,7.28,0,0,0,7.89.84,5.4,5.4,0,0,0,2.15-2.09l1.39.82a7,7,0,0,1-2.78,2.61,8.59,8.59,0,0,1-4.11,1,8.13,8.13,0,0,1-6-2.33,8,8,0,0,1-2.34-5.93,8.12,8.12,0,0,1,2.29-5.9A7.87,7.87,0,0,1,2049.15,592.26Zm0,1.52a6.34,6.34,0,0,0-4.49,1.68,6.55,6.55,0,0,0-2.06,4.33h12.72a6.5,6.5,0,0,0-2-4.41A6,6,0,0,0,2049.15,593.78Z"/><path class="cls-5" d="M2060.66,608.43V585.34h1.58v23.09Z"/><path class="cls-5" d="M2092.45,592.26a5.59,5.59,0,0,1,4.18,1.61,6.19,6.19,0,0,1,1.58,4.52v10h-1.58v-10a4.74,4.74,0,0,0-1.16-3.42,4,4,0,0,0-3.05-1.2,4.4,4.4,0,0,0-3.43,1.46,6.33,6.33,0,0,0-1.31,4.37v8.83h-1.58v-10A4.91,4.91,0,0,0,2085,595a3.8,3.8,0,0,0-3-1.2,4.64,4.64,0,0,0-3.5,1.47,6.06,6.06,0,0,0-1.41,4.35v8.83h-1.58V592.61h1.58v2.72a5.41,5.41,0,0,1,5.09-3.07,5.47,5.47,0,0,1,3,.84,4.84,4.84,0,0,1,1.9,2.39,5.66,5.66,0,0,1,2.23-2.42A6,6,0,0,1,2092.45,592.26Z"/><path class="cls-5" d="M2116.59,592.61h1.61v15.82h-1.61v-3.57a7.47,7.47,0,0,1-2.78,2.88,7.77,7.77,0,0,1-4,1,8.26,8.26,0,0,1,0-16.51,7.76,7.76,0,0,1,4,1,7.47,7.47,0,0,1,2.78,2.88Zm-11.44,12.69a6.74,6.74,0,0,0,9.51,0,6.88,6.88,0,0,0,0-9.55,6.74,6.74,0,0,0-9.51,0,6.84,6.84,0,0,0,0,9.55Z"/><path class="cls-5" d="M2131.17,594.16h-4.71v10.28a3,3,0,0,0,.51,2,2.13,2.13,0,0,0,1.55.68,15.88,15.88,0,0,0,2.66-.08v1.42q-3.19.47-4.76-.44t-1.57-3.54V594.16h-3.48v-1.55h3.48v-4l1.61-.47v4.43h4.71Z"/><path class="cls-5" d="M2141.14,592.26a7.16,7.16,0,0,1,5.65,2.47,8.58,8.58,0,0,1,2.17,5.85c0,.08,0,.21,0,.38s0,.3,0,.38h-14.33a6.4,6.4,0,0,0,2.14,4.29,7.28,7.28,0,0,0,7.89.84,5.4,5.4,0,0,0,2.15-2.09l1.39.82a7,7,0,0,1-2.78,2.61,8.59,8.59,0,0,1-4.11,1,8.13,8.13,0,0,1-6-2.33,8,8,0,0,1-2.34-5.93,8.12,8.12,0,0,1,2.29-5.9A7.87,7.87,0,0,1,2141.14,592.26Zm0,1.52a6.34,6.34,0,0,0-4.49,1.68,6.55,6.55,0,0,0-2.06,4.33h12.72a6.5,6.5,0,0,0-2-4.41A6,6,0,0,0,2141.14,593.78Z"/><path class="cls-4" d="M1580.23,501.58v22.14h-4.33V509.36l-6.24,10.27-.51,0-6.22-10.24v14.31h-4.37V501.58H1563L1569.4,512l6.32-10.46Z"/><path class="cls-4" d="M1597.63,521.75a8.44,8.44,0,1,1,2.44-5.93A8.12,8.12,0,0,1,1597.63,521.75Zm-9-2.8a4.11,4.11,0,0,0,3.05,1.23,4.17,4.17,0,0,0,3.07-1.23,4.59,4.59,0,0,0,0-6.26,4.17,4.17,0,0,0-3.07-1.23,4.11,4.11,0,0,0-3.05,1.23,4.64,4.64,0,0,0,0,6.26Z"/><path class="cls-4" d="M1614.93,501.58H1619v22.14h-4.08v-1.87a6.12,6.12,0,0,1-5.12,2.31,7.2,7.2,0,0,1-5.46-2.42,8.91,8.91,0,0,1,0-11.86,7.2,7.2,0,0,1,5.46-2.42,6.12,6.12,0,0,1,5.13,2.31ZM1607.42,519a4.27,4.27,0,0,0,3.15,1.25,4.21,4.21,0,0,0,3.13-1.25,4.79,4.79,0,0,0,0-6.42,4.21,4.21,0,0,0-3.13-1.25,4.27,4.27,0,0,0-3.15,1.25,4.75,4.75,0,0,0,0,6.42Z"/><path class="cls-4" d="M1636.22,521.75a8.44,8.44,0,1,1,2.44-5.93A8.12,8.12,0,0,1,1636.22,521.75Zm-9-2.8a4.11,4.11,0,0,0,3.05,1.23,4.17,4.17,0,0,0,3.07-1.23,4.59,4.59,0,0,0,0-6.26,4.17,4.17,0,0,0-3.07-1.23,4.11,4.11,0,0,0-3.05,1.23,4.64,4.64,0,0,0,0,6.26Z"/><path class="cls-5" d="M1995.87,523.72l-2.16-5.63h-11.09l-2.16,5.63h-1.77l8.6-22.14h1.77l8.57,22.14Zm-12.64-7.21h9.87l-4.94-12.87Z"/><path class="cls-5" d="M2007.48,524.07a8.26,8.26,0,1,1,4.18-15.42,6.51,6.51,0,0,1,2.72,3l-1.3.76a5.32,5.32,0,0,0-2.2-2.4,6.58,6.58,0,0,0-3.4-.89,6.46,6.46,0,0,0-4.78,1.95,6.92,6.92,0,0,0,0,9.58,6.46,6.46,0,0,0,4.78,1.95,6.58,6.58,0,0,0,3.4-.89,5.93,5.93,0,0,0,2.29-2.4l1.33.79a7.13,7.13,0,0,1-2.83,2.93A8.21,8.21,0,0,1,2007.48,524.07Z"/><path class="cls-5" d="M2026.08,509.46h-4.71v10.28a3,3,0,0,0,.51,2,2.13,2.13,0,0,0,1.55.68,15.88,15.88,0,0,0,2.66-.08v1.42q-3.19.47-4.76-.44t-1.57-3.54V509.46h-3.48V507.9h3.48v-4l1.61-.47v4.43h4.71Z"/><path class="cls-5" d="M2031.56,503.71a1.26,1.26,0,0,1-1.77,0,1.2,1.2,0,0,1-.38-.9,1.17,1.17,0,0,1,.38-.87,1.26,1.26,0,0,1,1.77,0,1.17,1.17,0,0,1,.38.87A1.2,1.2,0,0,1,2031.56,503.71Zm-1.68,20V507.9h1.58v15.82Z"/><path class="cls-5" d="M2047.94,507.9h1.68l-6.67,15.82H2041l-6.71-15.82H2036l5.94,14.18Z"/><path class="cls-5" d="M2054.18,503.71a1.26,1.26,0,0,1-1.77,0,1.2,1.2,0,0,1-.38-.9,1.17,1.17,0,0,1,.38-.87,1.26,1.26,0,0,1,1.77,0,1.17,1.17,0,0,1,.38.87A1.2,1.2,0,0,1,2054.18,503.71Zm-1.68,20V507.9h1.58v15.82Z"/><path class="cls-5" d="M2072.9,501.58h1.58v22.14h-1.58v-3.67a7.37,7.37,0,0,1-2.77,2.94,7.67,7.67,0,0,1-4,1.08,8.26,8.26,0,0,1,0-16.51,7.67,7.67,0,0,1,4,1.08,7.38,7.38,0,0,1,2.77,2.94Zm-11.47,19a6.76,6.76,0,0,0,9.52,0,6.84,6.84,0,0,0,0-9.55,6.76,6.76,0,0,0-9.52,0,6.84,6.84,0,0,0,0,9.55Z"/><path class="cls-5" d="M2093.28,507.9h1.61v15.82h-1.61v-3.57a7.47,7.47,0,0,1-2.78,2.88,7.77,7.77,0,0,1-4,1,8.26,8.26,0,0,1,0-16.51,7.76,7.76,0,0,1,4,1,7.47,7.47,0,0,1,2.78,2.88Zm-11.44,12.69a6.74,6.74,0,0,0,9.51,0,6.88,6.88,0,0,0,0-9.55,6.74,6.74,0,0,0-9.51,0,6.84,6.84,0,0,0,0,9.55Z"/><path class="cls-5" d="M2113.71,501.58h1.58v22.14h-1.58v-3.67a7.37,7.37,0,0,1-2.77,2.94,7.67,7.67,0,0,1-4,1.08,8.26,8.26,0,0,1,0-16.51,7.67,7.67,0,0,1,4,1.08,7.38,7.38,0,0,1,2.77,2.94Zm-11.47,19a6.76,6.76,0,0,0,9.52,0,6.84,6.84,0,0,0,0-9.55,6.76,6.76,0,0,0-9.52,0,6.84,6.84,0,0,0,0,9.55Z"/><path class="cls-5" d="M2127.28,507.56a7.16,7.16,0,0,1,5.65,2.47,8.58,8.58,0,0,1,2.17,5.85c0,.08,0,.21,0,.38s0,.3,0,.38h-14.33a6.4,6.4,0,0,0,2.14,4.29,7.28,7.28,0,0,0,7.89.84,5.4,5.4,0,0,0,2.15-2.09l1.39.82a7,7,0,0,1-2.78,2.61,8.59,8.59,0,0,1-4.11,1,8.13,8.13,0,0,1-6-2.33,8,8,0,0,1-2.34-5.93,8.12,8.12,0,0,1,2.29-5.9A7.87,7.87,0,0,1,2127.28,507.56Zm0,1.52a6.34,6.34,0,0,0-4.49,1.68,6.55,6.55,0,0,0-2.06,4.33h12.72a6.5,6.5,0,0,0-2-4.41A6,6,0,0,0,2127.28,509.08Z"/><path class="cls-5" d="M2139.24,512a2,2,0,0,0,1,1.8,8.07,8.07,0,0,0,2.4,1l2.83.75a5.1,5.1,0,0,1,2.39,1.36,3.61,3.61,0,0,1,1,2.64,4,4,0,0,1-1.57,3.23,6.32,6.32,0,0,1-4.1,1.27,7.2,7.2,0,0,1-3.84-1,5.07,5.07,0,0,1-2.17-2.55l1.36-.79a3.75,3.75,0,0,0,1.66,2,5.63,5.63,0,0,0,3,.74,5.15,5.15,0,0,0,2.93-.77,2.49,2.49,0,0,0,1.15-2.2,2.18,2.18,0,0,0-1-1.87,7.34,7.34,0,0,0-2.39-1.07l-2.83-.75a5.34,5.34,0,0,1-2.4-1.32,3.36,3.36,0,0,1-1-2.53,4.06,4.06,0,0,1,1.5-3.2,5.72,5.72,0,0,1,3.88-1.3,6.24,6.24,0,0,1,3.31.85,5.16,5.16,0,0,1,2.07,2.31l-1.33.76a3.49,3.49,0,0,0-1.58-1.79,5,5,0,0,0-2.47-.62,4.48,4.48,0,0,0-2.71.79A2.5,2.5,0,0,0,2139.24,512Z"/><path class="cls-5" d="M1570.24,436.08a14.12,14.12,0,0,1-7.91-2.1,11.23,11.23,0,0,1-4.52-5.72l5.33-3.12q1.85,4.84,7.28,4.84a6.26,6.26,0,0,0,3.84-.95,3,3,0,0,0-.27-5,23,23,0,0,0-5.33-2,32.8,32.8,0,0,1-3.59-1.27,15.45,15.45,0,0,1-2.94-1.69,6.91,6.91,0,0,1-2.24-2.69,8.79,8.79,0,0,1-.77-3.8,8.47,8.47,0,0,1,3.05-6.85,11.07,11.07,0,0,1,7.34-2.55,12.21,12.21,0,0,1,6.76,1.88,12.61,12.61,0,0,1,4.54,5.22l-5.24,3a6.32,6.32,0,0,0-6.06-4.07,4.77,4.77,0,0,0-3.05.88,2.78,2.78,0,0,0-1.11,2.28,2.88,2.88,0,0,0,1.24,2.42,17.37,17.37,0,0,0,4.77,2l2.19.7q.75.25,2,.77a12.32,12.32,0,0,1,2,1,15.71,15.71,0,0,1,1.6,1.22,6.25,6.25,0,0,1,1.38,1.58,9,9,0,0,1,.81,2,8.87,8.87,0,0,1,.34,2.51,8.48,8.48,0,0,1-3.19,7A12.78,12.78,0,0,1,1570.24,436.08Z"/><path class="cls-5" d="M1591.07,426.55q1.17,4.25,6.37,4.25a6,6,0,0,0,5.06-2.26l4.7,2.71q-3.34,4.84-9.85,4.84a12.15,12.15,0,0,1-9-3.39,11.92,11.92,0,0,1,8.54-20.47,10.78,10.78,0,0,1,8.2,3.43,11.93,11.93,0,0,1,3.23,8.5,13.67,13.67,0,0,1-.23,2.4ZM1591,422h11.52a5.47,5.47,0,0,0-2.06-3.43,5.89,5.89,0,0,0-3.55-1.13,6.14,6.14,0,0,0-3.89,1.2A5.72,5.72,0,0,0,1591,422Z"/><path class="cls-5" d="M1616.88,419.27q0,.91,1.2,1.47a15.91,15.91,0,0,0,2.92,1,30.44,30.44,0,0,1,3.43,1.08,6.67,6.67,0,0,1,2.91,2.19,6.06,6.06,0,0,1,1.2,3.84,6.21,6.21,0,0,1-2.6,5.36,10.81,10.81,0,0,1-6.49,1.88q-7,0-9.49-5.38l5.06-2.85q1,2.94,4.43,2.94,3.12,0,3.12-1.94,0-.9-1.2-1.47a17,17,0,0,0-2.92-1,30.46,30.46,0,0,1-3.43-1.13,7,7,0,0,1-2.92-2.15,5.63,5.63,0,0,1-1.2-3.68,6.31,6.31,0,0,1,2.46-5.26,9.65,9.65,0,0,1,6.12-1.92,10.24,10.24,0,0,1,5,1.24,9.1,9.1,0,0,1,3.57,3.55l-5,2.71a3.72,3.72,0,0,0-3.62-2.3,3.31,3.31,0,0,0-1.87.5A1.55,1.55,0,0,0,1616.88,419.27Z"/><path class="cls-5" d="M1635.18,410.14a3.63,3.63,0,0,1-3.57-3.57,3.5,3.5,0,0,1,1.06-2.53,3.39,3.39,0,0,1,2.51-1.08,3.45,3.45,0,0,1,2.55,1.08,3.51,3.51,0,0,1,1.06,2.53,3.43,3.43,0,0,1-1.06,2.51A3.48,3.48,0,0,1,1635.18,410.14Zm-2.89,25.31v-22.6h5.83v22.6Z"/><path class="cls-5" d="M1662.7,432.63a12.06,12.06,0,1,1,3.48-8.47A11.6,11.6,0,0,1,1662.7,432.63Zm-12.86-4a5.87,5.87,0,0,0,4.36,1.76,6,6,0,0,0,4.38-1.76,6.56,6.56,0,0,0,0-8.95,6,6,0,0,0-4.38-1.76,5.87,5.87,0,0,0-4.36,1.76,6.62,6.62,0,0,0,0,8.95Zm.75-19h5.6l5-6.19h-7Z"/><path class="cls-5" d="M1682.86,412.22a8.18,8.18,0,0,1,6.12,2.49,9.44,9.44,0,0,1,2.42,6.87v13.87h-5.83V422.3a4.63,4.63,0,0,0-1.22-3.46,4.45,4.45,0,0,0-3.25-1.2,4.8,4.8,0,0,0-3.62,1.4,5.83,5.83,0,0,0-1.36,4.2v12.2h-5.83v-22.6h5.83v2.53Q1678.25,412.22,1682.86,412.22Z"/><path class="cls-4" d="M1571.37,671h4.37v22.14h-3.32l-9.49-13.54v13.54h-4.37V671h3.32l9.49,13.49Z"/><path class="cls-4" d="M1581.68,675.42a2.54,2.54,0,0,1-2.5-2.5,2.46,2.46,0,0,1,.74-1.77,2.37,2.37,0,0,1,1.75-.76,2.41,2.41,0,0,1,1.79.76,2.46,2.46,0,0,1,.74,1.77,2.4,2.4,0,0,1-.74,1.75A2.44,2.44,0,0,1,1581.68,675.42Zm-2,17.71V677.32h4.08v15.82Z"/><path class="cls-4" d="M1597.88,677.32h4.49l-6,15.82h-4.65l-6-15.82h4.49l3.83,11.07Z"/><path class="cls-4" d="M1607.15,686.9q.82,3,4.46,3a4.17,4.17,0,0,0,3.54-1.58l3.29,1.9a7.85,7.85,0,0,1-6.9,3.38,8.51,8.51,0,0,1-6.29-2.37,8.35,8.35,0,0,1,6-14.33,7.55,7.55,0,0,1,5.74,2.4,8.35,8.35,0,0,1,2.26,5.95,9.56,9.56,0,0,1-.16,1.68Zm-.06-3.16h8.07a3.83,3.83,0,0,0-1.44-2.4,4.13,4.13,0,0,0-2.48-.79,4.29,4.29,0,0,0-2.72.84A4,4,0,0,0,1607.08,683.74Z"/><path class="cls-4" d="M1622.08,693.13V670h4.08v23.09Z"/><path class="cls-5" d="M2070.44,671h1.68v22.14h-1.68Z"/><path class="cls-5" d="M2084.54,677a5.93,5.93,0,0,1,4.48,1.72,6.36,6.36,0,0,1,1.66,4.6v9.84h-1.61V683.3a4.93,4.93,0,0,0-1.22-3.51,4.48,4.48,0,0,0-3.43-1.3,5.29,5.29,0,0,0-4,1.61,6.5,6.5,0,0,0-1.55,4.68v8.35h-1.58V677.32h1.58v3A5.88,5.88,0,0,1,2084.54,677Z"/><path class="cls-5" d="M2096.82,673.12a1.26,1.26,0,0,1-1.77,0,1.2,1.2,0,0,1-.38-.9,1.17,1.17,0,0,1,.38-.87,1.26,1.26,0,0,1,1.77,0,1.17,1.17,0,0,1,.38.87A1.2,1.2,0,0,1,2096.82,673.12Zm-1.68,20V677.32h1.58v15.82Z"/><path class="cls-5" d="M2108.84,693.48a8.26,8.26,0,1,1,4.18-15.42,6.51,6.51,0,0,1,2.72,3l-1.3.76a5.32,5.32,0,0,0-2.2-2.4,6.58,6.58,0,0,0-3.4-.89,6.46,6.46,0,0,0-4.78,1.95,6.92,6.92,0,0,0,0,9.58,6.46,6.46,0,0,0,4.78,1.95,6.58,6.58,0,0,0,3.4-.89,5.93,5.93,0,0,0,2.29-2.4l1.33.79a7.13,7.13,0,0,1-2.83,2.93A8.21,8.21,0,0,1,2108.84,693.48Z"/><path class="cls-5" d="M2121,673.12a1.26,1.26,0,0,1-1.77,0,1.2,1.2,0,0,1-.38-.9,1.17,1.17,0,0,1,.38-.87,1.26,1.26,0,0,1,1.77,0,1.17,1.17,0,0,1,.38.87A1.2,1.2,0,0,1,2121,673.12Zm-1.68,20V677.32h1.58v15.82Z"/><path class="cls-5" d="M2139.71,677.32h1.61v15.82h-1.61v-3.57a7.47,7.47,0,0,1-2.78,2.88,7.77,7.77,0,0,1-4,1,8.26,8.26,0,0,1,0-16.51,7.76,7.76,0,0,1,4,1,7.47,7.47,0,0,1,2.78,2.88ZM2128.28,690a6.74,6.74,0,0,0,9.51,0,6.88,6.88,0,0,0,0-9.55,6.74,6.74,0,0,0-9.51,0,6.84,6.84,0,0,0,0,9.55Z"/><path class="cls-5" d="M2146.2,693.13V670h1.58v23.09Z"/><path class="cls-4" d="M1569.06,915.36a11.07,11.07,0,0,1-8.26-3.32,11.95,11.95,0,0,1,0-16.4,11.1,11.1,0,0,1,8.26-3.31,11.3,11.3,0,0,1,5.55,1.41,10.32,10.32,0,0,1,4,3.81l-3.76,2.18a5.85,5.85,0,0,0-2.34-2.33,7.58,7.58,0,0,0-8.62,1.19,7.92,7.92,0,0,0,0,10.47,6.94,6.94,0,0,0,5.2,2,7,7,0,0,0,3.43-.84,5.67,5.67,0,0,0,2.33-2.29l3.76,2.18a10.34,10.34,0,0,1-4,3.81A11.26,11.26,0,0,1,1569.06,915.36Z"/><path class="cls-4" d="M1594.65,912.94a8.44,8.44,0,1,1,2.44-5.93A8.12,8.12,0,0,1,1594.65,912.94Zm-9-2.8a4.11,4.11,0,0,0,3.05,1.23,4.17,4.17,0,0,0,3.07-1.23,4.59,4.59,0,0,0,0-6.26,4.17,4.17,0,0,0-3.07-1.23,4.11,4.11,0,0,0-3.05,1.23,4.64,4.64,0,0,0,0,6.26Z"/><path class="cls-4" d="M1604,901.82a4.26,4.26,0,0,1,1.88-2.28,5.73,5.73,0,0,1,2.93-.76v4.56a4.8,4.8,0,0,0-3.34.76,3.62,3.62,0,0,0-1.47,3.26v7.56H1600V899.1H1604Z"/><path class="cls-4" d="M1615.31,901.82a4.26,4.26,0,0,1,1.88-2.28,5.73,5.73,0,0,1,2.93-.76v4.56a4.8,4.8,0,0,0-3.34.76,3.62,3.62,0,0,0-1.47,3.26v7.56h-4.08V899.1h4.08Z"/><path class="cls-4" d="M1625.34,908.69q.82,3,4.46,3a4.17,4.17,0,0,0,3.54-1.58l3.29,1.9a7.85,7.85,0,0,1-6.9,3.38,8.51,8.51,0,0,1-6.29-2.37,8.35,8.35,0,0,1,6-14.33,7.55,7.55,0,0,1,5.74,2.4,8.35,8.35,0,0,1,2.26,5.95,9.56,9.56,0,0,1-.16,1.68Zm-.06-3.16h8.07a3.83,3.83,0,0,0-1.44-2.4,4.13,4.13,0,0,0-2.48-.79,4.29,4.29,0,0,0-2.72.84A4,4,0,0,0,1625.27,905.52Z"/><path class="cls-4" d="M1647.67,915.36a8.35,8.35,0,1,1,0-16.7,8.19,8.19,0,0,1,4.21,1.11,7.36,7.36,0,0,1,2.88,3l-3.51,2.06a3.59,3.59,0,0,0-1.44-1.55,4.18,4.18,0,0,0-2.17-.57,4.09,4.09,0,0,0-3,1.22,4.25,4.25,0,0,0-1.2,3.12,4.21,4.21,0,0,0,1.2,3.08,4.08,4.08,0,0,0,3,1.22,4.33,4.33,0,0,0,2.2-.55,3.48,3.48,0,0,0,1.44-1.53l3.54,2a7.93,7.93,0,0,1-2.94,3A8.11,8.11,0,0,1,1647.67,915.36Z"/><path class="cls-4" d="M1666,903h-3.58v6.58a1.56,1.56,0,0,0,.41,1.2,1.88,1.88,0,0,0,1.2.43,17.38,17.38,0,0,0,2,0v3.7q-4.21.47-5.93-.79t-1.72-4.52V903h-2.75V899.1h2.75v-3.2l4.08-1.23v4.43H1666Z"/><path class="cls-4" d="M1680.45,899.1h4.08v15.82h-4.08v-1.87a6.21,6.21,0,0,1-5.16,2.31,7.17,7.17,0,0,1-5.43-2.42,8.91,8.91,0,0,1,0-11.86,7.17,7.17,0,0,1,5.43-2.42,6.21,6.21,0,0,1,5.16,2.31Zm-7.53,11.12a4.21,4.21,0,0,0,3.13,1.25,4.27,4.27,0,0,0,3.15-1.25,4.75,4.75,0,0,0,0-6.42,4.27,4.27,0,0,0-3.15-1.25,4.21,4.21,0,0,0-3.13,1.25,4.8,4.8,0,0,0,0,6.42Z"/><path class="cls-4" d="M1691.87,903.59q0,.63.84,1a11.14,11.14,0,0,0,2,.7,21.14,21.14,0,0,1,2.4.76,4.67,4.67,0,0,1,2,1.53,4.25,4.25,0,0,1,.84,2.69,4.34,4.34,0,0,1-1.82,3.75,7.56,7.56,0,0,1-4.54,1.31q-4.87,0-6.64-3.76l3.54-2a2.93,2.93,0,0,0,3.1,2.06q2.18,0,2.18-1.36,0-.63-.84-1a12,12,0,0,0-2-.71,21.27,21.27,0,0,1-2.4-.79,4.93,4.93,0,0,1-2-1.5,3.94,3.94,0,0,1-.84-2.58,4.42,4.42,0,0,1,1.72-3.68,6.76,6.76,0,0,1,4.29-1.34,7.17,7.17,0,0,1,3.51.87,6.36,6.36,0,0,1,2.5,2.48l-3.48,1.9a2.6,2.6,0,0,0-2.53-1.61,2.32,2.32,0,0,0-1.31.35A1.08,1.08,0,0,0,1691.87,903.59Z"/><path class="cls-5" d="M2131.49,912.17a7.56,7.56,0,0,1-12.21,0,16.95,16.95,0,0,1,0-16.64,7.56,7.56,0,0,1,12.21,0,16.95,16.95,0,0,1,0,16.64Zm-10.95-1.09a5.83,5.83,0,0,0,9.68,0,15.88,15.88,0,0,0,0-14.46,5.83,5.83,0,0,0-9.68,0,15.88,15.88,0,0,0,0,14.46Z"/><path class="cls-5" d="M2135.44,892.78h13.41v1.58l-8.6,20.56h-1.74l8.61-20.56h-11.67Z"/><path class="cls-5" d="M1570.24,827.28a14.12,14.12,0,0,1-7.91-2.1,11.23,11.23,0,0,1-4.52-5.72l5.33-3.12q1.85,4.84,7.28,4.84a6.26,6.26,0,0,0,3.84-.95,3,3,0,0,0-.27-5,23,23,0,0,0-5.33-2,32.8,32.8,0,0,1-3.59-1.27,15.45,15.45,0,0,1-2.94-1.69,6.91,6.91,0,0,1-2.24-2.69,8.79,8.79,0,0,1-.77-3.8,8.47,8.47,0,0,1,3.05-6.85,11.06,11.06,0,0,1,7.34-2.55,12.21,12.21,0,0,1,6.76,1.88,12.6,12.6,0,0,1,4.54,5.22l-5.24,3a6.32,6.32,0,0,0-6.06-4.07,4.77,4.77,0,0,0-3.05.88,2.78,2.78,0,0,0-1.11,2.28,2.88,2.88,0,0,0,1.24,2.42,17.37,17.37,0,0,0,4.77,2l2.19.7q.75.25,2,.77a12.32,12.32,0,0,1,2,1,15.71,15.71,0,0,1,1.6,1.22,6.25,6.25,0,0,1,1.38,1.58,9,9,0,0,1,.81,2,8.87,8.87,0,0,1,.34,2.51,8.48,8.48,0,0,1-3.19,7A12.78,12.78,0,0,1,1570.24,827.28Z"/><path class="cls-5" d="M1591.07,817.74q1.17,4.25,6.37,4.25a6,6,0,0,0,5.06-2.26l4.7,2.71q-3.34,4.84-9.85,4.84a12.15,12.15,0,0,1-9-3.39,11.92,11.92,0,0,1,8.54-20.47,10.78,10.78,0,0,1,8.2,3.43,11.93,11.93,0,0,1,3.23,8.5,13.67,13.67,0,0,1-.23,2.4Zm-.09-4.52h11.52a5.47,5.47,0,0,0-2.06-3.43,5.89,5.89,0,0,0-3.55-1.13,6.14,6.14,0,0,0-3.89,1.2A5.72,5.72,0,0,0,1591,813.23Z"/><path class="cls-5" d="M1612.4,826.65v-33h5.83v33Z"/><path class="cls-5" d="M1628.49,817.74q1.17,4.25,6.37,4.25a6,6,0,0,0,5.06-2.26l4.7,2.71q-3.34,4.84-9.85,4.84a12.15,12.15,0,0,1-9-3.39,11.92,11.92,0,0,1,8.54-20.47,10.78,10.78,0,0,1,8.2,3.43,11.93,11.93,0,0,1,3.23,8.5,13.67,13.67,0,0,1-.23,2.4Zm-.09-4.52h11.52a5.47,5.47,0,0,0-2.06-3.43,5.89,5.89,0,0,0-3.55-1.13,6.14,6.14,0,0,0-3.89,1.2A5.72,5.72,0,0,0,1628.4,813.23Z"/><path class="cls-5" d="M1660.4,827.28a11.93,11.93,0,1,1,0-23.86,11.71,11.71,0,0,1,6,1.58,10.52,10.52,0,0,1,4.11,4.25l-5,2.94a5.12,5.12,0,0,0-2.06-2.21,6,6,0,0,0-3.1-.81,5.84,5.84,0,0,0-4.34,1.74,6.57,6.57,0,0,0,0,8.86,5.84,5.84,0,0,0,4.34,1.74,6.2,6.2,0,0,0,3.14-.79,5,5,0,0,0,2.06-2.19l5.06,2.89a11.31,11.31,0,0,1-4.2,4.27A11.59,11.59,0,0,1,1660.4,827.28Z"/><path class="cls-5" d="M1684.08,827.28a11.93,11.93,0,1,1,0-23.86,11.71,11.71,0,0,1,6,1.58,10.52,10.52,0,0,1,4.11,4.25l-5,2.94a5.12,5.12,0,0,0-2.06-2.21,6,6,0,0,0-3.1-.81,5.84,5.84,0,0,0-4.34,1.74,6.57,6.57,0,0,0,0,8.86,5.84,5.84,0,0,0,4.34,1.74,6.2,6.2,0,0,0,3.14-.79,5,5,0,0,0,2.06-2.19l5.06,2.89a11.31,11.31,0,0,1-4.2,4.27A11.59,11.59,0,0,1,1684.08,827.28Z"/><path class="cls-5" d="M1700.26,801.34a3.63,3.63,0,0,1-3.57-3.57,3.5,3.5,0,0,1,1.06-2.53,3.39,3.39,0,0,1,2.51-1.08,3.45,3.45,0,0,1,2.55,1.08,3.51,3.51,0,0,1,1.06,2.53,3.43,3.43,0,0,1-1.06,2.51A3.48,3.48,0,0,1,1700.26,801.34Zm-2.89,25.31v-22.6h5.83v22.6Z"/><path class="cls-5" d="M1727.78,823.82a12.06,12.06,0,1,1,3.48-8.47A11.6,11.6,0,0,1,1727.78,823.82Zm-12.86-4a5.87,5.87,0,0,0,4.36,1.76,6,6,0,0,0,4.38-1.76,6.56,6.56,0,0,0,0-8.95,6,6,0,0,0-4.38-1.76,5.87,5.87,0,0,0-4.36,1.76,6.62,6.62,0,0,0,0,8.95Z"/><path class="cls-5" d="M1747.93,803.42a8.18,8.18,0,0,1,6.12,2.49,9.44,9.44,0,0,1,2.42,6.87v13.87h-5.83V813.5a4.63,4.63,0,0,0-1.22-3.46,4.45,4.45,0,0,0-3.25-1.2,4.8,4.8,0,0,0-3.62,1.4,5.83,5.83,0,0,0-1.36,4.2v12.2h-5.83v-22.6h5.83v2.53Q1743.32,803.42,1747.93,803.42Z"/><path class="cls-5" d="M1766.37,817.74q1.17,4.25,6.37,4.25a6,6,0,0,0,5.06-2.26l4.7,2.71q-3.34,4.84-9.85,4.84a12.15,12.15,0,0,1-9-3.39,11.92,11.92,0,0,1,8.54-20.47,10.78,10.78,0,0,1,8.2,3.43,11.93,11.93,0,0,1,3.23,8.5,13.67,13.67,0,0,1-.23,2.4Zm-.09-4.52h11.52a5.47,5.47,0,0,0-2.06-3.43,5.89,5.89,0,0,0-3.55-1.13,6.14,6.14,0,0,0-3.89,1.2A5.72,5.72,0,0,0,1766.28,813.23Z"/><path class="cls-5" d="M1792.18,810.47q0,.91,1.2,1.47a15.91,15.91,0,0,0,2.92,1,30.44,30.44,0,0,1,3.43,1.08,6.67,6.67,0,0,1,2.91,2.19,6.06,6.06,0,0,1,1.2,3.84,6.21,6.21,0,0,1-2.6,5.36,10.81,10.81,0,0,1-6.49,1.88q-7,0-9.49-5.38l5.06-2.85q1,2.94,4.43,2.94,3.12,0,3.12-1.94,0-.9-1.2-1.47a17,17,0,0,0-2.92-1,30.46,30.46,0,0,1-3.43-1.13,7,7,0,0,1-2.92-2.15,5.63,5.63,0,0,1-1.2-3.68,6.31,6.31,0,0,1,2.46-5.26,9.65,9.65,0,0,1,6.12-1.92,10.24,10.24,0,0,1,5,1.24,9.1,9.1,0,0,1,3.57,3.55l-5,2.71a3.72,3.72,0,0,0-3.62-2.3,3.31,3.31,0,0,0-1.87.5A1.55,1.55,0,0,0,1792.18,810.47Z"/><path class="cls-5" d="M2119.8,795h2v31.63h-2.4v-29l-7.32,2.28-.59-2.08Z"/><path class="cls-5" d="M2137.81,807.89a11.1,11.1,0,0,1,7.46,2.6,9.63,9.63,0,0,1,0,14.05,11.14,11.14,0,0,1-7.48,2.6,11.66,11.66,0,0,1-6.21-1.67,8.64,8.64,0,0,1-3.77-4.7l2-1.17a6.78,6.78,0,0,0,2.89,3.89,9.21,9.21,0,0,0,5.06,1.36,8.59,8.59,0,0,0,5.85-2,7.37,7.37,0,0,0,0-10.67,8.59,8.59,0,0,0-5.85-2h-8.45l1-15.18h16.79v2.26h-14.6l-.69,10.62Z"/><path class="cls-4" d="M1558.56,977.48h4.37v22.14h-4.37Z"/><path class="cls-4" d="M1575.64,983.36a5.73,5.73,0,0,1,4.29,1.74,6.61,6.61,0,0,1,1.69,4.81v9.71h-4.08v-9.21a3.24,3.24,0,0,0-.85-2.42,3.12,3.12,0,0,0-2.28-.84,3.36,3.36,0,0,0-2.53,1,4.08,4.08,0,0,0-.95,2.94v8.54h-4.08V983.81h4.08v1.77A5.27,5.27,0,0,1,1575.64,983.36Z"/><path class="cls-4" d="M1592.63,1000.07a8.35,8.35,0,1,1,0-16.7,8.19,8.19,0,0,1,4.21,1.11,7.36,7.36,0,0,1,2.88,3l-3.51,2.06a3.59,3.59,0,0,0-1.44-1.55,4.18,4.18,0,0,0-2.17-.57,4.09,4.09,0,0,0-3,1.22,4.25,4.25,0,0,0-1.2,3.12,4.21,4.21,0,0,0,1.2,3.08,4.08,4.08,0,0,0,3,1.22,4.33,4.33,0,0,0,2.2-.55,3.48,3.48,0,0,0,1.44-1.53l3.54,2a7.93,7.93,0,0,1-2.94,3A8.11,8.11,0,0,1,1592.63,1000.07Z"/><path class="cls-4" d="M1615.15,997.65a8.44,8.44,0,1,1,2.44-5.93A8.12,8.12,0,0,1,1615.15,997.65Zm-9-2.8a4.11,4.11,0,0,0,3.05,1.23,4.17,4.17,0,0,0,3.07-1.23,4.59,4.59,0,0,0,0-6.26,4.17,4.17,0,0,0-3.07-1.23,4.11,4.11,0,0,0-3.05,1.23,4.64,4.64,0,0,0,0,6.26Z"/><path class="cls-4" d="M1624.55,986.53a4.26,4.26,0,0,1,1.88-2.28,5.73,5.73,0,0,1,2.93-.76V988a4.8,4.8,0,0,0-3.34.76,3.62,3.62,0,0,0-1.47,3.26v7.56h-4.08V983.81h4.08Z"/><path class="cls-4" d="M1635.81,986.53a4.26,4.26,0,0,1,1.88-2.28,5.73,5.73,0,0,1,2.93-.76V988a4.8,4.8,0,0,0-3.34.76,3.62,3.62,0,0,0-1.47,3.26v7.56h-4.08V983.81h4.08Z"/><path class="cls-4" d="M1645.84,993.39q.82,3,4.46,3a4.17,4.17,0,0,0,3.54-1.58l3.29,1.9a7.85,7.85,0,0,1-6.9,3.38,8.51,8.51,0,0,1-6.29-2.37,8.35,8.35,0,0,1,6-14.33,7.55,7.55,0,0,1,5.74,2.4,8.35,8.35,0,0,1,2.26,5.95,9.56,9.56,0,0,1-.16,1.68Zm-.06-3.16h8.07a3.83,3.83,0,0,0-1.44-2.4,4.13,4.13,0,0,0-2.48-.79,4.29,4.29,0,0,0-2.72.84A4,4,0,0,0,1645.77,990.23Z"/><path class="cls-4" d="M1668.17,1000.07a8.35,8.35,0,1,1,0-16.7,8.19,8.19,0,0,1,4.21,1.11,7.36,7.36,0,0,1,2.88,3l-3.51,2.06a3.59,3.59,0,0,0-1.44-1.55,4.18,4.18,0,0,0-2.17-.57,4.09,4.09,0,0,0-3,1.22,4.25,4.25,0,0,0-1.2,3.12,4.21,4.21,0,0,0,1.2,3.08,4.08,4.08,0,0,0,3,1.22,4.33,4.33,0,0,0,2.2-.55,3.48,3.48,0,0,0,1.44-1.53l3.54,2a7.93,7.93,0,0,1-2.94,3A8.11,8.11,0,0,1,1668.17,1000.07Z"/><path class="cls-4" d="M1686.52,987.73h-3.58v6.58a1.56,1.56,0,0,0,.41,1.2,1.88,1.88,0,0,0,1.2.43,17.38,17.38,0,0,0,2,0v3.7q-4.21.47-5.93-.79t-1.72-4.52v-6.58h-2.75v-3.92h2.75v-3.2l4.08-1.23v4.43h3.58Z"/><path class="cls-4" d="M1700.94,983.81H1705v15.82h-4.08v-1.87a6.21,6.21,0,0,1-5.16,2.31,7.17,7.17,0,0,1-5.43-2.42,8.91,8.91,0,0,1,0-11.86,7.17,7.17,0,0,1,5.43-2.42,6.21,6.21,0,0,1,5.16,2.31Zm-7.53,11.12a4.21,4.21,0,0,0,3.13,1.25,4.27,4.27,0,0,0,3.15-1.25,4.75,4.75,0,0,0,0-6.42,4.27,4.27,0,0,0-3.15-1.25,4.21,4.21,0,0,0-3.13,1.25,4.8,4.8,0,0,0,0,6.42Z"/><path class="cls-4" d="M1712.36,988.3q0,.63.84,1a11.14,11.14,0,0,0,2,.7,21.14,21.14,0,0,1,2.4.76,4.67,4.67,0,0,1,2,1.53,4.25,4.25,0,0,1,.84,2.69,4.34,4.34,0,0,1-1.82,3.75,7.56,7.56,0,0,1-4.54,1.31q-4.87,0-6.64-3.76l3.54-2a2.93,2.93,0,0,0,3.1,2.06q2.18,0,2.18-1.36,0-.63-.84-1a12,12,0,0,0-2-.71,21.27,21.27,0,0,1-2.4-.79,4.93,4.93,0,0,1-2-1.5,3.94,3.94,0,0,1-.84-2.58,4.42,4.42,0,0,1,1.72-3.68,6.76,6.76,0,0,1,4.29-1.34,7.17,7.17,0,0,1,3.51.87,6.36,6.36,0,0,1,2.5,2.48l-3.48,1.9a2.6,2.6,0,0,0-2.53-1.61,2.32,2.32,0,0,0-1.31.35A1.08,1.08,0,0,0,1712.36,988.3Z"/><path class="cls-5" d="M2128.23,996.87a7.56,7.56,0,0,1-12.21,0,16.95,16.95,0,0,1,0-16.64,7.56,7.56,0,0,1,12.21,0,16.95,16.95,0,0,1,0,16.64Zm-10.95-1.09a5.83,5.83,0,0,0,9.68,0,15.88,15.88,0,0,0,0-14.46,5.83,5.83,0,0,0-9.68,0,15.88,15.88,0,0,0,0,14.46Z"/><path class="cls-5" d="M2149.43,993.39V995h-2.85v4.65h-1.68V995H2133v-1.58l8.42-15.91h1.83l-8.38,15.91h10.06v-7h1.68v7Z"/><path class="cls-5" d="M1573.2,1099.47v4.18h-6v18h-4.37v-18h-5.95v-4.18Z"/><path class="cls-5" d="M1577.47,1103.9a2.54,2.54,0,0,1-2.5-2.5,2.46,2.46,0,0,1,.74-1.77,2.37,2.37,0,0,1,1.75-.76,2.41,2.41,0,0,1,1.79.76,2.46,2.46,0,0,1,.74,1.77,2.4,2.4,0,0,1-.74,1.75A2.44,2.44,0,0,1,1577.47,1103.9Zm-2,17.71V1105.8h4.08v15.82Z"/><path class="cls-5" d="M1586.71,1115.38q.82,3,4.46,3a4.17,4.17,0,0,0,3.54-1.58l3.29,1.9a7.85,7.85,0,0,1-6.9,3.38,8.51,8.51,0,0,1-6.29-2.37,8.35,8.35,0,0,1,6-14.33,7.55,7.55,0,0,1,5.74,2.4,8.35,8.35,0,0,1,2.26,5.95,9.56,9.56,0,0,1-.16,1.68Zm-.06-3.16h8.07a3.83,3.83,0,0,0-1.44-2.4,4.13,4.13,0,0,0-2.48-.79,4.29,4.29,0,0,0-2.72.84A4,4,0,0,0,1586.65,1112.22Z"/><path class="cls-5" d="M1619.14,1105.35a5.63,5.63,0,0,1,4.35,1.77,6.74,6.74,0,0,1,1.63,4.75v9.74H1621v-9.46a3.24,3.24,0,0,0-.7-2.21,2.47,2.47,0,0,0-2-.79,2.68,2.68,0,0,0-2.17.92,4,4,0,0,0-.78,2.66v8.89h-4.08v-9.46a3.25,3.25,0,0,0-.7-2.21,2.48,2.48,0,0,0-2-.79,2.74,2.74,0,0,0-2.17.92,3.91,3.91,0,0,0-.81,2.66v8.89h-4.08V1105.8h4.08v1.68a4.93,4.93,0,0,1,4.4-2.12,4.69,4.69,0,0,1,4.3,2.28A5.36,5.36,0,0,1,1619.14,1105.35Z"/><path class="cls-5" d="M1637.8,1105.35a7.2,7.2,0,0,1,5.46,2.42,8.91,8.91,0,0,1,0,11.86,7.2,7.2,0,0,1-5.46,2.42,6.12,6.12,0,0,1-5.12-2.31v8.19h-4.08V1105.8h4.08v1.87A6.12,6.12,0,0,1,1637.8,1105.35Zm-3.89,11.56a4.22,4.22,0,0,0,3.13,1.25,4.27,4.27,0,0,0,3.15-1.25,4.75,4.75,0,0,0,0-6.42,4.27,4.27,0,0,0-3.15-1.25,4.22,4.22,0,0,0-3.13,1.25,4.8,4.8,0,0,0,0,6.42Z"/><path class="cls-5" d="M1661.87,1119.64a8.44,8.44,0,1,1,2.44-5.93A8.12,8.12,0,0,1,1661.87,1119.64Zm-9-2.8a4.11,4.11,0,0,0,3.05,1.23,4.17,4.17,0,0,0,3.07-1.23,4.59,4.59,0,0,0,0-6.26,4.17,4.17,0,0,0-3.07-1.23,4.11,4.11,0,0,0-3.05,1.23,4.64,4.64,0,0,0,0,6.26Z"/><path class="cls-5" d="M2001.41,1099.47h1.42v22.14h-1.68v-20.29l-5.12,1.6-.41-1.46Z"/><path class="cls-5" d="M2014,1108.49a7.78,7.78,0,0,1,5.23,1.82,6.74,6.74,0,0,1,0,9.84A7.8,7.8,0,0,1,2014,1122a8.17,8.17,0,0,1-4.35-1.17,6,6,0,0,1-2.64-3.29l1.42-.82a4.74,4.74,0,0,0,2,2.72,6.44,6.44,0,0,0,3.54.95,6,6,0,0,0,4.1-1.39,5.16,5.16,0,0,0,0-7.47,6,6,0,0,0-4.1-1.39h-5.92l.71-10.63h11.75v1.58h-10.22l-.48,7.43Z"/><path class="cls-5" d="M2050.47,1105.45a5.59,5.59,0,0,1,4.18,1.61,6.19,6.19,0,0,1,1.58,4.52v10h-1.58v-10a4.74,4.74,0,0,0-1.16-3.42,4,4,0,0,0-3.05-1.2,4.4,4.4,0,0,0-3.43,1.46,6.33,6.33,0,0,0-1.31,4.37v8.83h-1.58v-10a4.91,4.91,0,0,0-1.09-3.42,3.8,3.8,0,0,0-3-1.2,4.64,4.64,0,0,0-3.5,1.47,6.06,6.06,0,0,0-1.41,4.35v8.83h-1.58V1105.8h1.58v2.72a5.41,5.41,0,0,1,5.09-3.07,5.47,5.47,0,0,1,3,.84,4.84,4.84,0,0,1,1.9,2.39,5.66,5.66,0,0,1,2.23-2.42A6,6,0,0,1,2050.47,1105.45Z"/><path class="cls-5" d="M2062.37,1101.61a1.26,1.26,0,0,1-1.77,0,1.2,1.2,0,0,1-.38-.9,1.17,1.17,0,0,1,.38-.87,1.26,1.26,0,0,1,1.77,0,1.17,1.17,0,0,1,.38.87A1.2,1.2,0,0,1,2062.37,1101.61Zm-1.68,20V1105.8h1.58v15.82Z"/><path class="cls-5" d="M2074.39,1105.45a5.93,5.93,0,0,1,4.48,1.72,6.36,6.36,0,0,1,1.66,4.6v9.84h-1.61v-9.84a4.93,4.93,0,0,0-1.22-3.51,4.48,4.48,0,0,0-3.43-1.3,5.29,5.29,0,0,0-4,1.61,6.5,6.5,0,0,0-1.55,4.68v8.35h-1.58V1105.8h1.58v3A5.88,5.88,0,0,1,2074.39,1105.45Z"/><path class="cls-5" d="M2107.07,1118.86a7.56,7.56,0,0,1-12.21,0,16.95,16.95,0,0,1,0-16.64,7.56,7.56,0,0,1,12.21,0,16.95,16.95,0,0,1,0,16.64Zm-10.95-1.09a5.83,5.83,0,0,0,9.68,0,15.88,15.88,0,0,0,0-14.46,5.83,5.83,0,0,0-9.68,0,15.88,15.88,0,0,0,0,14.46Z"/><path class="cls-5" d="M2112,1121.61v-1.52l8.13-8.35q3.57-3.7,3.58-6.26a4.47,4.47,0,0,0-1.39-3.48,5,5,0,0,0-3.48-1.27,5.43,5.43,0,0,0-5.28,3.35l-1.42-.85a7.15,7.15,0,0,1,2.74-3.05,7.53,7.53,0,0,1,4-1.06,6.79,6.79,0,0,1,4.63,1.71,5.87,5.87,0,0,1,1.95,4.65,6.9,6.9,0,0,1-1.1,3.67,21.43,21.43,0,0,1-3.07,3.77l-6.85,7.08h11.53v1.61Z"/><path class="cls-5" d="M2139.24,1109.89a2,2,0,0,0,1,1.8,8.07,8.07,0,0,0,2.4,1l2.83.75a5.1,5.1,0,0,1,2.39,1.36,3.61,3.61,0,0,1,1,2.64,4,4,0,0,1-1.57,3.23,6.32,6.32,0,0,1-4.1,1.27,7.2,7.2,0,0,1-3.84-1,5.07,5.07,0,0,1-2.17-2.55l1.36-.79a3.75,3.75,0,0,0,1.66,2,5.63,5.63,0,0,0,3,.74,5.15,5.15,0,0,0,2.93-.77,2.49,2.49,0,0,0,1.15-2.2,2.18,2.18,0,0,0-1-1.87,7.34,7.34,0,0,0-2.39-1.07l-2.83-.75a5.34,5.34,0,0,1-2.4-1.32,3.36,3.36,0,0,1-1-2.53,4.06,4.06,0,0,1,1.5-3.2,5.72,5.72,0,0,1,3.88-1.3,6.24,6.24,0,0,1,3.31.85,5.16,5.16,0,0,1,2.07,2.31l-1.33.76a3.49,3.49,0,0,0-1.58-1.79,5,5,0,0,0-2.47-.62,4.48,4.48,0,0,0-2.71.79A2.5,2.5,0,0,0,2139.24,1109.89Z"/><path class="cls-5" d="M1562.92,1202.14h9.33v4.18h-13.7v-22.14h13.54v4.18h-9.17v4.71h8.38v4.11h-8.38Z"/><path class="cls-5" d="M1578.9,1195q0,.63.84,1a11.14,11.14,0,0,0,2,.7,21.14,21.14,0,0,1,2.4.76,4.67,4.67,0,0,1,2,1.53,4.25,4.25,0,0,1,.84,2.69,4.34,4.34,0,0,1-1.82,3.75,7.56,7.56,0,0,1-4.54,1.31q-4.87,0-6.64-3.76l3.54-2a2.93,2.93,0,0,0,3.1,2.06q2.18,0,2.18-1.36,0-.63-.84-1a12,12,0,0,0-2-.71,21.27,21.27,0,0,1-2.4-.79,4.93,4.93,0,0,1-2-1.5,3.94,3.94,0,0,1-.84-2.58,4.42,4.42,0,0,1,1.72-3.68,6.76,6.76,0,0,1,4.29-1.34,7.17,7.17,0,0,1,3.51.87,6.36,6.36,0,0,1,2.5,2.48l-3.48,1.9a2.6,2.6,0,0,0-2.53-1.61,2.32,2.32,0,0,0-1.31.35A1.08,1.08,0,0,0,1578.9,1195Z"/><path class="cls-5" d="M1598.26,1194.42h-3.58V1201a1.56,1.56,0,0,0,.41,1.2,1.88,1.88,0,0,0,1.2.43,17.38,17.38,0,0,0,2,0v3.7q-4.21.47-5.93-.79t-1.72-4.52v-6.58h-2.75v-3.92h2.75v-3.2l4.08-1.23v4.43h3.58Z"/><path class="cls-5" d="M1612.68,1190.5h4.08v15.82h-4.08v-1.87a6.21,6.21,0,0,1-5.16,2.31,7.17,7.17,0,0,1-5.43-2.42,8.91,8.91,0,0,1,0-11.86,7.17,7.17,0,0,1,5.43-2.42,6.21,6.21,0,0,1,5.16,2.31Zm-7.53,11.12a4.21,4.21,0,0,0,3.13,1.25,4.27,4.27,0,0,0,3.15-1.25,4.75,4.75,0,0,0,0-6.42,4.27,4.27,0,0,0-3.15-1.25,4.21,4.21,0,0,0-3.13,1.25,4.8,4.8,0,0,0,0,6.42Z"/><path class="cls-5" d="M1632.46,1184.17h4.08v22.14h-4.08v-1.87a6.12,6.12,0,0,1-5.12,2.31,7.2,7.2,0,0,1-5.46-2.42,8.91,8.91,0,0,1,0-11.86,7.2,7.2,0,0,1,5.46-2.42,6.12,6.12,0,0,1,5.13,2.31Zm-7.51,17.45a4.27,4.27,0,0,0,3.15,1.25,4.21,4.21,0,0,0,3.13-1.25,4.79,4.79,0,0,0,0-6.42,4.21,4.21,0,0,0-3.13-1.25,4.27,4.27,0,0,0-3.15,1.25,4.75,4.75,0,0,0,0,6.42Z"/><path class="cls-5" d="M1653.75,1204.34a8.44,8.44,0,1,1,2.44-5.93A8.12,8.12,0,0,1,1653.75,1204.34Zm-9-2.8a4.11,4.11,0,0,0,3.05,1.23,4.17,4.17,0,0,0,3.07-1.23,4.59,4.59,0,0,0,0-6.26,4.17,4.17,0,0,0-3.07-1.23,4.11,4.11,0,0,0-3.05,1.23,4.64,4.64,0,0,0,0,6.26Z"/><path class="cls-5" d="M2004.45,1184.17a6.71,6.71,0,0,1,6.9,6.87,6.6,6.6,0,0,1-2,4.89,6.72,6.72,0,0,1-4.93,1.95h-5.85v8.45h-1.68v-22.14Zm0,12.12a5,5,0,0,0,3.75-1.49,5.59,5.59,0,0,0,0-7.56,5,5,0,0,0-3.75-1.49h-5.85v10.53Z"/><path class="cls-5" d="M2016.44,1193.6a5.25,5.25,0,0,1,5.28-3.32v1.52a5.26,5.26,0,0,0-3.76,1.44,5.64,5.64,0,0,0-1.52,4.29v8.79h-1.58V1190.5h1.58Z"/><path class="cls-5" d="M2031.08,1190.15a7.16,7.16,0,0,1,5.65,2.47,8.58,8.58,0,0,1,2.17,5.85c0,.08,0,.21,0,.38s0,.3,0,.38h-14.33a6.4,6.4,0,0,0,2.14,4.29,7.28,7.28,0,0,0,7.89.84,5.4,5.4,0,0,0,2.15-2.09l1.39.82a7,7,0,0,1-2.78,2.61,8.59,8.59,0,0,1-4.11,1,8.13,8.13,0,0,1-6-2.33,8,8,0,0,1-2.34-5.93,8.12,8.12,0,0,1,2.29-5.9A7.87,7.87,0,0,1,2031.08,1190.15Zm0,1.52a6.34,6.34,0,0,0-4.49,1.68,6.55,6.55,0,0,0-2.06,4.33h12.72a6.5,6.5,0,0,0-2-4.41A6,6,0,0,0,2031.08,1191.67Z"/><path class="cls-5" d="M2051,1190.15a8.26,8.26,0,0,1,0,16.51,7.66,7.66,0,0,1-4-1.08,7.36,7.36,0,0,1-2.77-2.94v10h-1.58V1190.5h1.58v3.67a7.36,7.36,0,0,1,2.77-2.94A7.67,7.67,0,0,1,2051,1190.15Zm-4.86,13a6.76,6.76,0,0,0,9.52,0,6.84,6.84,0,0,0,0-9.55,6.76,6.76,0,0,0-9.52,0,6.84,6.84,0,0,0,0,9.55Z"/><path class="cls-5" d="M2076.92,1190.5h1.61v15.82h-1.61v-3.57a7.47,7.47,0,0,1-2.78,2.88,7.77,7.77,0,0,1-4,1,8.26,8.26,0,0,1,0-16.51,7.76,7.76,0,0,1,4,1,7.47,7.47,0,0,1,2.78,2.88Zm-11.44,12.69a6.74,6.74,0,0,0,9.51,0,6.88,6.88,0,0,0,0-9.55,6.74,6.74,0,0,0-9.51,0,6.84,6.84,0,0,0,0,9.55Z"/><path class="cls-5" d="M2085,1193.6a5.25,5.25,0,0,1,5.28-3.32v1.52a5.26,5.26,0,0,0-3.76,1.44,5.64,5.64,0,0,0-1.52,4.29v8.79h-1.58V1190.5H2085Z"/><path class="cls-5" d="M2106.44,1190.5H2108v15.82h-1.61v-3.57a7.47,7.47,0,0,1-2.78,2.88,7.77,7.77,0,0,1-4,1,8.26,8.26,0,0,1,0-16.51,7.76,7.76,0,0,1,4,1,7.47,7.47,0,0,1,2.78,2.88ZM2095,1203.19a6.74,6.74,0,0,0,9.51,0,6.88,6.88,0,0,0,0-9.55,6.74,6.74,0,0,0-9.51,0,6.84,6.84,0,0,0,0,9.55Z"/><path class="cls-5" d="M2126.87,1184.17h1.58v22.14h-1.58v-3.67a7.37,7.37,0,0,1-2.77,2.94,7.67,7.67,0,0,1-4,1.08,8.26,8.26,0,0,1,0-16.51,7.67,7.67,0,0,1,4,1.08,7.38,7.38,0,0,1,2.77,2.94Zm-11.47,19a6.76,6.76,0,0,0,9.52,0,6.84,6.84,0,0,0,0-9.55,6.76,6.76,0,0,0-9.52,0,6.84,6.84,0,0,0,0,9.55Z"/><path class="cls-5" d="M2140.57,1206.67a8.08,8.08,0,0,1-5.9-2.39,8.32,8.32,0,0,1,0-11.74,8.44,8.44,0,0,1,11.77,0,8.32,8.32,0,0,1,0,11.74A8,8,0,0,1,2140.57,1206.67Zm-4.76-3.48a6.74,6.74,0,0,0,9.51,0,6.88,6.88,0,0,0,0-9.55,6.74,6.74,0,0,0-9.51,0,6.84,6.84,0,0,0,0,9.55Z"/><path class="cls-1" d="M591.59,831.1l-2.79-7.26H574.52l-2.78,7.26h-2.28l11.09-28.55h2.28l11.05,28.55Zm-16.29-9.3H588l-6.37-16.59Z"/><path class="cls-1" d="M599.67,814.7q1.84-4.28,6.81-4.28v2a6.78,6.78,0,0,0-4.85,1.86,7.27,7.27,0,0,0-2,5.53V831.1h-2V810.71h2Z"/><path class="cls-1" d="M618.71,831.55a10.64,10.64,0,1,1,5.38-19.88,8.4,8.4,0,0,1,3.51,3.81l-1.67,1a6.87,6.87,0,0,0-2.83-3.1,8.47,8.47,0,0,0-4.38-1.14,8.33,8.33,0,0,0-6.16,2.51,8.91,8.91,0,0,0,0,12.36,8.33,8.33,0,0,0,6.16,2.51,8.46,8.46,0,0,0,4.38-1.14,7.63,7.63,0,0,0,3-3.1l1.71,1a9.19,9.19,0,0,1-3.65,3.77A10.58,10.58,0,0,1,618.71,831.55Z"/><path class="cls-1" d="M641.59,810.26a7.64,7.64,0,0,1,5.77,2.22,8.19,8.19,0,0,1,2.14,5.93V831.1h-2.08V818.42a6.35,6.35,0,0,0-1.57-4.53,5.78,5.78,0,0,0-4.42-1.67,6.81,6.81,0,0,0-5.14,2.08,8.37,8.37,0,0,0-2,6V831.1h-2V802.55h2v12A7.58,7.58,0,0,1,641.59,810.26Z"/><path class="cls-1" d="M657.41,805.31a1.63,1.63,0,0,1-2.28,0,1.55,1.55,0,0,1-.49-1.16,1.5,1.5,0,0,1,.49-1.12,1.63,1.63,0,0,1,2.28,0,1.5,1.5,0,0,1,.49,1.12A1.55,1.55,0,0,1,657.41,805.31Zm-2.16,25.79V810.71h2V831.1Z"/><path class="cls-1" d="M678.54,810.71h2.16l-8.6,20.39h-2.49L661,810.71h2.2L670.82,829Z"/><path class="cls-1" d="M692.93,831.55a10.42,10.42,0,0,1-7.61-3.08,10.73,10.73,0,0,1,0-15.13,10.88,10.88,0,0,1,15.17,0,10.73,10.73,0,0,1,0,15.13A10.37,10.37,0,0,1,692.93,831.55Zm-6.14-4.49a8.69,8.69,0,0,0,12.25,0,8.87,8.87,0,0,0,0-12.32,8.69,8.69,0,0,0-12.25,0,8.81,8.81,0,0,0,0,12.32Z"/><path class="cls-1" d="M737.38,802.55h2V831.1h-2v-4.73a9.49,9.49,0,0,1-3.57,3.79,9.88,9.88,0,0,1-5.2,1.39,10.64,10.64,0,0,1,0-21.29,9.89,9.89,0,0,1,5.2,1.39,9.5,9.5,0,0,1,3.57,3.79ZM722.6,827.06a8.71,8.71,0,0,0,12.27,0,8.81,8.81,0,0,0,0-12.32,8.71,8.71,0,0,0-12.27,0,8.81,8.81,0,0,0,0,12.32Z"/><path class="cls-1" d="M754.88,810.26a9.23,9.23,0,0,1,7.28,3.18,11.06,11.06,0,0,1,2.79,7.54c0,.11,0,.27,0,.49s0,.38,0,.49H746.43a8.24,8.24,0,0,0,2.75,5.53,9.39,9.39,0,0,0,10.17,1.08,7,7,0,0,0,2.77-2.69l1.79,1.06a9,9,0,0,1-3.59,3.36,11.06,11.06,0,0,1-5.3,1.24,10.47,10.47,0,0,1-7.71-3,10.31,10.31,0,0,1-3-7.65,10.47,10.47,0,0,1,3-7.61A10.15,10.15,0,0,1,754.88,810.26Zm0,2a8.18,8.18,0,0,0-5.79,2.16,8.44,8.44,0,0,0-2.65,5.59h16.39a8.38,8.38,0,0,0-2.59-5.69A7.7,7.7,0,0,0,754.88,812.22Z"/><path class="cls-1" d="M789.95,831.55a10.64,10.64,0,1,1,5.38-19.88,8.4,8.4,0,0,1,3.51,3.81l-1.67,1a6.87,6.87,0,0,0-2.83-3.1,8.47,8.47,0,0,0-4.38-1.14,8.33,8.33,0,0,0-6.16,2.51,8.91,8.91,0,0,0,0,12.36,8.33,8.33,0,0,0,6.16,2.51,8.46,8.46,0,0,0,4.38-1.14,7.63,7.63,0,0,0,3-3.1l1.71,1a9.19,9.19,0,0,1-3.65,3.77A10.58,10.58,0,0,1,789.95,831.55Z"/><path class="cls-1" d="M821.22,810.71h2.08V831.1h-2.08v-4.61a9.62,9.62,0,0,1-3.59,3.71,10,10,0,0,1-5.18,1.35,10.64,10.64,0,0,1,0-21.29,10,10,0,0,1,5.18,1.35,9.62,9.62,0,0,1,3.59,3.71Zm-14.74,16.35a8.69,8.69,0,0,0,12.25,0,8.87,8.87,0,0,0,0-12.32,8.69,8.69,0,0,0-12.25,0,8.81,8.81,0,0,0,0,12.32Z"/><path class="cls-1" d="M829.58,831.1V801.33h2V831.1Z"/><path class="cls-1" d="M840.06,805.31a1.63,1.63,0,0,1-2.28,0,1.55,1.55,0,0,1-.49-1.16,1.5,1.5,0,0,1,.49-1.12,1.63,1.63,0,0,1,2.28,0,1.5,1.5,0,0,1,.49,1.12A1.55,1.55,0,0,1,840.06,805.31ZM837.9,831.1V810.71h2V831.1Z"/><path class="cls-1" d="M857,810.26a10.64,10.64,0,0,1,0,21.29,9.88,9.88,0,0,1-5.2-1.39,9.49,9.49,0,0,1-3.57-3.79v4.73h-2V802.55h2v12.89a9.5,9.5,0,0,1,3.57-3.79A9.89,9.89,0,0,1,857,810.26Zm-6.26,16.8a8.71,8.71,0,0,0,12.27,0,8.81,8.81,0,0,0,0-12.32,8.71,8.71,0,0,0-12.27,0,8.81,8.81,0,0,0,0,12.32Z"/><path class="cls-1" d="M874.56,814.7q1.84-4.28,6.81-4.28v2a6.78,6.78,0,0,0-4.85,1.86,7.27,7.27,0,0,0-2,5.53V831.1h-2V810.71h2Z"/><path class="cls-1" d="M902.21,810.71h2.08V831.1h-2.08v-4.61a9.62,9.62,0,0,1-3.59,3.71,10,10,0,0,1-5.18,1.35,10.64,10.64,0,0,1,0-21.29,10,10,0,0,1,5.18,1.35,9.62,9.62,0,0,1,3.59,3.71Zm-14.74,16.35a8.69,8.69,0,0,0,12.25,0,8.87,8.87,0,0,0,0-12.32,8.69,8.69,0,0,0-12.25,0,8.81,8.81,0,0,0,0,12.32Z"/><path class="cls-1" d="M919.91,831.55a10.64,10.64,0,1,1,5.38-19.88,8.4,8.4,0,0,1,3.51,3.81l-1.67,1a6.87,6.87,0,0,0-2.83-3.1,8.47,8.47,0,0,0-4.38-1.14,8.33,8.33,0,0,0-6.16,2.51,8.91,8.91,0,0,0,0,12.36,8.33,8.33,0,0,0,6.16,2.51,8.46,8.46,0,0,0,4.38-1.14,7.63,7.63,0,0,0,3-3.1l1.71,1a9.19,9.19,0,0,1-3.65,3.77A10.58,10.58,0,0,1,919.91,831.55Z"/><path class="cls-1" d="M935.61,805.31a1.63,1.63,0,0,1-2.28,0,1.55,1.55,0,0,1-.49-1.16,1.5,1.5,0,0,1,.49-1.12,1.63,1.63,0,0,1,2.28,0,1.5,1.5,0,0,1,.49,1.12A1.55,1.55,0,0,1,935.61,805.31Zm-2.16,25.79V810.71h2V831.1Z"/><path class="cls-1" d="M951.11,831.55a10.42,10.42,0,0,1-7.61-3.08,10.73,10.73,0,0,1,0-15.13,10.88,10.88,0,0,1,15.17,0,10.73,10.73,0,0,1,0,15.13A10.37,10.37,0,0,1,951.11,831.55ZM945,827.06a8.69,8.69,0,0,0,12.25,0,8.87,8.87,0,0,0,0-12.32,8.69,8.69,0,0,0-12.25,0,8.81,8.81,0,0,0,0,12.32Zm4.3-19.21h2l3.7-5.19-2.42,0Z"/><path class="cls-1" d="M976,810.26a7.64,7.64,0,0,1,5.77,2.22,8.19,8.19,0,0,1,2.14,5.93V831.1h-2.08V818.42a6.35,6.35,0,0,0-1.57-4.53,5.78,5.78,0,0,0-4.42-1.67,6.81,6.81,0,0,0-5.14,2.08,8.37,8.37,0,0,0-2,6V831.1h-2V810.71h2v3.87A7.58,7.58,0,0,1,976,810.26Z"/><rect class="cls-3" x="347.04" y="768.58" width="21.79" height="74.26"/><polygon class="cls-1" points="1093.39 509.26 1083.03 496.15 1084.59 494.91 1093.39 506.04 1102.51 494.51 1104.08 495.75 1093.39 509.26"/><rect class="cls-5" x="873.8" y="1082.94" width="276.51" height="138.45" rx="7.32" ry="7.32"/><path class="cls-1" d="M1143,1222.39H881.12a8.33,8.33,0,0,1-8.32-8.32V1090.26a8.33,8.33,0,0,1,8.32-8.32H1143a8.33,8.33,0,0,1,8.32,8.32v123.82A8.33,8.33,0,0,1,1143,1222.39ZM881.12,1083.94a6.33,6.33,0,0,0-6.32,6.32v123.82a6.33,6.33,0,0,0,6.32,6.32H1143a6.33,6.33,0,0,0,6.32-6.32V1090.26a6.33,6.33,0,0,0-6.32-6.32Z"/><path class="cls-6" d="M948.71,1163.08a17.36,17.36,0,0,1-7.16,1.29c-7.64,0-13.39-4.83-13.39-13.71,0-8.48,5.75-14.23,14.15-14.23a14.53,14.53,0,0,1,6.43,1.21l-.84,2.85a12.74,12.74,0,0,0-5.47-1.13c-6.35,0-10.57,4.06-10.57,11.18,0,6.63,3.82,10.9,10.41,10.9a14,14,0,0,0,5.71-1.12Z"/><path class="cls-6" d="M970.14,1154.08c0,7.2-5,10.33-9.69,10.33-5.27,0-9.33-3.86-9.33-10,0-6.51,4.26-10.33,9.65-10.33C966.36,1144.06,970.14,1148.13,970.14,1154.08Zm-15.44.2c0,4.26,2.45,7.48,5.91,7.48s5.91-3.18,5.91-7.56c0-3.3-1.65-7.48-5.83-7.48S954.7,1150.58,954.7,1154.28Z"/><path class="cls-6" d="M974.6,1149.77c0-2,0-3.66-.16-5.27h3.1l.16,3.14h.12a6.71,6.71,0,0,1,6.11-3.58,5.75,5.75,0,0,1,5.51,3.9h.08a8,8,0,0,1,2.17-2.53,6.64,6.64,0,0,1,4.3-1.37c2.57,0,6.39,1.69,6.39,8.44V1164h-3.46v-11c0-3.74-1.37-6-4.22-6a4.58,4.58,0,0,0-4.18,3.22,5.82,5.82,0,0,0-.28,1.77v12h-3.46v-11.66c0-3.1-1.37-5.35-4.06-5.35a5.28,5.28,0,0,0-4.66,5.27V1164H974.6Z"/><path class="cls-6" d="M1010.1,1154.88c.08,4.79,3.14,6.75,6.67,6.75a12.81,12.81,0,0,0,5.39-1l.6,2.53a15.77,15.77,0,0,1-6.47,1.21c-6,0-9.57-3.94-9.57-9.81s3.46-10.49,9.13-10.49c6.35,0,8,5.59,8,9.17a13.16,13.16,0,0,1-.12,1.65Zm10.37-2.53c0-2.25-.92-5.75-4.91-5.75-3.58,0-5.15,3.3-5.43,5.75Z"/><path class="cls-6" d="M1028.28,1149.77c0-2,0-3.66-.16-5.27h3.14l.2,3.22h.08a7.16,7.16,0,0,1,6.43-3.66c2.69,0,6.88,1.61,6.88,8.28V1164h-3.54v-11.22c0-3.14-1.17-5.75-4.5-5.75a5,5,0,0,0-4.74,3.62,5.08,5.08,0,0,0-.24,1.65V1164h-3.54Z"/><path class="cls-6" d="M1048.38,1161.92l8.81-11.46c.84-1,1.65-2,2.53-3v-.08h-10.53v-2.85H1064l0,2.21-8.68,11.3c-.8,1.08-1.61,2.05-2.49,3.06v.08h11.38V1164h-15.8Z"/><path class="cls-6" d="M1078.58,1164l-.28-2.45h-.12a7.25,7.25,0,0,1-6,2.89,5.54,5.54,0,0,1-6-5.59c0-4.7,4.18-7.28,11.7-7.24v-.4c0-1.61-.44-4.5-4.42-4.5a9.7,9.7,0,0,0-5.07,1.45l-.8-2.33a12.07,12.07,0,0,1,6.39-1.73c6,0,7.4,4.06,7.4,8v7.28a27.4,27.4,0,0,0,.32,4.66Zm-.52-9.93c-3.86-.08-8.24.6-8.24,4.38a3.13,3.13,0,0,0,3.34,3.38,4.84,4.84,0,0,0,4.71-3.26,3.71,3.71,0,0,0,.2-1.13Z"/><path class="cls-6" d="M1087.18,1150.58c0-2.29,0-4.26-.16-6.07h3.1l.12,3.82h.16a5.84,5.84,0,0,1,5.39-4.26,3.81,3.81,0,0,1,1,.12v3.34a5.34,5.34,0,0,0-1.21-.12c-2.49,0-4.26,1.89-4.74,4.54a10,10,0,0,0-.16,1.65V1164h-3.5Z"/><rect class="cls-2" x="1170.94" y="472" width="137.15" height="58.77" rx="1.38" ry="1.38"/><path class="cls-1" d="M1306.71,531.27h-134.4a1.88,1.88,0,0,1-1.87-1.87v-56a1.88,1.88,0,0,1,1.88-1.87h134.4a1.88,1.88,0,0,1,1.88,1.88v56A1.88,1.88,0,0,1,1306.71,531.27Zm-134.4-58.77a.88.88,0,0,0-.87.88v56a.88.88,0,0,0,.88.88h134.4a.88.88,0,0,0,.88-.87v-56a.88.88,0,0,0-.87-.87Z"/><path class="cls-2" d="M570.22,867.8h736.49a1.38,1.38,0,0,1,1.38,1.38v56a1.38,1.38,0,0,1-1.37,1.38H570.22a1.38,1.38,0,0,1-1.37-1.37v-56A1.37,1.37,0,0,1,570.22,867.8Z"/><path class="cls-1" d="M1306.71,927.07H570.22a1.88,1.88,0,0,1-1.87-1.87v-56a1.88,1.88,0,0,1,1.88-1.87h736.49a1.88,1.88,0,0,1,1.88,1.88v56A1.88,1.88,0,0,1,1306.71,927.07ZM570.22,868.3a.88.88,0,0,0-.87.88v56a.88.88,0,0,0,.88.88h736.49a.88.88,0,0,0,.88-.87v-56a.88.88,0,0,0-.87-.87Z"/><path class="cls-1" d="M883.33,729.77H570.52a1.88,1.88,0,0,1-1.87-1.87v-56a1.88,1.88,0,0,1,1.88-1.87h312.8a1.88,1.88,0,0,1,1.88,1.88v56A1.88,1.88,0,0,1,883.33,729.77ZM570.52,671a.88.88,0,0,0-.87.88v56a.88.88,0,0,0,.88.88h312.8a.88.88,0,0,0,.88-.87v-56a.88.88,0,0,0-.87-.87Z"/><path class="cls-1" d="M591.46,605.4h2.16v28.55H591.7l-16.84-24.56v24.56H572.7V605.4h1.8l17,24.66Z"/><path class="cls-1" d="M602.47,608.15a1.63,1.63,0,0,1-2.28,0,1.55,1.55,0,0,1-.49-1.16,1.5,1.5,0,0,1,.49-1.12,1.63,1.63,0,0,1,2.28,0A1.5,1.5,0,0,1,603,607,1.55,1.55,0,0,1,602.47,608.15Zm-2.16,25.79V613.56h2v20.39Z"/><path class="cls-1" d="M623.59,613.56h2.16l-8.6,20.39h-2.49L606,613.56h2.2l7.66,18.28Z"/><path class="cls-1" d="M637.82,613.11a9.23,9.23,0,0,1,7.28,3.18,11.06,11.06,0,0,1,2.79,7.54c0,.11,0,.27,0,.49s0,.38,0,.49H629.38a8.24,8.24,0,0,0,2.75,5.53,9.39,9.39,0,0,0,10.17,1.08,7,7,0,0,0,2.77-2.69l1.79,1.06a9,9,0,0,1-3.59,3.36,11.06,11.06,0,0,1-5.3,1.24,10.47,10.47,0,0,1-7.71-3,10.31,10.31,0,0,1-3-7.65,10.47,10.47,0,0,1,3-7.61A10.15,10.15,0,0,1,637.82,613.11Zm0,2a8.18,8.18,0,0,0-5.79,2.16,8.44,8.44,0,0,0-2.65,5.59h16.39a8.38,8.38,0,0,0-2.59-5.69A7.7,7.7,0,0,0,637.82,615.07Z"/><path class="cls-1" d="M652.67,633.95V604.18h2v29.77Z"/><polygon class="cls-1" points="847.62 707.56 834.79 694.73 836.2 693.32 847.62 704.73 859.43 692.91 860.85 694.33 847.62 707.56"/><path class="cls-1" d="M1306.71,729.77H993.91a1.88,1.88,0,0,1-1.87-1.87v-56a1.88,1.88,0,0,1,1.88-1.87h312.8a1.88,1.88,0,0,1,1.88,1.88v56A1.88,1.88,0,0,1,1306.71,729.77ZM993.91,671a.88.88,0,0,0-.87.88v56a.88.88,0,0,0,.88.88h312.8a.88.88,0,0,0,.88-.87v-56a.88.88,0,0,0-.87-.87Z"/><path class="cls-1" d="M1023.24,620.65v1.1a12,12,0,0,1-3.79,9,13.8,13.8,0,0,1-10,3.65,14.55,14.55,0,0,1-10.77-4.26,14.82,14.82,0,0,1,17.8-23.31,13.33,13.33,0,0,1,5.08,5l-1.92,1.14a10.85,10.85,0,0,0-4.22-4.32,12,12,0,0,0-6.14-1.63,12.2,12.2,0,0,0-9.11,3.65,12.66,12.66,0,0,0,9.28,21.63,11.82,11.82,0,0,0,8.12-2.73,10,10,0,0,0,3.47-6.89h-12.11v-2Z"/><path class="cls-1" d="M1043.06,613.56h2v20.39h-2v-3.87a8.43,8.43,0,0,1-13.07,2.1,8.19,8.19,0,0,1-2.14-5.93V613.56h2.08v12.68a6.34,6.34,0,0,0,1.57,4.53,5.77,5.77,0,0,0,4.42,1.67,6.81,6.81,0,0,0,5.14-2.08,8.37,8.37,0,0,0,2-6Z"/><path class="cls-1" d="M1053.54,605.52H1056l-2.73,5.18h-2Zm-.12,28.42V613.56h-2v20.39Z"/><path class="cls-1" d="M1077.64,613.56h2.08v20.39h-2.08v-4.61a9.62,9.62,0,0,1-3.59,3.71,10,10,0,0,1-5.18,1.35,10.64,10.64,0,0,1,0-21.29,10,10,0,0,1,5.18,1.35,9.62,9.62,0,0,1,3.59,3.71Zm-14.74,16.35a8.69,8.69,0,0,0,12.25,0,8.87,8.87,0,0,0,0-12.32,8.69,8.69,0,0,0-12.25,0,8.81,8.81,0,0,0,0,12.32Z"/><path class="cls-1" d="M1099.05,608.15a1.63,1.63,0,0,1-2.28,0,1.55,1.55,0,0,1-.49-1.16,1.5,1.5,0,0,1,.49-1.12,1.63,1.63,0,0,1,2.28,0,1.5,1.5,0,0,1,.49,1.12A1.55,1.55,0,0,1,1099.05,608.15Zm-2.16,25.79V613.56h2v20.39Z"/><path class="cls-1" d="M1114.55,613.11a7.64,7.64,0,0,1,5.77,2.22,8.19,8.19,0,0,1,2.14,5.93v12.68h-2.08V621.26a6.35,6.35,0,0,0-1.57-4.53,5.78,5.78,0,0,0-4.42-1.67,6.81,6.81,0,0,0-5.14,2.08,8.37,8.37,0,0,0-2,6v10.77h-2V613.56h2v3.87A7.58,7.58,0,0,1,1114.55,613.11Z"/><path class="cls-1" d="M1130.37,608.15a1.63,1.63,0,0,1-2.28,0,1.55,1.55,0,0,1-.49-1.16,1.5,1.5,0,0,1,.49-1.12,1.63,1.63,0,0,1,2.28,0,1.5,1.5,0,0,1,.49,1.12A1.55,1.55,0,0,1,1130.37,608.15Zm-2.16,25.79V613.56h2v20.39Z"/><path class="cls-1" d="M1145.87,634.4a10.64,10.64,0,1,1,5.38-19.88,8.4,8.4,0,0,1,3.51,3.81l-1.67,1a6.87,6.87,0,0,0-2.83-3.1,8.47,8.47,0,0,0-4.38-1.14,8.33,8.33,0,0,0-6.16,2.51,8.91,8.91,0,0,0,0,12.36,8.33,8.33,0,0,0,6.16,2.51,8.46,8.46,0,0,0,4.38-1.14,7.63,7.63,0,0,0,3-3.1l1.71,1a9.19,9.19,0,0,1-3.65,3.77A10.58,10.58,0,0,1,1145.87,634.4Z"/><path class="cls-1" d="M1161.57,608.15a1.63,1.63,0,0,1-2.28,0,1.55,1.55,0,0,1-.49-1.16,1.5,1.5,0,0,1,.49-1.12,1.63,1.63,0,0,1,2.28,0,1.5,1.5,0,0,1,.49,1.12A1.55,1.55,0,0,1,1161.57,608.15Zm-2.16,25.79V613.56h2v20.39Z"/><path class="cls-1" d="M1185.67,613.56h2.08v20.39h-2.08v-4.61a9.62,9.62,0,0,1-3.59,3.71,10,10,0,0,1-5.18,1.35,10.64,10.64,0,0,1,0-21.29,10,10,0,0,1,5.18,1.35,9.62,9.62,0,0,1,3.59,3.71Zm-14.74,16.35a8.69,8.69,0,0,0,12.25,0,8.87,8.87,0,0,0,0-12.32,8.69,8.69,0,0,0-12.25,0,8.81,8.81,0,0,0,0,12.32Z"/><path class="cls-1" d="M1194,633.95V604.18h2v29.77Z"/><polygon class="cls-1" points="1271 707.56 1258.17 694.73 1259.59 693.32 1271 704.73 1282.82 692.91 1284.23 694.33 1271 707.56"/><path class="cls-3" d="M57.32,1217.07a12.58,12.58,0,0,0,6.36,1.79c3.63,0,5.75-1.92,5.75-4.69,0-2.57-1.47-4-5.18-5.47-4.49-1.59-7.26-3.92-7.26-7.79,0-4.28,3.55-7.46,8.89-7.46A12.49,12.49,0,0,1,72,1194.8l-1,2.9a11,11,0,0,0-5.22-1.3c-3.75,0-5.18,2.24-5.18,4.12,0,2.57,1.67,3.83,5.47,5.3,4.65,1.79,7,4,7,8.08,0,4.24-3.14,7.91-9.63,7.91a14.21,14.21,0,0,1-7-1.75Z"/><path class="cls-3" d="M88.84,1221.39l-.29-2.49h-.12a7.35,7.35,0,0,1-6,2.94,5.62,5.62,0,0,1-6-5.67c0-4.77,4.24-7.38,11.87-7.34v-.41c0-1.63-.45-4.57-4.49-4.57a9.83,9.83,0,0,0-5.14,1.47l-.82-2.37a12.25,12.25,0,0,1,6.48-1.75c6,0,7.5,4.12,7.5,8.08v7.38a27.85,27.85,0,0,0,.33,4.73Zm-.53-10.07c-3.92-.08-8.36.61-8.36,4.45a3.18,3.18,0,0,0,3.39,3.43,4.91,4.91,0,0,0,4.77-3.3,3.73,3.73,0,0,0,.2-1.14Z"/><path class="cls-3" d="M97.56,1192.43h3.59v29H97.56Z"/><path class="cls-3" d="M111.19,1196.11a2.22,2.22,0,0,1-4.45,0,2.19,2.19,0,0,1,2.24-2.24A2.13,2.13,0,0,1,111.19,1196.11Zm-4,25.29v-19.74h3.59v19.74Z"/><path class="cls-3" d="M116.73,1207.81c0-2.32,0-4.32-.16-6.16h3.14l.12,3.87H120a5.92,5.92,0,0,1,5.47-4.32,3.86,3.86,0,0,1,1,.12v3.38a5.42,5.42,0,0,0-1.22-.12c-2.53,0-4.32,1.92-4.81,4.61a10.06,10.06,0,0,0-.16,1.67v10.52h-3.55Z"/><g class="cls-7"><path class="cls-3" d="M276.54,241.66l-30-24.45a4.57,4.57,0,0,0-1.09-5.49l8.59-15.9a1,1,0,0,0-1.79-1l-.1.19-49.7-5.78a4.58,4.58,0,0,0-4.39-4.09l-2.62-13.95a1,1,0,0,0-2,.37l2.62,13.94a4.6,4.6,0,0,0-2.22,2l-40.08-11a1,1,0,0,0-.54,2l40.09,11s0,.07,0,.1l-34.19,7a4.59,4.59,0,0,0-8.57.54l-33.28-2.46a1,1,0,1,0-.15,2l33.28,2.46a4.58,4.58,0,0,0,1.85,3l-18.15,42.9L116.4,256.39a4.58,4.58,0,0,0-7.15.88L87.82,250.1a1,1,0,0,0-.64,1.93l21.43,7.16c0,.15,0,.3,0,.45a4.59,4.59,0,0,0,2.85,4.24L108,284.22a1,1,0,0,0,.83,1.17H109a1,1,0,0,0,1-.85l3.4-20.33a4.56,4.56,0,0,0,2.22-.72l35.92,35.17h0l.08.06.06,0,.11.06.06,0,.13,0h.05l.19,0h0l.2,0,.05,0,.14,0,.07,0,.11-.06.07-.06.08-.07h0l38.68-42.37a4.55,4.55,0,0,0,1.34.51l.88,42.36a1,1,0,0,0,1,1h0a1,1,0,0,0,1-1l-.88-42.37a4.59,4.59,0,0,0,3-2.31l42.39,11.29c0,.06,0,.11,0,.17a4.58,4.58,0,0,0,6.51,4.16l15.26,19.83a1,1,0,1,0,1.61-1.24l-15.26-19.83a4.58,4.58,0,0,0-2.74-7.44l-2.1-41.76a4.57,4.57,0,0,0,1.58-.8l30,24.45a1,1,0,1,0,1.28-1.57ZM243.7,210.75A4.57,4.57,0,0,0,238,214l-54.63-1.56-24-12.77a4.58,4.58,0,0,0,.16-1.1l34.19-7a4.58,4.58,0,0,0,8.5-.36l48.9,5.68ZM135.51,246.66a1,1,0,0,0,.39-.46L154.17,203a4.54,4.54,0,0,0,4.28-1.52l23.83,12.67,9.53,34.07a4.59,4.59,0,0,0-2.4,4c0,.07,0,.14,0,.21L173.08,257l-55.47,1.52q-.05-.2-.12-.4Zm16.74,49.82L117.08,262a4.55,4.55,0,0,0,.6-1.51L173.26,259a1,1,0,0,0,.24,0l16.44-4.54a4.57,4.57,0,0,0,.28.45Zm46.32-44c0-.06,0-.11,0-.17a4.59,4.59,0,0,0-4.59-4.59h-.22l-9.28-33.17L238,216.06a4.59,4.59,0,0,0,3.71,3.63l2.1,41.77a4.59,4.59,0,0,0-2.82,2.28Z"/></g><circle class="cls-3" cx="116.38" cy="192.78" r="4.55"/><circle class="cls-3" cx="194.56" cy="169.6" r="4.55"/><circle class="cls-3" cx="224.83" cy="270.39" r="4.55"/><circle class="cls-3" cx="264.13" cy="289.71" r="4.55"/><circle class="cls-3" cx="253.55" cy="194.86" r="4.55"/><path class="cls-3" d="M277.26,235.77a5.63,5.63,0,0,0-1.55.24l-18.56-36.67a5.74,5.74,0,1,0-8-8.2l-20.8-10.55-28.1-10.29a5.68,5.68,0,0,0,0-.7,5.74,5.74,0,0,0-11.46-.47L158.24,173a5.74,5.74,0,0,0-10.93,2.47,5.31,5.31,0,0,0,.07.81L121,189.39a5.74,5.74,0,0,0-10.4,3.38,5.67,5.67,0,0,0,1.09,3.32L91.15,219.73a5.68,5.68,0,0,0-2.78-.74,5.74,5.74,0,0,0-1.55,11.28l-1.38,14.66a5.74,5.74,0,0,0,.7,11.45,5.6,5.6,0,0,0,2.14-.42l15.94,24.68a5.75,5.75,0,0,0,3.54,10.29,5.78,5.78,0,0,0,5.14-3.22l32.79,9.71c0,.18-.05.38-.05.55A5.74,5.74,0,0,0,157,299.19l32,.23a5.7,5.7,0,0,0,5.53,4.29,5.47,5.47,0,0,0,1.85-.35L211.3,326.6a5.76,5.76,0,1,0,9.16,1.44l40.62-33.48a5.61,5.61,0,0,0,3,.9,5.74,5.74,0,0,0,3.37-10.4l9.6-37.79h.15a5.76,5.76,0,0,0,0-11.52Zm-27-40.93a3.2,3.2,0,0,1,.18-1l0-.07h0c0-.1.08-.19.12-.28a3.13,3.13,0,0,1,.34-.59h0a3.34,3.34,0,1,1,4.58,4.76,3,3,0,0,1-.92.44h0a3.41,3.41,0,0,1-2.85-.41,3.85,3.85,0,0,1-.76-.72h0a3.3,3.3,0,0,1-.4-.67l0,0a3.48,3.48,0,0,1-.17-.49s0-.06,0-.09a2.92,2.92,0,0,1-.07-.4V195c0-.06,0-.12,0-.19Zm.39,4.94a5.38,5.38,0,0,0,4.38.64l18.6,36.72A5.77,5.77,0,0,0,272,239.3l-46.31-8.74a5.68,5.68,0,0,0-1-3.1Zm-71,57.11c0-.1,0-.21,0-.31a5.72,5.72,0,0,0-3.43-5.24l6.79-32.25h0a5.7,5.7,0,0,0,4.5-2.27l26.8,12.59h0a5.72,5.72,0,0,0,5,7l3.28,28.45a5.71,5.71,0,0,0-3.27,2.8l-39.76-10.77h0Zm-40.21-12.94,39.56-26.5a5.44,5.44,0,0,0,1.64,1.12l-6.77,32.25A5.76,5.76,0,0,0,168.7,254l-28.93-7.63c0-.09,0-.19,0-.27A5.63,5.63,0,0,0,139.36,243.94ZM134,210a3.35,3.35,0,0,1,3.29,2.85,2.05,2.05,0,0,1,0,.48,1.9,1.9,0,0,1,0,.46h0l-.17.67a3.29,3.29,0,0,1-2.05,2l-.61.15h0a2,2,0,0,1-.38,0H134a2.4,2.4,0,0,1-.48-.05l-.13,0a3.25,3.25,0,0,1-2.44-2h0l0-.06a3.18,3.18,0,0,1-.22-.93l0-.34a3.37,3.37,0,0,1,.79-2.12h0a3.91,3.91,0,0,1,.79-.69A3.38,3.38,0,0,1,134,210Zm-1.46-1a4.51,4.51,0,0,1,1.44-.24A4.56,4.56,0,0,0,132.56,209.07Zm2.28-.16a4.55,4.55,0,0,1,3.09,2.2A4.59,4.59,0,0,0,134.84,208.91Zm.95,8.66a4.42,4.42,0,0,1-.56.2h0A4.42,4.42,0,0,0,135.79,217.57Zm-3,.17v0l-.42-.13A4.11,4.11,0,0,0,132.81,217.74Zm.15,25.19.61-.15.21,0h.58l.16,0,.65.16a3.32,3.32,0,0,1,1.33.88,2.9,2.9,0,0,1,.46.66c0,.06.07.11.09.17h0a3.23,3.23,0,0,1,.32,1.4h0v0c0,.1,0,.2,0,.31a3,3,0,0,1-.07.38s0,.08,0,.12a2.86,2.86,0,0,1-.17.47v0a3.32,3.32,0,0,1-3,2,3.38,3.38,0,0,1-1.36-.29h0l-.18-.1a3.13,3.13,0,0,1-.68-.47h0a3.23,3.23,0,0,1-1-1.69,2.63,2.63,0,0,1-.11-.79s0-.07,0-.1v-.05l.11-.67A3.33,3.33,0,0,1,133,242.93Zm2.28-2.46V219a5.71,5.71,0,0,0,4.4-4.41l37.66-.06a5.46,5.46,0,0,0,.27.9h0L138,242A5.57,5.57,0,0,0,135.23,240.47Zm44.34-27.16a2.06,2.06,0,0,1,0-.46l.17-.67a3.32,3.32,0,0,1,.91-1.37,3.24,3.24,0,0,1,.41-.3h0a3.8,3.8,0,0,1,.46-.25,3.25,3.25,0,0,1,2.11-.18,2.86,2.86,0,0,1,.95.39h0A3.33,3.33,0,0,1,186,212a3.27,3.27,0,0,1,.26,1c0,.1,0,.19,0,.29a3.2,3.2,0,0,1-.15,1,2.75,2.75,0,0,1-.17.46c0,.06-.07.12-.11.19s-.1.18-.16.28h0a3.32,3.32,0,0,1-2.72,1.46h-.23a3,3,0,0,1-1-.22h0a3.12,3.12,0,0,1-1.26-.84,3.33,3.33,0,0,1-.31-.39L180,215c-.06-.1-.12-.19-.17-.3a3.41,3.41,0,0,1-.17-.56l-.08-.34,0-.35C179.57,213.41,179.57,213.36,179.57,213.3Zm-9.07,42.91a3.55,3.55,0,0,1,.25-1,3.37,3.37,0,0,1,3-2H174a2.65,2.65,0,0,1,.63.1l.3.1h0l.06,0a3.31,3.31,0,0,1,2.12,3.08h0l0,.39a2.88,2.88,0,0,1-.06.35s0,.1,0,.14a3.46,3.46,0,0,1-.17.48,3.41,3.41,0,0,1-1.12,1.36l-.17.1a3.27,3.27,0,0,1-.3.18h0a2.87,2.87,0,0,1-.46.18l-.09,0a3.25,3.25,0,0,1-2,0l-.06,0a2.62,2.62,0,0,1-.42-.18,3.9,3.9,0,0,1-.43-.28l-.12-.09a3.34,3.34,0,0,1-1.23-2.59C170.48,256.46,170.49,256.35,170.5,256.22ZM219,233.92a3.3,3.3,0,0,1-2.48-3.21,3.13,3.13,0,0,1,.1-.77l0-.18a3.24,3.24,0,0,1,.42-.91,3.37,3.37,0,0,1,4.65-.9,3.88,3.88,0,0,1,.76.72,3.35,3.35,0,0,1,.69,1.91v.27a2.83,2.83,0,0,1-.18,1h0a3.31,3.31,0,0,1-2.26,2.1,3.46,3.46,0,0,1-.83.12h-.13l-.79-.19Zm2.06,36.38,0-.39a2.79,2.79,0,0,1,.08-.46c0-.06,0-.11.06-.17a2.9,2.9,0,0,1,.12-.33v0a3.32,3.32,0,0,1,2.1-1.82l.07,0a3.28,3.28,0,0,1,.88-.13l.85.21v-.08a3.31,3.31,0,0,1,2.48,3.23,3.1,3.1,0,0,1-.15,1v0a3,3,0,0,1-.43.91,3.45,3.45,0,0,1-4.8.73,3.86,3.86,0,0,1-.72-.76,3.36,3.36,0,0,1-.57-1.88Zm7.23-4.22A5.79,5.79,0,0,0,225,264.6l-3.28-28.45a5.79,5.79,0,0,0,3.47-3.21l46.3,8.74a5.7,5.7,0,0,0,.2,1.36Zm20.08-68.63a5.85,5.85,0,0,0,.43.65l-26,27.7a5.66,5.66,0,0,0-7.51,1.43L188.5,214.61a5.79,5.79,0,0,0,.17-1.3c0-.08,0-.16,0-.24l59.75-15.62h0Zm-49-24.86,28,10.21L248,193.28a5.5,5.5,0,0,0-.26,1.58c0,.08,0,.17,0,.26L188,210.72a5.64,5.64,0,0,0-2.08-2.27l8.41-33.1.21,0A5.75,5.75,0,0,0,199.45,172.6Zm-8.22-3.06a3.33,3.33,0,0,1,6.67.07,3.59,3.59,0,0,1-.05.58,3.31,3.31,0,0,1-3.6,2.74,3,3,0,0,1-.73-.16l-.23-.08h0l-.05,0a3.27,3.27,0,0,1-1.81-2v-.07a3.22,3.22,0,0,1-.08-.33c0-.06,0-.12,0-.19s0-.16,0-.24,0-.15,0-.23Zm-32.41,5.89s0-.06,0-.1l30.35-3.8a5.71,5.71,0,0,0,2.84,3.22l-8.36,32.87a5.64,5.64,0,0,0-2.89.38L157.5,179A5.67,5.67,0,0,0,158.82,175.43Zm-5.76-3.33a3.36,3.36,0,0,1,3,1.93,3,3,0,0,1,.27,1l0,.22c0,.06,0,.11,0,.17a3.28,3.28,0,0,1-.87,2.24,3.49,3.49,0,0,1-.8.65,3.34,3.34,0,0,1-4.64-1.41,3.28,3.28,0,0,1-.31-1h0a2.6,2.6,0,0,1,0-.47A3.34,3.34,0,0,1,153.06,172.09Zm-30.92,20.68a5.7,5.7,0,0,0-.13-1.17l26.22-13.08a5.67,5.67,0,0,0,7.4,2l23.11,28.82a5.66,5.66,0,0,0-1.44,2.73l-37.68,0a5.7,5.7,0,0,0-8.33-3.82l-10.35-12.09A5.72,5.72,0,0,0,122.14,192.77Zm-5.76-3.33a3.31,3.31,0,0,1,2.85,1.6,2.88,2.88,0,0,1,.38.95v0a2.79,2.79,0,0,1,.1.75,3.33,3.33,0,0,1-.79,2.17,3.7,3.7,0,0,1-.37.37l-.26.19-.15.11h0a3.36,3.36,0,0,1-3.61-.07,4.16,4.16,0,0,1-.77-.71,3.39,3.39,0,0,1-.7-2.07A3.34,3.34,0,0,1,116.38,189.44Zm-2.88,8.3a5.59,5.59,0,0,0,2.88.8h.06a5.77,5.77,0,0,0,2.67-.71l10.34,12.09a5.7,5.7,0,0,0-1.2,3.46c0,.06,0,.12,0,.19l-34.76,8.66a5.3,5.3,0,0,0-.54-.88ZM85,224.75a3.34,3.34,0,0,1,3.35-3.33,3.28,3.28,0,0,1,1.77.5,3.88,3.88,0,0,1,.79.7,3.34,3.34,0,0,1,.51.85,2.88,2.88,0,0,1,.24,1l0,.35a3.33,3.33,0,0,1-3,3.28h-.27a3,3,0,0,1-.76-.06h0A3.32,3.32,0,0,1,85,224.75Zm4.44,26h0l-.13.76a3.33,3.33,0,0,1-.92,1.53h0a3.44,3.44,0,0,1-.84.58,3.25,3.25,0,0,1-1.44.33,3.34,3.34,0,0,1-.17-6.67h.13a3.08,3.08,0,0,1,.85.1h0a3.35,3.35,0,0,1,2.42,2.43h0a3,3,0,0,1,.1.79A.92.92,0,0,1,89.47,250.74Zm-1.61-5.61,1.39-14.72a5.74,5.74,0,0,0,4.88-5.66c0-.06,0-.12,0-.18l34.75-8.65a5.7,5.7,0,0,0,3.94,3.09v21.46a5.77,5.77,0,0,0-4.48,4.93l-36.72,3.48A5.71,5.71,0,0,0,87.86,245.13Zm15.36,40a4.51,4.51,0,0,1,1.49-3.37A4.58,4.58,0,0,0,103.22,285.16Zm7.87.13v.11s0,.09,0,.14a2.92,2.92,0,0,1-.22.86h0a3.33,3.33,0,1,1-4.82-4.09,2.93,2.93,0,0,1,1-.39h0a2.79,2.79,0,0,1,.74-.1,3.29,3.29,0,0,1,1.88.58,3.82,3.82,0,0,1,.76.71,3.39,3.39,0,0,1,.7,2S111.09,285.25,111.09,285.29Zm-.63-5.2a5.79,5.79,0,0,0-4-.52l-16.14-25a5.73,5.73,0,0,0,1.55-3.28l36.73-3.48a5.62,5.62,0,0,0,1.39,2.29Zm1.46,3.24a4.46,4.46,0,0,1,.37,1.66A4.56,4.56,0,0,0,111.92,283.33Zm34.51,11.76-32.92-9.74c0-.06,0-.12,0-.19a5.62,5.62,0,0,0-1.22-3.48L132,251.44a5.72,5.72,0,0,0,7.16-2.76l28.93,7.63c0,.09,0,.19,0,.26a5.76,5.76,0,0,0,2,4.4l-16.76,31.58a5.62,5.62,0,0,0-1.94-.34A5.76,5.76,0,0,0,146.43,295.08Zm6.11-1.53a4.56,4.56,0,0,0-1.13-.14A4.47,4.47,0,0,1,152.54,293.56Zm-4.9,1.88a4.53,4.53,0,0,1,.65-.79,4.62,4.62,0,0,0-.65.79Zm7.06,3h0l-.17.67a3.33,3.33,0,0,1-6.45-1.14c0-.1,0-.18,0-.26l0-.29a3.25,3.25,0,0,1,.32-1,3.33,3.33,0,0,1,3-1.8,3.39,3.39,0,0,1,1.4.31l.22.12.22.12,0,0a3,3,0,0,1,.37.31l0,0a3.35,3.35,0,0,1,1,2,2.53,2.53,0,0,1,0,.47A1.89,1.89,0,0,1,154.69,298.42Zm1.06-1.64a4.52,4.52,0,0,0-.7-1.53,4.39,4.39,0,0,1,.7,1.53Zm33.14.22L157,296.79a5.61,5.61,0,0,0-1.62-2.93l16.86-31.77a5,5,0,0,0,3,0l15.65,31.42A5.68,5.68,0,0,0,188.89,297Zm7.78,3.54a3.31,3.31,0,0,1-.89.52h0a3.21,3.21,0,0,1-1.21.23,3.3,3.3,0,0,1-3.24-2.61,2.87,2.87,0,0,1-.09-.72,1.92,1.92,0,0,1,0-.25l.16-.7h0a3.32,3.32,0,0,1,1.17-1.71,3.14,3.14,0,0,1,.81-.44l.08,0h0a3.47,3.47,0,0,1,1.16-.19,3.28,3.28,0,0,1,2.14.82h0a3.88,3.88,0,0,1,.28.28l.11.11a3.34,3.34,0,0,1,.29.39,3.4,3.4,0,0,1,.47,1.72A3.3,3.3,0,0,1,196.67,300.54Zm-2.13-8.34a5.62,5.62,0,0,0-1.52.24l-15.62-31.38a5.7,5.7,0,0,0,1.53-1.84L218.71,270c0,.11,0,.21,0,.32a5.65,5.65,0,0,0,.84,2.95L198,293.38A5.56,5.56,0,0,0,194.54,292.2Zm16.27,38.48a4.53,4.53,0,0,1,1.17-3A4.57,4.57,0,0,0,210.81,330.68Zm4.55,3.34a3.34,3.34,0,0,1-3.33-3.33,3.37,3.37,0,0,1,1.13-2.5,3.49,3.49,0,0,1,.86-.55,3.44,3.44,0,0,1,1.34-.28,3.32,3.32,0,0,1,2.22.84,3.52,3.52,0,0,1,.66.79,3.34,3.34,0,0,1-2.87,5Zm-1.12-7.74a4.49,4.49,0,0,1,1.11-.14A4.57,4.57,0,0,0,214.23,326.28Zm1.15-.14a4.54,4.54,0,0,1,1.85.4A4.55,4.55,0,0,0,215.38,326.14Zm3.53,0a5.64,5.64,0,0,0-5.56-.89l-14.85-23.16a5.66,5.66,0,0,0,1.83-4.18,5.77,5.77,0,0,0-.72-2.75L221.19,275a5.66,5.66,0,0,0,7.78-1.16l29.59,14.48a5.48,5.48,0,0,0,.78,4.52ZM264.13,293a3.39,3.39,0,0,1-1.79-.51,3.64,3.64,0,0,1-.78-.71,3.33,3.33,0,0,1-.76-2.11,3.11,3.11,0,0,1,.15-1l0-.06a3.55,3.55,0,0,1,.16-.41l.09-.16a3.19,3.19,0,0,1,.17-.29h0a3.31,3.31,0,0,1,2.73-1.42,2.85,2.85,0,0,1,.92.14l.16,0h0a2.72,2.72,0,0,1,.32.13,3.26,3.26,0,0,1,.58.34,3.33,3.33,0,0,1-2,6Zm1.12-9a5.48,5.48,0,0,0-1.15-.12,5.7,5.7,0,0,0-4.47,2.2L230,271.68a5.61,5.61,0,0,0,.19-1.37,5.68,5.68,0,0,0-.39-2.08l43.13-22.92a5.65,5.65,0,0,0,1.8,1.36Zm12-39.22-.32,0a3.29,3.29,0,0,1-1-.22,3.4,3.4,0,0,1-2-2.69v-.52a2.66,2.66,0,0,1,0-.47c0-.06,0-.12,0-.18a3.34,3.34,0,0,1,.09-.34h0a3.38,3.38,0,0,1,1.12-1.55,3.33,3.33,0,0,1,.3-.18l.14-.08a3.37,3.37,0,0,1,.42-.18l0,0h0a3.33,3.33,0,1,1,1.14,6.47Z"/></g></svg>