<svg width="50" height="50"
id="Capa_1" data-name="Capa 1" xmlns="http://www.w3.org/2000/svg" viewBox="0 0 35 35"><defs><style>.cls-1{fill:#1e272f;}</style></defs><title>python</title><path class="cls-1" d="M24.51,25.2v.15c0,.83,0,1.65,0,2.48a2.28,2.28,0,0,1-.73,1.73A5.42,5.42,0,0,1,22,30.71a10.74,10.74,0,0,1-2.88.71,13.64,13.64,0,0,1-3,0,10.33,10.33,0,0,1-3.49-.93,4.7,4.7,0,0,1-1.53-1.11,2.2,2.2,0,0,1-.58-1.52c0-1.21,0-2.41,0-3.62a20.77,20.77,0,0,1,.16-2.75A7.65,7.65,0,0,1,11,19.88a2.71,2.71,0,0,1,2.1-1.79,11.57,11.57,0,0,1,2.35-.22c1,0,2,0,3.06,0,.8,0,1.61-.06,2.41-.12a5.83,5.83,0,0,0,1.54-.33,3.39,3.39,0,0,0,2.1-2.07,8.15,8.15,0,0,0,.46-2,23.67,23.67,0,0,0,.14-2.73s0-.06,0-.11h.13c.83,0,1.66,0,2.49,0a2.29,2.29,0,0,1,1.74.73,5.46,5.46,0,0,1,1.15,1.84,10.77,10.77,0,0,1,.7,2.87,13.58,13.58,0,0,1,0,3,10.06,10.06,0,0,1-1.05,3.74,4.2,4.2,0,0,1-1.17,1.44,2.09,2.09,0,0,1-1.29.44H17.51v.7ZM22.65,28a1.29,1.29,0,1,0-1.3,1.3A1.29,1.29,0,0,0,22.65,28Z"/><path class="cls-1" d="M10.49,9.8V9.46c0-.76,0-1.53,0-2.29a2.27,2.27,0,0,1,.73-1.73,5.49,5.49,0,0,1,1.9-1.18,11.36,11.36,0,0,1,3.65-.75,12.94,12.94,0,0,1,4,.38,7.16,7.16,0,0,1,2.7,1.25,2.63,2.63,0,0,1,1,1.39A1.9,1.9,0,0,1,24.5,7c0,1.36,0,2.72,0,4.08a14.82,14.82,0,0,1-.28,3.06,7.09,7.09,0,0,1-.3,1,2.67,2.67,0,0,1-1.83,1.66,7.77,7.77,0,0,1-1.69.28c-1.56.11-3.11.05-4.67.08a15.84,15.84,0,0,0-2.29.16,4.37,4.37,0,0,0-1.78.64,3.54,3.54,0,0,0-1.36,1.91,8.81,8.81,0,0,0-.42,2.23c-.05.78-.07,1.55-.1,2.33v.08H9.66c-.83,0-1.66,0-2.49,0a2.29,2.29,0,0,1-1.74-.73,5.47,5.47,0,0,1-1.16-1.85,10.76,10.76,0,0,1-.7-2.86,13.58,13.58,0,0,1,0-3,10,10,0,0,1,1.05-3.74,4.14,4.14,0,0,1,1.21-1.47,2.09,2.09,0,0,1,1.25-.4H17.49V9.8Zm3.15-1.51A1.29,1.29,0,1,0,12.35,7,1.29,1.29,0,0,0,13.64,8.28Z"/></svg>