<svg xmlns="http://www.w3.org/2000/svg" viewBox="0 0 3009.61 2005.92"><defs><style>.cls-1{fill:#262b32;}.cls-2{fill:#2e333a;}.cls-3{fill:#f4f4f8;}.cls-4{fill:#23b59c;}.cls-5{fill:#fff;}</style></defs><title>usuario</title><g id="pagina_web" data-name="pagina web"><rect class="cls-1" width="3009.61" height="2005.92" rx="30.01" ry="30.01"/><rect class="cls-1" x="40.12" y="26.74" width="2929.37" height="1952.44" rx="30.01" ry="30.01"/><path class="cls-2" d="M2939.71,1979.18h-125V26.74h125a29.79,29.79,0,0,1,29.79,29.79V1949.4A29.79,29.79,0,0,1,2939.71,1979.18Z"/><rect class="cls-3" x="2890.07" y="100.58" width="4" height="43.61" transform="translate(760.55 2080.87) rotate(-45)"/><rect class="cls-3" x="2870.27" y="120.38" width="43.61" height="4" transform="translate(760.36 2080.67) rotate(-45)"/><path class="cls-3" d="M2909.49,251.89h-34.83V217.05h34.83Zm-30.83-4h26.83V221.05h-26.83Z"/><rect class="cls-3" x="2876.66" y="329.14" width="30.83" height="4"/><rect class="cls-4" x="2815.66" y="364.36" width="154.83" height="122.56"/><rect class="cls-2" x="2057" y="26.74" width="757.66" height="1952.44"/><rect class="cls-1" x="2173.95" y="1032.61" width="189.87" height="189.87" rx="10.9" ry="10.9"/><rect class="cls-1" x="2399.37" y="1032.61" width="189.87" height="189.87" rx="10.9" ry="10.9"/><rect class="cls-1" x="2624.78" y="1032.61" width="189.87" height="189.87" rx="10.9" ry="10.9"/><rect class="cls-1" x="2173.95" y="1249.74" width="189.87" height="189.87" rx="10.9" ry="10.9"/><rect class="cls-1" x="2399.37" y="1249.74" width="189.87" height="189.87" rx="10.9" ry="10.9"/><rect class="cls-1" x="2624.78" y="1249.74" width="189.87" height="189.87" rx="10.9" ry="10.9"/><rect class="cls-1" x="2173.95" y="1466.86" width="189.87" height="189.87" rx="10.9" ry="10.9"/><rect class="cls-1" x="2399.37" y="1466.86" width="189.87" height="189.87" rx="10.9" ry="10.9"/><rect class="cls-1" x="2624.78" y="1466.86" width="189.87" height="189.87" rx="10.9" ry="10.9"/><rect class="cls-2" x="376.67" y="355.51" width="393.94" height="393.94" rx="10.9" ry="10.9"/><rect class="cls-2" x="844.36" y="355.51" width="393.94" height="393.94" rx="10.9" ry="10.9"/><rect class="cls-2" x="1312.05" y="355.51" width="393.94" height="393.94" rx="10.9" ry="10.9"/><rect class="cls-2" x="376.67" y="805.99" width="393.94" height="393.94" rx="10.9" ry="10.9"/><rect class="cls-2" x="844.36" y="805.99" width="393.94" height="393.94" rx="10.9" ry="10.9"/><rect class="cls-2" x="1312.05" y="805.99" width="393.94" height="393.94" rx="10.9" ry="10.9"/><rect class="cls-2" x="376.67" y="1256.47" width="393.94" height="393.94" rx="10.9" ry="10.9"/><rect class="cls-2" x="844.36" y="1256.47" width="393.94" height="393.94" rx="10.9" ry="10.9"/><rect class="cls-2" x="1312.05" y="1256.47" width="393.94" height="393.94" rx="10.9" ry="10.9"/><rect class="cls-2" x="2302" y="242.34" width="384.6" height="384.6" rx="42.97" ry="42.97"/><path class="cls-1" d="M2582.21,499.17h-57.09l-61-32.82-27.69-11.2-12.3-21.36-57.53,2.62-28-43.28,4-42.51.21-.24,44-50.51,60.67-30.27,68.26-8.53,53.86,19.7,41.6,21.12.15.29L2650,378.71l-17.92,67.36-18.5,3.3Zm-56.6-2h55.51l31.29-49.62,18.13-3.24,17.4-65.43-38.28-75.58-40.92-20.79-53.31-19.49-67.62,8.45L2388,301.44l-43.49,50-3.86,41.21,27,41.76,57.59-2.62,12.56,21.81,27.16,11Z"/><circle class="cls-1" cx="2417.11" cy="332.94" r="7.36"/><circle class="cls-1" cx="2481.53" cy="402.85" r="7.36"/><circle class="cls-1" cx="2387.52" cy="385.84" r="7.36"/><circle class="cls-1" cx="2563.52" cy="425.09" r="7.36"/><circle class="cls-1" cx="2447.94" cy="271.49" r="7.36"/><circle class="cls-1" cx="2649" cy="378.49" r="7.36"/><circle class="cls-1" cx="2631.66" cy="445.86" r="7.36"/><circle class="cls-1" cx="2581.62" cy="498.19" r="7.36"/><circle class="cls-1" cx="2525.21" cy="498.19" r="7.36"/><circle class="cls-1" cx="2437.89" cy="454.69" r="7.36"/><circle class="cls-1" cx="2424.48" cy="432.45" r="7.36"/><circle class="cls-1" cx="2367.24" cy="434.41" r="7.36"/><circle class="cls-1" cx="2339.61" cy="393.2" r="7.36"/><circle class="cls-1" cx="2343.21" cy="351.34" r="7.36"/><polygon class="cls-1" points="2343.44 352.29 2342.97 350.38 2415.34 332.37 2387.82 300.21 2389.31 298.94 2418.89 333.5 2343.44 352.29"/><polygon class="cls-1" points="2497.61 334.97 2447.17 272.1 2448.7 270.87 2496.67 330.67 2514.18 261.82 2516.08 262.31 2497.61 334.97"/><polygon class="cls-1" points="2367.99 435.77 2366.18 435.02 2385.95 387.07 2339.76 394.17 2339.46 392.23 2389.09 384.6 2367.99 435.77"/><path class="cls-1" d="M2385.14,388.09l31.4-56.14,84-.12Zm32.55-54.18-27.78,49.67L2492,333.81Z"/><rect class="cls-1" x="2420.87" y="416.67" width="64.28" height="1.96" transform="translate(83.2 1176.38) rotate(-27.42)"/><path class="cls-1" d="M2525.15,500.42l-44.3-96.69-93.5-16.92.35-1.93,92.16,16.68-.09-.19,1,.28,14.77-70.23,61.51,28.93,7.59,66.08-.64-.17Zm-41.85-96.07,42,91.62,36.81-70.25Zm-.61-2.2,79.69,21.62-7.14-62.12L2497,334.24Z"/><polygon class="cls-1" points="2648.81 379.46 2554.21 361.62 2607.58 304.75 2496.51 333.77 2496.01 331.87 2613.67 301.13 2558.09 360.36 2649.18 377.53 2648.81 379.46"/><rect class="cls-1" x="2587.29" y="409.6" width="1.96" height="55.03" transform="translate(1064.34 2574.36) rotate(-64.1)"/><circle class="cls-1" cx="2388.56" cy="299.58" r="7.36"/><circle class="cls-1" cx="2515.13" cy="262.06" r="7.36"/><circle class="cls-1" cx="2496.26" cy="332.82" r="7.36"/><circle class="cls-1" cx="2556.15" cy="360.99" r="7.36"/><circle class="cls-1" cx="2613.02" cy="449.13" r="7.36"/><circle class="cls-1" cx="2610.62" cy="302.94" r="7.36"/><polygon class="cls-5" points="2900.93 436.87 2899.59 438.21 2883.22 421.85 2899.59 405.48 2900.93 406.82 2885.91 421.85 2900.93 436.87"/><polygon class="cls-5" points="2899.59 441.82 2879.61 421.84 2899.59 401.87 2904.54 406.82 2889.52 421.84 2904.54 436.87 2899.59 441.82"/><rect class="cls-4" x="2174.77" y="858.12" width="641.1" height="100" rx="12.27" ry="12.27"/><path class="cls-3" d="M2306.1,890.38h-11.48v-4.14h27.94v4.14H2311V924h-4.93Z"/><path class="cls-3" d="M2358,916.59c0,2.8.06,5.26.22,7.39h-4.37l-.28-4.42h-.11a10.2,10.2,0,0,1-9,5c-4.26,0-9.35-2.35-9.35-11.87V896.88H2340v15c0,5.15,1.57,8.62,6,8.62a7.12,7.12,0,0,0,6.5-4.48,7.2,7.2,0,0,0,.45-2.52V896.88H2358Z"/><path class="cls-3" d="M2400.4,905.72c0-3.47-.11-6.27-.22-8.85h4.42l.22,4.65h.11a10.66,10.66,0,0,1,9.63-5.26c6.55,0,11.48,5.54,11.48,13.78,0,9.74-5.94,14.56-12.32,14.56a9.5,9.5,0,0,1-8.34-4.26h-.11v14.73h-4.87Zm4.87,7.22a11.16,11.16,0,0,0,.22,2,7.6,7.6,0,0,0,7.39,5.77c5.21,0,8.23-4.26,8.23-10.47,0-5.43-2.86-10.08-8.06-10.08a7.86,7.86,0,0,0-7.45,6.1,8,8,0,0,0-.34,2Z"/><path class="cls-3" d="M2443.46,905.33c0-3.19-.06-5.94-.22-8.46h4.31l.17,5.32h.22c1.23-3.64,4.2-5.94,7.5-5.94a5.32,5.32,0,0,1,1.4.17v4.65a7.4,7.4,0,0,0-1.68-.17c-3.47,0-5.94,2.63-6.61,6.33a13.94,13.94,0,0,0-.22,2.3V924h-4.87Z"/><path class="cls-3" d="M2496.94,910.2c0,10-6.94,14.39-13.5,14.39-7.34,0-13-5.38-13-13.94,0-9.07,5.94-14.39,13.44-14.39C2491.68,896.26,2496.94,901.92,2496.94,910.2Zm-21.5.28c0,5.94,3.42,10.42,8.23,10.42s8.23-4.42,8.23-10.53c0-4.59-2.3-10.42-8.12-10.42S2475.44,905.33,2475.44,910.48Z"/><path class="cls-3" d="M2537.71,896.88c-.11,2-.22,4.14-.22,7.45v15.74c0,6.22-1.23,10-3.86,12.38s-6.44,3.25-9.86,3.25c-3.25,0-6.83-.78-9-2.24l1.23-3.75a15.28,15.28,0,0,0,8,2.13c5,0,8.74-2.63,8.74-9.46v-3h-.11a9.67,9.67,0,0,1-8.62,4.54c-6.72,0-11.54-5.71-11.54-13.22,0-9.18,6-14.39,12.21-14.39,4.7,0,7.28,2.46,8.46,4.7h.11l.22-4.09Zm-5.1,10.7a7,7,0,0,0-.28-2.24,7.1,7.1,0,0,0-6.89-5.21c-4.7,0-8.06,4-8.06,10.25,0,5.32,2.69,9.74,8,9.74a7.21,7.21,0,0,0,6.83-5,8.59,8.59,0,0,0,.39-2.63Z"/><path class="cls-3" d="M2556.53,905.33c0-3.19-.06-5.94-.22-8.46h4.31l.17,5.32h.22c1.23-3.64,4.2-5.94,7.5-5.94a5.33,5.33,0,0,1,1.4.17v4.65a7.4,7.4,0,0,0-1.68-.17c-3.47,0-5.94,2.63-6.61,6.33a13.94,13.94,0,0,0-.22,2.3V924h-4.87Z"/><path class="cls-3" d="M2588.22,911.32c.11,6.66,4.37,9.41,9.3,9.41a17.82,17.82,0,0,0,7.5-1.4l.84,3.53a22,22,0,0,1-9,1.68c-8.34,0-13.33-5.49-13.33-13.66s4.82-14.62,12.71-14.62c8.85,0,11.2,7.78,11.2,12.77a18.65,18.65,0,0,1-.17,2.3Zm14.45-3.53c.06-3.14-1.29-8-6.83-8-5,0-7.17,4.59-7.56,8Z"/><path class="cls-3" d="M2624.06,918.94a12.91,12.91,0,0,0,6.5,2c3.58,0,5.26-1.79,5.26-4s-1.4-3.64-5-5c-4.87-1.74-7.17-4.42-7.17-7.67,0-4.37,3.53-8,9.35-8a13.53,13.53,0,0,1,6.66,1.68l-1.23,3.58a10.55,10.55,0,0,0-5.54-1.57c-2.91,0-4.54,1.68-4.54,3.7,0,2.24,1.62,3.25,5.15,4.59,4.7,1.79,7.11,4.14,7.11,8.18,0,4.76-3.7,8.12-10.14,8.12a15.46,15.46,0,0,1-7.62-1.85Z"/><path class="cls-3" d="M2682.64,910.2c0,10-6.94,14.39-13.5,14.39-7.34,0-13-5.38-13-13.94,0-9.07,5.94-14.39,13.44-14.39C2677.37,896.26,2682.64,901.92,2682.64,910.2Zm-21.5.28c0,5.94,3.42,10.42,8.23,10.42s8.23-4.42,8.23-10.53c0-4.59-2.3-10.42-8.12-10.42S2661.13,905.33,2661.13,910.48Z"/></g></svg>